%TF.GenerationSoftware,KiCad,Pcbnew,10.0.4*%
%TF.CreationDate,2026-07-06T14:32:58+02:00*%
%TF.ProjectId,spinkovacka,7370696e-6b6f-4766-9163-6b612e6b6963,rev?*%
%TF.SameCoordinates,Original*%
%TF.FileFunction,Copper,L1,Top*%
%TF.FilePolarity,Positive*%
%FSLAX46Y46*%
G04 Gerber Fmt 4.6, Leading zero omitted, Abs format (unit mm)*
G04 Created by KiCad (PCBNEW 10.0.4) date 2026-07-06 14:32:58*
%MOMM*%
%LPD*%
G01*
G04 APERTURE LIST*
G04 Aperture macros list*
%AMRoundRect*
0 Rectangle with rounded corners*
0 $1 Rounding radius*
0 $2 $3 $4 $5 $6 $7 $8 $9 X,Y pos of 4 corners*
0 Add a 4 corners polygon primitive as box body*
4,1,4,$2,$3,$4,$5,$6,$7,$8,$9,$2,$3,0*
0 Add four circle primitives for the rounded corners*
1,1,$1+$1,$2,$3*
1,1,$1+$1,$4,$5*
1,1,$1+$1,$6,$7*
1,1,$1+$1,$8,$9*
0 Add four rect primitives between the rounded corners*
20,1,$1+$1,$2,$3,$4,$5,0*
20,1,$1+$1,$4,$5,$6,$7,0*
20,1,$1+$1,$6,$7,$8,$9,0*
20,1,$1+$1,$8,$9,$2,$3,0*%
G04 Aperture macros list end*
%TA.AperFunction,SMDPad,CuDef*%
%ADD10RoundRect,0.150000X-0.737500X-0.150000X0.737500X-0.150000X0.737500X0.150000X-0.737500X0.150000X0*%
%TD*%
%TA.AperFunction,HeatsinkPad*%
%ADD11C,0.600000*%
%TD*%
%TA.AperFunction,HeatsinkPad*%
%ADD12R,2.950000X4.900000*%
%TD*%
%TA.AperFunction,SMDPad,CuDef*%
%ADD13RoundRect,0.250000X0.325000X0.650000X-0.325000X0.650000X-0.325000X-0.650000X0.325000X-0.650000X0*%
%TD*%
%TA.AperFunction,SMDPad,CuDef*%
%ADD14RoundRect,0.250000X0.400000X0.750000X-0.400000X0.750000X-0.400000X-0.750000X0.400000X-0.750000X0*%
%TD*%
%TA.AperFunction,SMDPad,CuDef*%
%ADD15RoundRect,0.250000X0.750000X0.750000X-0.750000X0.750000X-0.750000X-0.750000X0.750000X-0.750000X0*%
%TD*%
%TA.AperFunction,ComponentPad*%
%ADD16RoundRect,2.500000X-0.000010X-9.500000X0.000010X-9.500000X0.000010X9.500000X-0.000010X9.500000X0*%
%TD*%
%TA.AperFunction,SMDPad,CuDef*%
%ADD17RoundRect,0.250000X0.450000X-0.262500X0.450000X0.262500X-0.450000X0.262500X-0.450000X-0.262500X0*%
%TD*%
%TA.AperFunction,SMDPad,CuDef*%
%ADD18RoundRect,0.250000X-0.450000X0.262500X-0.450000X-0.262500X0.450000X-0.262500X0.450000X0.262500X0*%
%TD*%
%TA.AperFunction,ComponentPad*%
%ADD19RoundRect,0.250000X-0.625000X0.350000X-0.625000X-0.350000X0.625000X-0.350000X0.625000X0.350000X0*%
%TD*%
%TA.AperFunction,ComponentPad*%
%ADD20O,1.750000X1.200000*%
%TD*%
%TA.AperFunction,ComponentPad*%
%ADD21RoundRect,0.250000X0.350000X0.625000X-0.350000X0.625000X-0.350000X-0.625000X0.350000X-0.625000X0*%
%TD*%
%TA.AperFunction,ComponentPad*%
%ADD22O,1.200000X1.750000*%
%TD*%
%TA.AperFunction,SMDPad,CuDef*%
%ADD23RoundRect,0.150000X0.587500X0.150000X-0.587500X0.150000X-0.587500X-0.150000X0.587500X-0.150000X0*%
%TD*%
%TA.AperFunction,SMDPad,CuDef*%
%ADD24RoundRect,0.250000X0.262500X0.450000X-0.262500X0.450000X-0.262500X-0.450000X0.262500X-0.450000X0*%
%TD*%
%TA.AperFunction,SMDPad,CuDef*%
%ADD25RoundRect,0.250000X-0.262500X-0.450000X0.262500X-0.450000X0.262500X0.450000X-0.262500X0.450000X0*%
%TD*%
%TA.AperFunction,SMDPad,CuDef*%
%ADD26RoundRect,0.250000X-1.000000X-1.550000X1.000000X-1.550000X1.000000X1.550000X-1.000000X1.550000X0*%
%TD*%
%TA.AperFunction,SMDPad,CuDef*%
%ADD27RoundRect,0.250000X-0.650000X0.325000X-0.650000X-0.325000X0.650000X-0.325000X0.650000X0.325000X0*%
%TD*%
%TA.AperFunction,SMDPad,CuDef*%
%ADD28R,0.900000X1.700000*%
%TD*%
%TA.AperFunction,SMDPad,CuDef*%
%ADD29R,1.200000X1.200000*%
%TD*%
%TA.AperFunction,SMDPad,CuDef*%
%ADD30RoundRect,0.250000X0.375000X0.625000X-0.375000X0.625000X-0.375000X-0.625000X0.375000X-0.625000X0*%
%TD*%
%TA.AperFunction,SMDPad,CuDef*%
%ADD31RoundRect,0.150000X-0.587500X-0.150000X0.587500X-0.150000X0.587500X0.150000X-0.587500X0.150000X0*%
%TD*%
%TA.AperFunction,SMDPad,CuDef*%
%ADD32RoundRect,0.250000X1.500000X0.550000X-1.500000X0.550000X-1.500000X-0.550000X1.500000X-0.550000X0*%
%TD*%
%TA.AperFunction,SMDPad,CuDef*%
%ADD33RoundRect,0.250000X-0.325000X-1.100000X0.325000X-1.100000X0.325000X1.100000X-0.325000X1.100000X0*%
%TD*%
%TA.AperFunction,SMDPad,CuDef*%
%ADD34RoundRect,0.150000X-0.512500X-0.150000X0.512500X-0.150000X0.512500X0.150000X-0.512500X0.150000X0*%
%TD*%
%TA.AperFunction,SMDPad,CuDef*%
%ADD35RoundRect,0.250000X-0.850000X-0.350000X0.850000X-0.350000X0.850000X0.350000X-0.850000X0.350000X0*%
%TD*%
%TA.AperFunction,SMDPad,CuDef*%
%ADD36RoundRect,0.249997X-2.950003X-2.650003X2.950003X-2.650003X2.950003X2.650003X-2.950003X2.650003X0*%
%TD*%
%TA.AperFunction,SMDPad,CuDef*%
%ADD37R,1.500000X0.900000*%
%TD*%
%TA.AperFunction,SMDPad,CuDef*%
%ADD38R,0.900000X1.500000*%
%TD*%
%TA.AperFunction,HeatsinkPad*%
%ADD39R,0.900000X0.900000*%
%TD*%
%TA.AperFunction,SMDPad,CuDef*%
%ADD40RoundRect,0.250000X0.650000X-0.325000X0.650000X0.325000X-0.650000X0.325000X-0.650000X-0.325000X0*%
%TD*%
%TA.AperFunction,ComponentPad*%
%ADD41RoundRect,0.250000X0.600000X0.750000X-0.600000X0.750000X-0.600000X-0.750000X0.600000X-0.750000X0*%
%TD*%
%TA.AperFunction,ComponentPad*%
%ADD42O,1.700000X2.000000*%
%TD*%
%TA.AperFunction,ViaPad*%
%ADD43C,0.600000*%
%TD*%
%TA.AperFunction,ViaPad*%
%ADD44C,0.800000*%
%TD*%
%TA.AperFunction,ViaPad*%
%ADD45C,1.000000*%
%TD*%
%TA.AperFunction,Conductor*%
%ADD46C,0.350000*%
%TD*%
%TA.AperFunction,Conductor*%
%ADD47C,2.000000*%
%TD*%
%TA.AperFunction,Conductor*%
%ADD48C,1.000000*%
%TD*%
%TA.AperFunction,Conductor*%
%ADD49C,0.500000*%
%TD*%
%TA.AperFunction,Conductor*%
%ADD50C,2.500000*%
%TD*%
G04 APERTURE END LIST*
D10*
%TO.P,U2,1,IPROPI_1*%
%TO.N,/IPROPI*%
X66113500Y-94689000D03*
%TO.P,U2,2,IN2_2*%
%TO.N,/MOT_IN2*%
X66113500Y-95959000D03*
%TO.P,U2,3,IN1_3*%
%TO.N,/MOT_IN1*%
X66113500Y-97229000D03*
%TO.P,U2,4,VREF_4*%
%TO.N,+3.3V*%
X66113500Y-98499000D03*
%TO.P,U2,5,VM_5*%
%TO.N,VM*%
X71238500Y-98499000D03*
%TO.P,U2,6,OUT1_6*%
%TO.N,Net-(J1-Pin_1)*%
X71238500Y-97229000D03*
%TO.P,U2,7,GND_7*%
%TO.N,GND*%
X71238500Y-95959000D03*
%TO.P,U2,8,OUT2_8*%
%TO.N,Net-(J1-Pin_2)*%
X71238500Y-94689000D03*
D11*
%TO.P,U2,9,GND_9*%
%TO.N,GND*%
X68026000Y-94644000D03*
X68026000Y-95944000D03*
X68026000Y-97244000D03*
X68026000Y-98544000D03*
D12*
X68676000Y-96594000D03*
D11*
X69326000Y-94644000D03*
X69326000Y-95944000D03*
X69326000Y-97244000D03*
X69326000Y-98544000D03*
%TD*%
D13*
%TO.P,C1,1*%
%TO.N,VM*%
X73738000Y-101346000D03*
%TO.P,C1,2*%
%TO.N,GND*%
X70788000Y-101346000D03*
%TD*%
D14*
%TO.P,RV1,1,1_1*%
%TO.N,/IPROPI*%
X65525000Y-88360000D03*
D15*
%TO.P,RV1,2,2_2*%
X66675000Y-84360000D03*
D14*
%TO.P,RV1,3,3_3*%
%TO.N,Net-(R13-Pad1)*%
X67825000Y-88360000D03*
%TD*%
D16*
%TO.P,J5,1,Pin_1_1*%
%TO.N,VBAT*%
X106996000Y-95123000D03*
%TO.P,J5,2,Pin_2_2*%
%TO.N,GND*%
X82996000Y-95123000D03*
%TD*%
D17*
%TO.P,R3,1*%
%TO.N,Net-(D1-A)*%
X121158000Y-95429500D03*
%TO.P,R3,2*%
%TO.N,Net-(Q2-D)*%
X121158000Y-93604500D03*
%TD*%
D18*
%TO.P,R8,1*%
%TO.N,+3.3V*%
X74972000Y-71731500D03*
%TO.P,R8,2*%
%TO.N,/LSW_2*%
X74972000Y-73556500D03*
%TD*%
D19*
%TO.P,J3,1,Pin_1_1*%
%TO.N,+3.3V*%
X79290000Y-68642000D03*
D20*
%TO.P,J3,2,Pin_2_2*%
%TO.N,GND*%
X79290000Y-70642000D03*
%TO.P,J3,3,Pin_3_3*%
%TO.N,/LSW_1*%
X79290000Y-72642000D03*
%TO.P,J3,4,Pin_4_4*%
%TO.N,/LSW_2*%
X79290000Y-74642000D03*
%TD*%
D21*
%TO.P,J2,1,Pin_1_1*%
%TO.N,Net-(D4-K)*%
X117078000Y-79290000D03*
D22*
%TO.P,J2,2,Pin_2_2*%
%TO.N,GND*%
X115078000Y-79290000D03*
%TD*%
D23*
%TO.P,D4,1,A_1*%
%TO.N,Net-(Q2-D)*%
X121968500Y-85532000D03*
%TO.P,D4,2,A_2*%
%TO.N,/SWITCH*%
X121968500Y-83632000D03*
%TO.P,D4,3,K_3*%
%TO.N,Net-(D4-K)*%
X120093500Y-84582000D03*
%TD*%
D18*
%TO.P,R11,1*%
%TO.N,/DTR*%
X79121000Y-57611000D03*
%TO.P,R11,2*%
%TO.N,Net-(Q3-B)*%
X79121000Y-59436000D03*
%TD*%
D24*
%TO.P,R5,1*%
%TO.N,VM*%
X112268000Y-72009000D03*
%TO.P,R5,2*%
%TO.N,/BAT_VOLTAGE*%
X110443000Y-72009000D03*
%TD*%
D25*
%TO.P,R1,1*%
%TO.N,/IPROPI*%
X66016500Y-91186000D03*
%TO.P,R1,2*%
%TO.N,GND*%
X67841500Y-91186000D03*
%TD*%
D21*
%TO.P,J4,1,Pin_1_1*%
%TO.N,+3.3V*%
X83740000Y-54017000D03*
D22*
%TO.P,J4,2,Pin_2_2*%
%TO.N,GND*%
X81740000Y-54017000D03*
%TO.P,J4,3,Pin_3_3*%
%TO.N,/TXD0*%
X79740000Y-54017000D03*
%TO.P,J4,4,Pin_4_4*%
%TO.N,/RXD0*%
X77740000Y-54017000D03*
%TO.P,J4,5,Pin_5_5*%
%TO.N,/DTR*%
X75740000Y-54017000D03*
%TO.P,J4,6,Pin_6_6*%
%TO.N,/RTS*%
X73740000Y-54017000D03*
%TD*%
D13*
%TO.P,C4,1*%
%TO.N,Net-(U3-SW)*%
X92225000Y-76000000D03*
%TO.P,C4,2*%
%TO.N,Net-(U3-BST)*%
X89275000Y-76000000D03*
%TD*%
D26*
%TO.P,L1,1,1_1*%
%TO.N,Net-(U3-SW)*%
X93997000Y-79658000D03*
%TO.P,L1,2,2_2*%
%TO.N,+3.3V*%
X98697000Y-79658000D03*
%TD*%
D27*
%TO.P,C3,1*%
%TO.N,+3.3V*%
X65994000Y-101297000D03*
%TO.P,C3,2*%
%TO.N,GND*%
X65994000Y-104247000D03*
%TD*%
D18*
%TO.P,R13,1*%
%TO.N,Net-(R13-Pad1)*%
X70358000Y-89384500D03*
%TO.P,R13,2*%
%TO.N,GND*%
X70358000Y-91209500D03*
%TD*%
D13*
%TO.P,C8,1*%
%TO.N,/BAT_VOLTAGE*%
X111130500Y-69342000D03*
%TO.P,C8,2*%
%TO.N,GND*%
X108180500Y-69342000D03*
%TD*%
D18*
%TO.P,R10,1*%
%TO.N,+3.3V*%
X92075000Y-50014500D03*
%TO.P,R10,2*%
%TO.N,/EN*%
X92075000Y-51839500D03*
%TD*%
D17*
%TO.P,R4,1*%
%TO.N,+3.3V*%
X97028000Y-64158500D03*
%TO.P,R4,2*%
%TO.N,/SWITCH*%
X97028000Y-62333500D03*
%TD*%
D28*
%TO.P,SW1,1,1_1*%
%TO.N,Net-(D4-K)*%
X96696000Y-113538000D03*
%TO.P,SW1,2,2_2*%
%TO.N,GND*%
X93296000Y-113538000D03*
%TD*%
D18*
%TO.P,R15,1*%
%TO.N,/LED2*%
X117856000Y-69699500D03*
%TO.P,R15,2*%
%TO.N,Net-(LED2-K)*%
X117856000Y-71524500D03*
%TD*%
D29*
%TO.P,D1,1,K_1*%
%TO.N,VBAT*%
X116459000Y-93218000D03*
%TO.P,D1,2,A_2*%
%TO.N,Net-(D1-A)*%
X116459000Y-96018000D03*
%TD*%
D24*
%TO.P,R6,1*%
%TO.N,/BAT_VOLTAGE*%
X108585000Y-72009000D03*
%TO.P,R6,2*%
%TO.N,GND*%
X106760000Y-72009000D03*
%TD*%
D30*
%TO.P,LED1,1,K_1*%
%TO.N,Net-(LED1-K)*%
X91189000Y-113411000D03*
%TO.P,LED1,2,A_2*%
%TO.N,+3.3V*%
X88389000Y-113411000D03*
%TD*%
D31*
%TO.P,Q2,1,G_1*%
%TO.N,/ON_OFF*%
X117094000Y-87508000D03*
%TO.P,Q2,2,S_2*%
%TO.N,GND*%
X117094000Y-89408000D03*
%TO.P,Q2,3,D_3*%
%TO.N,Net-(Q2-D)*%
X118969000Y-88458000D03*
%TD*%
D32*
%TO.P,C2,1*%
%TO.N,VM*%
X75090000Y-106680000D03*
%TO.P,C2,2*%
%TO.N,GND*%
X69690000Y-106680000D03*
%TD*%
D30*
%TO.P,LED2,1,K_1*%
%TO.N,Net-(LED2-K)*%
X101603000Y-113411000D03*
%TO.P,LED2,2,A_2*%
%TO.N,+3.3V*%
X98803000Y-113411000D03*
%TD*%
D33*
%TO.P,C7,1*%
%TO.N,VM*%
X88014000Y-84328000D03*
%TO.P,C7,2*%
%TO.N,GND*%
X90964000Y-84328000D03*
%TD*%
D18*
%TO.P,R14,1*%
%TO.N,/LED1*%
X115443000Y-69699500D03*
%TO.P,R14,2*%
%TO.N,Net-(LED1-K)*%
X115443000Y-71524500D03*
%TD*%
D34*
%TO.P,U4,1*%
%TO.N,/LSW_1*%
X86111500Y-69662000D03*
%TO.P,U4,2,GND_2*%
%TO.N,GND*%
X86111500Y-70612000D03*
%TO.P,U4,3*%
%TO.N,/LSW_2*%
X86111500Y-71562000D03*
%TO.P,U4,4*%
%TO.N,/LIMIT_SW_2*%
X88386500Y-71562000D03*
%TO.P,U4,5,VCC_5*%
%TO.N,+3.3V*%
X88386500Y-70612000D03*
%TO.P,U4,6*%
%TO.N,/LIMIT_SW_1*%
X88386500Y-69662000D03*
%TD*%
D18*
%TO.P,R9,1*%
%TO.N,+3.3V*%
X74972000Y-68048500D03*
%TO.P,R9,2*%
%TO.N,/LSW_1*%
X74972000Y-69873500D03*
%TD*%
D35*
%TO.P,Q1,1,G_1*%
%TO.N,Net-(D1-A)*%
X113991000Y-99929500D03*
D36*
%TO.P,Q1,2,D_2*%
%TO.N,VM*%
X120291000Y-102209500D03*
D35*
%TO.P,Q1,3,S_3*%
%TO.N,VBAT*%
X113991000Y-104489500D03*
%TD*%
D13*
%TO.P,C5,1*%
%TO.N,+3.3V*%
X95963000Y-84455000D03*
%TO.P,C5,2*%
%TO.N,GND*%
X93013000Y-84455000D03*
%TD*%
D37*
%TO.P,U1,1,GND_1*%
%TO.N,GND*%
X99454000Y-48325000D03*
%TO.P,U1,2,VDD_2*%
%TO.N,+3.3V*%
X99454000Y-49595000D03*
%TO.P,U1,3,EN_3*%
%TO.N,/EN*%
X99454000Y-50865000D03*
%TO.P,U1,4,SENSOR_VP_4*%
%TO.N,unconnected-(U1-SENSOR_VP-Pad4)*%
X99454000Y-52135000D03*
%TO.P,U1,5,SENSOR_VN_5*%
%TO.N,unconnected-(U1-SENSOR_VN-Pad5)*%
X99454000Y-53405000D03*
%TO.P,U1,6,IO34_6*%
%TO.N,/LIMIT_SW_1*%
X99454000Y-54675000D03*
%TO.P,U1,7,IO35_7*%
%TO.N,/LIMIT_SW_2*%
X99454000Y-55945000D03*
%TO.P,U1,8,IO32_8*%
%TO.N,/IPROPI*%
X99454000Y-57215000D03*
%TO.P,U1,9,IO33_9*%
%TO.N,/BAT_VOLTAGE*%
X99454000Y-58485000D03*
%TO.P,U1,10,IO25_10*%
%TO.N,unconnected-(U1-IO25-Pad10)*%
X99454000Y-59755000D03*
%TO.P,U1,11,IO26_11*%
%TO.N,/ON_OFF*%
X99454000Y-61025000D03*
%TO.P,U1,12,IO27_12*%
%TO.N,/SWITCH*%
X99454000Y-62295000D03*
%TO.P,U1,13,IO14_13*%
%TO.N,unconnected-(U1-IO14-Pad13)*%
X99454000Y-63565000D03*
%TO.P,U1,14,IO12_14*%
%TO.N,unconnected-(U1-IO12-Pad14)*%
X99454000Y-64835000D03*
D38*
%TO.P,U1,15,GND_15*%
%TO.N,GND*%
X102489000Y-66085000D03*
%TO.P,U1,16,IO13_16*%
%TO.N,unconnected-(U1-IO13-Pad16)*%
X103759000Y-66085000D03*
%TO.P,U1,17,NC_17*%
%TO.N,unconnected-(U1-NC-Pad17)*%
X105029000Y-66085000D03*
%TO.P,U1,18,NC_18*%
%TO.N,unconnected-(U1-NC-Pad18)*%
X106299000Y-66085000D03*
%TO.P,U1,19,NC_19*%
%TO.N,unconnected-(U1-NC-Pad19)*%
X107569000Y-66085000D03*
%TO.P,U1,20,NC_20*%
%TO.N,unconnected-(U1-NC-Pad20)*%
X108839000Y-66085000D03*
%TO.P,U1,21,NC_21*%
%TO.N,unconnected-(U1-NC-Pad21)*%
X110109000Y-66085000D03*
%TO.P,U1,22,NC_22*%
%TO.N,unconnected-(U1-NC-Pad22)*%
X111379000Y-66085000D03*
%TO.P,U1,23,IO15_23*%
%TO.N,unconnected-(U1-IO15-Pad23)*%
X112649000Y-66085000D03*
%TO.P,U1,24,IO2_24*%
%TO.N,unconnected-(U1-IO2-Pad24)*%
X113919000Y-66085000D03*
D37*
%TO.P,U1,25,IO0_25*%
%TO.N,/GPIO0*%
X116954000Y-64835000D03*
%TO.P,U1,26,IO4_26*%
%TO.N,unconnected-(U1-IO4-Pad26)*%
X116954000Y-63565000D03*
%TO.P,U1,27,IO16_27*%
%TO.N,unconnected-(U1-IO16-Pad27)*%
X116954000Y-62295000D03*
%TO.P,U1,28,IO17_28*%
%TO.N,unconnected-(U1-IO17-Pad28)*%
X116954000Y-61025000D03*
%TO.P,U1,29,IO5_29*%
%TO.N,unconnected-(U1-IO5-Pad29)*%
X116954000Y-59755000D03*
%TO.P,U1,30,IO18_30*%
%TO.N,unconnected-(U1-IO18-Pad30)*%
X116954000Y-58485000D03*
%TO.P,U1,31,IO19_31*%
%TO.N,/LED2*%
X116954000Y-57215000D03*
%TO.P,U1,32,NC_32*%
%TO.N,unconnected-(U1-NC-Pad32)*%
X116954000Y-55945000D03*
%TO.P,U1,33,IO21_33*%
%TO.N,/LED1*%
X116954000Y-54675000D03*
%TO.P,U1,34,RXD0/IO3_34*%
%TO.N,/RXD0*%
X116954000Y-53405000D03*
%TO.P,U1,35,TXD0/IO1_35*%
%TO.N,/TXD0*%
X116954000Y-52135000D03*
%TO.P,U1,36,IO22_36*%
%TO.N,/MOT_IN1*%
X116954000Y-50865000D03*
%TO.P,U1,37,IO23_37*%
%TO.N,/MOT_IN2*%
X116954000Y-49595000D03*
%TO.P,U1,38,GND_38*%
%TO.N,GND*%
X116954000Y-48325000D03*
D39*
%TO.P,U1,39,GND_39*%
X105304000Y-54645000D03*
D11*
X105304000Y-55345000D03*
D39*
X105304000Y-56045000D03*
D11*
X105304000Y-56745000D03*
D39*
X105304000Y-57445000D03*
D11*
X106004000Y-54645000D03*
X106004000Y-56045000D03*
X106004000Y-57445000D03*
D39*
X106704000Y-54645000D03*
D11*
X106704000Y-55345000D03*
D39*
X106704000Y-56045000D03*
D11*
X106704000Y-56745000D03*
D39*
X106704000Y-57445000D03*
D11*
X107404000Y-54645000D03*
X107404000Y-56045000D03*
X107404000Y-57445000D03*
D39*
X108104000Y-54645000D03*
D11*
X108104000Y-55345000D03*
D39*
X108104000Y-56045000D03*
D11*
X108104000Y-56745000D03*
D39*
X108104000Y-57445000D03*
%TD*%
D27*
%TO.P,C12,1*%
%TO.N,VBAT*%
X113665000Y-93140000D03*
%TO.P,C12,2*%
%TO.N,Net-(D1-A)*%
X113665000Y-96090000D03*
%TD*%
D40*
%TO.P,C10,1*%
%TO.N,+3.3V*%
X95663000Y-51220000D03*
%TO.P,C10,2*%
%TO.N,GND*%
X95663000Y-48270000D03*
%TD*%
%TO.P,C9,1*%
%TO.N,/EN*%
X89154000Y-52402000D03*
%TO.P,C9,2*%
%TO.N,GND*%
X89154000Y-49452000D03*
%TD*%
D31*
%TO.P,Q3,1,B_1*%
%TO.N,Net-(Q3-B)*%
X78600500Y-62133000D03*
%TO.P,Q3,2,E_2*%
%TO.N,/RTS*%
X78600500Y-64033000D03*
%TO.P,Q3,3,C_3*%
%TO.N,/EN*%
X80475500Y-63083000D03*
%TD*%
D18*
%TO.P,R7,1*%
%TO.N,/ON_OFF*%
X113157000Y-87479500D03*
%TO.P,R7,2*%
%TO.N,GND*%
X113157000Y-89304500D03*
%TD*%
D34*
%TO.P,U3,1,FB_1*%
%TO.N,+3.3V*%
X88905500Y-78933000D03*
%TO.P,U3,2,EN_2*%
%TO.N,VM*%
X88905500Y-79883000D03*
%TO.P,U3,3,IN_3*%
X88905500Y-80833000D03*
%TO.P,U3,4,GND_4*%
%TO.N,GND*%
X91180500Y-80833000D03*
%TO.P,U3,5,SW_5*%
%TO.N,Net-(U3-SW)*%
X91180500Y-79883000D03*
%TO.P,U3,6,BST_6*%
%TO.N,Net-(U3-BST)*%
X91180500Y-78933000D03*
%TD*%
D13*
%TO.P,C6,1*%
%TO.N,+3.3V*%
X95963000Y-86995000D03*
%TO.P,C6,2*%
%TO.N,GND*%
X93013000Y-86995000D03*
%TD*%
D18*
%TO.P,R2,1*%
%TO.N,VBAT*%
X118872000Y-93575500D03*
%TO.P,R2,2*%
%TO.N,Net-(D1-A)*%
X118872000Y-95400500D03*
%TD*%
D17*
%TO.P,R12,1*%
%TO.N,/RTS*%
X75395500Y-64056500D03*
%TO.P,R12,2*%
%TO.N,Net-(Q4-B)*%
X75395500Y-62231500D03*
%TD*%
D23*
%TO.P,Q4,1,B_1*%
%TO.N,Net-(Q4-B)*%
X76248500Y-59666500D03*
%TO.P,Q4,2,E_2*%
%TO.N,/DTR*%
X76248500Y-57766500D03*
%TO.P,Q4,3,C_3*%
%TO.N,/GPIO0*%
X74373500Y-58716500D03*
%TD*%
D41*
%TO.P,J1,1,Pin_1_1*%
%TO.N,Net-(J1-Pin_1)*%
X75692000Y-83058000D03*
D42*
%TO.P,J1,2,Pin_2_2*%
%TO.N,Net-(J1-Pin_2)*%
X73192000Y-83058000D03*
%TD*%
D43*
%TO.N,GND*%
X68580000Y-100584000D03*
X68580000Y-99568000D03*
D44*
X97917000Y-48260000D03*
D43*
X68580000Y-101600000D03*
X69596000Y-102616000D03*
X69596000Y-99568000D03*
X69596000Y-101600000D03*
X65659000Y-105537000D03*
D44*
X90932000Y-86487000D03*
X106783500Y-70231000D03*
X115062000Y-89281000D03*
D43*
X69596000Y-100584000D03*
X69088000Y-103632000D03*
D44*
X95885000Y-48260000D03*
D43*
X66675000Y-105537000D03*
D44*
X91948000Y-86487000D03*
X96901000Y-48260000D03*
D45*
X102489000Y-64516000D03*
D44*
X93218000Y-111125000D03*
D43*
X68199000Y-93218000D03*
D44*
X90551000Y-82169000D03*
D45*
X115570000Y-48325000D03*
D43*
X66675000Y-106426000D03*
D44*
X91694000Y-82169000D03*
D43*
X69215000Y-93218000D03*
D44*
X91948000Y-87630000D03*
D43*
X68580000Y-102616000D03*
D44*
%TO.N,/IPROPI*%
X96647000Y-58928000D03*
X92964000Y-62357000D03*
%TO.N,+3.3V*%
X97282000Y-83341000D03*
X97282000Y-88646000D03*
X97282000Y-87630000D03*
X97750000Y-112250000D03*
X86868000Y-113411000D03*
X89662000Y-70612000D03*
X95123000Y-49784000D03*
X97282000Y-84328000D03*
X97409000Y-49784000D03*
X87884000Y-78105000D03*
D45*
X82677000Y-68580000D03*
D44*
X97282000Y-86614000D03*
X96266000Y-49784000D03*
X69723000Y-112141000D03*
D45*
X90551000Y-103060500D03*
D44*
X97282000Y-85344000D03*
%TO.N,Net-(D4-K)*%
X95750000Y-111000000D03*
%TO.N,/SWITCH*%
X101727000Y-61468000D03*
X97155000Y-61087000D03*
%TO.N,/TXD0*%
X102870000Y-53721000D03*
X95377000Y-53721000D03*
%TO.N,/RXD0*%
X94742000Y-54610000D03*
X103375627Y-54602882D03*
%TO.N,/MOT_IN2*%
X101346000Y-57912000D03*
X93091000Y-60833000D03*
%TO.N,/MOT_IN1*%
X102108000Y-56896000D03*
X92837000Y-59690000D03*
%TO.N,/LED2*%
X117856000Y-68199000D03*
X115570000Y-57150000D03*
%TO.N,Net-(LED2-K)*%
X117856000Y-72898000D03*
X103000000Y-113411000D03*
%TO.N,Net-(LED1-K)*%
X91250000Y-111750000D03*
X115443000Y-73025000D03*
%TO.N,/LED1*%
X119126000Y-66929000D03*
X115443000Y-54737000D03*
%TO.N,/GPIO0*%
X103251000Y-56007000D03*
X94107000Y-55499000D03*
%TD*%
%TO.N,+3.3V*%
D46*
X97750000Y-112358000D02*
X98803000Y-113411000D01*
X97750000Y-112250000D02*
X97750000Y-112358000D01*
%TO.N,Net-(D4-K)*%
X95553000Y-112268000D02*
X96696000Y-113411000D01*
X95750000Y-111000000D02*
X95553000Y-111197000D01*
X95553000Y-111197000D02*
X95553000Y-112268000D01*
%TO.N,Net-(LED1-K)*%
X91189000Y-111811000D02*
X91250000Y-111750000D01*
X91189000Y-113411000D02*
X91189000Y-111811000D01*
%TO.N,Net-(LED2-K)*%
X103000000Y-113411000D02*
X101603000Y-113411000D01*
%TO.N,VM*%
D47*
X88138000Y-81534000D02*
X88011000Y-81661000D01*
D48*
X88014000Y-84103000D02*
X88011000Y-84106000D01*
D46*
X121310500Y-102209500D02*
X120291000Y-102209500D01*
D47*
X88011000Y-81661000D02*
X88011000Y-106934000D01*
D46*
X112268000Y-72009000D02*
X113030000Y-72009000D01*
X124968000Y-98552000D02*
X121310500Y-102209500D01*
X113030000Y-72009000D02*
X124968000Y-83947000D01*
D48*
X88011000Y-106934000D02*
X84963000Y-109982000D01*
X84963000Y-109982000D02*
X78392000Y-109982000D01*
D46*
X124968000Y-83947000D02*
X124968000Y-98552000D01*
D48*
X78392000Y-109982000D02*
X75090000Y-106680000D01*
D46*
X88905500Y-79883000D02*
X88905500Y-80833000D01*
%TO.N,GND*%
X106760000Y-70254500D02*
X106783500Y-70231000D01*
X107672500Y-69342000D02*
X106783500Y-70231000D01*
X114640500Y-89281000D02*
X114551000Y-89370500D01*
D48*
X97917000Y-48260000D02*
X97745000Y-48260000D01*
X95673000Y-48260000D02*
X99519000Y-48260000D01*
D49*
X90551000Y-49452000D02*
X91678000Y-48325000D01*
D46*
X115189000Y-89408000D02*
X117094000Y-89408000D01*
D49*
X95608000Y-48325000D02*
X95663000Y-48270000D01*
X71238500Y-95959000D02*
X69341000Y-95959000D01*
D48*
X102489000Y-64516000D02*
X102489000Y-66085000D01*
D46*
X114551000Y-89370500D02*
X113223000Y-89370500D01*
D48*
X95663000Y-48270000D02*
X95673000Y-48260000D01*
D49*
X89154000Y-49452000D02*
X90551000Y-49452000D01*
D46*
X113223000Y-89370500D02*
X113157000Y-89304500D01*
D48*
X115570000Y-48325000D02*
X116954000Y-48325000D01*
D46*
X106760000Y-72009000D02*
X106760000Y-70254500D01*
D49*
X69341000Y-95959000D02*
X69326000Y-95944000D01*
D46*
X115062000Y-89281000D02*
X115189000Y-89408000D01*
X115062000Y-89281000D02*
X114640500Y-89281000D01*
X93218000Y-112903000D02*
X93296000Y-112981000D01*
D49*
X91678000Y-48325000D02*
X95608000Y-48325000D01*
D48*
X80325000Y-70642000D02*
X84146762Y-70642000D01*
D46*
X93218000Y-111125000D02*
X93218000Y-112903000D01*
X93296000Y-112981000D02*
X93296000Y-113411000D01*
D48*
X84176762Y-70612000D02*
X85217000Y-70612000D01*
X97745000Y-48260000D02*
X97735000Y-48270000D01*
X84146762Y-70642000D02*
X84176762Y-70612000D01*
D46*
X108180500Y-69342000D02*
X107672500Y-69342000D01*
%TO.N,/IPROPI*%
X74295000Y-66802000D02*
X72136000Y-68961000D01*
X66675000Y-87210000D02*
X65525000Y-88360000D01*
X88519000Y-66802000D02*
X74295000Y-66802000D01*
X65525000Y-88360000D02*
X65525000Y-90694500D01*
X65525000Y-90694500D02*
X66016500Y-91186000D01*
X66675000Y-79438500D02*
X66675000Y-84360000D01*
X72136000Y-68961000D02*
X72136000Y-73977500D01*
X97725000Y-57215000D02*
X99454000Y-57215000D01*
X72136000Y-73977500D02*
X66675000Y-79438500D01*
X66675000Y-84360000D02*
X66675000Y-87210000D01*
X96647000Y-58293000D02*
X97725000Y-57215000D01*
X92964000Y-62357000D02*
X88519000Y-66802000D01*
X96647000Y-58928000D02*
X96647000Y-58293000D01*
X66113500Y-94689000D02*
X66113500Y-91283000D01*
X66113500Y-91283000D02*
X66016500Y-91186000D01*
%TO.N,Net-(R13-Pad1)*%
X67825000Y-88360000D02*
X69333500Y-88360000D01*
X69333500Y-88360000D02*
X70358000Y-89384500D01*
%TO.N,VBAT*%
D47*
X113006500Y-103505000D02*
X109347000Y-103505000D01*
D46*
X116459000Y-93218000D02*
X118514500Y-93218000D01*
D48*
X113665000Y-93140000D02*
X108979000Y-93140000D01*
D46*
X116381000Y-93140000D02*
X116459000Y-93218000D01*
D48*
X108979000Y-93140000D02*
X108296000Y-93823000D01*
D46*
X113665000Y-93140000D02*
X116381000Y-93140000D01*
D48*
X108296000Y-93823000D02*
X108296000Y-95123000D01*
D46*
X118514500Y-93218000D02*
X118872000Y-93575500D01*
%TO.N,Net-(D1-A)*%
X121158000Y-95429500D02*
X118901000Y-95429500D01*
X118254500Y-96018000D02*
X118872000Y-95400500D01*
X113991000Y-96416000D02*
X113665000Y-96090000D01*
X116387000Y-96090000D02*
X116459000Y-96018000D01*
X113665000Y-96090000D02*
X116387000Y-96090000D01*
X116459000Y-96018000D02*
X118254500Y-96018000D01*
X118901000Y-95429500D02*
X118872000Y-95400500D01*
X113991000Y-99929500D02*
X113991000Y-96416000D01*
%TO.N,Net-(Q2-D)*%
X121158000Y-88651000D02*
X120965000Y-88458000D01*
X121158000Y-93604500D02*
X121158000Y-88651000D01*
X121092000Y-88458000D02*
X121968500Y-87581500D01*
X118969000Y-88458000D02*
X120965000Y-88458000D01*
X120965000Y-88458000D02*
X121092000Y-88458000D01*
X121968500Y-87581500D02*
X121968500Y-85532000D01*
%TO.N,+3.3V*%
X78696500Y-68048500D02*
X74972000Y-68048500D01*
D48*
X90551000Y-103060500D02*
X90551000Y-93218000D01*
D46*
X74972000Y-68048500D02*
X74699500Y-68048500D01*
X97028000Y-73152000D02*
X98697000Y-74821000D01*
X66113500Y-98499000D02*
X66113500Y-101177500D01*
X73890500Y-71731500D02*
X74972000Y-71731500D01*
D48*
X90551000Y-93218000D02*
X93091000Y-90678000D01*
D46*
X79290000Y-68642000D02*
X78696500Y-68048500D01*
D48*
X93091000Y-90678000D02*
X96012000Y-90678000D01*
D46*
X64897000Y-112141000D02*
X69723000Y-112141000D01*
X66113500Y-101177500D02*
X65994000Y-101297000D01*
X74699500Y-68048500D02*
X73533000Y-69215000D01*
X88712000Y-78933000D02*
X88905500Y-78933000D01*
X64008000Y-103283000D02*
X64008000Y-111252000D01*
X73533000Y-69215000D02*
X73533000Y-71374000D01*
X73533000Y-71374000D02*
X73890500Y-71731500D01*
X65994000Y-101297000D02*
X64008000Y-103283000D01*
X92075000Y-50014500D02*
X97178500Y-50014500D01*
D48*
X82677000Y-68580000D02*
X82615000Y-68642000D01*
D49*
X88386500Y-70612000D02*
X89662000Y-70612000D01*
D46*
X98697000Y-74821000D02*
X98697000Y-79658000D01*
X97178500Y-50014500D02*
X97598000Y-49595000D01*
X87884000Y-78105000D02*
X88712000Y-78933000D01*
X97598000Y-49595000D02*
X99454000Y-49595000D01*
D48*
X82615000Y-68642000D02*
X79290000Y-68642000D01*
D46*
X64008000Y-111252000D02*
X64897000Y-112141000D01*
X97028000Y-64158500D02*
X97028000Y-73152000D01*
X88389000Y-113411000D02*
X86868000Y-113411000D01*
%TO.N,/LSW_2*%
X84140000Y-71562000D02*
X81060000Y-74642000D01*
X79595000Y-74642000D02*
X79561000Y-74676000D01*
X76731500Y-73556500D02*
X74972000Y-73556500D01*
X77851000Y-74676000D02*
X76731500Y-73556500D01*
X79561000Y-74676000D02*
X77851000Y-74676000D01*
X86111500Y-71562000D02*
X84140000Y-71562000D01*
X81060000Y-74642000D02*
X79595000Y-74642000D01*
%TO.N,/LSW_1*%
X79248000Y-72644000D02*
X79250000Y-72642000D01*
X75178500Y-69667000D02*
X78923000Y-69667000D01*
X74972000Y-69873500D02*
X75178500Y-69667000D01*
X77851000Y-71247000D02*
X79248000Y-72644000D01*
X78928000Y-69662000D02*
X86111500Y-69662000D01*
X77851000Y-69723000D02*
X77851000Y-71247000D01*
X78923000Y-69667000D02*
X78928000Y-69662000D01*
%TO.N,Net-(D4-K)*%
X117078000Y-79290000D02*
X117078000Y-81566500D01*
X117078000Y-81566500D02*
X120093500Y-84582000D01*
%TO.N,/SWITCH*%
X120650000Y-82313500D02*
X121968500Y-83632000D01*
X97155000Y-61087000D02*
X97155000Y-62206500D01*
X120650000Y-80518000D02*
X120650000Y-82313500D01*
X101727000Y-62484000D02*
X101473000Y-62738000D01*
X97028000Y-62333500D02*
X99415500Y-62333500D01*
X97155000Y-62206500D02*
X97028000Y-62333500D01*
X114681000Y-74549000D02*
X120650000Y-80518000D01*
X107061000Y-74549000D02*
X114681000Y-74549000D01*
X101473000Y-68961000D02*
X107061000Y-74549000D01*
X101473000Y-62738000D02*
X101473000Y-68961000D01*
X101727000Y-61468000D02*
X101727000Y-62484000D01*
X99415500Y-62333500D02*
X99454000Y-62295000D01*
%TO.N,/DTR*%
X79121000Y-57611000D02*
X78947000Y-57785000D01*
X76375000Y-57640000D02*
X76248500Y-57766500D01*
X78947000Y-57785000D02*
X76267000Y-57785000D01*
X75613000Y-56635500D02*
X75613000Y-57131000D01*
X75820000Y-53340000D02*
X75613000Y-53547000D01*
X75613000Y-53547000D02*
X75613000Y-56635500D01*
X75613000Y-57131000D02*
X76248500Y-57766500D01*
X76267000Y-57785000D02*
X76248500Y-57766500D01*
%TO.N,Net-(Q3-B)*%
X79030000Y-59527000D02*
X79030000Y-61703500D01*
X79121000Y-59436000D02*
X79030000Y-59527000D01*
X79030000Y-61703500D02*
X78600500Y-62133000D01*
%TO.N,/BAT_VOLTAGE*%
X114427000Y-64389000D02*
X115062000Y-65024000D01*
X108585000Y-72009000D02*
X110443000Y-72009000D01*
X111130500Y-71321500D02*
X110443000Y-72009000D01*
X112903000Y-69342000D02*
X111130500Y-69342000D01*
X115062000Y-67183000D02*
X112903000Y-69342000D01*
X111130500Y-69342000D02*
X111130500Y-71321500D01*
X100649000Y-58485000D02*
X106553000Y-64389000D01*
X106553000Y-64389000D02*
X114427000Y-64389000D01*
X99454000Y-58485000D02*
X100649000Y-58485000D01*
X115062000Y-65024000D02*
X115062000Y-67183000D01*
%TO.N,/TXD0*%
X95377000Y-53721000D02*
X93642710Y-53721000D01*
X104456000Y-52135000D02*
X116954000Y-52135000D01*
X102870000Y-53721000D02*
X104456000Y-52135000D01*
X93642710Y-53721000D02*
X91610710Y-55753000D01*
X79820000Y-55055000D02*
X79820000Y-53340000D01*
X91610710Y-55753000D02*
X80518000Y-55753000D01*
X80518000Y-55753000D02*
X79820000Y-55055000D01*
%TO.N,/RXD0*%
X113222000Y-53405000D02*
X116954000Y-53405000D01*
X94742000Y-54610000D02*
X93726000Y-54610000D01*
X105019510Y-52959000D02*
X112776000Y-52959000D01*
X79121000Y-56388000D02*
X77851000Y-55118000D01*
X112776000Y-52959000D02*
X113222000Y-53405000D01*
X103375627Y-54602882D02*
X105019510Y-52959000D01*
X77851000Y-55118000D02*
X77851000Y-53371000D01*
X91948000Y-56388000D02*
X79121000Y-56388000D01*
X93726000Y-54610000D02*
X91948000Y-56388000D01*
%TO.N,/RTS*%
X73780500Y-64056500D02*
X75395500Y-64056500D01*
X73613000Y-53547000D02*
X73613000Y-56435000D01*
X72426000Y-57622000D02*
X72426000Y-62702000D01*
X75419000Y-64033000D02*
X75395500Y-64056500D01*
X72426000Y-62702000D02*
X73780500Y-64056500D01*
X73820000Y-53340000D02*
X73613000Y-53547000D01*
X78600500Y-64033000D02*
X75419000Y-64033000D01*
X73613000Y-56435000D02*
X72426000Y-57622000D01*
%TO.N,Net-(U3-BST)*%
D48*
X89411000Y-76136000D02*
X89411000Y-76711000D01*
X89275000Y-76000000D02*
X89411000Y-76136000D01*
X89411000Y-76711000D02*
X90678000Y-77978000D01*
X90678000Y-77978000D02*
X90678000Y-78486000D01*
%TO.N,/EN*%
D46*
X98487000Y-50865000D02*
X96647000Y-52705000D01*
X90551000Y-52402000D02*
X89154000Y-52402000D01*
X96647000Y-54991000D02*
X96647000Y-52705000D01*
X80475500Y-61686000D02*
X84503500Y-57658000D01*
X96647000Y-52705000D02*
X92940500Y-52705000D01*
X91113500Y-51839500D02*
X90551000Y-52402000D01*
X92075000Y-51839500D02*
X91113500Y-51839500D01*
X80475500Y-63083000D02*
X80475500Y-61686000D01*
X84503500Y-57658000D02*
X93980000Y-57658000D01*
X93980000Y-57658000D02*
X96647000Y-54991000D01*
X99454000Y-50865000D02*
X98487000Y-50865000D01*
X92940500Y-52705000D02*
X92075000Y-51839500D01*
%TO.N,/MOT_IN2*%
X87788000Y-65755000D02*
X74072000Y-65755000D01*
X71216000Y-68611000D02*
X71216000Y-73691000D01*
X104710000Y-49595000D02*
X116954000Y-49595000D01*
X64104000Y-94836999D02*
X65226001Y-95959000D01*
X101346000Y-57912000D02*
X101346000Y-52959000D01*
X65226001Y-95959000D02*
X66113500Y-95959000D01*
X74072000Y-65755000D02*
X71216000Y-68611000D01*
X64104000Y-80803000D02*
X64104000Y-94836999D01*
X101346000Y-52959000D02*
X104710000Y-49595000D01*
X71216000Y-73691000D02*
X64104000Y-80803000D01*
X93091000Y-60833000D02*
X92710000Y-60833000D01*
X92710000Y-60833000D02*
X87788000Y-65755000D01*
%TO.N,/MOT_IN1*%
X87376000Y-65151000D02*
X73821816Y-65151000D01*
X73821816Y-65151000D02*
X70612000Y-68360815D01*
X70612000Y-73406000D02*
X63500000Y-80518000D01*
X63500000Y-80518000D02*
X63500000Y-95504000D01*
X70612000Y-68360815D02*
X70612000Y-73406000D01*
X63500000Y-95504000D02*
X65225000Y-97229000D01*
X102108000Y-53213000D02*
X104456000Y-50865000D01*
X104456000Y-50865000D02*
X116954000Y-50865000D01*
X65225000Y-97229000D02*
X66113500Y-97229000D01*
X92837000Y-59690000D02*
X87376000Y-65151000D01*
X102108000Y-56896000D02*
X102108000Y-53213000D01*
%TO.N,Net-(J1-Pin_1)*%
D50*
X76835000Y-83439000D02*
X76835000Y-94488000D01*
X76835000Y-94488000D02*
X74676000Y-96647000D01*
X76708000Y-83312000D02*
X76835000Y-83439000D01*
%TO.N,Net-(J1-Pin_2)*%
X72898000Y-93091000D02*
X72898000Y-83185000D01*
%TO.N,/LED2*%
D46*
X115635000Y-57215000D02*
X115570000Y-57150000D01*
X117856000Y-68199000D02*
X117856000Y-69699500D01*
X116954000Y-57215000D02*
X115635000Y-57215000D01*
%TO.N,Net-(LED2-K)*%
X117856000Y-72898000D02*
X117856000Y-71524500D01*
%TO.N,Net-(LED1-K)*%
X115443000Y-73025000D02*
X115443000Y-71524500D01*
%TO.N,/ON_OFF*%
X99454000Y-61025000D02*
X100554000Y-61025000D01*
X110236000Y-78740000D02*
X110236000Y-81915000D01*
X100711000Y-61182000D02*
X100711000Y-69215000D01*
X113157000Y-84836000D02*
X113157000Y-87479500D01*
X113157000Y-87479500D02*
X113223000Y-87545500D01*
X110236000Y-81915000D02*
X113157000Y-84836000D01*
X100711000Y-69215000D02*
X110236000Y-78740000D01*
X100554000Y-61025000D02*
X100711000Y-61182000D01*
X117056500Y-87545500D02*
X117094000Y-87508000D01*
X113223000Y-87545500D02*
X117056500Y-87545500D01*
%TO.N,/LED1*%
X115443000Y-69699500D02*
X115443000Y-68707000D01*
X117221000Y-66929000D02*
X119126000Y-66929000D01*
X116267000Y-54675000D02*
X116954000Y-54675000D01*
X115443000Y-54737000D02*
X116205000Y-54737000D01*
X116205000Y-54737000D02*
X116267000Y-54675000D01*
X115443000Y-68707000D02*
X117221000Y-66929000D01*
%TO.N,/LIMIT_SW_2*%
X90932000Y-71628000D02*
X88452500Y-71628000D01*
X95504000Y-58166000D02*
X95504000Y-67056000D01*
X97725000Y-55945000D02*
X95504000Y-58166000D01*
X95504000Y-67056000D02*
X90932000Y-71628000D01*
X88452500Y-71628000D02*
X88386500Y-71562000D01*
X99454000Y-55945000D02*
X97725000Y-55945000D01*
%TO.N,/LIMIT_SW_1*%
X88519000Y-69723000D02*
X88458000Y-69662000D01*
X94742000Y-66548000D02*
X91567000Y-69723000D01*
X91567000Y-69723000D02*
X88519000Y-69723000D01*
X88458000Y-69662000D02*
X88386500Y-69662000D01*
X97979000Y-54675000D02*
X94742000Y-57912000D01*
X94742000Y-57912000D02*
X94742000Y-66548000D01*
X99454000Y-54675000D02*
X97979000Y-54675000D01*
%TO.N,/GPIO0*%
X82931000Y-57023000D02*
X81455500Y-58498500D01*
X116954000Y-64835000D02*
X116892000Y-64897000D01*
X114681000Y-63627000D02*
X106807000Y-63627000D01*
X92583000Y-57023000D02*
X82931000Y-57023000D01*
X77216000Y-58716500D02*
X74373500Y-58716500D01*
X94107000Y-55499000D02*
X92583000Y-57023000D01*
X116892000Y-64897000D02*
X115951000Y-64897000D01*
X106807000Y-63627000D02*
X104013000Y-60833000D01*
X104013000Y-56769000D02*
X103251000Y-56007000D01*
X115951000Y-64897000D02*
X114681000Y-63627000D01*
X77434000Y-58498500D02*
X77216000Y-58716500D01*
X104013000Y-60833000D02*
X104013000Y-56769000D01*
X81455500Y-58498500D02*
X77434000Y-58498500D01*
%TO.N,Net-(Q4-B)*%
X76157500Y-59757500D02*
X76157500Y-61469500D01*
X76248500Y-59666500D02*
X76157500Y-59757500D01*
X76157500Y-61469500D02*
X75395500Y-62231500D01*
%TD*%
%TA.AperFunction,Conductor*%
%TO.N,GND*%
G36*
X69991284Y-98808374D02*
G01*
X69997147Y-98809538D01*
X70008292Y-98814743D01*
X70017822Y-98815548D01*
X70048579Y-98832859D01*
X70049671Y-98833698D01*
X70051059Y-98834816D01*
X70051716Y-98835271D01*
X70054077Y-98837086D01*
X70074192Y-98864689D01*
X70094644Y-98891963D01*
X70094707Y-98892840D01*
X70095227Y-98893553D01*
X70100097Y-98911111D01*
X70101600Y-98918641D01*
X70104000Y-98942914D01*
X70104000Y-100457000D01*
X70602143Y-100457000D01*
X70626282Y-100459372D01*
X70632137Y-100460534D01*
X70685759Y-100485574D01*
X70691305Y-100490039D01*
X70692846Y-100492256D01*
X70694062Y-100492892D01*
X70697592Y-100499085D01*
X70731180Y-100547413D01*
X70735138Y-100562319D01*
X70735595Y-100564605D01*
X70735597Y-100564632D01*
X70735600Y-100564632D01*
X70736599Y-100569634D01*
X70739000Y-100593920D01*
X70739000Y-106924081D01*
X70736599Y-106948364D01*
X70735408Y-106954328D01*
X70710258Y-107007979D01*
X70705813Y-107013480D01*
X70703609Y-107015005D01*
X70702976Y-107016215D01*
X70696754Y-107019751D01*
X70648367Y-107053252D01*
X70633641Y-107057146D01*
X70626358Y-107058600D01*
X70602081Y-107061000D01*
X65033894Y-107061000D01*
X65009662Y-107058609D01*
X65003740Y-107057429D01*
X64950116Y-107032331D01*
X64944572Y-107027858D01*
X64943043Y-107025653D01*
X64941840Y-107025024D01*
X64938337Y-107018869D01*
X64904756Y-106970448D01*
X64900807Y-106955504D01*
X64899374Y-106948288D01*
X64897000Y-106924142D01*
X64897000Y-104403857D01*
X64899372Y-104379720D01*
X64900538Y-104373849D01*
X64925577Y-104320235D01*
X64930068Y-104314656D01*
X64932271Y-104313126D01*
X64932896Y-104311931D01*
X64938986Y-104308459D01*
X64987443Y-104274786D01*
X65002545Y-104270790D01*
X65006457Y-104270014D01*
X65009742Y-104269364D01*
X65033839Y-104267000D01*
X67437000Y-104267000D01*
X67437000Y-98942853D01*
X67439371Y-98918722D01*
X67440532Y-98912870D01*
X67465573Y-98859240D01*
X67470068Y-98853657D01*
X67472265Y-98852130D01*
X67472886Y-98850943D01*
X67478942Y-98847489D01*
X67527441Y-98813786D01*
X67542535Y-98809791D01*
X67549725Y-98808366D01*
X67573832Y-98806000D01*
X69967137Y-98806000D01*
X69991284Y-98808374D01*
G37*
%TD.AperFunction*%
%TD*%
%TA.AperFunction,Conductor*%
%TO.N,Net-(J1-Pin_2)*%
G36*
X71710477Y-92643887D02*
G01*
X71710862Y-92644033D01*
X71752096Y-92669883D01*
X73305101Y-94138579D01*
X73340283Y-94198945D01*
X73337244Y-94268748D01*
X73299806Y-94323492D01*
X72541355Y-94962661D01*
X72523717Y-94975072D01*
X72521976Y-94976083D01*
X72481667Y-94990892D01*
X72479683Y-94991249D01*
X72458215Y-94993208D01*
X71077535Y-94998688D01*
X71051995Y-94996133D01*
X71049852Y-94995691D01*
X71040837Y-94991766D01*
X71034467Y-94991470D01*
X71003079Y-94975330D01*
X71002508Y-94974924D01*
X71001296Y-94974063D01*
X70982011Y-94957095D01*
X70830099Y-94792520D01*
X70816513Y-94774845D01*
X70816209Y-94774366D01*
X70815412Y-94773108D01*
X70798685Y-94731774D01*
X70798268Y-94729756D01*
X70795740Y-94707625D01*
X70786594Y-94323492D01*
X70769548Y-93607581D01*
X70771250Y-93583955D01*
X70771606Y-93581851D01*
X70788191Y-93537673D01*
X70789309Y-93535853D01*
X70803585Y-93516936D01*
X71574753Y-92676185D01*
X71614056Y-92647470D01*
X71614432Y-92647296D01*
X71683540Y-92637005D01*
X71710477Y-92643887D01*
G37*
%TD.AperFunction*%
%TD*%
%TA.AperFunction,Conductor*%
%TO.N,GND*%
G36*
X91768218Y-80899717D02*
G01*
X91769459Y-80899851D01*
X91789207Y-80905300D01*
X91789507Y-80904142D01*
X91796921Y-80906061D01*
X91801889Y-80908800D01*
X91807948Y-80910472D01*
X91810236Y-80911524D01*
X91809547Y-80913022D01*
X91810035Y-80913291D01*
X91821881Y-80915487D01*
X91850771Y-80935749D01*
X91854797Y-80939533D01*
X91864011Y-80949180D01*
X92548186Y-81747384D01*
X92554954Y-81756027D01*
X92555673Y-81757034D01*
X92571050Y-81786054D01*
X92575181Y-81797217D01*
X92582397Y-81829230D01*
X92582509Y-81830485D01*
X92583000Y-81841507D01*
X92583000Y-82296000D01*
X92641249Y-82322764D01*
X93882537Y-82893110D01*
X93897954Y-82901566D01*
X93898741Y-82902074D01*
X93935934Y-82939366D01*
X93945258Y-82953911D01*
X93963593Y-83003110D01*
X93963727Y-83004038D01*
X93965000Y-83021759D01*
X93965000Y-89271081D01*
X93962599Y-89295364D01*
X93961408Y-89301328D01*
X93936258Y-89354979D01*
X93931813Y-89360480D01*
X93929609Y-89362005D01*
X93928976Y-89363215D01*
X93922754Y-89366751D01*
X93874367Y-89400252D01*
X93859641Y-89404146D01*
X93852358Y-89405600D01*
X93828081Y-89408000D01*
X91778660Y-89408000D01*
X91761938Y-89406867D01*
X91760902Y-89406726D01*
X91714170Y-89390393D01*
X91699869Y-89381875D01*
X91663144Y-89348417D01*
X91662531Y-89347577D01*
X91653679Y-89333561D01*
X90060571Y-86392438D01*
X90057151Y-86385633D01*
X90057119Y-86385565D01*
X90056728Y-86384721D01*
X90048985Y-86362946D01*
X90046858Y-86354553D01*
X90043296Y-86331720D01*
X90043234Y-86330712D01*
X90043000Y-86323099D01*
X90043000Y-82065678D01*
X90043094Y-82060845D01*
X90043120Y-82060191D01*
X90044619Y-82045220D01*
X90045537Y-82039550D01*
X90048830Y-82024904D01*
X90049029Y-82024217D01*
X90050475Y-82019572D01*
X90391967Y-80995095D01*
X90399502Y-80977268D01*
X90400547Y-80975251D01*
X90435449Y-80933699D01*
X90447010Y-80924882D01*
X90502964Y-80900985D01*
X90506056Y-80900499D01*
X90525283Y-80899000D01*
X91754906Y-80899000D01*
X91768218Y-80899717D01*
G37*
%TD.AperFunction*%
%TD*%
%TA.AperFunction,Conductor*%
%TO.N,Net-(J1-Pin_1)*%
G36*
X74176981Y-95458715D02*
G01*
X74224270Y-95510150D01*
X74227193Y-95516532D01*
X74687647Y-96601940D01*
X74691775Y-96613142D01*
X74692158Y-96614359D01*
X74697091Y-96637645D01*
X74697235Y-96638918D01*
X74698005Y-96650881D01*
X74712048Y-97532638D01*
X74712048Y-97532639D01*
X74715898Y-97774417D01*
X74714325Y-97782930D01*
X74715346Y-97788242D01*
X74707008Y-97822537D01*
X74706838Y-97822961D01*
X74663618Y-97877860D01*
X74640391Y-97890874D01*
X74639976Y-97891051D01*
X74603421Y-97898659D01*
X74597580Y-97900678D01*
X74595801Y-97900245D01*
X74592230Y-97900989D01*
X73457601Y-97909238D01*
X72433843Y-97916680D01*
X72413754Y-97915189D01*
X72411845Y-97914890D01*
X72373657Y-97902311D01*
X72371948Y-97901419D01*
X72354924Y-97890692D01*
X71904201Y-97552650D01*
X71882000Y-97536000D01*
X71848667Y-97536000D01*
X71244000Y-97536000D01*
X71176961Y-97516315D01*
X71131206Y-97463511D01*
X71120000Y-97412000D01*
X71120000Y-97025663D01*
X71121617Y-97017519D01*
X71120704Y-97012468D01*
X71129415Y-96978269D01*
X71129611Y-96977794D01*
X71173425Y-96923372D01*
X71196873Y-96910579D01*
X71197355Y-96910379D01*
X71234470Y-96903020D01*
X71239708Y-96901275D01*
X71241270Y-96901672D01*
X71244664Y-96901000D01*
X71943372Y-96901000D01*
X71943373Y-96901000D01*
X72487461Y-96528267D01*
X74042960Y-95462659D01*
X74109391Y-95441012D01*
X74176981Y-95458715D01*
G37*
%TD.AperFunction*%
%TD*%
%TA.AperFunction,Conductor*%
%TO.N,VBAT*%
G36*
X113000518Y-101983374D02*
G01*
X113002617Y-101983792D01*
X113010337Y-101986988D01*
X113015515Y-101987081D01*
X113047349Y-102002311D01*
X113049138Y-102003506D01*
X113067925Y-102018925D01*
X114897074Y-103848074D01*
X114912496Y-103866865D01*
X114913686Y-103868646D01*
X114932197Y-103913329D01*
X114932614Y-103915424D01*
X114935000Y-103939631D01*
X114935000Y-105031336D01*
X114933349Y-105039604D01*
X114934272Y-105044756D01*
X114925499Y-105078937D01*
X114925390Y-105079202D01*
X114925303Y-105079411D01*
X114881389Y-105133755D01*
X114858411Y-105146302D01*
X114857938Y-105146498D01*
X114820194Y-105154032D01*
X114815065Y-105155732D01*
X114813583Y-105155351D01*
X114810336Y-105156000D01*
X109344664Y-105156000D01*
X109313233Y-105149738D01*
X109304978Y-105149440D01*
X109302264Y-105147553D01*
X109297148Y-105146534D01*
X109296674Y-105146338D01*
X109272791Y-105127069D01*
X109247605Y-105109564D01*
X109244407Y-105104168D01*
X109242297Y-105102466D01*
X109229610Y-105079202D01*
X109229502Y-105078942D01*
X109229415Y-105078732D01*
X109220000Y-105031336D01*
X109220000Y-102105663D01*
X109229415Y-102058268D01*
X109229611Y-102057794D01*
X109273425Y-102003372D01*
X109296873Y-101990579D01*
X109297355Y-101990379D01*
X109344664Y-101981000D01*
X112976368Y-101981000D01*
X113000518Y-101983374D01*
G37*
%TD.AperFunction*%
%TD*%
%TA.AperFunction,Conductor*%
%TO.N,VM*%
G36*
X73625740Y-98557021D02*
G01*
X73650984Y-98564434D01*
X73703730Y-98595730D01*
X74676000Y-99568000D01*
X76511808Y-99568000D01*
X76540279Y-99572093D01*
X76546740Y-99573021D01*
X76571984Y-99580434D01*
X76624730Y-99611730D01*
X79946573Y-102933573D01*
X79967723Y-102961825D01*
X79980331Y-102984914D01*
X79995500Y-103044343D01*
X79995500Y-104739465D01*
X80001086Y-104867424D01*
X80001852Y-104884953D01*
X80017576Y-104992297D01*
X80052509Y-105230785D01*
X80142969Y-105568387D01*
X80142972Y-105568397D01*
X80272004Y-105893194D01*
X80272015Y-105893215D01*
X80437893Y-106200858D01*
X80543637Y-106351876D01*
X80638375Y-106487174D01*
X80638384Y-106487186D01*
X80870714Y-106748254D01*
X80870718Y-106748258D01*
X80870727Y-106748268D01*
X80870731Y-106748272D01*
X80870740Y-106748280D01*
X80870744Y-106748284D01*
X81129146Y-106978241D01*
X81129153Y-106978247D01*
X81131935Y-106980723D01*
X81132952Y-106981453D01*
X81133943Y-106982181D01*
X81135373Y-106983109D01*
X81418138Y-107181104D01*
X81725785Y-107346985D01*
X81725789Y-107346986D01*
X81725796Y-107346990D01*
X81725799Y-107346991D01*
X81725810Y-107346997D01*
X81726190Y-107347147D01*
X81814818Y-107382356D01*
X81966793Y-107442731D01*
X81966794Y-107442732D01*
X82028260Y-107467150D01*
X82050609Y-107476029D01*
X82388218Y-107566491D01*
X82734046Y-107617148D01*
X82879533Y-107623500D01*
X83112466Y-107623499D01*
X83257954Y-107617148D01*
X83603782Y-107566491D01*
X83941391Y-107476029D01*
X84177179Y-107382356D01*
X84261245Y-107348959D01*
X84262522Y-107348515D01*
X84265349Y-107347344D01*
X84267061Y-107346648D01*
X84267587Y-107346438D01*
X84270947Y-107344433D01*
X84573862Y-107181104D01*
X84860170Y-106980628D01*
X84862852Y-106978241D01*
X85121268Y-106748272D01*
X85121272Y-106748268D01*
X85353621Y-106487178D01*
X85353624Y-106487174D01*
X85353628Y-106487170D01*
X85554104Y-106200862D01*
X85719985Y-105893215D01*
X85719994Y-105893194D01*
X85755356Y-105804179D01*
X85849029Y-105568391D01*
X85939491Y-105230782D01*
X85990148Y-104884954D01*
X85996500Y-104739467D01*
X85996500Y-104408829D01*
X86001523Y-104373893D01*
X86005927Y-104358895D01*
X86043672Y-104300144D01*
X86043700Y-104300119D01*
X86043699Y-104300119D01*
X86045041Y-104298956D01*
X86099920Y-104271477D01*
X86107479Y-104269833D01*
X86133832Y-104267000D01*
X103853672Y-104267000D01*
X103888607Y-104272023D01*
X103903605Y-104276427D01*
X103962356Y-104314172D01*
X103962380Y-104314200D01*
X103962383Y-104314202D01*
X103962384Y-104314204D01*
X103963543Y-104315541D01*
X103991020Y-104370405D01*
X103992665Y-104377970D01*
X103995500Y-104404328D01*
X103995500Y-104739465D01*
X104001852Y-104884951D01*
X104017576Y-104992297D01*
X104052509Y-105230785D01*
X104142969Y-105568387D01*
X104142972Y-105568397D01*
X104272004Y-105893194D01*
X104272015Y-105893215D01*
X104437893Y-106200858D01*
X104543637Y-106351876D01*
X104638375Y-106487174D01*
X104638384Y-106487186D01*
X104870714Y-106748254D01*
X104870718Y-106748258D01*
X104870727Y-106748268D01*
X104870731Y-106748272D01*
X104870740Y-106748280D01*
X104870744Y-106748284D01*
X105129146Y-106978241D01*
X105129153Y-106978247D01*
X105131935Y-106980723D01*
X105132952Y-106981453D01*
X105133943Y-106982181D01*
X105135373Y-106983109D01*
X105418138Y-107181104D01*
X105725785Y-107346985D01*
X105725789Y-107346986D01*
X105725796Y-107346990D01*
X105725799Y-107346991D01*
X105725810Y-107346997D01*
X105726190Y-107347147D01*
X105814818Y-107382356D01*
X105966793Y-107442731D01*
X105966794Y-107442732D01*
X106028260Y-107467150D01*
X106050609Y-107476029D01*
X106388218Y-107566491D01*
X106734046Y-107617148D01*
X106879533Y-107623500D01*
X107112466Y-107623499D01*
X107257954Y-107617148D01*
X107603782Y-107566491D01*
X107941391Y-107476029D01*
X108177179Y-107382356D01*
X108261245Y-107348959D01*
X108262522Y-107348515D01*
X108265349Y-107347344D01*
X108267061Y-107346648D01*
X108267587Y-107346438D01*
X108270947Y-107344433D01*
X108573862Y-107181104D01*
X108860170Y-106980628D01*
X108862852Y-106978241D01*
X109121268Y-106748272D01*
X109121272Y-106748268D01*
X109353626Y-106487172D01*
X109353628Y-106487170D01*
X109438139Y-106366473D01*
X109462284Y-106340746D01*
X109479242Y-106327192D01*
X109532726Y-106302387D01*
X109538096Y-106301330D01*
X109543729Y-106300782D01*
X109543896Y-106300714D01*
X109544079Y-106300747D01*
X109562024Y-106299000D01*
X117475000Y-106299000D01*
X117475000Y-99709829D01*
X117477855Y-99689975D01*
X117480023Y-99674893D01*
X117484427Y-99659895D01*
X117522172Y-99601144D01*
X117522200Y-99601119D01*
X117522199Y-99601119D01*
X117523541Y-99599956D01*
X117578420Y-99572477D01*
X117585979Y-99570833D01*
X117612332Y-99568000D01*
X126853671Y-99568000D01*
X126888606Y-99573023D01*
X126903604Y-99577427D01*
X126962355Y-99615172D01*
X126962379Y-99615200D01*
X126962382Y-99615202D01*
X126962383Y-99615204D01*
X126963542Y-99616541D01*
X126991018Y-99671402D01*
X126992663Y-99678960D01*
X126995500Y-99705331D01*
X126995500Y-112874376D01*
X126995499Y-112874378D01*
X126995500Y-112874379D01*
X126990476Y-112909314D01*
X126983157Y-112934238D01*
X126950489Y-112988333D01*
X123321511Y-116506234D01*
X123318168Y-116509357D01*
X123314729Y-116512453D01*
X123311230Y-116515487D01*
X123167651Y-116635349D01*
X123163510Y-116638659D01*
X123159298Y-116641880D01*
X123155014Y-116645013D01*
X123126858Y-116664694D01*
X123123640Y-116666867D01*
X123121422Y-116668316D01*
X123120395Y-116668988D01*
X123117116Y-116671057D01*
X122976410Y-116756785D01*
X122971183Y-116759797D01*
X122965904Y-116762671D01*
X122960577Y-116765407D01*
X122934390Y-116778065D01*
X122931480Y-116779425D01*
X122928534Y-116780756D01*
X122925629Y-116782024D01*
X122768430Y-116848262D01*
X122762175Y-116850701D01*
X122755840Y-116852975D01*
X122749444Y-116855076D01*
X122731732Y-116860368D01*
X122729354Y-116861053D01*
X122726897Y-116861734D01*
X122724501Y-116862372D01*
X122548530Y-116907377D01*
X122541298Y-116908998D01*
X122534633Y-116910284D01*
X122523762Y-116911886D01*
X122328207Y-116931894D01*
X122319032Y-116932490D01*
X122309860Y-116932745D01*
X122300657Y-116932659D01*
X122106166Y-116923619D01*
X122096993Y-116922851D01*
X122087882Y-116921746D01*
X122078803Y-116920302D01*
X122067634Y-116918097D01*
X121985066Y-116901802D01*
X121923462Y-116889643D01*
X121887776Y-116882600D01*
X121878817Y-116880483D01*
X121869967Y-116878042D01*
X121861202Y-116875271D01*
X121677870Y-116809743D01*
X121669335Y-116806331D01*
X121660931Y-116802604D01*
X121652658Y-116798561D01*
X121481022Y-116706638D01*
X121473089Y-116702003D01*
X121465345Y-116697085D01*
X121457758Y-116691862D01*
X121300014Y-116574388D01*
X121291540Y-116567476D01*
X121286711Y-116563169D01*
X121281293Y-116558036D01*
X121219267Y-116495622D01*
X121152421Y-116428356D01*
X121150700Y-116426589D01*
X121148982Y-116424789D01*
X121147308Y-116423000D01*
X121135616Y-116410255D01*
X121131214Y-116405187D01*
X121126950Y-116400001D01*
X121122833Y-116394706D01*
X121021054Y-116256241D01*
X121019211Y-116253666D01*
X121017383Y-116251041D01*
X121015613Y-116248426D01*
X121000301Y-116225181D01*
X120997120Y-116220088D01*
X120994068Y-116214925D01*
X120991157Y-116209717D01*
X120913664Y-116062826D01*
X120911904Y-116059358D01*
X120910194Y-116055853D01*
X120908550Y-116052346D01*
X120895038Y-116022303D01*
X120892992Y-116017479D01*
X120891013Y-116012525D01*
X120889155Y-116007562D01*
X120827107Y-115830489D01*
X120825658Y-115826093D01*
X120824298Y-115821692D01*
X120823044Y-115817354D01*
X120768190Y-115613405D01*
X120768187Y-115613398D01*
X120768186Y-115613392D01*
X120767474Y-115611443D01*
X120767335Y-115610993D01*
X120767025Y-115610211D01*
X120622038Y-115212955D01*
X120622037Y-115212953D01*
X120618678Y-115203749D01*
X120618676Y-115203743D01*
X120434074Y-114808660D01*
X120434072Y-114808657D01*
X120434072Y-114808656D01*
X120432333Y-114805649D01*
X120432269Y-114805518D01*
X120432110Y-114805262D01*
X120278852Y-114540215D01*
X120215791Y-114431155D01*
X120215786Y-114431147D01*
X120215781Y-114431139D01*
X119965460Y-114074056D01*
X119685007Y-113740117D01*
X119685002Y-113740112D01*
X119684998Y-113740107D01*
X119629360Y-113684505D01*
X119629359Y-113684504D01*
X119626248Y-113681395D01*
X119622434Y-113677000D01*
X119607076Y-113662235D01*
X119606199Y-113661358D01*
X119606198Y-113661357D01*
X119376560Y-113431865D01*
X119376556Y-113431861D01*
X119369476Y-113425923D01*
X119369474Y-113425921D01*
X119308376Y-113374674D01*
X119308346Y-113374629D01*
X119302127Y-113369061D01*
X119296605Y-113363752D01*
X119296602Y-113363749D01*
X119269960Y-113342410D01*
X119268958Y-113341599D01*
X119268914Y-113341563D01*
X119268766Y-113341346D01*
X119267977Y-113340766D01*
X119267879Y-113340706D01*
X119267836Y-113340670D01*
X119267840Y-113340665D01*
X119267749Y-113340598D01*
X119245940Y-113322306D01*
X119058252Y-113164882D01*
X119058248Y-113164879D01*
X119042436Y-113151616D01*
X119042435Y-113151615D01*
X119042434Y-113151614D01*
X118971914Y-113102244D01*
X118960927Y-113094552D01*
X118958714Y-113092966D01*
X118958699Y-113092955D01*
X118954509Y-113089743D01*
X118943838Y-113081196D01*
X118943817Y-113081180D01*
X118908293Y-113057654D01*
X118905647Y-113055853D01*
X118810964Y-112989568D01*
X118747475Y-112945121D01*
X118685193Y-112901519D01*
X118593739Y-112848715D01*
X118593710Y-112848697D01*
X118589731Y-112846400D01*
X118583274Y-112842403D01*
X118566998Y-112831624D01*
X118525259Y-112809115D01*
X118522185Y-112807399D01*
X118521005Y-112806718D01*
X118520984Y-112806706D01*
X118307551Y-112683474D01*
X118307522Y-112683458D01*
X118197653Y-112632208D01*
X118197652Y-112632208D01*
X118194397Y-112630689D01*
X118169175Y-112617088D01*
X118121774Y-112596812D01*
X118121756Y-112596803D01*
X118119954Y-112595963D01*
X118119952Y-112595962D01*
X117912336Y-112499114D01*
X117912333Y-112499113D01*
X117904921Y-112496414D01*
X117904918Y-112496413D01*
X117904915Y-112496412D01*
X117892468Y-112491878D01*
X117892464Y-112491876D01*
X117794250Y-112456100D01*
X117794234Y-112456094D01*
X117787725Y-112453722D01*
X117781418Y-112451226D01*
X117753608Y-112439331D01*
X117753606Y-112439330D01*
X117706266Y-112423967D01*
X117702103Y-112422534D01*
X117502611Y-112349868D01*
X117502394Y-112349801D01*
X117501580Y-112349591D01*
X117458044Y-112337908D01*
X117367416Y-112313588D01*
X117367398Y-112313583D01*
X117363186Y-112312452D01*
X117357069Y-112310639D01*
X117323713Y-112299814D01*
X117323702Y-112299811D01*
X117295486Y-112293400D01*
X117276223Y-112289022D01*
X117271640Y-112287888D01*
X117270535Y-112287592D01*
X117270483Y-112287578D01*
X117093007Y-112239954D01*
X117081414Y-112236843D01*
X117081410Y-112236842D01*
X117081409Y-112236842D01*
X117080537Y-112236624D01*
X117078209Y-112236275D01*
X117069055Y-112234656D01*
X117066941Y-112234283D01*
X116931037Y-112210251D01*
X116931014Y-112210247D01*
X116927270Y-112209584D01*
X116921418Y-112208402D01*
X116882969Y-112199666D01*
X116882962Y-112199664D01*
X116882955Y-112199663D01*
X116837005Y-112193512D01*
X116831868Y-112192715D01*
X116663360Y-112162921D01*
X116651981Y-112160909D01*
X116651980Y-112160908D01*
X116651978Y-112160908D01*
X116483413Y-112146060D01*
X116483418Y-112145995D01*
X116481955Y-112145923D01*
X116481945Y-112145922D01*
X116477834Y-112145441D01*
X116434962Y-112139703D01*
X116434965Y-112139703D01*
X116391761Y-112137858D01*
X116386174Y-112137493D01*
X116217584Y-112122645D01*
X116058578Y-112122530D01*
X116058574Y-112122530D01*
X116034895Y-112122512D01*
X116029701Y-112122399D01*
X115983407Y-112120422D01*
X115983383Y-112120423D01*
X115944015Y-112122302D01*
X115938019Y-112122443D01*
X115781822Y-112122335D01*
X115781512Y-112122335D01*
X115781511Y-112122335D01*
X115781509Y-112122335D01*
X115781505Y-112122335D01*
X115781473Y-112122337D01*
X115585352Y-112139333D01*
X115583921Y-112139449D01*
X115583881Y-112139452D01*
X115580524Y-112139658D01*
X115546966Y-112141260D01*
X115531926Y-112141979D01*
X115518949Y-112143782D01*
X115497155Y-112146810D01*
X115490947Y-112147513D01*
X115490469Y-112147555D01*
X115490321Y-112147568D01*
X115347056Y-112159983D01*
X115347031Y-112159986D01*
X115137964Y-112196648D01*
X115137965Y-112196649D01*
X115135760Y-112197035D01*
X115084246Y-112204195D01*
X115051451Y-112211820D01*
X115048085Y-112212410D01*
X115048074Y-112212413D01*
X114920170Y-112234842D01*
X114918034Y-112235169D01*
X114696208Y-112294358D01*
X114696206Y-112294359D01*
X114694249Y-112294881D01*
X114644008Y-112306564D01*
X114616803Y-112315543D01*
X114613320Y-112316473D01*
X114613318Y-112316474D01*
X114496197Y-112347726D01*
X114496142Y-112347742D01*
X114263200Y-112432217D01*
X114263201Y-112432218D01*
X114261478Y-112432842D01*
X114214807Y-112448250D01*
X114193434Y-112457519D01*
X114189844Y-112458821D01*
X114189843Y-112458821D01*
X114186505Y-112460034D01*
X114186427Y-112460059D01*
X114186428Y-112460062D01*
X114086218Y-112496404D01*
X114086200Y-112496411D01*
X113842123Y-112609844D01*
X113840637Y-112610534D01*
X113800145Y-112628097D01*
X113784626Y-112636566D01*
X113780993Y-112638255D01*
X113780990Y-112638255D01*
X113775735Y-112640700D01*
X113775701Y-112640716D01*
X113690748Y-112680199D01*
X113690741Y-112680203D01*
X113690727Y-112680210D01*
X113435955Y-112826831D01*
X113435382Y-112827160D01*
X113435287Y-112827214D01*
X113433421Y-112828253D01*
X113403415Y-112844631D01*
X113403398Y-112844641D01*
X113397049Y-112848892D01*
X113389952Y-112853304D01*
X113385892Y-112855642D01*
X113385864Y-112855659D01*
X113324527Y-112890959D01*
X113318982Y-112893391D01*
X113046624Y-113083488D01*
X113045950Y-113083955D01*
X113045857Y-113084019D01*
X113044551Y-113084906D01*
X113027831Y-113096101D01*
X113026691Y-113097023D01*
X113019750Y-113102244D01*
X113017211Y-113104018D01*
X113017208Y-113104018D01*
X113017160Y-113104053D01*
X112955220Y-113147284D01*
X112955207Y-113147294D01*
X112955203Y-113147297D01*
X112955197Y-113147302D01*
X112751682Y-113317510D01*
X112620677Y-113427075D01*
X112311798Y-113734886D01*
X112311788Y-113734897D01*
X112030871Y-114068427D01*
X112030831Y-114068481D01*
X111780062Y-114425128D01*
X111780031Y-114425175D01*
X111780029Y-114425178D01*
X111561216Y-114802362D01*
X111509806Y-114912001D01*
X111491988Y-114939121D01*
X111490428Y-114941496D01*
X111479847Y-114953462D01*
X111421294Y-114990472D01*
X111406797Y-114994650D01*
X111372458Y-114999500D01*
X102242570Y-114999500D01*
X102207629Y-114994475D01*
X102200802Y-114992470D01*
X102186684Y-114983396D01*
X102170501Y-114978944D01*
X102157900Y-114964896D01*
X102142026Y-114954693D01*
X102135054Y-114939424D01*
X102123848Y-114926931D01*
X102120842Y-114908302D01*
X102113004Y-114891135D01*
X102115393Y-114874520D01*
X102112721Y-114857953D01*
X102120264Y-114840658D01*
X102122951Y-114821977D01*
X102134143Y-114808835D01*
X102140653Y-114793910D01*
X102166919Y-114770348D01*
X102171822Y-114767077D01*
X102201626Y-114752527D01*
X102297334Y-114720814D01*
X102446656Y-114628712D01*
X102570712Y-114504656D01*
X102654525Y-114368772D01*
X102666986Y-114351940D01*
X102668423Y-114350308D01*
X102683587Y-114333081D01*
X102742658Y-114295769D01*
X102750655Y-114293488D01*
X102808847Y-114291119D01*
X102882420Y-114305754D01*
X102911305Y-114311500D01*
X103088693Y-114311500D01*
X103092814Y-114311500D01*
X103100667Y-114309117D01*
X103146682Y-114299964D01*
X103146683Y-114299964D01*
X103262653Y-114276897D01*
X103262653Y-114276896D01*
X103262658Y-114276896D01*
X103262661Y-114276894D01*
X103262666Y-114276894D01*
X103265854Y-114275573D01*
X103273835Y-114272273D01*
X103273876Y-114272251D01*
X103426540Y-114209016D01*
X103426540Y-114209015D01*
X103426547Y-114209013D01*
X103574035Y-114110464D01*
X103616813Y-114067686D01*
X103699463Y-113985037D01*
X103699464Y-113985035D01*
X103798013Y-113837547D01*
X103865894Y-113673666D01*
X103868343Y-113661357D01*
X103900499Y-113499695D01*
X103900500Y-113499693D01*
X103900500Y-113322192D01*
X103900389Y-113321697D01*
X103900220Y-113320905D01*
X103865896Y-113148341D01*
X103865893Y-113148332D01*
X103865466Y-113147302D01*
X103845771Y-113099754D01*
X103827583Y-113055842D01*
X103827582Y-113055840D01*
X103800132Y-112989568D01*
X103798016Y-112984459D01*
X103798009Y-112984446D01*
X103699464Y-112836965D01*
X103699461Y-112836961D01*
X103699456Y-112836955D01*
X103574043Y-112711542D01*
X103574037Y-112711537D01*
X103574036Y-112711536D01*
X103426559Y-112612994D01*
X103426558Y-112612993D01*
X103426553Y-112612990D01*
X103426540Y-112612983D01*
X103418962Y-112609844D01*
X103262676Y-112545109D01*
X103262653Y-112545101D01*
X103262646Y-112545099D01*
X103088698Y-112510500D01*
X103088694Y-112510500D01*
X103088691Y-112510500D01*
X102911309Y-112510500D01*
X102911304Y-112510500D01*
X102911299Y-112510500D01*
X102815548Y-112529546D01*
X102815547Y-112529547D01*
X102780304Y-112531437D01*
X102764733Y-112530044D01*
X102699714Y-112504464D01*
X102699709Y-112504460D01*
X102692108Y-112498555D01*
X102661227Y-112463377D01*
X102646123Y-112437632D01*
X102639935Y-112429574D01*
X102639635Y-112429087D01*
X102570712Y-112317344D01*
X102446656Y-112193288D01*
X102446655Y-112193287D01*
X102348834Y-112132951D01*
X102348828Y-112132948D01*
X102346614Y-112131582D01*
X102297336Y-112101187D01*
X102297331Y-112101185D01*
X102295862Y-112100698D01*
X102256609Y-112087691D01*
X102139265Y-112048807D01*
X102136445Y-112047641D01*
X102130792Y-112045999D01*
X102028019Y-112035500D01*
X102028010Y-112035500D01*
X101177998Y-112035500D01*
X101177980Y-112035501D01*
X101177972Y-112035501D01*
X101177953Y-112035503D01*
X101075197Y-112046000D01*
X101075193Y-112046001D01*
X101075032Y-112046056D01*
X100908667Y-112101185D01*
X100908665Y-112101186D01*
X100908663Y-112101187D01*
X100832500Y-112148165D01*
X100759340Y-112193290D01*
X100635290Y-112317340D01*
X100627203Y-112330452D01*
X100544048Y-112465268D01*
X100543185Y-112466667D01*
X100543180Y-112466680D01*
X100515349Y-112550668D01*
X100515349Y-112550670D01*
X100514745Y-112552493D01*
X100498299Y-112602123D01*
X100489852Y-112615068D01*
X100488364Y-112629635D01*
X100487542Y-112635877D01*
X100487359Y-112639476D01*
X100477500Y-112735973D01*
X100477500Y-112735982D01*
X100477500Y-112735983D01*
X100477500Y-114086001D01*
X100477501Y-114086018D01*
X100488000Y-114188796D01*
X100488001Y-114188799D01*
X100517194Y-114276895D01*
X100543186Y-114355334D01*
X100635288Y-114504656D01*
X100759344Y-114628712D01*
X100908666Y-114720814D01*
X100983291Y-114745542D01*
X101003341Y-114752186D01*
X101015726Y-114760761D01*
X101034922Y-114767942D01*
X101040772Y-114771992D01*
X101051977Y-114785860D01*
X101060786Y-114791959D01*
X101064899Y-114801851D01*
X101084684Y-114826338D01*
X101092244Y-114895798D01*
X101071304Y-114937764D01*
X101070954Y-114939121D01*
X101070349Y-114939680D01*
X101061050Y-114958318D01*
X101029497Y-114977466D01*
X101019662Y-114986564D01*
X101012382Y-114987852D01*
X101003081Y-114993498D01*
X100999530Y-114994475D01*
X100997413Y-114995057D01*
X100964519Y-114999500D01*
X99442570Y-114999500D01*
X99407629Y-114994475D01*
X99400802Y-114992470D01*
X99342026Y-114954693D01*
X99313004Y-114891135D01*
X99322951Y-114821977D01*
X99366923Y-114770346D01*
X99371822Y-114767077D01*
X99401626Y-114752527D01*
X99497334Y-114720814D01*
X99646656Y-114628712D01*
X99770712Y-114504656D01*
X99862814Y-114355334D01*
X99917999Y-114188797D01*
X99928500Y-114086009D01*
X99928499Y-112735992D01*
X99918706Y-112640129D01*
X99917999Y-112633203D01*
X99917998Y-112633200D01*
X99910478Y-112610506D01*
X99905940Y-112596811D01*
X99883815Y-112530044D01*
X99862814Y-112466666D01*
X99770712Y-112317344D01*
X99646656Y-112193288D01*
X99646655Y-112193287D01*
X99548834Y-112132951D01*
X99548828Y-112132948D01*
X99546614Y-112131582D01*
X99497336Y-112101187D01*
X99497331Y-112101185D01*
X99495862Y-112100698D01*
X99456609Y-112087691D01*
X99339265Y-112048807D01*
X99336439Y-112047639D01*
X99330796Y-112045999D01*
X99228025Y-112035500D01*
X99228016Y-112035500D01*
X99228009Y-112035500D01*
X98736529Y-112035500D01*
X98736524Y-112035499D01*
X98736522Y-112035500D01*
X98701588Y-112030475D01*
X98686589Y-112026070D01*
X98627821Y-111988303D01*
X98624688Y-111984688D01*
X98618900Y-111978008D01*
X98598053Y-111944261D01*
X98548016Y-111823459D01*
X98548009Y-111823446D01*
X98449464Y-111675965D01*
X98449461Y-111675961D01*
X98449456Y-111675955D01*
X98324043Y-111550542D01*
X98324037Y-111550537D01*
X98324036Y-111550536D01*
X98176559Y-111451994D01*
X98176558Y-111451993D01*
X98176553Y-111451990D01*
X98176540Y-111451983D01*
X98176526Y-111451977D01*
X98012676Y-111384109D01*
X98012653Y-111384101D01*
X98012646Y-111384099D01*
X97838698Y-111349500D01*
X97838694Y-111349500D01*
X97838691Y-111349500D01*
X97661309Y-111349500D01*
X97661306Y-111349500D01*
X97661301Y-111349500D01*
X97487352Y-111384100D01*
X97487345Y-111384101D01*
X97487322Y-111384109D01*
X97323472Y-111451977D01*
X97323454Y-111451985D01*
X97323439Y-111451994D01*
X97175962Y-111550536D01*
X97175961Y-111550537D01*
X97175955Y-111550542D01*
X97050542Y-111675955D01*
X97050537Y-111675961D01*
X97050536Y-111675962D01*
X96951994Y-111823439D01*
X96951985Y-111823454D01*
X96951977Y-111823472D01*
X96884109Y-111987322D01*
X96884106Y-111987331D01*
X96884104Y-111987339D01*
X96884102Y-111987343D01*
X96867620Y-112070204D01*
X96867620Y-112070205D01*
X96855878Y-112103489D01*
X96848632Y-112117341D01*
X96800127Y-112167613D01*
X96800117Y-112167618D01*
X96800116Y-112167620D01*
X96800113Y-112167620D01*
X96793745Y-112171248D01*
X96732375Y-112187500D01*
X96496993Y-112187500D01*
X96462055Y-112182476D01*
X96449735Y-112178858D01*
X96449727Y-112178856D01*
X96448170Y-112178517D01*
X96446236Y-112178096D01*
X96384913Y-112144612D01*
X96277426Y-112037125D01*
X96277421Y-112037120D01*
X96256274Y-112008869D01*
X96243667Y-111985780D01*
X96228500Y-111926355D01*
X96228500Y-111847406D01*
X96233522Y-111812473D01*
X96239434Y-111792338D01*
X96269947Y-111740383D01*
X96274662Y-111735583D01*
X96294224Y-111719382D01*
X96317809Y-111703624D01*
X96324035Y-111699464D01*
X96449464Y-111574035D01*
X96548013Y-111426547D01*
X96615894Y-111262666D01*
X96615895Y-111262662D01*
X96620073Y-111241663D01*
X96647686Y-111102836D01*
X96650499Y-111088695D01*
X96650500Y-111088693D01*
X96650500Y-110911306D01*
X96650499Y-110911304D01*
X96615896Y-110737341D01*
X96615893Y-110737332D01*
X96548016Y-110573459D01*
X96548009Y-110573446D01*
X96449464Y-110425965D01*
X96449461Y-110425961D01*
X96449456Y-110425955D01*
X96324043Y-110300542D01*
X96324037Y-110300537D01*
X96324036Y-110300536D01*
X96176559Y-110201994D01*
X96176558Y-110201993D01*
X96176553Y-110201990D01*
X96176540Y-110201983D01*
X96176526Y-110201977D01*
X96012676Y-110134109D01*
X96012653Y-110134101D01*
X96012646Y-110134099D01*
X95838698Y-110099500D01*
X95838694Y-110099500D01*
X95838691Y-110099500D01*
X95661309Y-110099500D01*
X95661306Y-110099500D01*
X95661301Y-110099500D01*
X95487352Y-110134100D01*
X95487345Y-110134101D01*
X95487322Y-110134109D01*
X95323472Y-110201977D01*
X95323454Y-110201985D01*
X95323439Y-110201994D01*
X95175962Y-110300536D01*
X95175961Y-110300537D01*
X95175955Y-110300542D01*
X95050542Y-110425955D01*
X95050537Y-110425961D01*
X95050536Y-110425962D01*
X94951994Y-110573439D01*
X94951985Y-110573454D01*
X94951977Y-110573472D01*
X94884109Y-110737322D01*
X94884101Y-110737345D01*
X94884099Y-110737352D01*
X94849500Y-110911299D01*
X94849500Y-110911304D01*
X94849500Y-110911309D01*
X94849500Y-111088691D01*
X94849500Y-111088693D01*
X94849499Y-111088693D01*
X94874617Y-111214964D01*
X94875111Y-111218485D01*
X94875037Y-111218981D01*
X94875712Y-111223525D01*
X94876902Y-111235597D01*
X94877500Y-111247761D01*
X94877500Y-112334535D01*
X94877500Y-112334537D01*
X94877499Y-112334537D01*
X94903159Y-112463532D01*
X94903457Y-112465028D01*
X94903459Y-112465036D01*
X94938929Y-112550668D01*
X94954380Y-112587970D01*
X94954381Y-112587972D01*
X94954387Y-112587982D01*
X95028305Y-112698607D01*
X95028306Y-112698608D01*
X95028310Y-112698613D01*
X95157297Y-112827599D01*
X95285655Y-112955957D01*
X95285661Y-112955963D01*
X95306806Y-112984207D01*
X95309734Y-112989568D01*
X95324593Y-113057839D01*
X95300182Y-113123306D01*
X95244253Y-113165183D01*
X95174562Y-113170174D01*
X95174553Y-113170172D01*
X95156811Y-113166313D01*
X95155947Y-113166084D01*
X95155941Y-113166115D01*
X95155843Y-113166093D01*
X95150912Y-113164879D01*
X95048728Y-113137500D01*
X95048727Y-113137500D01*
X94943273Y-113137500D01*
X94841413Y-113164792D01*
X94841408Y-113164795D01*
X94750088Y-113217518D01*
X94750082Y-113217523D01*
X94675523Y-113292082D01*
X94675518Y-113292088D01*
X94622795Y-113383408D01*
X94622792Y-113383413D01*
X94597544Y-113477644D01*
X94595500Y-113485273D01*
X94595500Y-113590727D01*
X94622793Y-113692587D01*
X94675520Y-113783913D01*
X94750087Y-113858480D01*
X94841413Y-113911207D01*
X94943273Y-113938500D01*
X94943275Y-113938500D01*
X95048725Y-113938500D01*
X95048727Y-113938500D01*
X95150587Y-113911207D01*
X95241913Y-113858480D01*
X95316480Y-113783913D01*
X95369207Y-113692587D01*
X95396500Y-113590727D01*
X95396500Y-113485273D01*
X95376639Y-113411151D01*
X95376216Y-113409164D01*
X95375914Y-113408312D01*
X95367873Y-113375166D01*
X95367874Y-113375166D01*
X95364715Y-113362144D01*
X95368040Y-113292356D01*
X95408569Y-113235443D01*
X95473434Y-113209475D01*
X95485341Y-113211770D01*
X95487538Y-113211089D01*
X95500597Y-113214710D01*
X95542037Y-113222697D01*
X95546229Y-113224858D01*
X95551761Y-113228897D01*
X95554868Y-113229759D01*
X95558482Y-113233805D01*
X95577093Y-113247394D01*
X95696573Y-113366874D01*
X95717723Y-113395126D01*
X95730331Y-113418215D01*
X95745500Y-113477644D01*
X95745500Y-114435876D01*
X95745659Y-114437806D01*
X95745885Y-114439454D01*
X95751907Y-114495482D01*
X95774822Y-114556919D01*
X95802202Y-114630328D01*
X95802206Y-114630335D01*
X95845086Y-114687616D01*
X95888450Y-114745542D01*
X95888452Y-114745544D01*
X95888461Y-114745552D01*
X95915174Y-114765550D01*
X95940127Y-114790503D01*
X95946905Y-114799557D01*
X95971323Y-114865021D01*
X95956472Y-114933294D01*
X95907096Y-114982685D01*
X95904111Y-114984316D01*
X95844654Y-114999500D01*
X94154694Y-114999500D01*
X94119759Y-114994477D01*
X94108905Y-114991290D01*
X94093914Y-114981656D01*
X94076815Y-114976638D01*
X94065132Y-114963159D01*
X94050127Y-114953516D01*
X94042723Y-114937305D01*
X94031053Y-114923840D01*
X94028512Y-114906186D01*
X94021102Y-114889960D01*
X94023637Y-114872315D01*
X94021100Y-114854683D01*
X94031034Y-114820827D01*
X94032455Y-114817717D01*
X94070941Y-114769953D01*
X94087185Y-114757794D01*
X94103546Y-114745546D01*
X94189796Y-114630331D01*
X94240091Y-114495483D01*
X94246500Y-114435873D01*
X94246499Y-112640128D01*
X94240091Y-112580517D01*
X94236767Y-112571606D01*
X94236765Y-112571600D01*
X94189798Y-112445673D01*
X94189797Y-112445671D01*
X94189793Y-112445664D01*
X94115679Y-112346661D01*
X94103548Y-112330456D01*
X94103546Y-112330454D01*
X94103540Y-112330449D01*
X93988334Y-112244205D01*
X93980549Y-112239954D01*
X93980733Y-112239616D01*
X93959892Y-112228235D01*
X93947376Y-112218866D01*
X93905509Y-112162936D01*
X93901313Y-112151683D01*
X93893500Y-112108364D01*
X93893500Y-111790344D01*
X93898522Y-111755411D01*
X93899444Y-111752272D01*
X93907864Y-111723595D01*
X93923733Y-111689652D01*
X94016009Y-111551553D01*
X94016009Y-111551552D01*
X94016013Y-111551547D01*
X94016016Y-111551540D01*
X94016693Y-111550527D01*
X94018329Y-111545953D01*
X94083894Y-111387666D01*
X94083898Y-111387646D01*
X94084608Y-111384083D01*
X94096670Y-111323439D01*
X94115364Y-111229455D01*
X94118500Y-111213691D01*
X94118500Y-111036309D01*
X94118500Y-111036306D01*
X94118499Y-111036304D01*
X94083896Y-110862341D01*
X94083893Y-110862332D01*
X94016016Y-110698459D01*
X94016009Y-110698446D01*
X93917464Y-110550965D01*
X93917461Y-110550961D01*
X93917456Y-110550955D01*
X93792043Y-110425542D01*
X93792037Y-110425537D01*
X93792036Y-110425536D01*
X93644559Y-110326994D01*
X93644558Y-110326993D01*
X93644553Y-110326990D01*
X93644540Y-110326983D01*
X93644526Y-110326977D01*
X93480676Y-110259109D01*
X93480653Y-110259101D01*
X93480646Y-110259099D01*
X93306698Y-110224500D01*
X93306694Y-110224500D01*
X93306691Y-110224500D01*
X93129309Y-110224500D01*
X93129306Y-110224500D01*
X93129301Y-110224500D01*
X92955352Y-110259100D01*
X92955345Y-110259101D01*
X92955322Y-110259109D01*
X92791472Y-110326977D01*
X92791454Y-110326985D01*
X92791439Y-110326994D01*
X92643962Y-110425536D01*
X92643961Y-110425537D01*
X92643955Y-110425542D01*
X92518542Y-110550955D01*
X92518537Y-110550961D01*
X92518536Y-110550962D01*
X92419994Y-110698439D01*
X92419985Y-110698454D01*
X92419977Y-110698472D01*
X92352109Y-110862322D01*
X92352101Y-110862345D01*
X92352099Y-110862352D01*
X92317500Y-111036299D01*
X92317500Y-111213699D01*
X92352099Y-111387646D01*
X92352101Y-111387653D01*
X92352109Y-111387676D01*
X92419973Y-111551517D01*
X92419983Y-111551540D01*
X92419990Y-111551553D01*
X92511697Y-111688800D01*
X92526928Y-111720636D01*
X92536834Y-111752272D01*
X92542500Y-111789325D01*
X92542500Y-112210095D01*
X92537476Y-112245032D01*
X92530765Y-112267886D01*
X92494639Y-112324095D01*
X92494726Y-112324182D01*
X92494329Y-112324578D01*
X92492990Y-112326663D01*
X92489152Y-112329756D01*
X92488452Y-112330455D01*
X92429514Y-112409185D01*
X92427000Y-112411593D01*
X92426263Y-112413340D01*
X92400267Y-112437212D01*
X92390632Y-112443804D01*
X92324188Y-112465412D01*
X92261204Y-112450306D01*
X92261198Y-112450303D01*
X92256172Y-112447558D01*
X92209983Y-112403645D01*
X92209953Y-112403663D01*
X92156712Y-112317344D01*
X92109805Y-112270437D01*
X92098923Y-112255901D01*
X92088653Y-112242181D01*
X92081161Y-112228460D01*
X92066310Y-112160190D01*
X92066493Y-112157633D01*
X92067281Y-112146610D01*
X92076404Y-112108005D01*
X92101408Y-112047639D01*
X92115894Y-112012666D01*
X92120932Y-111987341D01*
X92150074Y-111840828D01*
X92150500Y-111838872D01*
X92150500Y-111661125D01*
X92150074Y-111659169D01*
X92115896Y-111487341D01*
X92115893Y-111487332D01*
X92048016Y-111323459D01*
X92048009Y-111323446D01*
X91949464Y-111175965D01*
X91949461Y-111175961D01*
X91949456Y-111175955D01*
X91824043Y-111050542D01*
X91824037Y-111050537D01*
X91824036Y-111050536D01*
X91676559Y-110951994D01*
X91676558Y-110951993D01*
X91676553Y-110951990D01*
X91676540Y-110951983D01*
X91676526Y-110951977D01*
X91512676Y-110884109D01*
X91512653Y-110884101D01*
X91512646Y-110884099D01*
X91338698Y-110849500D01*
X91338694Y-110849500D01*
X91338691Y-110849500D01*
X91161309Y-110849500D01*
X91161306Y-110849500D01*
X91161301Y-110849500D01*
X90987352Y-110884100D01*
X90987345Y-110884101D01*
X90987322Y-110884109D01*
X90823472Y-110951977D01*
X90823454Y-110951985D01*
X90823439Y-110951994D01*
X90675962Y-111050536D01*
X90675961Y-111050537D01*
X90675955Y-111050542D01*
X90550542Y-111175955D01*
X90550537Y-111175961D01*
X90550536Y-111175962D01*
X90451994Y-111323439D01*
X90451985Y-111323454D01*
X90451977Y-111323472D01*
X90384109Y-111487322D01*
X90384101Y-111487345D01*
X90384099Y-111487352D01*
X90349500Y-111661299D01*
X90349500Y-111838699D01*
X90384101Y-112012652D01*
X90384103Y-112012659D01*
X90384110Y-112012679D01*
X90388578Y-112023466D01*
X90396078Y-112052853D01*
X90397304Y-112057656D01*
X90398975Y-112073195D01*
X90395069Y-112094850D01*
X90395645Y-112097047D01*
X90393464Y-112103744D01*
X90386574Y-112141950D01*
X90383420Y-112148252D01*
X90375923Y-112157633D01*
X90374019Y-112163485D01*
X90352757Y-112186625D01*
X90352197Y-112187327D01*
X90352410Y-112187575D01*
X90352396Y-112187587D01*
X90351169Y-112188613D01*
X90351130Y-112188663D01*
X90350310Y-112189335D01*
X90350308Y-112189333D01*
X90350140Y-112189475D01*
X90350009Y-112189582D01*
X90348397Y-112190876D01*
X90342426Y-112195588D01*
X90339945Y-112197837D01*
X90330170Y-112205854D01*
X90329001Y-112208662D01*
X90320288Y-112218343D01*
X90221288Y-112317343D01*
X90213201Y-112330454D01*
X90130048Y-112465268D01*
X90129185Y-112466667D01*
X90129180Y-112466680D01*
X90101349Y-112550668D01*
X90101349Y-112550670D01*
X90100745Y-112552493D01*
X90084299Y-112602123D01*
X90075852Y-112615068D01*
X90074364Y-112629635D01*
X90073542Y-112635877D01*
X90073359Y-112639476D01*
X90063500Y-112735973D01*
X90063500Y-112735982D01*
X90063500Y-112735983D01*
X90063500Y-114086001D01*
X90063501Y-114086018D01*
X90074000Y-114188796D01*
X90074001Y-114188799D01*
X90103194Y-114276895D01*
X90129186Y-114355334D01*
X90221288Y-114504656D01*
X90345344Y-114628712D01*
X90494666Y-114720814D01*
X90569291Y-114745542D01*
X90589341Y-114752186D01*
X90601726Y-114760761D01*
X90620922Y-114767942D01*
X90626772Y-114771992D01*
X90637977Y-114785860D01*
X90646786Y-114791959D01*
X90650899Y-114801851D01*
X90670684Y-114826338D01*
X90678244Y-114895798D01*
X90657304Y-114937764D01*
X90656954Y-114939121D01*
X90656349Y-114939680D01*
X90647050Y-114958318D01*
X90615497Y-114977466D01*
X90605662Y-114986564D01*
X90598382Y-114987852D01*
X90589081Y-114993498D01*
X90585530Y-114994475D01*
X90583413Y-114995057D01*
X90550519Y-114999500D01*
X89028570Y-114999500D01*
X88993629Y-114994475D01*
X88986802Y-114992470D01*
X88928026Y-114954693D01*
X88899004Y-114891135D01*
X88908951Y-114821977D01*
X88952923Y-114770346D01*
X88957822Y-114767077D01*
X88987626Y-114752527D01*
X89083334Y-114720814D01*
X89232656Y-114628712D01*
X89356712Y-114504656D01*
X89448814Y-114355334D01*
X89503999Y-114188797D01*
X89514500Y-114086009D01*
X89514499Y-112735992D01*
X89504706Y-112640129D01*
X89503999Y-112633203D01*
X89503998Y-112633200D01*
X89496478Y-112610506D01*
X89491940Y-112596811D01*
X89469815Y-112530044D01*
X89448814Y-112466666D01*
X89356712Y-112317344D01*
X89232656Y-112193288D01*
X89232655Y-112193287D01*
X89134834Y-112132951D01*
X89134828Y-112132948D01*
X89132614Y-112131582D01*
X89083336Y-112101187D01*
X89083331Y-112101185D01*
X89081862Y-112100698D01*
X89042609Y-112087691D01*
X88925265Y-112048807D01*
X88922445Y-112047641D01*
X88916792Y-112045999D01*
X88814019Y-112035500D01*
X88814010Y-112035500D01*
X87963998Y-112035500D01*
X87963980Y-112035501D01*
X87963972Y-112035501D01*
X87963953Y-112035503D01*
X87861197Y-112046000D01*
X87861193Y-112046001D01*
X87861032Y-112046056D01*
X87694667Y-112101185D01*
X87694665Y-112101186D01*
X87694663Y-112101187D01*
X87618500Y-112148165D01*
X87545340Y-112193290D01*
X87421290Y-112317340D01*
X87413203Y-112330452D01*
X87329187Y-112466663D01*
X87329185Y-112466666D01*
X87329184Y-112466669D01*
X87328722Y-112467934D01*
X87328528Y-112468306D01*
X87328486Y-112468414D01*
X87328475Y-112468409D01*
X87314201Y-112495965D01*
X87305465Y-112508582D01*
X87251121Y-112552493D01*
X87185944Y-112560742D01*
X87174615Y-112559120D01*
X87144740Y-112550935D01*
X87130668Y-112545106D01*
X87130653Y-112545101D01*
X87130646Y-112545099D01*
X86956698Y-112510500D01*
X86956694Y-112510500D01*
X86956691Y-112510500D01*
X86779309Y-112510500D01*
X86779306Y-112510500D01*
X86779301Y-112510500D01*
X86605352Y-112545100D01*
X86605345Y-112545101D01*
X86605322Y-112545109D01*
X86441472Y-112612977D01*
X86441454Y-112612985D01*
X86441439Y-112612994D01*
X86293962Y-112711536D01*
X86293961Y-112711537D01*
X86293955Y-112711542D01*
X86168542Y-112836955D01*
X86168537Y-112836961D01*
X86168536Y-112836962D01*
X86069994Y-112984439D01*
X86069985Y-112984454D01*
X86069977Y-112984472D01*
X86002109Y-113148322D01*
X86002101Y-113148345D01*
X86002099Y-113148352D01*
X85967500Y-113322299D01*
X85967500Y-113499699D01*
X86002099Y-113673646D01*
X86002101Y-113673653D01*
X86002109Y-113673676D01*
X86069977Y-113837526D01*
X86069985Y-113837544D01*
X86069994Y-113837559D01*
X86168536Y-113985036D01*
X86168537Y-113985037D01*
X86168542Y-113985043D01*
X86293955Y-114110456D01*
X86293961Y-114110461D01*
X86293965Y-114110464D01*
X86441446Y-114209009D01*
X86441459Y-114209016D01*
X86534087Y-114247383D01*
X86605334Y-114276894D01*
X86605336Y-114276894D01*
X86605341Y-114276896D01*
X86771680Y-114309982D01*
X86774403Y-114310704D01*
X86779306Y-114311500D01*
X86956693Y-114311500D01*
X86960165Y-114311500D01*
X86965722Y-114309740D01*
X86967167Y-114309415D01*
X87130666Y-114276894D01*
X87152572Y-114267819D01*
X87163001Y-114265480D01*
X87166897Y-114265733D01*
X87176880Y-114263184D01*
X87192087Y-114261549D01*
X87260843Y-114273953D01*
X87309693Y-114317856D01*
X87315881Y-114327498D01*
X87326061Y-114348825D01*
X87326134Y-114348791D01*
X87329183Y-114355328D01*
X87329185Y-114355331D01*
X87329186Y-114355334D01*
X87421288Y-114504656D01*
X87545344Y-114628712D01*
X87694666Y-114720814D01*
X87769291Y-114745542D01*
X87789341Y-114752186D01*
X87801726Y-114760761D01*
X87820922Y-114767942D01*
X87826772Y-114771992D01*
X87837977Y-114785860D01*
X87846786Y-114791959D01*
X87850899Y-114801851D01*
X87870684Y-114826338D01*
X87878244Y-114895798D01*
X87857304Y-114937764D01*
X87856954Y-114939121D01*
X87856349Y-114939680D01*
X87847050Y-114958318D01*
X87815497Y-114977466D01*
X87805662Y-114986564D01*
X87798382Y-114987852D01*
X87789081Y-114993498D01*
X87785530Y-114994475D01*
X87783413Y-114995057D01*
X87750519Y-114999500D01*
X78619863Y-114999500D01*
X78584924Y-114994476D01*
X78569597Y-114989975D01*
X78511237Y-114952676D01*
X78501295Y-114941320D01*
X78482331Y-114912296D01*
X78432225Y-114805448D01*
X78430682Y-114802158D01*
X78430312Y-114801531D01*
X78211661Y-114424689D01*
X77960564Y-114067691D01*
X77960560Y-114067686D01*
X77890919Y-113985040D01*
X77890916Y-113985037D01*
X77890913Y-113985034D01*
X77684538Y-113740117D01*
X77679547Y-113734194D01*
X77679331Y-113733938D01*
X77679325Y-113733931D01*
X77679320Y-113733925D01*
X77370069Y-113425930D01*
X77370058Y-113425921D01*
X77142477Y-113235729D01*
X77057597Y-113164794D01*
X77035162Y-113146045D01*
X76970645Y-113101057D01*
X76969344Y-113100150D01*
X76968068Y-113099211D01*
X76967786Y-113098840D01*
X76963590Y-113095756D01*
X76962438Y-113094824D01*
X76962036Y-113094555D01*
X76945452Y-113083462D01*
X76943479Y-113082115D01*
X76943478Y-113082114D01*
X76677150Y-112896405D01*
X76602287Y-112853374D01*
X76602260Y-112853358D01*
X76599984Y-112852049D01*
X76592865Y-112847628D01*
X76586439Y-112843330D01*
X76586438Y-112843329D01*
X76586424Y-112843320D01*
X76556878Y-112827214D01*
X76556179Y-112826833D01*
X76553832Y-112825520D01*
X76552195Y-112824581D01*
X76552193Y-112824579D01*
X76552168Y-112824565D01*
X76552168Y-112824563D01*
X76552109Y-112824531D01*
X76355524Y-112711535D01*
X76298935Y-112679008D01*
X76298755Y-112678904D01*
X76298745Y-112678899D01*
X76226846Y-112645536D01*
X76208149Y-112636860D01*
X76204882Y-112635344D01*
X76189227Y-112626811D01*
X76148430Y-112609147D01*
X76147044Y-112608504D01*
X76147012Y-112608490D01*
X76146222Y-112608124D01*
X76146147Y-112608088D01*
X76146147Y-112608089D01*
X75920907Y-112503574D01*
X75920905Y-112503573D01*
X75916743Y-112501642D01*
X75902830Y-112495186D01*
X75799186Y-112457678D01*
X75798413Y-112457398D01*
X75797643Y-112457108D01*
X75797357Y-112456892D01*
X75792196Y-112454677D01*
X75792113Y-112454869D01*
X75774101Y-112447071D01*
X75774092Y-112447068D01*
X75728839Y-112432164D01*
X75728860Y-112432099D01*
X75728416Y-112432024D01*
X75728401Y-112432019D01*
X75728562Y-112431533D01*
X75725416Y-112430982D01*
X75721525Y-112429574D01*
X75501264Y-112349864D01*
X75492408Y-112346659D01*
X75375232Y-112315487D01*
X75375232Y-112315488D01*
X75371755Y-112314563D01*
X75344424Y-112305562D01*
X75293958Y-112293868D01*
X75292041Y-112293358D01*
X75292038Y-112293356D01*
X75070302Y-112234370D01*
X75069865Y-112234265D01*
X75067557Y-112233922D01*
X75041992Y-112229460D01*
X75020262Y-112225668D01*
X75020261Y-112225667D01*
X74940040Y-112211669D01*
X74940038Y-112211669D01*
X74940021Y-112211666D01*
X74940020Y-112211666D01*
X74936672Y-112211081D01*
X74903727Y-112203448D01*
X74851987Y-112196302D01*
X74851129Y-112196152D01*
X74849808Y-112195922D01*
X74849807Y-112195921D01*
X74849764Y-112195914D01*
X74772756Y-112182476D01*
X74645085Y-112160197D01*
X74644307Y-112160032D01*
X74640662Y-112159424D01*
X74496875Y-112147092D01*
X74496875Y-112147093D01*
X74493662Y-112146817D01*
X74455607Y-112141563D01*
X74404439Y-112139167D01*
X74402039Y-112138962D01*
X74402033Y-112138959D01*
X74402020Y-112138961D01*
X74373988Y-112136557D01*
X74205804Y-112122136D01*
X74205800Y-112122136D01*
X74205798Y-112122136D01*
X74205541Y-112122136D01*
X74205438Y-112122136D01*
X74183940Y-112122171D01*
X74049271Y-112122396D01*
X74049272Y-112122397D01*
X74046266Y-112122402D01*
X74003728Y-112120411D01*
X73954629Y-112122556D01*
X73952017Y-112122561D01*
X73951942Y-112122563D01*
X73772789Y-112122865D01*
X73772776Y-112122865D01*
X73770232Y-112122870D01*
X73769341Y-112122872D01*
X73769332Y-112122872D01*
X73769329Y-112122873D01*
X73763019Y-112123435D01*
X73762976Y-112123438D01*
X73603235Y-112137679D01*
X73603185Y-112137684D01*
X73600762Y-112137899D01*
X73595223Y-112138265D01*
X73551795Y-112140165D01*
X73551783Y-112140166D01*
X73508750Y-112145973D01*
X73503235Y-112146592D01*
X73500378Y-112146848D01*
X73500318Y-112146850D01*
X73500319Y-112146853D01*
X73334626Y-112161624D01*
X73334584Y-112161630D01*
X73154833Y-112193624D01*
X73153489Y-112193856D01*
X73153459Y-112193861D01*
X73149660Y-112194434D01*
X73103485Y-112200666D01*
X73103478Y-112200667D01*
X73070985Y-112208089D01*
X73064845Y-112209492D01*
X73059003Y-112210679D01*
X73058998Y-112210679D01*
X73058998Y-112210680D01*
X73055829Y-112211245D01*
X73055818Y-112211247D01*
X73055816Y-112211246D01*
X73055777Y-112211254D01*
X72934282Y-112232879D01*
X72899009Y-112234056D01*
X72885213Y-112232540D01*
X72820724Y-112205651D01*
X72781011Y-112148165D01*
X72781009Y-112148159D01*
X72780800Y-112147527D01*
X72778133Y-112139449D01*
X72777252Y-112136780D01*
X72771000Y-112097903D01*
X72771000Y-100711000D01*
X71755000Y-99695000D01*
X70880830Y-99695000D01*
X70880825Y-99694999D01*
X70880823Y-99695000D01*
X70845889Y-99689975D01*
X70830890Y-99685570D01*
X70772144Y-99647827D01*
X70772115Y-99647793D01*
X70772114Y-99647793D01*
X70772113Y-99647791D01*
X70770957Y-99646458D01*
X70743477Y-99591583D01*
X70741832Y-99584021D01*
X70739000Y-99557668D01*
X70739000Y-98693829D01*
X70744023Y-98658893D01*
X70748427Y-98643895D01*
X70786172Y-98585144D01*
X70786200Y-98585119D01*
X70786199Y-98585119D01*
X70787541Y-98583956D01*
X70842420Y-98556477D01*
X70849979Y-98554833D01*
X70876332Y-98552000D01*
X73590808Y-98552000D01*
X73625740Y-98557021D01*
G37*
%TD.AperFunction*%
%TD*%
%TA.AperFunction,Conductor*%
%TO.N,+3.3V*%
G36*
X99855563Y-81032203D02*
G01*
X99863807Y-81032487D01*
X99866550Y-81034386D01*
X99871732Y-81035415D01*
X99872203Y-81035610D01*
X99896059Y-81054816D01*
X99921253Y-81072259D01*
X99924497Y-81077710D01*
X99926627Y-81079425D01*
X99939301Y-81102584D01*
X99939499Y-81103062D01*
X99949000Y-81150663D01*
X99949000Y-81363667D01*
X99947397Y-81383540D01*
X99947089Y-81385437D01*
X99934519Y-81423132D01*
X99933630Y-81424828D01*
X99923003Y-81441660D01*
X99187000Y-82423000D01*
X99187000Y-90680336D01*
X99185349Y-90688604D01*
X99186272Y-90693756D01*
X99177499Y-90727937D01*
X99177390Y-90728202D01*
X99177303Y-90728411D01*
X99133389Y-90782755D01*
X99110411Y-90795302D01*
X99109938Y-90795498D01*
X99072194Y-90803032D01*
X99067065Y-90804732D01*
X99065583Y-90804351D01*
X99062336Y-90805000D01*
X95120664Y-90805000D01*
X95089233Y-90798738D01*
X95080978Y-90798440D01*
X95078264Y-90796553D01*
X95073148Y-90795534D01*
X95072674Y-90795338D01*
X95048791Y-90776069D01*
X95023605Y-90758564D01*
X95020407Y-90753168D01*
X95018297Y-90751466D01*
X95005610Y-90728202D01*
X95005502Y-90727942D01*
X95005415Y-90727732D01*
X94996000Y-90680336D01*
X94996000Y-82979401D01*
X94997965Y-82957412D01*
X94998328Y-82955398D01*
X95013717Y-82914123D01*
X95014769Y-82912350D01*
X95027693Y-82894430D01*
X95436267Y-82423000D01*
X96608371Y-81070571D01*
X96627782Y-81052507D01*
X96629553Y-81051182D01*
X96677511Y-81029295D01*
X96678842Y-81029006D01*
X96679672Y-81028826D01*
X96693535Y-81027337D01*
X96695024Y-81026783D01*
X96696238Y-81027047D01*
X96705995Y-81026000D01*
X99824336Y-81026000D01*
X99855563Y-81032203D01*
G37*
%TD.AperFunction*%
%TD*%
%TA.AperFunction,Conductor*%
%TO.N,GND*%
G36*
X69346243Y-90937023D02*
G01*
X69372511Y-90944736D01*
X69390091Y-90953932D01*
X69405874Y-90959500D01*
X69405875Y-90959500D01*
X70216171Y-90959500D01*
X70251106Y-90964523D01*
X70266104Y-90968927D01*
X70324855Y-91006672D01*
X70324879Y-91006700D01*
X70324882Y-91006702D01*
X70324883Y-91006704D01*
X70326042Y-91008041D01*
X70353518Y-91062902D01*
X70355163Y-91070460D01*
X70358000Y-91096831D01*
X70358000Y-91209500D01*
X70466171Y-91209500D01*
X70501106Y-91214523D01*
X70516104Y-91218927D01*
X70574855Y-91256672D01*
X70574879Y-91256700D01*
X70574882Y-91256702D01*
X70574883Y-91256704D01*
X70576042Y-91258041D01*
X70603518Y-91312902D01*
X70605163Y-91320460D01*
X70608000Y-91346831D01*
X70608000Y-91972000D01*
X70844566Y-91972000D01*
X70860005Y-91972965D01*
X70863288Y-91973376D01*
X70871134Y-91974790D01*
X70872725Y-91974561D01*
X70881705Y-91975688D01*
X70886076Y-91977590D01*
X70903252Y-91980367D01*
X70903620Y-91980482D01*
X70924040Y-91994109D01*
X70932772Y-91997909D01*
X70935799Y-91998795D01*
X70936400Y-91999488D01*
X70945772Y-92003566D01*
X70951860Y-92012675D01*
X70961737Y-92019267D01*
X70961788Y-92019329D01*
X70962408Y-92020071D01*
X70980502Y-92049073D01*
X70982104Y-92052665D01*
X70991577Y-92085411D01*
X70991721Y-92086406D01*
X70993000Y-92104167D01*
X70993000Y-92142271D01*
X70992397Y-92154484D01*
X70992272Y-92155747D01*
X70983432Y-92190996D01*
X70978445Y-92203033D01*
X70978074Y-92203650D01*
X70978032Y-92204019D01*
X70959759Y-92234214D01*
X70958951Y-92235199D01*
X70950761Y-92244237D01*
X70104000Y-93090998D01*
X70104000Y-94097075D01*
X70101598Y-94121362D01*
X70100405Y-94127335D01*
X70075252Y-94180986D01*
X70070809Y-94186484D01*
X70068606Y-94188008D01*
X70067971Y-94189221D01*
X70061737Y-94192763D01*
X70013362Y-94226254D01*
X69998624Y-94230149D01*
X69997738Y-94230326D01*
X69996262Y-94230621D01*
X69996222Y-94230624D01*
X69991369Y-94231595D01*
X69967065Y-94234000D01*
X67446896Y-94234000D01*
X67422658Y-94231608D01*
X67421019Y-94231281D01*
X67416732Y-94230427D01*
X67364774Y-94206108D01*
X67364560Y-94206395D01*
X67363184Y-94205364D01*
X67363118Y-94205333D01*
X67362791Y-94205069D01*
X67362781Y-94205062D01*
X67361111Y-94203810D01*
X67358032Y-94199691D01*
X67354833Y-94198017D01*
X67348637Y-94187127D01*
X67319272Y-94147852D01*
X67313854Y-94128741D01*
X67312374Y-94121286D01*
X67310000Y-94097137D01*
X67310000Y-92265738D01*
X67315022Y-92230805D01*
X67318933Y-92217486D01*
X67356706Y-92158709D01*
X67420258Y-92129684D01*
X67427227Y-92128682D01*
X67475552Y-92131275D01*
X67487843Y-92134413D01*
X67495053Y-92132511D01*
X67504884Y-92133174D01*
X67531155Y-92135999D01*
X67531172Y-92136000D01*
X67591500Y-92136000D01*
X68091500Y-92136000D01*
X68151828Y-92136000D01*
X68151836Y-92136000D01*
X68151847Y-92135999D01*
X68195776Y-92131275D01*
X68211372Y-92129598D01*
X68211379Y-92129596D01*
X68346086Y-92079354D01*
X68346093Y-92079350D01*
X68461187Y-91993190D01*
X68461190Y-91993187D01*
X68547350Y-91878093D01*
X68547354Y-91878086D01*
X68597596Y-91743379D01*
X68597598Y-91743372D01*
X68599069Y-91729689D01*
X68603998Y-91683860D01*
X68604000Y-91683827D01*
X68604000Y-91519852D01*
X69408000Y-91519852D01*
X69414400Y-91579370D01*
X69414401Y-91579372D01*
X69414403Y-91579379D01*
X69464645Y-91714086D01*
X69464649Y-91714093D01*
X69486571Y-91743377D01*
X69550807Y-91829185D01*
X69550809Y-91829187D01*
X69550812Y-91829190D01*
X69665906Y-91915350D01*
X69665913Y-91915354D01*
X69800620Y-91965596D01*
X69800627Y-91965598D01*
X69807468Y-91966333D01*
X69860138Y-91971998D01*
X69860155Y-91971999D01*
X69860172Y-91972000D01*
X70108000Y-91972000D01*
X70108000Y-91459500D01*
X69408000Y-91459500D01*
X69408000Y-91519852D01*
X68604000Y-91519852D01*
X68604000Y-91436000D01*
X68091500Y-91436000D01*
X68091500Y-92136000D01*
X67591500Y-92136000D01*
X67591500Y-91327829D01*
X67596523Y-91292893D01*
X67600927Y-91277895D01*
X67610569Y-91262886D01*
X67611185Y-91260790D01*
X67612834Y-91259360D01*
X67638672Y-91219144D01*
X67640041Y-91217957D01*
X67694920Y-91190477D01*
X67702479Y-91188833D01*
X67728832Y-91186000D01*
X67841500Y-91186000D01*
X67841500Y-91077829D01*
X67842589Y-91070258D01*
X67846523Y-91042893D01*
X67850927Y-91027895D01*
X67888672Y-90969144D01*
X67888700Y-90969119D01*
X67888699Y-90969119D01*
X67890041Y-90967956D01*
X67944920Y-90940477D01*
X67952479Y-90938833D01*
X67978832Y-90936000D01*
X68631804Y-90936000D01*
X68646021Y-90933434D01*
X68652774Y-90932708D01*
X68666005Y-90932000D01*
X69311308Y-90932000D01*
X69346243Y-90937023D01*
G37*
%TD.AperFunction*%
%TD*%
%TA.AperFunction,Conductor*%
%TO.N,Net-(U3-SW)*%
G36*
X92932435Y-76456677D02*
G01*
X92934580Y-76457131D01*
X92943706Y-76461168D01*
X92950201Y-76461517D01*
X92981474Y-76477877D01*
X92983249Y-76479157D01*
X93002474Y-76496322D01*
X94200280Y-77813908D01*
X94214009Y-77832131D01*
X94215101Y-77833898D01*
X94231513Y-77876332D01*
X94231894Y-77878373D01*
X94234000Y-77901127D01*
X94234000Y-81282336D01*
X94232349Y-81290604D01*
X94233272Y-81295756D01*
X94224499Y-81329937D01*
X94224303Y-81330411D01*
X94180389Y-81384755D01*
X94157411Y-81397302D01*
X94156938Y-81397498D01*
X94119194Y-81405032D01*
X94114065Y-81406732D01*
X94112583Y-81406351D01*
X94109336Y-81407000D01*
X92894573Y-81407000D01*
X92868777Y-81404287D01*
X92866633Y-81403831D01*
X92819519Y-81382844D01*
X92817743Y-81381553D01*
X92798485Y-81364205D01*
X91727292Y-80173990D01*
X91713737Y-80155836D01*
X91712654Y-80154069D01*
X91696450Y-80111848D01*
X91696073Y-80109812D01*
X91694000Y-80087235D01*
X91694000Y-79691007D01*
X91697091Y-79663495D01*
X91697586Y-79661320D01*
X91721479Y-79611609D01*
X91722875Y-79609854D01*
X91742422Y-79590262D01*
X92324675Y-79124460D01*
X92329000Y-79121000D01*
X92456000Y-78994000D01*
X92456000Y-78105000D01*
X92373177Y-77889661D01*
X92368835Y-77878373D01*
X91885812Y-76622513D01*
X91880119Y-76552876D01*
X91912978Y-76491215D01*
X91973957Y-76457108D01*
X92001547Y-76454000D01*
X92906802Y-76454000D01*
X92932435Y-76456677D01*
G37*
%TD.AperFunction*%
%TD*%
%TA.AperFunction,Conductor*%
%TO.N,+3.3V*%
G36*
X98617971Y-49151381D02*
G01*
X98658346Y-49159412D01*
X98703043Y-49177927D01*
X98726913Y-49193877D01*
X98732805Y-49199769D01*
X98737537Y-49201829D01*
X98761122Y-49228086D01*
X98777072Y-49251956D01*
X98795588Y-49296655D01*
X98803617Y-49337020D01*
X98806000Y-49361210D01*
X98806000Y-49905539D01*
X98801739Y-49937767D01*
X98787655Y-49990094D01*
X98755304Y-50045840D01*
X98716857Y-50084031D01*
X98690990Y-50103719D01*
X96858860Y-51150650D01*
X96844409Y-51157707D01*
X96818943Y-51168156D01*
X96787925Y-51176394D01*
X96777809Y-51177714D01*
X96760624Y-51179957D01*
X96744580Y-51181000D01*
X94827211Y-51181000D01*
X94803020Y-51178617D01*
X94787744Y-51175578D01*
X94762656Y-51170588D01*
X94754952Y-51167397D01*
X94749793Y-51167305D01*
X94717956Y-51152072D01*
X94694086Y-51136122D01*
X94659877Y-51101913D01*
X94643927Y-51078043D01*
X94625412Y-51033346D01*
X94617381Y-50992971D01*
X94615000Y-50968789D01*
X94615000Y-49361210D01*
X94617381Y-49337029D01*
X94625412Y-49296651D01*
X94643927Y-49251956D01*
X94659877Y-49228086D01*
X94694086Y-49193877D01*
X94717956Y-49177927D01*
X94762653Y-49159412D01*
X94803027Y-49151381D01*
X94827211Y-49149000D01*
X98593789Y-49149000D01*
X98617971Y-49151381D01*
G37*
%TD.AperFunction*%
%TD*%
M02*
