%TF.GenerationSoftware,KiCad,Pcbnew,10.0.4*%
%TF.CreationDate,2026-07-06T14:32:58+02:00*%
%TF.ProjectId,spinkovacka,7370696e-6b6f-4766-9163-6b612e6b6963,rev?*%
%TF.SameCoordinates,Original*%
%TF.FileFunction,Copper,L2,Bot*%
%TF.FilePolarity,Positive*%
%FSLAX46Y46*%
G04 Gerber Fmt 4.6, Leading zero omitted, Abs format (unit mm)*
G04 Created by KiCad (PCBNEW 10.0.4) date 2026-07-06 14:32:58*
%MOMM*%
%LPD*%
G01*
G04 APERTURE LIST*
G04 Aperture macros list*
%AMRoundRect*
0 Rectangle with rounded corners*
0 $1 Rounding radius*
0 $2 $3 $4 $5 $6 $7 $8 $9 X,Y pos of 4 corners*
0 Add a 4 corners polygon primitive as box body*
4,1,4,$2,$3,$4,$5,$6,$7,$8,$9,$2,$3,0*
0 Add four circle primitives for the rounded corners*
1,1,$1+$1,$2,$3*
1,1,$1+$1,$4,$5*
1,1,$1+$1,$6,$7*
1,1,$1+$1,$8,$9*
0 Add four rect primitives between the rounded corners*
20,1,$1+$1,$2,$3,$4,$5,0*
20,1,$1+$1,$4,$5,$6,$7,0*
20,1,$1+$1,$6,$7,$8,$9,0*
20,1,$1+$1,$8,$9,$2,$3,0*%
G04 Aperture macros list end*
%TA.AperFunction,HeatsinkPad*%
%ADD10C,0.600000*%
%TD*%
%TA.AperFunction,HeatsinkPad*%
%ADD11R,1.800000X4.400000*%
%TD*%
%TA.AperFunction,ComponentPad*%
%ADD12RoundRect,2.500000X-0.000010X-9.500000X0.000010X-9.500000X0.000010X9.500000X-0.000010X9.500000X0*%
%TD*%
%TA.AperFunction,ComponentPad*%
%ADD13RoundRect,0.250000X-0.625000X0.350000X-0.625000X-0.350000X0.625000X-0.350000X0.625000X0.350000X0*%
%TD*%
%TA.AperFunction,ComponentPad*%
%ADD14O,1.750000X1.200000*%
%TD*%
%TA.AperFunction,ComponentPad*%
%ADD15RoundRect,0.250000X0.350000X0.625000X-0.350000X0.625000X-0.350000X-0.625000X0.350000X-0.625000X0*%
%TD*%
%TA.AperFunction,ComponentPad*%
%ADD16O,1.200000X1.750000*%
%TD*%
%TA.AperFunction,ComponentPad*%
%ADD17RoundRect,0.250000X0.600000X0.750000X-0.600000X0.750000X-0.600000X-0.750000X0.600000X-0.750000X0*%
%TD*%
%TA.AperFunction,ComponentPad*%
%ADD18O,1.700000X2.000000*%
%TD*%
%TA.AperFunction,ViaPad*%
%ADD19C,0.600000*%
%TD*%
%TA.AperFunction,ViaPad*%
%ADD20C,0.800000*%
%TD*%
%TA.AperFunction,ViaPad*%
%ADD21C,1.000000*%
%TD*%
%TA.AperFunction,Conductor*%
%ADD22C,0.350000*%
%TD*%
%TA.AperFunction,Conductor*%
%ADD23C,2.000000*%
%TD*%
%TA.AperFunction,Conductor*%
%ADD24C,1.000000*%
%TD*%
%TA.AperFunction,Conductor*%
%ADD25C,0.500000*%
%TD*%
G04 APERTURE END LIST*
D10*
%TO.P,U2,9,GND_9*%
%TO.N,GND*%
X68026000Y-94644000D03*
X68026000Y-95944000D03*
X68026000Y-97244000D03*
X68026000Y-98544000D03*
D11*
X68676000Y-96594000D03*
D10*
X69326000Y-94644000D03*
X69326000Y-95944000D03*
X69326000Y-97244000D03*
X69326000Y-98544000D03*
%TD*%
D12*
%TO.P,J5,1,Pin_1_1*%
%TO.N,VBAT*%
X106996000Y-95123000D03*
%TO.P,J5,2,Pin_2_2*%
%TO.N,GND*%
X82996000Y-95123000D03*
%TD*%
D13*
%TO.P,J3,1,Pin_1_1*%
%TO.N,+3.3V*%
X79290000Y-68642000D03*
D14*
%TO.P,J3,2,Pin_2_2*%
%TO.N,GND*%
X79290000Y-70642000D03*
%TO.P,J3,3,Pin_3_3*%
%TO.N,/LSW_1*%
X79290000Y-72642000D03*
%TO.P,J3,4,Pin_4_4*%
%TO.N,/LSW_2*%
X79290000Y-74642000D03*
%TD*%
D15*
%TO.P,J2,1,Pin_1_1*%
%TO.N,Net-(D4-K)*%
X117078000Y-79290000D03*
D16*
%TO.P,J2,2,Pin_2_2*%
%TO.N,GND*%
X115078000Y-79290000D03*
%TD*%
D15*
%TO.P,J4,1,Pin_1_1*%
%TO.N,+3.3V*%
X83740000Y-54017000D03*
D16*
%TO.P,J4,2,Pin_2_2*%
%TO.N,GND*%
X81740000Y-54017000D03*
%TO.P,J4,3,Pin_3_3*%
%TO.N,/TXD0*%
X79740000Y-54017000D03*
%TO.P,J4,4,Pin_4_4*%
%TO.N,/RXD0*%
X77740000Y-54017000D03*
%TO.P,J4,5,Pin_5_5*%
%TO.N,/DTR*%
X75740000Y-54017000D03*
%TO.P,J4,6,Pin_6_6*%
%TO.N,/RTS*%
X73740000Y-54017000D03*
%TD*%
D10*
%TO.P,U1,39,GND_39*%
%TO.N,GND*%
X105304000Y-55345000D03*
X105304000Y-56745000D03*
X106004000Y-54645000D03*
X106004000Y-56045000D03*
X106004000Y-57445000D03*
X106704000Y-55345000D03*
X106704000Y-56745000D03*
X107404000Y-54645000D03*
X107404000Y-56045000D03*
X107404000Y-57445000D03*
X108104000Y-55345000D03*
X108104000Y-56745000D03*
%TD*%
D17*
%TO.P,J1,1,Pin_1_1*%
%TO.N,Net-(J1-Pin_1)*%
X75692000Y-83058000D03*
D18*
%TO.P,J1,2,Pin_2_2*%
%TO.N,Net-(J1-Pin_2)*%
X73192000Y-83058000D03*
%TD*%
D19*
%TO.N,GND*%
X68580000Y-100584000D03*
X68580000Y-99568000D03*
D20*
X97917000Y-48260000D03*
D19*
X68580000Y-101600000D03*
X69596000Y-102616000D03*
X69596000Y-99568000D03*
X69596000Y-101600000D03*
X65659000Y-105537000D03*
D20*
X90932000Y-86487000D03*
X106783500Y-70231000D03*
X115062000Y-89281000D03*
D19*
X69596000Y-100584000D03*
X69088000Y-103632000D03*
D20*
X95885000Y-48260000D03*
D19*
X66675000Y-105537000D03*
D20*
X91948000Y-86487000D03*
X96901000Y-48260000D03*
D21*
X102489000Y-64516000D03*
D20*
X93218000Y-111125000D03*
D19*
X68199000Y-93218000D03*
D20*
X90551000Y-82169000D03*
D21*
X115570000Y-48325000D03*
D19*
X66675000Y-106426000D03*
D20*
X91694000Y-82169000D03*
D19*
X69215000Y-93218000D03*
D20*
X91948000Y-87630000D03*
D19*
X68580000Y-102616000D03*
D20*
%TO.N,/IPROPI*%
X96647000Y-58928000D03*
X92964000Y-62357000D03*
%TO.N,+3.3V*%
X97282000Y-83341000D03*
X97282000Y-88646000D03*
X97282000Y-87630000D03*
X97750000Y-112250000D03*
X86868000Y-113411000D03*
X89662000Y-70612000D03*
X95123000Y-49784000D03*
X97282000Y-84328000D03*
X97409000Y-49784000D03*
X87884000Y-78105000D03*
D21*
X82677000Y-68580000D03*
D20*
X97282000Y-86614000D03*
X96266000Y-49784000D03*
X69723000Y-112141000D03*
D21*
X90551000Y-103060500D03*
D20*
X97282000Y-85344000D03*
%TO.N,Net-(D4-K)*%
X95750000Y-111000000D03*
%TO.N,/SWITCH*%
X101727000Y-61468000D03*
X97155000Y-61087000D03*
%TO.N,/TXD0*%
X102870000Y-53721000D03*
X95377000Y-53721000D03*
%TO.N,/RXD0*%
X94742000Y-54610000D03*
X103375627Y-54602882D03*
%TO.N,/MOT_IN2*%
X101346000Y-57912000D03*
X93091000Y-60833000D03*
%TO.N,/MOT_IN1*%
X102108000Y-56896000D03*
X92837000Y-59690000D03*
%TO.N,/LED2*%
X117856000Y-68199000D03*
X115570000Y-57150000D03*
%TO.N,Net-(LED2-K)*%
X117856000Y-72898000D03*
X103000000Y-113411000D03*
%TO.N,Net-(LED1-K)*%
X91250000Y-111750000D03*
X115443000Y-73025000D03*
%TO.N,/LED1*%
X119126000Y-66929000D03*
X115443000Y-54737000D03*
%TO.N,/GPIO0*%
X103251000Y-56007000D03*
X94107000Y-55499000D03*
%TD*%
%TO.N,Net-(LED1-K)*%
D22*
X116332000Y-73914000D02*
X115443000Y-73025000D01*
X117983000Y-73914000D02*
X116332000Y-73914000D01*
X125857000Y-81788000D02*
X117983000Y-73914000D01*
X125857000Y-107569000D02*
X125857000Y-81788000D01*
X122809000Y-110617000D02*
X125857000Y-107569000D01*
X109855000Y-113792000D02*
X113030000Y-110617000D01*
X104792000Y-113792000D02*
X109855000Y-113792000D01*
X102500000Y-111500000D02*
X104792000Y-113792000D01*
X97001490Y-111500000D02*
X102500000Y-111500000D01*
X113030000Y-110617000D02*
X122809000Y-110617000D01*
X91500000Y-112000000D02*
X96501490Y-112000000D01*
X91250000Y-111750000D02*
X91500000Y-112000000D01*
X96501490Y-112000000D02*
X97001490Y-111500000D01*
%TO.N,Net-(D4-K)*%
X119930000Y-79290000D02*
X117078000Y-79290000D01*
X112776000Y-109982000D02*
X122555000Y-109982000D01*
X105157000Y-113157000D02*
X109601000Y-113157000D01*
X102750000Y-110750000D02*
X105157000Y-113157000D01*
X125222000Y-84582000D02*
X119930000Y-79290000D01*
X125222000Y-107315000D02*
X125222000Y-84582000D01*
X96000000Y-110750000D02*
X102750000Y-110750000D01*
X95750000Y-111000000D02*
X96000000Y-110750000D01*
X109601000Y-113157000D02*
X112776000Y-109982000D01*
X122555000Y-109982000D02*
X125222000Y-107315000D01*
%TO.N,+3.3V*%
X97750000Y-114311000D02*
X97536000Y-114525000D01*
X97536000Y-114525000D02*
X87982000Y-114525000D01*
X97750000Y-112250000D02*
X97750000Y-114311000D01*
X87982000Y-114525000D02*
X86868000Y-113411000D01*
%TO.N,Net-(LED2-K)*%
X126492000Y-81534000D02*
X117856000Y-72898000D01*
X113284000Y-111252000D02*
X123063000Y-111252000D01*
X110109000Y-114427000D02*
X113284000Y-111252000D01*
X104016000Y-114427000D02*
X110109000Y-114427000D01*
X103000000Y-113411000D02*
X104016000Y-114427000D01*
X123063000Y-111252000D02*
X126492000Y-107823000D01*
X126492000Y-107823000D02*
X126492000Y-81534000D01*
%TO.N,/IPROPI*%
X92964000Y-62357000D02*
X96393000Y-58928000D01*
X96393000Y-58928000D02*
X96647000Y-58928000D01*
%TO.N,+3.3V*%
X70739000Y-111125000D02*
X69723000Y-112141000D01*
D23*
X86995000Y-53086000D02*
X85217000Y-54864000D01*
X87884000Y-78105000D02*
X88646000Y-78867000D01*
X94996000Y-78867000D02*
X97282000Y-81153000D01*
X87884000Y-78105000D02*
X85217000Y-75438000D01*
X85217000Y-68707000D02*
X85217000Y-70612000D01*
D24*
X90551000Y-103060500D02*
X90551000Y-105156000D01*
X86064000Y-54017000D02*
X86995000Y-53086000D01*
D23*
X89916000Y-50165000D02*
X86995000Y-53086000D01*
X85217000Y-54864000D02*
X85217000Y-68707000D01*
X97155000Y-50165000D02*
X89916000Y-50165000D01*
D24*
X82677000Y-68580000D02*
X85090000Y-68580000D01*
D22*
X84582000Y-111125000D02*
X70739000Y-111125000D01*
D24*
X85090000Y-68580000D02*
X85217000Y-68707000D01*
X83740000Y-54017000D02*
X86064000Y-54017000D01*
D23*
X85217000Y-75438000D02*
X85217000Y-70612000D01*
D24*
X90551000Y-105156000D02*
X84582000Y-111125000D01*
D23*
X97282000Y-81153000D02*
X97282000Y-89154000D01*
X88646000Y-78867000D02*
X94996000Y-78867000D01*
D25*
X89662000Y-70612000D02*
X85217000Y-70612000D01*
D24*
X86868000Y-113411000D02*
X84582000Y-111125000D01*
%TO.N,/SWITCH*%
D22*
X98298000Y-61468000D02*
X101727000Y-61468000D01*
X97155000Y-61087000D02*
X97917000Y-61087000D01*
X97917000Y-61087000D02*
X98298000Y-61468000D01*
%TO.N,/TXD0*%
X102870000Y-53721000D02*
X95377000Y-53721000D01*
%TO.N,/RXD0*%
X103124000Y-54610000D02*
X94742000Y-54610000D01*
X103131118Y-54602882D02*
X103124000Y-54610000D01*
X103375627Y-54602882D02*
X103131118Y-54602882D01*
%TO.N,/MOT_IN2*%
X93091000Y-60833000D02*
X93091000Y-60706000D01*
X93091000Y-60706000D02*
X95885000Y-57912000D01*
X95885000Y-57912000D02*
X101346000Y-57912000D01*
%TO.N,/MOT_IN1*%
X95631000Y-56896000D02*
X92837000Y-59690000D01*
X102108000Y-56896000D02*
X95631000Y-56896000D01*
%TO.N,/LED2*%
X115570000Y-57150000D02*
X118237000Y-59817000D01*
X118237000Y-68072000D02*
X117983000Y-68072000D01*
X118237000Y-59817000D02*
X118237000Y-68072000D01*
X117983000Y-68072000D02*
X117856000Y-68199000D01*
%TO.N,/LED1*%
X119126000Y-66929000D02*
X118872000Y-66675000D01*
X117221000Y-54737000D02*
X115443000Y-54737000D01*
X118872000Y-56388000D02*
X117221000Y-54737000D01*
X118872000Y-66675000D02*
X118872000Y-56388000D01*
%TO.N,/GPIO0*%
X94107000Y-55499000D02*
X102743000Y-55499000D01*
X102743000Y-55499000D02*
X103251000Y-56007000D01*
%TD*%
%TA.AperFunction,Conductor*%
%TO.N,GND*%
G36*
X84195177Y-47020185D02*
G01*
X84201152Y-47025000D01*
X84204000Y-47025000D01*
X119371504Y-47025000D01*
X119438543Y-47044685D01*
X119484298Y-47097489D01*
X119495504Y-47149000D01*
X119495504Y-55898262D01*
X119475819Y-55965301D01*
X119423015Y-56011056D01*
X119353857Y-56021000D01*
X119290301Y-55991975D01*
X119283823Y-55985943D01*
X117574367Y-54276487D01*
X117574365Y-54276485D01*
X117508750Y-54238602D01*
X117443136Y-54200719D01*
X117369950Y-54181109D01*
X117296766Y-54161500D01*
X117296765Y-54161500D01*
X116050941Y-54161500D01*
X115983902Y-54141815D01*
X115963260Y-54125181D01*
X115953292Y-54115213D01*
X115953288Y-54115210D01*
X115822185Y-54027609D01*
X115822172Y-54027602D01*
X115676501Y-53967264D01*
X115676489Y-53967261D01*
X115521845Y-53936500D01*
X115521842Y-53936500D01*
X115364158Y-53936500D01*
X115364155Y-53936500D01*
X115209510Y-53967261D01*
X115209498Y-53967264D01*
X115063827Y-54027602D01*
X115063814Y-54027609D01*
X114932711Y-54115210D01*
X114932707Y-54115213D01*
X114821213Y-54226707D01*
X114821210Y-54226711D01*
X114733609Y-54357814D01*
X114733602Y-54357827D01*
X114673264Y-54503498D01*
X114673261Y-54503510D01*
X114642500Y-54658153D01*
X114642500Y-54815846D01*
X114673261Y-54970489D01*
X114673264Y-54970501D01*
X114733602Y-55116172D01*
X114733609Y-55116185D01*
X114821210Y-55247288D01*
X114821213Y-55247292D01*
X114932707Y-55358786D01*
X114932711Y-55358789D01*
X115063814Y-55446390D01*
X115063827Y-55446397D01*
X115182297Y-55495468D01*
X115209503Y-55506737D01*
X115364153Y-55537499D01*
X115364156Y-55537500D01*
X115364158Y-55537500D01*
X115521844Y-55537500D01*
X115521845Y-55537499D01*
X115676497Y-55506737D01*
X115822179Y-55446394D01*
X115953289Y-55358789D01*
X115953292Y-55358786D01*
X115963260Y-55348819D01*
X116024583Y-55315334D01*
X116050941Y-55312500D01*
X116931258Y-55312500D01*
X116998297Y-55332185D01*
X117018939Y-55348819D01*
X118260181Y-56590061D01*
X118293666Y-56651384D01*
X118296500Y-56677742D01*
X118296500Y-58763258D01*
X118276815Y-58830297D01*
X118224011Y-58876052D01*
X118154853Y-58885996D01*
X118091297Y-58856971D01*
X118084819Y-58850939D01*
X116406819Y-57172939D01*
X116373334Y-57111616D01*
X116370500Y-57085258D01*
X116370500Y-57071155D01*
X116370499Y-57071153D01*
X116339738Y-56916510D01*
X116339737Y-56916503D01*
X116307680Y-56839110D01*
X116279397Y-56770827D01*
X116279390Y-56770814D01*
X116191789Y-56639711D01*
X116191786Y-56639707D01*
X116080292Y-56528213D01*
X116080288Y-56528210D01*
X115949185Y-56440609D01*
X115949172Y-56440602D01*
X115803501Y-56380264D01*
X115803489Y-56380261D01*
X115648845Y-56349500D01*
X115648842Y-56349500D01*
X115491158Y-56349500D01*
X115491155Y-56349500D01*
X115336510Y-56380261D01*
X115336498Y-56380264D01*
X115190827Y-56440602D01*
X115190814Y-56440609D01*
X115059711Y-56528210D01*
X115059707Y-56528213D01*
X114948213Y-56639707D01*
X114948210Y-56639711D01*
X114860609Y-56770814D01*
X114860602Y-56770827D01*
X114800264Y-56916498D01*
X114800261Y-56916510D01*
X114769500Y-57071153D01*
X114769500Y-57228846D01*
X114800261Y-57383489D01*
X114800264Y-57383501D01*
X114860602Y-57529172D01*
X114860609Y-57529185D01*
X114948210Y-57660288D01*
X114948213Y-57660292D01*
X115059707Y-57771786D01*
X115059711Y-57771789D01*
X115190814Y-57859390D01*
X115190827Y-57859397D01*
X115336498Y-57919735D01*
X115336503Y-57919737D01*
X115491153Y-57950499D01*
X115491156Y-57950500D01*
X115491158Y-57950500D01*
X115505258Y-57950500D01*
X115572297Y-57970185D01*
X115592939Y-57986819D01*
X117625181Y-60019061D01*
X117658666Y-60080384D01*
X117661500Y-60106742D01*
X117661500Y-67330255D01*
X117641815Y-67397294D01*
X117589011Y-67443049D01*
X117584953Y-67444816D01*
X117476824Y-67489604D01*
X117476814Y-67489609D01*
X117345711Y-67577210D01*
X117345707Y-67577213D01*
X117234213Y-67688707D01*
X117234210Y-67688711D01*
X117146609Y-67819814D01*
X117146602Y-67819827D01*
X117086264Y-67965498D01*
X117086261Y-67965510D01*
X117055500Y-68120153D01*
X117055500Y-68277846D01*
X117086261Y-68432489D01*
X117086264Y-68432501D01*
X117146602Y-68578172D01*
X117146609Y-68578185D01*
X117234210Y-68709288D01*
X117234213Y-68709292D01*
X117345707Y-68820786D01*
X117345711Y-68820789D01*
X117476814Y-68908390D01*
X117476827Y-68908397D01*
X117622498Y-68968735D01*
X117622503Y-68968737D01*
X117777153Y-68999499D01*
X117777156Y-68999500D01*
X117777158Y-68999500D01*
X117934844Y-68999500D01*
X117934845Y-68999499D01*
X118089497Y-68968737D01*
X118235179Y-68908394D01*
X118366289Y-68820789D01*
X118477789Y-68709289D01*
X118565394Y-68578179D01*
X118570583Y-68565648D01*
X118597460Y-68525419D01*
X118697515Y-68425365D01*
X118773281Y-68294135D01*
X118812500Y-68147766D01*
X118812500Y-67833918D01*
X118832185Y-67766879D01*
X118884989Y-67721124D01*
X118954147Y-67711180D01*
X118960692Y-67712301D01*
X119047155Y-67729500D01*
X119047158Y-67729500D01*
X119204844Y-67729500D01*
X119204845Y-67729499D01*
X119359497Y-67698737D01*
X119490677Y-67644401D01*
X119505172Y-67638397D01*
X119505172Y-67638396D01*
X119505179Y-67638394D01*
X119636289Y-67550789D01*
X119747789Y-67439289D01*
X119835394Y-67308179D01*
X119895737Y-67162497D01*
X119926500Y-67007842D01*
X119926500Y-66850158D01*
X119926500Y-66850155D01*
X119926499Y-66850153D01*
X119895738Y-66695510D01*
X119895737Y-66695503D01*
X119835498Y-66550071D01*
X119835397Y-66549827D01*
X119835390Y-66549814D01*
X119747789Y-66418711D01*
X119747786Y-66418707D01*
X119636292Y-66307213D01*
X119636284Y-66307207D01*
X119502610Y-66217889D01*
X119457804Y-66164277D01*
X119447500Y-66114787D01*
X119447500Y-61545212D01*
X119452363Y-61528650D01*
X119452202Y-61511389D01*
X119462003Y-61495820D01*
X119467185Y-61478173D01*
X119480228Y-61466870D01*
X119489426Y-61452261D01*
X119506088Y-61444462D01*
X119519989Y-61432418D01*
X119537072Y-61429961D01*
X119552708Y-61422644D01*
X119570939Y-61425091D01*
X119589147Y-61422474D01*
X119604849Y-61429645D01*
X119621956Y-61431942D01*
X119635968Y-61443856D01*
X119652703Y-61451499D01*
X119662250Y-61466204D01*
X119675185Y-61477202D01*
X119687913Y-61505728D01*
X119690146Y-61509168D01*
X119690791Y-61511293D01*
X119717265Y-61611297D01*
X119742505Y-61681520D01*
X119743406Y-61684485D01*
X119743407Y-61684656D01*
X119743929Y-61686243D01*
X119748584Y-61698491D01*
X119749362Y-61700597D01*
X119863256Y-62017473D01*
X119899192Y-62095559D01*
X119899191Y-62095559D01*
X119900966Y-62099416D01*
X119905261Y-62110716D01*
X119921164Y-62143304D01*
X119921743Y-62144561D01*
X119921762Y-62144600D01*
X120043701Y-62409563D01*
X120043705Y-62409571D01*
X120093572Y-62497157D01*
X120095521Y-62500581D01*
X120104416Y-62518807D01*
X120128914Y-62559234D01*
X120129763Y-62560724D01*
X120257262Y-62784661D01*
X120257266Y-62784668D01*
X120323192Y-62880242D01*
X120325274Y-62883260D01*
X120339756Y-62907158D01*
X120370551Y-62948899D01*
X120371678Y-62950533D01*
X120391167Y-62978786D01*
X120502340Y-63139956D01*
X120588563Y-63244404D01*
X120609341Y-63272568D01*
X120644196Y-63311797D01*
X120712895Y-63395017D01*
X120777118Y-63472816D01*
X120881363Y-63578962D01*
X120883544Y-63581183D01*
X120910950Y-63612028D01*
X120947731Y-63646539D01*
X120949482Y-63648322D01*
X120949507Y-63648347D01*
X121079552Y-63780763D01*
X121079554Y-63780765D01*
X121206017Y-63889061D01*
X121208156Y-63890893D01*
X121242098Y-63922740D01*
X121278775Y-63951367D01*
X121407393Y-64061509D01*
X121560287Y-64171102D01*
X121600057Y-64202144D01*
X121634766Y-64224488D01*
X121637286Y-64226294D01*
X121637288Y-64226297D01*
X121758184Y-64312953D01*
X121758189Y-64312955D01*
X121758203Y-64312966D01*
X121937753Y-64419533D01*
X121981877Y-64447938D01*
X122012889Y-64464128D01*
X122094552Y-64512597D01*
X122129358Y-64533256D01*
X122129361Y-64533258D01*
X122129372Y-64533264D01*
X122338454Y-64634102D01*
X122384411Y-64658096D01*
X122410238Y-64668723D01*
X122413518Y-64670305D01*
X122413533Y-64670312D01*
X122518139Y-64720763D01*
X122608199Y-64754982D01*
X122760682Y-64812921D01*
X122804345Y-64830887D01*
X122823684Y-64836859D01*
X122921620Y-64874072D01*
X123203629Y-64954205D01*
X123238217Y-64964888D01*
X123250025Y-64967388D01*
X123336807Y-64992048D01*
X123668793Y-65056099D01*
X123682452Y-65058994D01*
X123685932Y-65059406D01*
X123760614Y-65073815D01*
X124189889Y-65118764D01*
X124621441Y-65126561D01*
X125052061Y-65097149D01*
X125235499Y-65068605D01*
X125235501Y-65068605D01*
X125259802Y-65064825D01*
X125260890Y-65064656D01*
X125260900Y-65064654D01*
X125260931Y-65064650D01*
X125260935Y-65064650D01*
X125269751Y-65063600D01*
X125455179Y-65048258D01*
X125465663Y-65047837D01*
X125504600Y-65047930D01*
X125511861Y-65048161D01*
X125675880Y-65058214D01*
X125687950Y-65059549D01*
X125719502Y-65064616D01*
X125725045Y-65065637D01*
X125893550Y-65100670D01*
X125906835Y-65104212D01*
X125922037Y-65109183D01*
X125925865Y-65110504D01*
X125984599Y-65131861D01*
X126099892Y-65173783D01*
X126116149Y-65181055D01*
X126290221Y-65274466D01*
X126305262Y-65283989D01*
X126464149Y-65401373D01*
X126477671Y-65412951D01*
X126541645Y-65476245D01*
X126618103Y-65551891D01*
X126629832Y-65565295D01*
X126748903Y-65722912D01*
X126758591Y-65737858D01*
X126848544Y-65901266D01*
X126850438Y-65904844D01*
X126856890Y-65917528D01*
X126862442Y-65930130D01*
X126908306Y-66052181D01*
X126916231Y-66095799D01*
X126916231Y-80844989D01*
X126896546Y-80912028D01*
X126843742Y-80957783D01*
X126774584Y-80967727D01*
X126711028Y-80938702D01*
X126704550Y-80932670D01*
X118692819Y-72920939D01*
X118659334Y-72859616D01*
X118656500Y-72833258D01*
X118656500Y-72819155D01*
X118656499Y-72819153D01*
X118625738Y-72664510D01*
X118625737Y-72664503D01*
X118617996Y-72645814D01*
X118565397Y-72518827D01*
X118565390Y-72518814D01*
X118477789Y-72387711D01*
X118477786Y-72387707D01*
X118366292Y-72276213D01*
X118366288Y-72276210D01*
X118235185Y-72188609D01*
X118235172Y-72188602D01*
X118089501Y-72128264D01*
X118089489Y-72128261D01*
X117934845Y-72097500D01*
X117934842Y-72097500D01*
X117777158Y-72097500D01*
X117777155Y-72097500D01*
X117622510Y-72128261D01*
X117622498Y-72128264D01*
X117476827Y-72188602D01*
X117476814Y-72188609D01*
X117345711Y-72276210D01*
X117345707Y-72276213D01*
X117234213Y-72387707D01*
X117234210Y-72387711D01*
X117146609Y-72518814D01*
X117146602Y-72518827D01*
X117086264Y-72664498D01*
X117086261Y-72664510D01*
X117055500Y-72819153D01*
X117055500Y-72976846D01*
X117086261Y-73131489D01*
X117086263Y-73131497D01*
X117100989Y-73167048D01*
X117108457Y-73236518D01*
X117077181Y-73298997D01*
X117017092Y-73334649D01*
X116986427Y-73338500D01*
X116621742Y-73338500D01*
X116554703Y-73318815D01*
X116534061Y-73302181D01*
X116279819Y-73047939D01*
X116246334Y-72986616D01*
X116243500Y-72960258D01*
X116243500Y-72946155D01*
X116243499Y-72946153D01*
X116231259Y-72884620D01*
X116212737Y-72791503D01*
X116191628Y-72740541D01*
X116152397Y-72645827D01*
X116152390Y-72645814D01*
X116064789Y-72514711D01*
X116064786Y-72514707D01*
X115953292Y-72403213D01*
X115953288Y-72403210D01*
X115822185Y-72315609D01*
X115822172Y-72315602D01*
X115676501Y-72255264D01*
X115676489Y-72255261D01*
X115521845Y-72224500D01*
X115521842Y-72224500D01*
X115364158Y-72224500D01*
X115364155Y-72224500D01*
X115209510Y-72255261D01*
X115209498Y-72255264D01*
X115063827Y-72315602D01*
X115063814Y-72315609D01*
X114932711Y-72403210D01*
X114932707Y-72403213D01*
X114821213Y-72514707D01*
X114821210Y-72514711D01*
X114733609Y-72645814D01*
X114733602Y-72645827D01*
X114673264Y-72791498D01*
X114673261Y-72791510D01*
X114642500Y-72946153D01*
X114642500Y-73103846D01*
X114673261Y-73258489D01*
X114673264Y-73258501D01*
X114733602Y-73404172D01*
X114733609Y-73404185D01*
X114821210Y-73535288D01*
X114821213Y-73535292D01*
X114932707Y-73646786D01*
X114932711Y-73646789D01*
X115063814Y-73734390D01*
X115063827Y-73734397D01*
X115209498Y-73794735D01*
X115209503Y-73794737D01*
X115364153Y-73825499D01*
X115364156Y-73825500D01*
X115364158Y-73825500D01*
X115378258Y-73825500D01*
X115445297Y-73845185D01*
X115465939Y-73861819D01*
X115871485Y-74267365D01*
X115978635Y-74374515D01*
X116109865Y-74450281D01*
X116256234Y-74489500D01*
X117693258Y-74489500D01*
X117760297Y-74509185D01*
X117780939Y-74525819D01*
X125245181Y-81990061D01*
X125278666Y-82051384D01*
X125281500Y-82077742D01*
X125281500Y-83528258D01*
X125261815Y-83595297D01*
X125209011Y-83641052D01*
X125139853Y-83650996D01*
X125076297Y-83621971D01*
X125069819Y-83615939D01*
X120283367Y-78829487D01*
X120283365Y-78829485D01*
X120217750Y-78791602D01*
X120152136Y-78753719D01*
X120078950Y-78734109D01*
X120005766Y-78714500D01*
X120005765Y-78714500D01*
X118202191Y-78714500D01*
X118135152Y-78694815D01*
X118089397Y-78642011D01*
X118078573Y-78600229D01*
X118075598Y-78562432D01*
X118075597Y-78562426D01*
X118029745Y-78404606D01*
X118029744Y-78404603D01*
X118029744Y-78404602D01*
X117946081Y-78263135D01*
X117946079Y-78263133D01*
X117946076Y-78263129D01*
X117829870Y-78146923D01*
X117829862Y-78146917D01*
X117688396Y-78063255D01*
X117688393Y-78063254D01*
X117530573Y-78017402D01*
X117530567Y-78017401D01*
X117493701Y-78014500D01*
X117493694Y-78014500D01*
X116662306Y-78014500D01*
X116662298Y-78014500D01*
X116625432Y-78017401D01*
X116625426Y-78017402D01*
X116467606Y-78063254D01*
X116467603Y-78063255D01*
X116326137Y-78146917D01*
X116326129Y-78146923D01*
X116209923Y-78263129D01*
X116209916Y-78263138D01*
X116163089Y-78342320D01*
X116112020Y-78390004D01*
X116043278Y-78402507D01*
X115978689Y-78375862D01*
X115956039Y-78352084D01*
X115917038Y-78298404D01*
X115917034Y-78298399D01*
X115794602Y-78175967D01*
X115654524Y-78074195D01*
X115500257Y-77995591D01*
X115335589Y-77942087D01*
X115335581Y-77942085D01*
X115328000Y-77940884D01*
X115328000Y-79009670D01*
X115308255Y-78989925D01*
X115222745Y-78940556D01*
X115127370Y-78915000D01*
X115028630Y-78915000D01*
X114933255Y-78940556D01*
X114847745Y-78989925D01*
X114828000Y-79009670D01*
X114828000Y-77940884D01*
X114827999Y-77940884D01*
X114820418Y-77942085D01*
X114820410Y-77942087D01*
X114655742Y-77995591D01*
X114501475Y-78074195D01*
X114361397Y-78175967D01*
X114238967Y-78298397D01*
X114137195Y-78438475D01*
X114058591Y-78592742D01*
X114005085Y-78757415D01*
X113978000Y-78928428D01*
X113978000Y-79040000D01*
X114797670Y-79040000D01*
X114777925Y-79059745D01*
X114728556Y-79145255D01*
X114703000Y-79240630D01*
X114703000Y-79339370D01*
X114728556Y-79434745D01*
X114777925Y-79520255D01*
X114797670Y-79540000D01*
X113978000Y-79540000D01*
X113978000Y-79651571D01*
X114005085Y-79822584D01*
X114058591Y-79987257D01*
X114137195Y-80141524D01*
X114238967Y-80281602D01*
X114361397Y-80404032D01*
X114501475Y-80505804D01*
X114655744Y-80584408D01*
X114820415Y-80637914D01*
X114820414Y-80637914D01*
X114827999Y-80639115D01*
X114828000Y-80639114D01*
X114828000Y-79570330D01*
X114847745Y-79590075D01*
X114933255Y-79639444D01*
X115028630Y-79665000D01*
X115127370Y-79665000D01*
X115222745Y-79639444D01*
X115308255Y-79590075D01*
X115328000Y-79570330D01*
X115328000Y-80639115D01*
X115335584Y-80637914D01*
X115500255Y-80584408D01*
X115654524Y-80505804D01*
X115794602Y-80404032D01*
X115917034Y-80281600D01*
X115956036Y-80227917D01*
X116011365Y-80185250D01*
X116080979Y-80179269D01*
X116142774Y-80211874D01*
X116163088Y-80237679D01*
X116209916Y-80316861D01*
X116209923Y-80316870D01*
X116326129Y-80433076D01*
X116326133Y-80433079D01*
X116326135Y-80433081D01*
X116467602Y-80516744D01*
X116509224Y-80528836D01*
X116625426Y-80562597D01*
X116625429Y-80562597D01*
X116625431Y-80562598D01*
X116662306Y-80565500D01*
X116662314Y-80565500D01*
X117493686Y-80565500D01*
X117493694Y-80565500D01*
X117530569Y-80562598D01*
X117530571Y-80562597D01*
X117530573Y-80562597D01*
X117572191Y-80550505D01*
X117688398Y-80516744D01*
X117829865Y-80433081D01*
X117946081Y-80316865D01*
X118029744Y-80175398D01*
X118075598Y-80017569D01*
X118078500Y-79980694D01*
X118078573Y-79979771D01*
X118103457Y-79914482D01*
X118159688Y-79873012D01*
X118202191Y-79865500D01*
X119640258Y-79865500D01*
X119707297Y-79885185D01*
X119727939Y-79901819D01*
X124610181Y-84784060D01*
X124643666Y-84845383D01*
X124646500Y-84871741D01*
X124646500Y-107025258D01*
X124626815Y-107092297D01*
X124610181Y-107112939D01*
X122352939Y-109370181D01*
X122291616Y-109403666D01*
X122265258Y-109406500D01*
X112700233Y-109406500D01*
X112553863Y-109445719D01*
X112422635Y-109521485D01*
X112422632Y-109521487D01*
X109398939Y-112545181D01*
X109337616Y-112578666D01*
X109311258Y-112581500D01*
X105446742Y-112581500D01*
X105379703Y-112561815D01*
X105359061Y-112545181D01*
X103103367Y-110289487D01*
X103103365Y-110289485D01*
X103000790Y-110230263D01*
X102972136Y-110213719D01*
X102898950Y-110194109D01*
X102825766Y-110174500D01*
X96075766Y-110174500D01*
X95924233Y-110174500D01*
X95924231Y-110174500D01*
X95846697Y-110195275D01*
X95814605Y-110199500D01*
X95671155Y-110199500D01*
X95516510Y-110230261D01*
X95516498Y-110230264D01*
X95370827Y-110290602D01*
X95370814Y-110290609D01*
X95239711Y-110378210D01*
X95239707Y-110378213D01*
X95128213Y-110489707D01*
X95128210Y-110489711D01*
X95040609Y-110620814D01*
X95040602Y-110620827D01*
X94980264Y-110766498D01*
X94980261Y-110766510D01*
X94949500Y-110921153D01*
X94949500Y-111078846D01*
X94980261Y-111233489D01*
X94980264Y-111233501D01*
X94988361Y-111253048D01*
X94995830Y-111322517D01*
X94964555Y-111384996D01*
X94904466Y-111420648D01*
X94873800Y-111424500D01*
X92061541Y-111424500D01*
X91994502Y-111404815D01*
X91958439Y-111369391D01*
X91871789Y-111239711D01*
X91871786Y-111239707D01*
X91760292Y-111128213D01*
X91760288Y-111128210D01*
X91629185Y-111040609D01*
X91629172Y-111040602D01*
X91483501Y-110980264D01*
X91483489Y-110980261D01*
X91328845Y-110949500D01*
X91328842Y-110949500D01*
X91171158Y-110949500D01*
X91171155Y-110949500D01*
X91016510Y-110980261D01*
X91016498Y-110980264D01*
X90870827Y-111040602D01*
X90870814Y-111040609D01*
X90739711Y-111128210D01*
X90739707Y-111128213D01*
X90628213Y-111239707D01*
X90628210Y-111239711D01*
X90540609Y-111370814D01*
X90540602Y-111370827D01*
X90480264Y-111516498D01*
X90480261Y-111516510D01*
X90449500Y-111671153D01*
X90449500Y-111828846D01*
X90480261Y-111983489D01*
X90480264Y-111983501D01*
X90540602Y-112129172D01*
X90540609Y-112129185D01*
X90628210Y-112260288D01*
X90628213Y-112260292D01*
X90739707Y-112371786D01*
X90739711Y-112371789D01*
X90870814Y-112459390D01*
X90870827Y-112459397D01*
X90972810Y-112501639D01*
X91016503Y-112519737D01*
X91171153Y-112550499D01*
X91171156Y-112550500D01*
X91314607Y-112550500D01*
X91346700Y-112554725D01*
X91358309Y-112557835D01*
X91424233Y-112575500D01*
X91424234Y-112575500D01*
X91424235Y-112575500D01*
X96577254Y-112575500D01*
X96577256Y-112575500D01*
X96723625Y-112536281D01*
X96825927Y-112477216D01*
X96893825Y-112460744D01*
X96959852Y-112483596D01*
X97002487Y-112537152D01*
X97040602Y-112629172D01*
X97040609Y-112629185D01*
X97128210Y-112760288D01*
X97128212Y-112760291D01*
X97138178Y-112770256D01*
X97171665Y-112831578D01*
X97174500Y-112857940D01*
X97174500Y-113825500D01*
X97154815Y-113892539D01*
X97102011Y-113938294D01*
X97050500Y-113949500D01*
X95435652Y-113949500D01*
X95368613Y-113929815D01*
X95322858Y-113877011D01*
X95312914Y-113807853D01*
X95328265Y-113763500D01*
X95369207Y-113692587D01*
X95396500Y-113590727D01*
X95396500Y-113485273D01*
X95369207Y-113383413D01*
X95316480Y-113292087D01*
X95241913Y-113217520D01*
X95150587Y-113164793D01*
X95048727Y-113137500D01*
X94943273Y-113137500D01*
X94841413Y-113164793D01*
X94841410Y-113164794D01*
X94750085Y-113217521D01*
X94675521Y-113292085D01*
X94622794Y-113383410D01*
X94622793Y-113383413D01*
X94595500Y-113485273D01*
X94595500Y-113590727D01*
X94622793Y-113692587D01*
X94650237Y-113740122D01*
X94663735Y-113763500D01*
X94680208Y-113831400D01*
X94657356Y-113897427D01*
X94602435Y-113940617D01*
X94556348Y-113949500D01*
X88271742Y-113949500D01*
X88204703Y-113929815D01*
X88184061Y-113913181D01*
X87804819Y-113533939D01*
X87771334Y-113472616D01*
X87768500Y-113446258D01*
X87768500Y-113322307D01*
X87768499Y-113322303D01*
X87747657Y-113217521D01*
X87733895Y-113148334D01*
X87666012Y-112984453D01*
X87639927Y-112945414D01*
X87567465Y-112836965D01*
X87567459Y-112836958D01*
X85943180Y-111212679D01*
X85909695Y-111151356D01*
X85914679Y-111081664D01*
X85943178Y-111037319D01*
X91250464Y-105730035D01*
X91349013Y-105582547D01*
X91368895Y-105534547D01*
X91416895Y-105418666D01*
X91451500Y-105244692D01*
X91451500Y-105067308D01*
X91451500Y-102971809D01*
X91451500Y-102971806D01*
X91451499Y-102971804D01*
X91416896Y-102797841D01*
X91416893Y-102797832D01*
X91349016Y-102633959D01*
X91349009Y-102633946D01*
X91250464Y-102486465D01*
X91250461Y-102486461D01*
X91125038Y-102361038D01*
X91125034Y-102361035D01*
X90977553Y-102262490D01*
X90977540Y-102262483D01*
X90813667Y-102194606D01*
X90813658Y-102194603D01*
X90639694Y-102160000D01*
X90639691Y-102160000D01*
X90462309Y-102160000D01*
X90462306Y-102160000D01*
X90288341Y-102194603D01*
X90288332Y-102194606D01*
X90124459Y-102262483D01*
X90124446Y-102262490D01*
X89976965Y-102361035D01*
X89976961Y-102361038D01*
X89851538Y-102486461D01*
X89851535Y-102486465D01*
X89752990Y-102633946D01*
X89752983Y-102633959D01*
X89685106Y-102797832D01*
X89685103Y-102797841D01*
X89650500Y-102971804D01*
X89650500Y-104731637D01*
X89630815Y-104798676D01*
X89614181Y-104819318D01*
X83990522Y-110442976D01*
X83990523Y-110442977D01*
X83920317Y-110513182D01*
X83858997Y-110546666D01*
X83832638Y-110549500D01*
X70663234Y-110549500D01*
X70516863Y-110588719D01*
X70385635Y-110664485D01*
X70385632Y-110664487D01*
X69745939Y-111304181D01*
X69684616Y-111337666D01*
X69658258Y-111340500D01*
X69644155Y-111340500D01*
X69489510Y-111371261D01*
X69489498Y-111371264D01*
X69343827Y-111431602D01*
X69343814Y-111431609D01*
X69212711Y-111519210D01*
X69212707Y-111519213D01*
X69101213Y-111630707D01*
X69101210Y-111630711D01*
X69013609Y-111761814D01*
X69013602Y-111761827D01*
X68953264Y-111907498D01*
X68953261Y-111907510D01*
X68922500Y-112062153D01*
X68922500Y-112219846D01*
X68953261Y-112374489D01*
X68953264Y-112374501D01*
X69013602Y-112520172D01*
X69013609Y-112520185D01*
X69101210Y-112651288D01*
X69101213Y-112651292D01*
X69212707Y-112762786D01*
X69212711Y-112762789D01*
X69343814Y-112850390D01*
X69343827Y-112850397D01*
X69467251Y-112901520D01*
X69489503Y-112910737D01*
X69644153Y-112941499D01*
X69644156Y-112941500D01*
X69644158Y-112941500D01*
X69801844Y-112941500D01*
X69801845Y-112941499D01*
X69956497Y-112910737D01*
X70098123Y-112852074D01*
X70102172Y-112850397D01*
X70102172Y-112850396D01*
X70102179Y-112850394D01*
X70233289Y-112762789D01*
X70344789Y-112651289D01*
X70432394Y-112520179D01*
X70440074Y-112501639D01*
X70457107Y-112460515D01*
X70492737Y-112374497D01*
X70523500Y-112219842D01*
X70523500Y-112205742D01*
X70543185Y-112138703D01*
X70559819Y-112118061D01*
X70941061Y-111736819D01*
X71002384Y-111703334D01*
X71028742Y-111700500D01*
X83832638Y-111700500D01*
X83899677Y-111720185D01*
X83920319Y-111736819D01*
X86293958Y-114110459D01*
X86293965Y-114110465D01*
X86441451Y-114209011D01*
X86441452Y-114209011D01*
X86441453Y-114209012D01*
X86605334Y-114276895D01*
X86779303Y-114311499D01*
X86779307Y-114311500D01*
X86779308Y-114311500D01*
X86903258Y-114311500D01*
X86970297Y-114331185D01*
X86990939Y-114347819D01*
X87430939Y-114787819D01*
X87464424Y-114849142D01*
X87459440Y-114918834D01*
X87417568Y-114974767D01*
X87352104Y-114999184D01*
X87343258Y-114999500D01*
X78602033Y-114999500D01*
X78534994Y-114979815D01*
X78489765Y-114928148D01*
X78430710Y-114802219D01*
X78430707Y-114802215D01*
X78430703Y-114802205D01*
X78211661Y-114424689D01*
X77960564Y-114067691D01*
X77844384Y-113929815D01*
X77679326Y-113733932D01*
X77679325Y-113733931D01*
X77679320Y-113733925D01*
X77370069Y-113425930D01*
X77115405Y-113213105D01*
X77035162Y-113146045D01*
X76970645Y-113101057D01*
X76967022Y-113098531D01*
X76962438Y-113094824D01*
X76944451Y-113082793D01*
X76943480Y-113082116D01*
X76943478Y-113082114D01*
X76677150Y-112896405D01*
X76600027Y-112852075D01*
X76600026Y-112852074D01*
X76596368Y-112849971D01*
X76586424Y-112843320D01*
X76554966Y-112826172D01*
X76553730Y-112825462D01*
X76553702Y-112825447D01*
X76298752Y-112678903D01*
X76298749Y-112678901D01*
X76298743Y-112678898D01*
X76208149Y-112636860D01*
X76204882Y-112635344D01*
X76189227Y-112626811D01*
X76148388Y-112609129D01*
X76146919Y-112608447D01*
X76146881Y-112608430D01*
X75916743Y-112501642D01*
X75902830Y-112495186D01*
X75799186Y-112457678D01*
X75795602Y-112456381D01*
X75774095Y-112447069D01*
X75727113Y-112431596D01*
X75725419Y-112430983D01*
X75492413Y-112346661D01*
X75375267Y-112315497D01*
X75375267Y-112315498D01*
X75371764Y-112314566D01*
X75344424Y-112305562D01*
X75293958Y-112293868D01*
X75292007Y-112293349D01*
X75292005Y-112293348D01*
X75070637Y-112234460D01*
X75070632Y-112234459D01*
X75070628Y-112234458D01*
X75070627Y-112234458D01*
X75020262Y-112225668D01*
X74940021Y-112211666D01*
X74940020Y-112211666D01*
X74936672Y-112211081D01*
X74903727Y-112203448D01*
X74851987Y-112196302D01*
X74849794Y-112195920D01*
X74849792Y-112195919D01*
X74640671Y-112159427D01*
X74640663Y-112159425D01*
X74496893Y-112147095D01*
X74496893Y-112147096D01*
X74493673Y-112146819D01*
X74455607Y-112141563D01*
X74404422Y-112139167D01*
X74402019Y-112138961D01*
X74205804Y-112122136D01*
X74205800Y-112122136D01*
X74205438Y-112122136D01*
X74049315Y-112122397D01*
X74049316Y-112122398D01*
X74046286Y-112122403D01*
X74003728Y-112120411D01*
X73954597Y-112122558D01*
X73951969Y-112122563D01*
X73770232Y-112122870D01*
X73769341Y-112122872D01*
X73769332Y-112122872D01*
X73769329Y-112122873D01*
X73600819Y-112137895D01*
X73600818Y-112137895D01*
X73598004Y-112138145D01*
X73551787Y-112140166D01*
X73505981Y-112146347D01*
X73503150Y-112146600D01*
X73503139Y-112146602D01*
X73334618Y-112161626D01*
X73334589Y-112161630D01*
X73154812Y-112193628D01*
X73152715Y-112194001D01*
X73152248Y-112194085D01*
X73103478Y-112200667D01*
X73061913Y-112210162D01*
X73058934Y-112210693D01*
X73058931Y-112210692D01*
X72904906Y-112238108D01*
X72904899Y-112238109D01*
X72904898Y-112238110D01*
X72870833Y-112247294D01*
X72714785Y-112289370D01*
X72714784Y-112289369D01*
X72712409Y-112290009D01*
X72662467Y-112301419D01*
X72625911Y-112313333D01*
X72622800Y-112314172D01*
X72483485Y-112351736D01*
X72483481Y-112351737D01*
X72284123Y-112424642D01*
X72284124Y-112424643D01*
X72282021Y-112425411D01*
X72232361Y-112441597D01*
X72201289Y-112454936D01*
X72198075Y-112456112D01*
X72198072Y-112456112D01*
X72073585Y-112501639D01*
X72073572Y-112501644D01*
X71866117Y-112598759D01*
X71866116Y-112598759D01*
X71864266Y-112599624D01*
X71816676Y-112620056D01*
X71791379Y-112633743D01*
X71788091Y-112635283D01*
X71788080Y-112635289D01*
X71678282Y-112686689D01*
X71463920Y-112810866D01*
X71463921Y-112810867D01*
X71462324Y-112811791D01*
X71418812Y-112835336D01*
X71399278Y-112848314D01*
X71395968Y-112850232D01*
X71395965Y-112850232D01*
X71300634Y-112905458D01*
X71300626Y-112905463D01*
X71300620Y-112905467D01*
X71210090Y-112969048D01*
X71080461Y-113060088D01*
X71080460Y-113060088D01*
X71079100Y-113061042D01*
X71042022Y-113085678D01*
X71028144Y-113096829D01*
X71024854Y-113099140D01*
X71024852Y-113099142D01*
X70943443Y-113156318D01*
X70718462Y-113345628D01*
X70718461Y-113345628D01*
X70717326Y-113346582D01*
X70689387Y-113369033D01*
X70680792Y-113377322D01*
X70677556Y-113380046D01*
X70677548Y-113380054D01*
X70609485Y-113437327D01*
X70609478Y-113437333D01*
X70380261Y-113667165D01*
X70380260Y-113667166D01*
X70379368Y-113668059D01*
X70363791Y-113683085D01*
X70359937Y-113687541D01*
X70356809Y-113690678D01*
X70356809Y-113690679D01*
X70301280Y-113746358D01*
X70301275Y-113746363D01*
X70021161Y-114081073D01*
X69771268Y-114438916D01*
X69553497Y-114817173D01*
X69369510Y-115212958D01*
X69220704Y-115623257D01*
X69165662Y-115829606D01*
X69162912Y-115838545D01*
X69098478Y-116022974D01*
X69094484Y-116032987D01*
X69078547Y-116068381D01*
X69075070Y-116075488D01*
X68994117Y-116228401D01*
X68987874Y-116238906D01*
X68969264Y-116266974D01*
X68965548Y-116272273D01*
X68859070Y-116415978D01*
X68850353Y-116426481D01*
X68834676Y-116443383D01*
X68831173Y-116447009D01*
X68696406Y-116580949D01*
X68685106Y-116590891D01*
X68683942Y-116591796D01*
X68681040Y-116593985D01*
X68514804Y-116715586D01*
X68498939Y-116725448D01*
X68315259Y-116821250D01*
X68298094Y-116828616D01*
X68102114Y-116895739D01*
X68084039Y-116900443D01*
X67902635Y-116933302D01*
X67880199Y-116937366D01*
X67861619Y-116939301D01*
X67654543Y-116945184D01*
X67635885Y-116944307D01*
X67430994Y-116919107D01*
X67427482Y-116918624D01*
X67426812Y-116918522D01*
X67426586Y-116918487D01*
X67411784Y-116915300D01*
X67228321Y-116863899D01*
X67223499Y-116862442D01*
X67202132Y-116855508D01*
X67189398Y-116850586D01*
X67025830Y-116776765D01*
X67020004Y-116773950D01*
X66990648Y-116758811D01*
X66980075Y-116752681D01*
X66834345Y-116658296D01*
X66827846Y-116653786D01*
X66797217Y-116631051D01*
X66788847Y-116624254D01*
X66642469Y-116494435D01*
X66635713Y-116487972D01*
X63031467Y-112769921D01*
X62998939Y-112708085D01*
X62996500Y-112683613D01*
X62996500Y-107823000D01*
X79502000Y-107823000D01*
X85598000Y-107950000D01*
X87503000Y-105918000D01*
X87503000Y-99997038D01*
X93395500Y-99997038D01*
X93395500Y-100248961D01*
X93434910Y-100497785D01*
X93512760Y-100737383D01*
X93627132Y-100961848D01*
X93775201Y-101165649D01*
X93775205Y-101165654D01*
X93953345Y-101343794D01*
X93953350Y-101343798D01*
X94131117Y-101472952D01*
X94157155Y-101491870D01*
X94300184Y-101564747D01*
X94381616Y-101606239D01*
X94381618Y-101606239D01*
X94381621Y-101606241D01*
X94621215Y-101684090D01*
X94870038Y-101723500D01*
X94870039Y-101723500D01*
X95121961Y-101723500D01*
X95121962Y-101723500D01*
X95370785Y-101684090D01*
X95610379Y-101606241D01*
X95834845Y-101491870D01*
X96038656Y-101343793D01*
X96216793Y-101165656D01*
X96364870Y-100961845D01*
X96479241Y-100737379D01*
X96557090Y-100497785D01*
X96596500Y-100248962D01*
X96596500Y-99997038D01*
X96557090Y-99748215D01*
X96479241Y-99508621D01*
X96479239Y-99508618D01*
X96479239Y-99508616D01*
X96437747Y-99427184D01*
X96364870Y-99284155D01*
X96345952Y-99258117D01*
X96216798Y-99080350D01*
X96216794Y-99080345D01*
X96038654Y-98902205D01*
X96038649Y-98902201D01*
X95834848Y-98754132D01*
X95834847Y-98754131D01*
X95834845Y-98754130D01*
X95764747Y-98718413D01*
X95610383Y-98639760D01*
X95370785Y-98561910D01*
X95121962Y-98522500D01*
X94870038Y-98522500D01*
X94745626Y-98542205D01*
X94621214Y-98561910D01*
X94381616Y-98639760D01*
X94157151Y-98754132D01*
X93953350Y-98902201D01*
X93953345Y-98902205D01*
X93775205Y-99080345D01*
X93775201Y-99080350D01*
X93627132Y-99284151D01*
X93512760Y-99508616D01*
X93434910Y-99748214D01*
X93395500Y-99997038D01*
X87503000Y-99997038D01*
X87503000Y-86360000D01*
X85852000Y-82042000D01*
X79502000Y-82042000D01*
X79502000Y-107823000D01*
X62996500Y-107823000D01*
X62996500Y-99568000D01*
X66675000Y-99568000D01*
X70485000Y-99568000D01*
X70485000Y-93599000D01*
X66675000Y-93599000D01*
X66675000Y-99568000D01*
X62996500Y-99568000D01*
X62996500Y-82809577D01*
X71941500Y-82809577D01*
X71941500Y-83306422D01*
X71972290Y-83500826D01*
X72033117Y-83688029D01*
X72069348Y-83759135D01*
X72122476Y-83863405D01*
X72238172Y-84022646D01*
X72377354Y-84161828D01*
X72536595Y-84277524D01*
X72619455Y-84319743D01*
X72711970Y-84366882D01*
X72711972Y-84366882D01*
X72711975Y-84366884D01*
X72812317Y-84399487D01*
X72899173Y-84427709D01*
X73093578Y-84458500D01*
X73093583Y-84458500D01*
X73290422Y-84458500D01*
X73484826Y-84427709D01*
X73540116Y-84409744D01*
X73672025Y-84366884D01*
X73847405Y-84277524D01*
X74006646Y-84161828D01*
X74145828Y-84022646D01*
X74233598Y-83901841D01*
X74288926Y-83859177D01*
X74358539Y-83853198D01*
X74420334Y-83885803D01*
X74452990Y-83940132D01*
X74490254Y-84068395D01*
X74490255Y-84068396D01*
X74573917Y-84209862D01*
X74573923Y-84209870D01*
X74690129Y-84326076D01*
X74690133Y-84326079D01*
X74690135Y-84326081D01*
X74831602Y-84409744D01*
X74873224Y-84421836D01*
X74989426Y-84455597D01*
X74989429Y-84455597D01*
X74989431Y-84455598D01*
X75026306Y-84458500D01*
X75026314Y-84458500D01*
X76357686Y-84458500D01*
X76357694Y-84458500D01*
X76394569Y-84455598D01*
X76394571Y-84455597D01*
X76394573Y-84455597D01*
X76436191Y-84443505D01*
X76552398Y-84409744D01*
X76693865Y-84326081D01*
X76810081Y-84209865D01*
X76893744Y-84068398D01*
X76939598Y-83910569D01*
X76942500Y-83873694D01*
X76942500Y-82242306D01*
X76939598Y-82205431D01*
X76893744Y-82047602D01*
X76810081Y-81906135D01*
X76810079Y-81906133D01*
X76810076Y-81906129D01*
X76693870Y-81789923D01*
X76693862Y-81789917D01*
X76552396Y-81706255D01*
X76552393Y-81706254D01*
X76394573Y-81660402D01*
X76394567Y-81660401D01*
X76357701Y-81657500D01*
X76357694Y-81657500D01*
X75026306Y-81657500D01*
X75026298Y-81657500D01*
X74989432Y-81660401D01*
X74989426Y-81660402D01*
X74831606Y-81706254D01*
X74831603Y-81706255D01*
X74690137Y-81789917D01*
X74690129Y-81789923D01*
X74573923Y-81906129D01*
X74573917Y-81906137D01*
X74490255Y-82047603D01*
X74490254Y-82047604D01*
X74452990Y-82175867D01*
X74415383Y-82234752D01*
X74351910Y-82263958D01*
X74282724Y-82254212D01*
X74233596Y-82214156D01*
X74227253Y-82205426D01*
X74145828Y-82093354D01*
X74006646Y-81954172D01*
X73847405Y-81838476D01*
X73672029Y-81749117D01*
X73484826Y-81688290D01*
X73290422Y-81657500D01*
X73290417Y-81657500D01*
X73093583Y-81657500D01*
X73093578Y-81657500D01*
X72899173Y-81688290D01*
X72711970Y-81749117D01*
X72536594Y-81838476D01*
X72445741Y-81904485D01*
X72377354Y-81954172D01*
X72377352Y-81954174D01*
X72377351Y-81954174D01*
X72238174Y-82093351D01*
X72238174Y-82093352D01*
X72238172Y-82093354D01*
X72238170Y-82093357D01*
X72122476Y-82252594D01*
X72033117Y-82427970D01*
X71972290Y-82615173D01*
X71941500Y-82809577D01*
X62996500Y-82809577D01*
X62996500Y-70997038D01*
X64895500Y-70997038D01*
X64895500Y-71248961D01*
X64934910Y-71497785D01*
X65012760Y-71737383D01*
X65127132Y-71961848D01*
X65275201Y-72165649D01*
X65275205Y-72165654D01*
X65453345Y-72343794D01*
X65453350Y-72343798D01*
X65631117Y-72472952D01*
X65657155Y-72491870D01*
X65800184Y-72564747D01*
X65881616Y-72606239D01*
X65881618Y-72606239D01*
X65881621Y-72606241D01*
X66121215Y-72684090D01*
X66370038Y-72723500D01*
X66370039Y-72723500D01*
X66621961Y-72723500D01*
X66621962Y-72723500D01*
X66870785Y-72684090D01*
X67110379Y-72606241D01*
X67334845Y-72491870D01*
X67538656Y-72343793D01*
X67716793Y-72165656D01*
X67864870Y-71961845D01*
X67979241Y-71737379D01*
X68057090Y-71497785D01*
X68096500Y-71248962D01*
X68096500Y-70997038D01*
X68057090Y-70748215D01*
X67979241Y-70508621D01*
X67979239Y-70508618D01*
X67979239Y-70508616D01*
X67967389Y-70485360D01*
X67929880Y-70411745D01*
X67919819Y-70391999D01*
X77940884Y-70391999D01*
X77940885Y-70392000D01*
X79009670Y-70392000D01*
X78989925Y-70411745D01*
X78940556Y-70497255D01*
X78915000Y-70592630D01*
X78915000Y-70691370D01*
X78940556Y-70786745D01*
X78989925Y-70872255D01*
X79009670Y-70892000D01*
X77940885Y-70892000D01*
X77942085Y-70899584D01*
X77995591Y-71064255D01*
X78074195Y-71218524D01*
X78175967Y-71358602D01*
X78298397Y-71481032D01*
X78438475Y-71582804D01*
X78454712Y-71591077D01*
X78505508Y-71639051D01*
X78522303Y-71706872D01*
X78499766Y-71773007D01*
X78467308Y-71804664D01*
X78377218Y-71864860D01*
X78377214Y-71864863D01*
X78237863Y-72004214D01*
X78237860Y-72004218D01*
X78128371Y-72168079D01*
X78128364Y-72168092D01*
X78052950Y-72350160D01*
X78052947Y-72350170D01*
X78014500Y-72543456D01*
X78014500Y-72543459D01*
X78014500Y-72740541D01*
X78014500Y-72740543D01*
X78014499Y-72740543D01*
X78052947Y-72933829D01*
X78052950Y-72933839D01*
X78128364Y-73115907D01*
X78128371Y-73115920D01*
X78237860Y-73279781D01*
X78237863Y-73279785D01*
X78377214Y-73419136D01*
X78377218Y-73419139D01*
X78541079Y-73528628D01*
X78546456Y-73531502D01*
X78545490Y-73533308D01*
X78592612Y-73571285D01*
X78614673Y-73637580D01*
X78597391Y-73705279D01*
X78546251Y-73752887D01*
X78542660Y-73754526D01*
X78541079Y-73755371D01*
X78377218Y-73864860D01*
X78377214Y-73864863D01*
X78237863Y-74004214D01*
X78237860Y-74004218D01*
X78128371Y-74168079D01*
X78128364Y-74168092D01*
X78052950Y-74350160D01*
X78052947Y-74350170D01*
X78014500Y-74543456D01*
X78014500Y-74543459D01*
X78014500Y-74740541D01*
X78014500Y-74740543D01*
X78014499Y-74740543D01*
X78052947Y-74933829D01*
X78052950Y-74933839D01*
X78128364Y-75115907D01*
X78128371Y-75115920D01*
X78237860Y-75279781D01*
X78237863Y-75279785D01*
X78377214Y-75419136D01*
X78377218Y-75419139D01*
X78541079Y-75528628D01*
X78541092Y-75528635D01*
X78723160Y-75604049D01*
X78723165Y-75604051D01*
X78723169Y-75604051D01*
X78723170Y-75604052D01*
X78916456Y-75642500D01*
X78916459Y-75642500D01*
X79663543Y-75642500D01*
X79793582Y-75616632D01*
X79856835Y-75604051D01*
X80038914Y-75528632D01*
X80202782Y-75419139D01*
X80342139Y-75279782D01*
X80451632Y-75115914D01*
X80527051Y-74933835D01*
X80542157Y-74857894D01*
X80565500Y-74740543D01*
X80565500Y-74543456D01*
X80527052Y-74350170D01*
X80527051Y-74350169D01*
X80527051Y-74350165D01*
X80527049Y-74350160D01*
X80451635Y-74168092D01*
X80451628Y-74168079D01*
X80342139Y-74004218D01*
X80342136Y-74004214D01*
X80202785Y-73864863D01*
X80202781Y-73864860D01*
X80038920Y-73755371D01*
X80033544Y-73752498D01*
X80034510Y-73750689D01*
X79987397Y-73712728D01*
X79965326Y-73646436D01*
X79982600Y-73578735D01*
X80033734Y-73531121D01*
X80037331Y-73529477D01*
X80038907Y-73528634D01*
X80038914Y-73528632D01*
X80202782Y-73419139D01*
X80342139Y-73279782D01*
X80451632Y-73115914D01*
X80527051Y-72933835D01*
X80565500Y-72740541D01*
X80565500Y-72543459D01*
X80565500Y-72543456D01*
X80527052Y-72350170D01*
X80527051Y-72350169D01*
X80527051Y-72350165D01*
X80512735Y-72315602D01*
X80451635Y-72168092D01*
X80451628Y-72168079D01*
X80342139Y-72004218D01*
X80342136Y-72004214D01*
X80202782Y-71864860D01*
X80112691Y-71804664D01*
X80067886Y-71751052D01*
X80059179Y-71681727D01*
X80089333Y-71618700D01*
X80125289Y-71591076D01*
X80141524Y-71582803D01*
X80281602Y-71481032D01*
X80404032Y-71358602D01*
X80505804Y-71218524D01*
X80584408Y-71064255D01*
X80637914Y-70899584D01*
X80639115Y-70892000D01*
X79570330Y-70892000D01*
X79590075Y-70872255D01*
X79639444Y-70786745D01*
X79665000Y-70691370D01*
X79665000Y-70592630D01*
X79639444Y-70497255D01*
X79590075Y-70411745D01*
X79570330Y-70392000D01*
X80639115Y-70392000D01*
X80639115Y-70391999D01*
X80637914Y-70384415D01*
X80584408Y-70219744D01*
X80505804Y-70065475D01*
X80404032Y-69925397D01*
X80281600Y-69802965D01*
X80281595Y-69802961D01*
X80227915Y-69763960D01*
X80185249Y-69708630D01*
X80179270Y-69639017D01*
X80211876Y-69577222D01*
X80237671Y-69556915D01*
X80316865Y-69510081D01*
X80433081Y-69393865D01*
X80516744Y-69252398D01*
X80562598Y-69094569D01*
X80565500Y-69057694D01*
X80565500Y-68226306D01*
X80562598Y-68189431D01*
X80552145Y-68153453D01*
X80516745Y-68031606D01*
X80516744Y-68031603D01*
X80516744Y-68031602D01*
X80433081Y-67890135D01*
X80433079Y-67890133D01*
X80433076Y-67890129D01*
X80316870Y-67773923D01*
X80316862Y-67773917D01*
X80189740Y-67698738D01*
X80175398Y-67690256D01*
X80175397Y-67690255D01*
X80175396Y-67690255D01*
X80175393Y-67690254D01*
X80017573Y-67644402D01*
X80017567Y-67644401D01*
X79980701Y-67641500D01*
X79980694Y-67641500D01*
X78599306Y-67641500D01*
X78599298Y-67641500D01*
X78562432Y-67644401D01*
X78562426Y-67644402D01*
X78404606Y-67690254D01*
X78404603Y-67690255D01*
X78263137Y-67773917D01*
X78263129Y-67773923D01*
X78146923Y-67890129D01*
X78146917Y-67890137D01*
X78063255Y-68031603D01*
X78063254Y-68031606D01*
X78017402Y-68189426D01*
X78017401Y-68189432D01*
X78014500Y-68226298D01*
X78014500Y-69057701D01*
X78017401Y-69094567D01*
X78017402Y-69094573D01*
X78063254Y-69252393D01*
X78063255Y-69252396D01*
X78146917Y-69393862D01*
X78146923Y-69393870D01*
X78263129Y-69510076D01*
X78263134Y-69510080D01*
X78263135Y-69510081D01*
X78342321Y-69556911D01*
X78390003Y-69607978D01*
X78402507Y-69676720D01*
X78375862Y-69741309D01*
X78352085Y-69763959D01*
X78298406Y-69802959D01*
X78298399Y-69802965D01*
X78175967Y-69925397D01*
X78074195Y-70065475D01*
X77995591Y-70219744D01*
X77942085Y-70384415D01*
X77940884Y-70391999D01*
X67919819Y-70391999D01*
X67864870Y-70284155D01*
X67818073Y-70219744D01*
X67716798Y-70080350D01*
X67716794Y-70080345D01*
X67538654Y-69902205D01*
X67538649Y-69902201D01*
X67334848Y-69754132D01*
X67334847Y-69754131D01*
X67334845Y-69754130D01*
X67245546Y-69708630D01*
X67110383Y-69639760D01*
X66870785Y-69561910D01*
X66814460Y-69552989D01*
X66621962Y-69522500D01*
X66370038Y-69522500D01*
X66245626Y-69542205D01*
X66121214Y-69561910D01*
X65881616Y-69639760D01*
X65657151Y-69754132D01*
X65453350Y-69902201D01*
X65453345Y-69902205D01*
X65275205Y-70080345D01*
X65275201Y-70080350D01*
X65127132Y-70284151D01*
X65012760Y-70508616D01*
X64934910Y-70748214D01*
X64895500Y-70997038D01*
X62996500Y-70997038D01*
X62996500Y-66550071D01*
X62996821Y-66541160D01*
X63010184Y-66355679D01*
X63011386Y-66345223D01*
X63017496Y-66306598D01*
X63018846Y-66299434D01*
X63035437Y-66223710D01*
X63053965Y-66139145D01*
X63057133Y-66127459D01*
X63067125Y-66096659D01*
X63068963Y-66091407D01*
X63129375Y-65930643D01*
X63134920Y-65918060D01*
X63142492Y-65903174D01*
X63144357Y-65899648D01*
X63233422Y-65737858D01*
X63243101Y-65722926D01*
X63269355Y-65688172D01*
X63362182Y-65565295D01*
X63373897Y-65551907D01*
X63514346Y-65412955D01*
X63527855Y-65401386D01*
X63616795Y-65335679D01*
X63686745Y-65284001D01*
X63701794Y-65274473D01*
X63803138Y-65220089D01*
X63875854Y-65181066D01*
X63892107Y-65173796D01*
X64066151Y-65110509D01*
X64069871Y-65109225D01*
X64085184Y-65104216D01*
X64098433Y-65100683D01*
X64267247Y-65065585D01*
X64272687Y-65064583D01*
X64303942Y-65059562D01*
X64315972Y-65058230D01*
X64480517Y-65048142D01*
X64487736Y-65047912D01*
X64526078Y-65047819D01*
X64536542Y-65048238D01*
X64722237Y-65063599D01*
X64731069Y-65064650D01*
X64765162Y-65069953D01*
X64939934Y-65097148D01*
X65370553Y-65126561D01*
X65802106Y-65118765D01*
X66231383Y-65073816D01*
X66306016Y-65059416D01*
X66309548Y-65058999D01*
X66323476Y-65056048D01*
X66655190Y-64992050D01*
X66741927Y-64967403D01*
X66753784Y-64964892D01*
X66788507Y-64954167D01*
X67070377Y-64874074D01*
X67168283Y-64836873D01*
X67187656Y-64830891D01*
X67231413Y-64812885D01*
X67473856Y-64720766D01*
X67581720Y-64668744D01*
X67607590Y-64658100D01*
X67653618Y-64634068D01*
X67862627Y-64533266D01*
X67979072Y-64464152D01*
X68010125Y-64447941D01*
X68054298Y-64419504D01*
X68233797Y-64312968D01*
X68357208Y-64224508D01*
X68391946Y-64202147D01*
X68431744Y-64171081D01*
X68584608Y-64061511D01*
X68713188Y-63951401D01*
X68749905Y-63922743D01*
X68783856Y-63890885D01*
X68912449Y-63780765D01*
X69044250Y-63646560D01*
X69081054Y-63612030D01*
X69108486Y-63581154D01*
X69214884Y-63472817D01*
X69347775Y-63311835D01*
X69382663Y-63272570D01*
X69403460Y-63244379D01*
X69489662Y-63139957D01*
X69621433Y-62948926D01*
X69652248Y-62907159D01*
X69666732Y-62883254D01*
X69734741Y-62784662D01*
X69863074Y-62559257D01*
X69887588Y-62518808D01*
X69896484Y-62500577D01*
X69948298Y-62409572D01*
X70070805Y-62143373D01*
X70086744Y-62110716D01*
X70091050Y-62099382D01*
X70128744Y-62017478D01*
X70243045Y-61699472D01*
X70248073Y-61686247D01*
X70249024Y-61682836D01*
X70274739Y-61611296D01*
X70385195Y-61194045D01*
X70459292Y-60768830D01*
X70496479Y-60338812D01*
X70496500Y-60123000D01*
X70496500Y-60122500D01*
X70496500Y-54390543D01*
X72739499Y-54390543D01*
X72777947Y-54583829D01*
X72777950Y-54583839D01*
X72853364Y-54765907D01*
X72853371Y-54765920D01*
X72962860Y-54929781D01*
X72962863Y-54929785D01*
X73102214Y-55069136D01*
X73102218Y-55069139D01*
X73266079Y-55178628D01*
X73266092Y-55178635D01*
X73431840Y-55247289D01*
X73448165Y-55254051D01*
X73448169Y-55254051D01*
X73448170Y-55254052D01*
X73641456Y-55292500D01*
X73641459Y-55292500D01*
X73838543Y-55292500D01*
X73974227Y-55265510D01*
X74031835Y-55254051D01*
X74213914Y-55178632D01*
X74377782Y-55069139D01*
X74517139Y-54929782D01*
X74626632Y-54765914D01*
X74626634Y-54765907D01*
X74629502Y-54760544D01*
X74631310Y-54761510D01*
X74669272Y-54714397D01*
X74735564Y-54692326D01*
X74803265Y-54709600D01*
X74850879Y-54760734D01*
X74852522Y-54764331D01*
X74853371Y-54765920D01*
X74962860Y-54929781D01*
X74962863Y-54929785D01*
X75102214Y-55069136D01*
X75102218Y-55069139D01*
X75266079Y-55178628D01*
X75266092Y-55178635D01*
X75431840Y-55247289D01*
X75448165Y-55254051D01*
X75448169Y-55254051D01*
X75448170Y-55254052D01*
X75641456Y-55292500D01*
X75641459Y-55292500D01*
X75838543Y-55292500D01*
X75974227Y-55265510D01*
X76031835Y-55254051D01*
X76213914Y-55178632D01*
X76377782Y-55069139D01*
X76517139Y-54929782D01*
X76626632Y-54765914D01*
X76626634Y-54765907D01*
X76629502Y-54760544D01*
X76631310Y-54761510D01*
X76669272Y-54714397D01*
X76735564Y-54692326D01*
X76803265Y-54709600D01*
X76850879Y-54760734D01*
X76852522Y-54764331D01*
X76853371Y-54765920D01*
X76962860Y-54929781D01*
X76962863Y-54929785D01*
X77102214Y-55069136D01*
X77102218Y-55069139D01*
X77266079Y-55178628D01*
X77266092Y-55178635D01*
X77431840Y-55247289D01*
X77448165Y-55254051D01*
X77448169Y-55254051D01*
X77448170Y-55254052D01*
X77641456Y-55292500D01*
X77641459Y-55292500D01*
X77838543Y-55292500D01*
X77974227Y-55265510D01*
X78031835Y-55254051D01*
X78213914Y-55178632D01*
X78377782Y-55069139D01*
X78517139Y-54929782D01*
X78626632Y-54765914D01*
X78626634Y-54765907D01*
X78629502Y-54760544D01*
X78631310Y-54761510D01*
X78669272Y-54714397D01*
X78735564Y-54692326D01*
X78803265Y-54709600D01*
X78850879Y-54760734D01*
X78852522Y-54764331D01*
X78853371Y-54765920D01*
X78962860Y-54929781D01*
X78962863Y-54929785D01*
X79102214Y-55069136D01*
X79102218Y-55069139D01*
X79266079Y-55178628D01*
X79266092Y-55178635D01*
X79431840Y-55247289D01*
X79448165Y-55254051D01*
X79448169Y-55254051D01*
X79448170Y-55254052D01*
X79641456Y-55292500D01*
X79641459Y-55292500D01*
X79838543Y-55292500D01*
X79974227Y-55265510D01*
X80031835Y-55254051D01*
X80213914Y-55178632D01*
X80377782Y-55069139D01*
X80517139Y-54929782D01*
X80577336Y-54839689D01*
X80630946Y-54794887D01*
X80700271Y-54786179D01*
X80763299Y-54816333D01*
X80790921Y-54852285D01*
X80799195Y-54868524D01*
X80900967Y-55008602D01*
X81023397Y-55131032D01*
X81163475Y-55232804D01*
X81317744Y-55311408D01*
X81482415Y-55364914D01*
X81482414Y-55364914D01*
X81489999Y-55366115D01*
X81490000Y-55366114D01*
X81490000Y-54297330D01*
X81509745Y-54317075D01*
X81595255Y-54366444D01*
X81690630Y-54392000D01*
X81789370Y-54392000D01*
X81884745Y-54366444D01*
X81970255Y-54317075D01*
X81990000Y-54297330D01*
X81990000Y-55366115D01*
X81997584Y-55364914D01*
X82162255Y-55311408D01*
X82316524Y-55232804D01*
X82456602Y-55131032D01*
X82579034Y-55008600D01*
X82618036Y-54954917D01*
X82673365Y-54912250D01*
X82742979Y-54906269D01*
X82804774Y-54938874D01*
X82825088Y-54964679D01*
X82871916Y-55043861D01*
X82871923Y-55043870D01*
X82988129Y-55160076D01*
X82988133Y-55160079D01*
X82988135Y-55160081D01*
X83129602Y-55243744D01*
X83165072Y-55254049D01*
X83287426Y-55289597D01*
X83287429Y-55289597D01*
X83287431Y-55289598D01*
X83324306Y-55292500D01*
X83692500Y-55292500D01*
X83759539Y-55312185D01*
X83805294Y-55364989D01*
X83816500Y-55416500D01*
X83816500Y-67555500D01*
X83796815Y-67622539D01*
X83744011Y-67668294D01*
X83692500Y-67679500D01*
X82588306Y-67679500D01*
X82414341Y-67714103D01*
X82414332Y-67714106D01*
X82250459Y-67781983D01*
X82250446Y-67781990D01*
X82102965Y-67880535D01*
X82102961Y-67880538D01*
X81977538Y-68005961D01*
X81977535Y-68005965D01*
X81878990Y-68153446D01*
X81878983Y-68153459D01*
X81811106Y-68317332D01*
X81811103Y-68317341D01*
X81776500Y-68491304D01*
X81776500Y-68668695D01*
X81811103Y-68842658D01*
X81811106Y-68842667D01*
X81878983Y-69006540D01*
X81878990Y-69006553D01*
X81977535Y-69154034D01*
X81977538Y-69154038D01*
X82102961Y-69279461D01*
X82102965Y-69279464D01*
X82250446Y-69378009D01*
X82250459Y-69378016D01*
X82373363Y-69428923D01*
X82414334Y-69445894D01*
X82414336Y-69445894D01*
X82414341Y-69445896D01*
X82588304Y-69480499D01*
X82588307Y-69480500D01*
X82588309Y-69480500D01*
X83692500Y-69480500D01*
X83759539Y-69500185D01*
X83805294Y-69552989D01*
X83816500Y-69604500D01*
X83816500Y-75323362D01*
X83816499Y-75323377D01*
X83816499Y-75548220D01*
X83825342Y-75604051D01*
X83825342Y-75604052D01*
X83850985Y-75765952D01*
X83919103Y-75975603D01*
X83919104Y-75975606D01*
X84019187Y-76172025D01*
X84148751Y-76350357D01*
X84148755Y-76350361D01*
X84148758Y-76350365D01*
X84304635Y-76506242D01*
X84308965Y-76510572D01*
X84308976Y-76510582D01*
X87574632Y-79776238D01*
X87574646Y-79776253D01*
X87577757Y-79779364D01*
X87577758Y-79779365D01*
X87733635Y-79935242D01*
X87733638Y-79935244D01*
X87733642Y-79935248D01*
X87895372Y-80052750D01*
X87911978Y-80064815D01*
X88040375Y-80130237D01*
X88108393Y-80164895D01*
X88108396Y-80164896D01*
X88140713Y-80175396D01*
X88318049Y-80233015D01*
X88535779Y-80267501D01*
X88535780Y-80267501D01*
X88761333Y-80267501D01*
X88761357Y-80267500D01*
X94364532Y-80267500D01*
X94431571Y-80287185D01*
X94452213Y-80303819D01*
X95845181Y-81696787D01*
X95878666Y-81758110D01*
X95881500Y-81784468D01*
X95881500Y-89264221D01*
X95915985Y-89481952D01*
X95984103Y-89691603D01*
X95984104Y-89691606D01*
X96084187Y-89888025D01*
X96213752Y-90066358D01*
X96213756Y-90066363D01*
X96369636Y-90222243D01*
X96369641Y-90222247D01*
X96525192Y-90335260D01*
X96547978Y-90351815D01*
X96676375Y-90417237D01*
X96744393Y-90451895D01*
X96744396Y-90451896D01*
X96849221Y-90485955D01*
X96954049Y-90520015D01*
X97171778Y-90554500D01*
X97171779Y-90554500D01*
X97392221Y-90554500D01*
X97392222Y-90554500D01*
X97609951Y-90520015D01*
X97819606Y-90451895D01*
X98016022Y-90351815D01*
X98194365Y-90222242D01*
X98350242Y-90066365D01*
X98479815Y-89888022D01*
X98579895Y-89691606D01*
X98648015Y-89481951D01*
X98682500Y-89264222D01*
X98682500Y-85506533D01*
X103995500Y-85506533D01*
X103995500Y-104739465D01*
X104001852Y-104884951D01*
X104052509Y-105230784D01*
X104142969Y-105568386D01*
X104142973Y-105568397D01*
X104272009Y-105893203D01*
X104272014Y-105893213D01*
X104272015Y-105893215D01*
X104437896Y-106200862D01*
X104638158Y-106486864D01*
X104638378Y-106487178D01*
X104870727Y-106748268D01*
X104870731Y-106748272D01*
X105131821Y-106980621D01*
X105131826Y-106980624D01*
X105131830Y-106980628D01*
X105418138Y-107181104D01*
X105725785Y-107346985D01*
X105725789Y-107346986D01*
X105725796Y-107346990D01*
X105966793Y-107442731D01*
X106050609Y-107476029D01*
X106388218Y-107566491D01*
X106734046Y-107617148D01*
X106879533Y-107623500D01*
X107112466Y-107623499D01*
X107257954Y-107617148D01*
X107603782Y-107566491D01*
X107941391Y-107476029D01*
X108177179Y-107382356D01*
X108266203Y-107346990D01*
X108266205Y-107346988D01*
X108266215Y-107346985D01*
X108573862Y-107181104D01*
X108860170Y-106980628D01*
X109121270Y-106748270D01*
X109353628Y-106487170D01*
X109554104Y-106200862D01*
X109719985Y-105893215D01*
X109849029Y-105568391D01*
X109939491Y-105230782D01*
X109990148Y-104884954D01*
X109996500Y-104739467D01*
X109996499Y-85506534D01*
X109990148Y-85361046D01*
X109939491Y-85015218D01*
X109849029Y-84677609D01*
X109761983Y-84458500D01*
X109719990Y-84352796D01*
X109719985Y-84352786D01*
X109719985Y-84352785D01*
X109554104Y-84045138D01*
X109353628Y-83758830D01*
X109353624Y-83758826D01*
X109353621Y-83758821D01*
X109121272Y-83497731D01*
X109121268Y-83497727D01*
X108860178Y-83265378D01*
X108860172Y-83265373D01*
X108860170Y-83265372D01*
X108573862Y-83064896D01*
X108266215Y-82899015D01*
X108266214Y-82899014D01*
X108266213Y-82899014D01*
X108266203Y-82899009D01*
X107941397Y-82769973D01*
X107941386Y-82769969D01*
X107603784Y-82679509D01*
X107488506Y-82662623D01*
X107257954Y-82628852D01*
X107112467Y-82622500D01*
X107112465Y-82622500D01*
X106879534Y-82622500D01*
X106745729Y-82628341D01*
X106734046Y-82628852D01*
X106595714Y-82649114D01*
X106388215Y-82679509D01*
X106050613Y-82769969D01*
X106050602Y-82769973D01*
X105725796Y-82899009D01*
X105725786Y-82899014D01*
X105418146Y-83064891D01*
X105418141Y-83064893D01*
X105418138Y-83064896D01*
X105227485Y-83198392D01*
X105131821Y-83265378D01*
X104870731Y-83497727D01*
X104870727Y-83497731D01*
X104638378Y-83758821D01*
X104638372Y-83758830D01*
X104437896Y-84045138D01*
X104437893Y-84045141D01*
X104437891Y-84045146D01*
X104272014Y-84352786D01*
X104272009Y-84352796D01*
X104142973Y-84677602D01*
X104142969Y-84677613D01*
X104052509Y-85015215D01*
X104001852Y-85361049D01*
X103995500Y-85506533D01*
X98682500Y-85506533D01*
X98682500Y-81042778D01*
X98648015Y-80825049D01*
X98613955Y-80720221D01*
X98579896Y-80615396D01*
X98579895Y-80615393D01*
X98529630Y-80516744D01*
X98479815Y-80418978D01*
X98405624Y-80316862D01*
X98350248Y-80240642D01*
X98350244Y-80240638D01*
X98350242Y-80240635D01*
X98194365Y-80084758D01*
X98194364Y-80084757D01*
X98191253Y-80081646D01*
X98191238Y-80081632D01*
X96068582Y-77958976D01*
X96068573Y-77958966D01*
X96050491Y-77940884D01*
X95908365Y-77798758D01*
X95908361Y-77798755D01*
X95908357Y-77798751D01*
X95730025Y-77669187D01*
X95730024Y-77669186D01*
X95730022Y-77669185D01*
X95667096Y-77637122D01*
X95533606Y-77569104D01*
X95533603Y-77569103D01*
X95323952Y-77500985D01*
X95215086Y-77483742D01*
X95106222Y-77466499D01*
X94885778Y-77466499D01*
X94880667Y-77466499D01*
X94880643Y-77466500D01*
X89277468Y-77466500D01*
X89210429Y-77446815D01*
X89189787Y-77430181D01*
X86653819Y-74894213D01*
X86620334Y-74832890D01*
X86617500Y-74806532D01*
X86617500Y-71386500D01*
X86637185Y-71319461D01*
X86689989Y-71273706D01*
X86741500Y-71262500D01*
X89157065Y-71262500D01*
X89224104Y-71282185D01*
X89225909Y-71283366D01*
X89282821Y-71321394D01*
X89282823Y-71321395D01*
X89282827Y-71321397D01*
X89428498Y-71381735D01*
X89428503Y-71381737D01*
X89583153Y-71412499D01*
X89583156Y-71412500D01*
X89583158Y-71412500D01*
X89740844Y-71412500D01*
X89740845Y-71412499D01*
X89895497Y-71381737D01*
X90041179Y-71321394D01*
X90172289Y-71233789D01*
X90283789Y-71122289D01*
X90367479Y-70997038D01*
X121895500Y-70997038D01*
X121895500Y-71248961D01*
X121934910Y-71497785D01*
X122012760Y-71737383D01*
X122127132Y-71961848D01*
X122275201Y-72165649D01*
X122275205Y-72165654D01*
X122453345Y-72343794D01*
X122453350Y-72343798D01*
X122631117Y-72472952D01*
X122657155Y-72491870D01*
X122800184Y-72564747D01*
X122881616Y-72606239D01*
X122881618Y-72606239D01*
X122881621Y-72606241D01*
X123121215Y-72684090D01*
X123370038Y-72723500D01*
X123370039Y-72723500D01*
X123621961Y-72723500D01*
X123621962Y-72723500D01*
X123870785Y-72684090D01*
X124110379Y-72606241D01*
X124334845Y-72491870D01*
X124538656Y-72343793D01*
X124716793Y-72165656D01*
X124864870Y-71961845D01*
X124979241Y-71737379D01*
X125057090Y-71497785D01*
X125096500Y-71248962D01*
X125096500Y-70997038D01*
X125057090Y-70748215D01*
X124979241Y-70508621D01*
X124979239Y-70508618D01*
X124979239Y-70508616D01*
X124929880Y-70411745D01*
X124864870Y-70284155D01*
X124818073Y-70219744D01*
X124716798Y-70080350D01*
X124716794Y-70080345D01*
X124538654Y-69902205D01*
X124538649Y-69902201D01*
X124334848Y-69754132D01*
X124334847Y-69754131D01*
X124334845Y-69754130D01*
X124245546Y-69708630D01*
X124110383Y-69639760D01*
X123870785Y-69561910D01*
X123814460Y-69552989D01*
X123621962Y-69522500D01*
X123370038Y-69522500D01*
X123245626Y-69542205D01*
X123121214Y-69561910D01*
X122881616Y-69639760D01*
X122657151Y-69754132D01*
X122453350Y-69902201D01*
X122453345Y-69902205D01*
X122275205Y-70080345D01*
X122275201Y-70080350D01*
X122127132Y-70284151D01*
X122012760Y-70508616D01*
X121934910Y-70748214D01*
X121895500Y-70997038D01*
X90367479Y-70997038D01*
X90371394Y-70991179D01*
X90431737Y-70845497D01*
X90462500Y-70690842D01*
X90462500Y-70533158D01*
X90462500Y-70533155D01*
X90462499Y-70533153D01*
X90438349Y-70411745D01*
X90431737Y-70378503D01*
X90392657Y-70284155D01*
X90371397Y-70232827D01*
X90371390Y-70232814D01*
X90283789Y-70101711D01*
X90283786Y-70101707D01*
X90172292Y-69990213D01*
X90172288Y-69990210D01*
X90041185Y-69902609D01*
X90041172Y-69902602D01*
X89895501Y-69842264D01*
X89895489Y-69842261D01*
X89740845Y-69811500D01*
X89740842Y-69811500D01*
X89583158Y-69811500D01*
X89583155Y-69811500D01*
X89428510Y-69842261D01*
X89428498Y-69842264D01*
X89282827Y-69902602D01*
X89282820Y-69902606D01*
X89253928Y-69921911D01*
X89225955Y-69940602D01*
X89159279Y-69961480D01*
X89157065Y-69961500D01*
X86741500Y-69961500D01*
X86674461Y-69941815D01*
X86628706Y-69889011D01*
X86617500Y-69837500D01*
X86617500Y-59611153D01*
X92036500Y-59611153D01*
X92036500Y-59768846D01*
X92067261Y-59923489D01*
X92067264Y-59923501D01*
X92127602Y-60069172D01*
X92127609Y-60069185D01*
X92215210Y-60200288D01*
X92215213Y-60200292D01*
X92326709Y-60311788D01*
X92331168Y-60314767D01*
X92375974Y-60368378D01*
X92384684Y-60437702D01*
X92376841Y-60465323D01*
X92321264Y-60599498D01*
X92321261Y-60599510D01*
X92290500Y-60754153D01*
X92290500Y-60911846D01*
X92321261Y-61066489D01*
X92321264Y-61066501D01*
X92381602Y-61212172D01*
X92381609Y-61212185D01*
X92469210Y-61343288D01*
X92469213Y-61343292D01*
X92580706Y-61454785D01*
X92582820Y-61456520D01*
X92583629Y-61457708D01*
X92585018Y-61459097D01*
X92584754Y-61459360D01*
X92622153Y-61514267D01*
X92624022Y-61584112D01*
X92587833Y-61643879D01*
X92573044Y-61655474D01*
X92453711Y-61735210D01*
X92453707Y-61735213D01*
X92342213Y-61846707D01*
X92342210Y-61846711D01*
X92254609Y-61977814D01*
X92254602Y-61977827D01*
X92194264Y-62123498D01*
X92194261Y-62123510D01*
X92163500Y-62278153D01*
X92163500Y-62435846D01*
X92194261Y-62590489D01*
X92194264Y-62590501D01*
X92254602Y-62736172D01*
X92254609Y-62736185D01*
X92342210Y-62867288D01*
X92342213Y-62867292D01*
X92453707Y-62978786D01*
X92453711Y-62978789D01*
X92584814Y-63066390D01*
X92584827Y-63066397D01*
X92730498Y-63126735D01*
X92730503Y-63126737D01*
X92885153Y-63157499D01*
X92885156Y-63157500D01*
X92885158Y-63157500D01*
X93042844Y-63157500D01*
X93042845Y-63157499D01*
X93197497Y-63126737D01*
X93343179Y-63066394D01*
X93474289Y-62978789D01*
X93585789Y-62867289D01*
X93673394Y-62736179D01*
X93733737Y-62590497D01*
X93764500Y-62435842D01*
X93764500Y-62421741D01*
X93784185Y-62354702D01*
X93800814Y-62334065D01*
X95126725Y-61008153D01*
X96354500Y-61008153D01*
X96354500Y-61165846D01*
X96385261Y-61320489D01*
X96385264Y-61320501D01*
X96445602Y-61466172D01*
X96445609Y-61466185D01*
X96533210Y-61597288D01*
X96533213Y-61597292D01*
X96644707Y-61708786D01*
X96644711Y-61708789D01*
X96775814Y-61796390D01*
X96775827Y-61796397D01*
X96898442Y-61847185D01*
X96921503Y-61856737D01*
X97076153Y-61887499D01*
X97076156Y-61887500D01*
X97076158Y-61887500D01*
X97233844Y-61887500D01*
X97233845Y-61887499D01*
X97388497Y-61856737D01*
X97534179Y-61796394D01*
X97534185Y-61796390D01*
X97616415Y-61741446D01*
X97683092Y-61720568D01*
X97750473Y-61739052D01*
X97772987Y-61756867D01*
X97837485Y-61821365D01*
X97944635Y-61928515D01*
X97979285Y-61948520D01*
X98075865Y-62004281D01*
X98222233Y-62043500D01*
X98222234Y-62043500D01*
X101119059Y-62043500D01*
X101186098Y-62063185D01*
X101206740Y-62079819D01*
X101216707Y-62089786D01*
X101216711Y-62089789D01*
X101347814Y-62177390D01*
X101347827Y-62177397D01*
X101434062Y-62213116D01*
X101493503Y-62237737D01*
X101648153Y-62268499D01*
X101648156Y-62268500D01*
X101648158Y-62268500D01*
X101805844Y-62268500D01*
X101805845Y-62268499D01*
X101960497Y-62237737D01*
X102106179Y-62177394D01*
X102237289Y-62089789D01*
X102348789Y-61978289D01*
X102436394Y-61847179D01*
X102496737Y-61701497D01*
X102527500Y-61546842D01*
X102527500Y-61389158D01*
X102527500Y-61389155D01*
X102527499Y-61389153D01*
X102496738Y-61234510D01*
X102496737Y-61234503D01*
X102468297Y-61165842D01*
X102436397Y-61088827D01*
X102436390Y-61088814D01*
X102348789Y-60957711D01*
X102348786Y-60957707D01*
X102237292Y-60846213D01*
X102237288Y-60846210D01*
X102106185Y-60758609D01*
X102106172Y-60758602D01*
X101960501Y-60698264D01*
X101960489Y-60698261D01*
X101805845Y-60667500D01*
X101805842Y-60667500D01*
X101648158Y-60667500D01*
X101648155Y-60667500D01*
X101493510Y-60698261D01*
X101493498Y-60698264D01*
X101347827Y-60758602D01*
X101347814Y-60758609D01*
X101216711Y-60846210D01*
X101216707Y-60846213D01*
X101206740Y-60856181D01*
X101145417Y-60889666D01*
X101119059Y-60892500D01*
X98587742Y-60892500D01*
X98520703Y-60872815D01*
X98500061Y-60856181D01*
X98270367Y-60626487D01*
X98270365Y-60626485D01*
X98204750Y-60588602D01*
X98139136Y-60550719D01*
X98065950Y-60531109D01*
X97992766Y-60511500D01*
X97992765Y-60511500D01*
X97762941Y-60511500D01*
X97695902Y-60491815D01*
X97675260Y-60475181D01*
X97665292Y-60465213D01*
X97665288Y-60465210D01*
X97534185Y-60377609D01*
X97534172Y-60377602D01*
X97388501Y-60317264D01*
X97388489Y-60317261D01*
X97233845Y-60286500D01*
X97233842Y-60286500D01*
X97076158Y-60286500D01*
X97076155Y-60286500D01*
X96921510Y-60317261D01*
X96921498Y-60317264D01*
X96775827Y-60377602D01*
X96775814Y-60377609D01*
X96644711Y-60465210D01*
X96644707Y-60465213D01*
X96533213Y-60576707D01*
X96533210Y-60576711D01*
X96445609Y-60707814D01*
X96445602Y-60707827D01*
X96385264Y-60853498D01*
X96385261Y-60853510D01*
X96354500Y-61008153D01*
X95126725Y-61008153D01*
X96386355Y-59748523D01*
X96447676Y-59715040D01*
X96498223Y-59714589D01*
X96553871Y-59725658D01*
X96568157Y-59728500D01*
X96568158Y-59728500D01*
X96725844Y-59728500D01*
X96725845Y-59728499D01*
X96880497Y-59697737D01*
X97026179Y-59637394D01*
X97157289Y-59549789D01*
X97268789Y-59438289D01*
X97356394Y-59307179D01*
X97416737Y-59161497D01*
X97447500Y-59006842D01*
X97447500Y-58849158D01*
X97447500Y-58849155D01*
X97447499Y-58849153D01*
X97420317Y-58712500D01*
X97416737Y-58694503D01*
X97402010Y-58658950D01*
X97394543Y-58589482D01*
X97425819Y-58527003D01*
X97485908Y-58491351D01*
X97516573Y-58487500D01*
X100738059Y-58487500D01*
X100805098Y-58507185D01*
X100825740Y-58523819D01*
X100835707Y-58533786D01*
X100835711Y-58533789D01*
X100966814Y-58621390D01*
X100966827Y-58621397D01*
X101112498Y-58681735D01*
X101112503Y-58681737D01*
X101267153Y-58712499D01*
X101267156Y-58712500D01*
X101267158Y-58712500D01*
X101424844Y-58712500D01*
X101424845Y-58712499D01*
X101579497Y-58681737D01*
X101725179Y-58621394D01*
X101856289Y-58533789D01*
X101967789Y-58422289D01*
X102055394Y-58291179D01*
X102115737Y-58145497D01*
X102146500Y-57990842D01*
X102146500Y-57833158D01*
X102146080Y-57831047D01*
X102146181Y-57829917D01*
X102145903Y-57827093D01*
X102146438Y-57827040D01*
X102152301Y-57761457D01*
X102195159Y-57706275D01*
X102243503Y-57685229D01*
X102341497Y-57665737D01*
X102487179Y-57605394D01*
X102618289Y-57517789D01*
X102729789Y-57406289D01*
X102817394Y-57275179D01*
X102877737Y-57129497D01*
X102908500Y-56974842D01*
X102908500Y-56906149D01*
X102928185Y-56839110D01*
X102980989Y-56793355D01*
X103050147Y-56783411D01*
X103056683Y-56784530D01*
X103088756Y-56790910D01*
X103172155Y-56807500D01*
X103172158Y-56807500D01*
X103329844Y-56807500D01*
X103329845Y-56807499D01*
X103484497Y-56776737D01*
X103630179Y-56716394D01*
X103761289Y-56628789D01*
X103872789Y-56517289D01*
X103960394Y-56386179D01*
X103962845Y-56380263D01*
X104009039Y-56268738D01*
X104020737Y-56240497D01*
X104051500Y-56085842D01*
X104051500Y-55928158D01*
X104051500Y-55928155D01*
X104051499Y-55928153D01*
X104020738Y-55773510D01*
X104020737Y-55773503D01*
X104003749Y-55732489D01*
X103960397Y-55627827D01*
X103960390Y-55627814D01*
X103872789Y-55496711D01*
X103872786Y-55496707D01*
X103821811Y-55445732D01*
X103788326Y-55384409D01*
X103793310Y-55314717D01*
X103835182Y-55258784D01*
X103840579Y-55254963D01*
X103885916Y-55224671D01*
X103997416Y-55113171D01*
X104085021Y-54982061D01*
X104145364Y-54836379D01*
X104176127Y-54681724D01*
X104176127Y-54524040D01*
X104176127Y-54524037D01*
X104176126Y-54524035D01*
X104149862Y-54392000D01*
X104145364Y-54369385D01*
X104106884Y-54276485D01*
X104085024Y-54223709D01*
X104085017Y-54223696D01*
X103997416Y-54092593D01*
X103997413Y-54092589D01*
X103885919Y-53981095D01*
X103885915Y-53981092D01*
X103754812Y-53893491D01*
X103754799Y-53893484D01*
X103747048Y-53890274D01*
X103692644Y-53846434D01*
X103670579Y-53780139D01*
X103670500Y-53775713D01*
X103670500Y-53642155D01*
X103670499Y-53642153D01*
X103639738Y-53487510D01*
X103639737Y-53487503D01*
X103624269Y-53450160D01*
X103579397Y-53341827D01*
X103579390Y-53341814D01*
X103491789Y-53210711D01*
X103491786Y-53210707D01*
X103380292Y-53099213D01*
X103380288Y-53099210D01*
X103249185Y-53011609D01*
X103249172Y-53011602D01*
X103103501Y-52951264D01*
X103103489Y-52951261D01*
X102948845Y-52920500D01*
X102948842Y-52920500D01*
X102791158Y-52920500D01*
X102791155Y-52920500D01*
X102636510Y-52951261D01*
X102636498Y-52951264D01*
X102490827Y-53011602D01*
X102490814Y-53011609D01*
X102359711Y-53099210D01*
X102359707Y-53099213D01*
X102349740Y-53109181D01*
X102288417Y-53142666D01*
X102262059Y-53145500D01*
X95984941Y-53145500D01*
X95917902Y-53125815D01*
X95897260Y-53109181D01*
X95887292Y-53099213D01*
X95887288Y-53099210D01*
X95756185Y-53011609D01*
X95756172Y-53011602D01*
X95610501Y-52951264D01*
X95610489Y-52951261D01*
X95455845Y-52920500D01*
X95455842Y-52920500D01*
X95298158Y-52920500D01*
X95298155Y-52920500D01*
X95143510Y-52951261D01*
X95143498Y-52951264D01*
X94997827Y-53011602D01*
X94997814Y-53011609D01*
X94866711Y-53099210D01*
X94866707Y-53099213D01*
X94755213Y-53210707D01*
X94755210Y-53210711D01*
X94667609Y-53341814D01*
X94667602Y-53341827D01*
X94607264Y-53487498D01*
X94607261Y-53487510D01*
X94576500Y-53642153D01*
X94576500Y-53729243D01*
X94556815Y-53796282D01*
X94504011Y-53842037D01*
X94499953Y-53843804D01*
X94362823Y-53900604D01*
X94362814Y-53900609D01*
X94231711Y-53988210D01*
X94231707Y-53988213D01*
X94120213Y-54099707D01*
X94120210Y-54099711D01*
X94032609Y-54230814D01*
X94032602Y-54230827D01*
X93972264Y-54376498D01*
X93972261Y-54376510D01*
X93941500Y-54531153D01*
X93941500Y-54618243D01*
X93921815Y-54685282D01*
X93869011Y-54731037D01*
X93864953Y-54732804D01*
X93727823Y-54789604D01*
X93727814Y-54789609D01*
X93596711Y-54877210D01*
X93596707Y-54877213D01*
X93485213Y-54988707D01*
X93485210Y-54988711D01*
X93397609Y-55119814D01*
X93397602Y-55119827D01*
X93337264Y-55265498D01*
X93337261Y-55265510D01*
X93306500Y-55420153D01*
X93306500Y-55577846D01*
X93337261Y-55732489D01*
X93337264Y-55732501D01*
X93397602Y-55878172D01*
X93397609Y-55878185D01*
X93485210Y-56009288D01*
X93485213Y-56009292D01*
X93596707Y-56120786D01*
X93596711Y-56120789D01*
X93727814Y-56208390D01*
X93727827Y-56208397D01*
X93873498Y-56268735D01*
X93873503Y-56268737D01*
X94028153Y-56299499D01*
X94028156Y-56299500D01*
X94028158Y-56299500D01*
X94185844Y-56299500D01*
X94185845Y-56299499D01*
X94340497Y-56268737D01*
X94453166Y-56222067D01*
X94486172Y-56208397D01*
X94486172Y-56208396D01*
X94486179Y-56208394D01*
X94617289Y-56120789D01*
X94617292Y-56120786D01*
X94627260Y-56110819D01*
X94688583Y-56077334D01*
X94714941Y-56074500D01*
X95531918Y-56074500D01*
X95598957Y-56094185D01*
X95644712Y-56146989D01*
X95654656Y-56216147D01*
X95625631Y-56279703D01*
X95566853Y-56317477D01*
X95563052Y-56318280D01*
X95563084Y-56318397D01*
X95555235Y-56320500D01*
X95555234Y-56320500D01*
X95499420Y-56335454D01*
X95408863Y-56359719D01*
X95277635Y-56435485D01*
X95277632Y-56435487D01*
X92859939Y-58853181D01*
X92798616Y-58886666D01*
X92772258Y-58889500D01*
X92758155Y-58889500D01*
X92603510Y-58920261D01*
X92603498Y-58920264D01*
X92457827Y-58980602D01*
X92457814Y-58980609D01*
X92326711Y-59068210D01*
X92326707Y-59068213D01*
X92215213Y-59179707D01*
X92215210Y-59179711D01*
X92127609Y-59310814D01*
X92127602Y-59310827D01*
X92067264Y-59456498D01*
X92067261Y-59456510D01*
X92036500Y-59611153D01*
X86617500Y-59611153D01*
X86617500Y-55495468D01*
X86637185Y-55428429D01*
X86653819Y-55407787D01*
X90459787Y-51601819D01*
X90521110Y-51568334D01*
X90547468Y-51565500D01*
X97265221Y-51565500D01*
X97265222Y-51565500D01*
X97482951Y-51531015D01*
X97692606Y-51462895D01*
X97889022Y-51362815D01*
X98067365Y-51233242D01*
X98223242Y-51077365D01*
X98352815Y-50899022D01*
X98452895Y-50702606D01*
X98521015Y-50492951D01*
X98555500Y-50275222D01*
X98555500Y-50054778D01*
X98521015Y-49837049D01*
X98452895Y-49627394D01*
X98452895Y-49627393D01*
X98418237Y-49559375D01*
X98352815Y-49430978D01*
X98339511Y-49412667D01*
X98223245Y-49252638D01*
X98067363Y-49096756D01*
X98067358Y-49096752D01*
X97889025Y-48967187D01*
X97889024Y-48967186D01*
X97889022Y-48967185D01*
X97826096Y-48935122D01*
X97692606Y-48867104D01*
X97692603Y-48867103D01*
X97482952Y-48798985D01*
X97374086Y-48781742D01*
X97265222Y-48764500D01*
X97265221Y-48764500D01*
X90031357Y-48764500D01*
X90031333Y-48764499D01*
X90026222Y-48764499D01*
X89805778Y-48764499D01*
X89733201Y-48775994D01*
X89588047Y-48798985D01*
X89378396Y-48867103D01*
X89378393Y-48867104D01*
X89181974Y-48967187D01*
X89003641Y-49096752D01*
X89003636Y-49096756D01*
X88847755Y-49252638D01*
X86082636Y-52017758D01*
X85020213Y-53080181D01*
X84993285Y-53094884D01*
X84967467Y-53111477D01*
X84961266Y-53112368D01*
X84958890Y-53113666D01*
X84932532Y-53116500D01*
X84753541Y-53116500D01*
X84686502Y-53096815D01*
X84646809Y-53055621D01*
X84620780Y-53011609D01*
X84608081Y-52990135D01*
X84608079Y-52990133D01*
X84608076Y-52990129D01*
X84491870Y-52873923D01*
X84491862Y-52873917D01*
X84350396Y-52790255D01*
X84350393Y-52790254D01*
X84192573Y-52744402D01*
X84192567Y-52744401D01*
X84155701Y-52741500D01*
X84155694Y-52741500D01*
X83324306Y-52741500D01*
X83324298Y-52741500D01*
X83287432Y-52744401D01*
X83287426Y-52744402D01*
X83129606Y-52790254D01*
X83129603Y-52790255D01*
X82988137Y-52873917D01*
X82988129Y-52873923D01*
X82871923Y-52990129D01*
X82871916Y-52990138D01*
X82825089Y-53069320D01*
X82774020Y-53117004D01*
X82705278Y-53129507D01*
X82640689Y-53102862D01*
X82618039Y-53079084D01*
X82579038Y-53025404D01*
X82579034Y-53025399D01*
X82456602Y-52902967D01*
X82316524Y-52801195D01*
X82162257Y-52722591D01*
X81997589Y-52669087D01*
X81997581Y-52669085D01*
X81990000Y-52667884D01*
X81990000Y-53736670D01*
X81970255Y-53716925D01*
X81884745Y-53667556D01*
X81789370Y-53642000D01*
X81690630Y-53642000D01*
X81595255Y-53667556D01*
X81509745Y-53716925D01*
X81490000Y-53736670D01*
X81490000Y-52667884D01*
X81489999Y-52667884D01*
X81482418Y-52669085D01*
X81482410Y-52669087D01*
X81317742Y-52722591D01*
X81163475Y-52801195D01*
X81023397Y-52902967D01*
X80900967Y-53025397D01*
X80799195Y-53165476D01*
X80790920Y-53181716D01*
X80742943Y-53232510D01*
X80675122Y-53249303D01*
X80608988Y-53226763D01*
X80577334Y-53194307D01*
X80534036Y-53129507D01*
X80517139Y-53104218D01*
X80517137Y-53104215D01*
X80377785Y-52964863D01*
X80377781Y-52964860D01*
X80213920Y-52855371D01*
X80213907Y-52855364D01*
X80031839Y-52779950D01*
X80031829Y-52779947D01*
X79838543Y-52741500D01*
X79838541Y-52741500D01*
X79641459Y-52741500D01*
X79641457Y-52741500D01*
X79448170Y-52779947D01*
X79448160Y-52779950D01*
X79266092Y-52855364D01*
X79266079Y-52855371D01*
X79102218Y-52964860D01*
X79102214Y-52964863D01*
X78962863Y-53104214D01*
X78962860Y-53104218D01*
X78853371Y-53268079D01*
X78850498Y-53273456D01*
X78848691Y-53272490D01*
X78810715Y-53319612D01*
X78744420Y-53341673D01*
X78676721Y-53324391D01*
X78629113Y-53273251D01*
X78627473Y-53269660D01*
X78626628Y-53268079D01*
X78517139Y-53104218D01*
X78517136Y-53104214D01*
X78377785Y-52964863D01*
X78377781Y-52964860D01*
X78213920Y-52855371D01*
X78213907Y-52855364D01*
X78031839Y-52779950D01*
X78031829Y-52779947D01*
X77838543Y-52741500D01*
X77838541Y-52741500D01*
X77641459Y-52741500D01*
X77641457Y-52741500D01*
X77448170Y-52779947D01*
X77448160Y-52779950D01*
X77266092Y-52855364D01*
X77266079Y-52855371D01*
X77102218Y-52964860D01*
X77102214Y-52964863D01*
X76962863Y-53104214D01*
X76962860Y-53104218D01*
X76853371Y-53268079D01*
X76850498Y-53273456D01*
X76848691Y-53272490D01*
X76810715Y-53319612D01*
X76744420Y-53341673D01*
X76676721Y-53324391D01*
X76629113Y-53273251D01*
X76627473Y-53269660D01*
X76626628Y-53268079D01*
X76517139Y-53104218D01*
X76517136Y-53104214D01*
X76377785Y-52964863D01*
X76377781Y-52964860D01*
X76213920Y-52855371D01*
X76213907Y-52855364D01*
X76031839Y-52779950D01*
X76031829Y-52779947D01*
X75838543Y-52741500D01*
X75838541Y-52741500D01*
X75641459Y-52741500D01*
X75641457Y-52741500D01*
X75448170Y-52779947D01*
X75448160Y-52779950D01*
X75266092Y-52855364D01*
X75266079Y-52855371D01*
X75102218Y-52964860D01*
X75102214Y-52964863D01*
X74962863Y-53104214D01*
X74962860Y-53104218D01*
X74853371Y-53268079D01*
X74850498Y-53273456D01*
X74848691Y-53272490D01*
X74810715Y-53319612D01*
X74744420Y-53341673D01*
X74676721Y-53324391D01*
X74629113Y-53273251D01*
X74627473Y-53269660D01*
X74626628Y-53268079D01*
X74517139Y-53104218D01*
X74517136Y-53104214D01*
X74377785Y-52964863D01*
X74377781Y-52964860D01*
X74213920Y-52855371D01*
X74213907Y-52855364D01*
X74031839Y-52779950D01*
X74031829Y-52779947D01*
X73838543Y-52741500D01*
X73838541Y-52741500D01*
X73641459Y-52741500D01*
X73641457Y-52741500D01*
X73448170Y-52779947D01*
X73448160Y-52779950D01*
X73266092Y-52855364D01*
X73266079Y-52855371D01*
X73102218Y-52964860D01*
X73102214Y-52964863D01*
X72962863Y-53104214D01*
X72962860Y-53104218D01*
X72853371Y-53268079D01*
X72853364Y-53268092D01*
X72777950Y-53450160D01*
X72777947Y-53450170D01*
X72739500Y-53643456D01*
X72739500Y-53643459D01*
X72739500Y-54390541D01*
X72739500Y-54390543D01*
X72739499Y-54390543D01*
X70496500Y-54390543D01*
X70496500Y-47124500D01*
X70516185Y-47057461D01*
X70568989Y-47011706D01*
X70620500Y-47000500D01*
X84128138Y-47000500D01*
X84195177Y-47020185D01*
G37*
%TD.AperFunction*%
%TD*%
%TA.AperFunction,Conductor*%
%TO.N,GND*%
G36*
X87503000Y-86360000D02*
G01*
X87503000Y-105918000D01*
X85598000Y-107950000D01*
X79502000Y-107823000D01*
X79502000Y-82042000D01*
X85852000Y-82042000D01*
X87503000Y-86360000D01*
G37*
%TD.AperFunction*%
%TD*%
%TA.AperFunction,Conductor*%
%TO.N,GND*%
G36*
X70485000Y-99568000D02*
G01*
X66675000Y-99568000D01*
X66675000Y-93599000D01*
X70485000Y-93599000D01*
X70485000Y-99568000D01*
G37*
%TD.AperFunction*%
%TD*%
M02*
