M48
; DRILL file KiCad 10.0.4 date 2026-07-06T14:33:07
; FORMAT={-:-/ absolute / metric / decimal}
; #@! TF.CreationDate,2026-07-06T14:33:07+02:00
; #@! TF.GenerationSoftware,Kicad,Pcbnew,10.0.4
; #@! TF.FileFunction,Plated,1,2,PTH
FMAT,2
METRIC
; #@! TA.AperFunction,Plated,PTH,ViaDrill
T1C0.300
; #@! TA.AperFunction,Plated,PTH,ComponentDrill
T2C0.300
; #@! TA.AperFunction,Plated,PTH,ViaDrill
T3C0.400
; #@! TA.AperFunction,Plated,PTH,ViaDrill
T4C0.600
; #@! TA.AperFunction,Plated,PTH,ComponentDrill
T5C0.750
; #@! TA.AperFunction,Plated,PTH,ComponentDrill
T6C1.000
; #@! TA.AperFunction,Plated,PTH,ComponentDrill
T7C1.200
%
G90
G05
T1
X65.659Y-105.537
X66.675Y-105.537
X66.675Y-106.426
X68.199Y-93.218
X68.58Y-99.568
X68.58Y-100.584
X68.58Y-101.6
X68.58Y-102.616
X69.088Y-103.632
X69.215Y-93.218
X69.596Y-99.568
X69.596Y-100.584
X69.596Y-101.6
X69.596Y-102.616
T2
X68.026Y-94.644
X68.026Y-95.944
X68.026Y-97.244
X68.026Y-98.544
X69.326Y-94.644
X69.326Y-95.944
X69.326Y-97.244
X69.326Y-98.544
X105.304Y-55.345
X105.304Y-56.745
X106.004Y-54.645
X106.004Y-56.045
X106.004Y-57.445
X106.704Y-55.345
X106.704Y-56.745
X107.404Y-54.645
X107.404Y-56.045
X107.404Y-57.445
X108.104Y-55.345
X108.104Y-56.745
T3
X69.723Y-112.141
X86.868Y-113.411
X87.884Y-78.105
X89.662Y-70.612
X90.551Y-82.169
X90.932Y-86.487
X91.25Y-111.75
X91.694Y-82.169
X91.948Y-86.487
X91.948Y-87.63
X92.837Y-59.69
X92.964Y-62.357
X93.091Y-60.833
X93.218Y-111.125
X94.107Y-55.499
X94.742Y-54.61
X95.123Y-49.784
X95.377Y-53.721
X95.75Y-111.0
X95.885Y-48.26
X96.266Y-49.784
X96.647Y-58.928
X96.901Y-48.26
X97.155Y-61.087
X97.282Y-83.341
X97.282Y-84.328
X97.282Y-85.344
X97.282Y-86.614
X97.282Y-87.63
X97.282Y-88.646
X97.409Y-49.784
X97.75Y-112.25
X97.917Y-48.26
X101.346Y-57.912
X101.727Y-61.468
X102.108Y-56.896
X102.87Y-53.721
X103.0Y-113.411
X103.251Y-56.007
X103.376Y-54.603
X106.783Y-70.231
X115.062Y-89.281
X115.443Y-54.737
X115.443Y-73.025
X115.57Y-57.15
X117.856Y-68.199
X117.856Y-72.898
X119.126Y-66.929
T4
X82.677Y-68.58
X90.551Y-103.06
X102.489Y-64.516
X115.57Y-48.325
T5
X73.74Y-54.017
X75.74Y-54.017
X77.74Y-54.017
X79.29Y-68.642
X79.29Y-70.642
X79.29Y-72.642
X79.29Y-74.642
X79.74Y-54.017
X81.74Y-54.017
X83.74Y-54.017
X115.078Y-79.29
X117.078Y-79.29
T6
X73.192Y-83.058
X75.692Y-83.058
T7
X82.996Y-85.973G85X82.996Y-104.273
G05
X106.996Y-85.973G85X106.996Y-104.273
G05
M30
