%TF.GenerationSoftware,KiCad,Pcbnew,10.0.4*%
%TF.CreationDate,2026-07-06T14:32:58+02:00*%
%TF.ProjectId,spinkovacka,7370696e-6b6f-4766-9163-6b612e6b6963,rev?*%
%TF.SameCoordinates,Original*%
%TF.FileFunction,Legend,Top*%
%TF.FilePolarity,Positive*%
%FSLAX46Y46*%
G04 Gerber Fmt 4.6, Leading zero omitted, Abs format (unit mm)*
G04 Created by KiCad (PCBNEW 10.0.4) date 2026-07-06 14:32:58*
%MOMM*%
%LPD*%
G01*
G04 APERTURE LIST*
%ADD10C,0.300000*%
%ADD11C,0.200000*%
%ADD12C,0.150000*%
%ADD13C,0.120000*%
G04 APERTURE END LIST*
D10*
X82042000Y-80899000D02*
X83820000Y-80899000D01*
X84455000Y-80899000D02*
G75*
G02*
X81407000Y-80899000I-1524000J0D01*
G01*
X81407000Y-80899000D02*
G75*
G02*
X84455000Y-80899000I1524000J0D01*
G01*
X106172000Y-80645000D02*
X107950000Y-80645000D01*
X107061000Y-79756000D02*
X107061000Y-81534000D01*
X108585000Y-80645000D02*
G75*
G02*
X105537000Y-80645000I-1524000J0D01*
G01*
X105537000Y-80645000D02*
G75*
G02*
X108585000Y-80645000I1524000J0D01*
G01*
D11*
X72378673Y-78861219D02*
X72378673Y-77861219D01*
X72378673Y-77861219D02*
X72712006Y-78575504D01*
X72712006Y-78575504D02*
X73045339Y-77861219D01*
X73045339Y-77861219D02*
X73045339Y-78861219D01*
X73712006Y-77861219D02*
X73902482Y-77861219D01*
X73902482Y-77861219D02*
X73997720Y-77908838D01*
X73997720Y-77908838D02*
X74092958Y-78004076D01*
X74092958Y-78004076D02*
X74140577Y-78194552D01*
X74140577Y-78194552D02*
X74140577Y-78527885D01*
X74140577Y-78527885D02*
X74092958Y-78718361D01*
X74092958Y-78718361D02*
X73997720Y-78813600D01*
X73997720Y-78813600D02*
X73902482Y-78861219D01*
X73902482Y-78861219D02*
X73712006Y-78861219D01*
X73712006Y-78861219D02*
X73616768Y-78813600D01*
X73616768Y-78813600D02*
X73521530Y-78718361D01*
X73521530Y-78718361D02*
X73473911Y-78527885D01*
X73473911Y-78527885D02*
X73473911Y-78194552D01*
X73473911Y-78194552D02*
X73521530Y-78004076D01*
X73521530Y-78004076D02*
X73616768Y-77908838D01*
X73616768Y-77908838D02*
X73712006Y-77861219D01*
X74426292Y-77861219D02*
X74997720Y-77861219D01*
X74712006Y-78861219D02*
X74712006Y-77861219D01*
X75521530Y-77861219D02*
X75712006Y-77861219D01*
X75712006Y-77861219D02*
X75807244Y-77908838D01*
X75807244Y-77908838D02*
X75902482Y-78004076D01*
X75902482Y-78004076D02*
X75950101Y-78194552D01*
X75950101Y-78194552D02*
X75950101Y-78527885D01*
X75950101Y-78527885D02*
X75902482Y-78718361D01*
X75902482Y-78718361D02*
X75807244Y-78813600D01*
X75807244Y-78813600D02*
X75712006Y-78861219D01*
X75712006Y-78861219D02*
X75521530Y-78861219D01*
X75521530Y-78861219D02*
X75426292Y-78813600D01*
X75426292Y-78813600D02*
X75331054Y-78718361D01*
X75331054Y-78718361D02*
X75283435Y-78527885D01*
X75283435Y-78527885D02*
X75283435Y-78194552D01*
X75283435Y-78194552D02*
X75331054Y-78004076D01*
X75331054Y-78004076D02*
X75426292Y-77908838D01*
X75426292Y-77908838D02*
X75521530Y-77861219D01*
X76950101Y-78861219D02*
X76616768Y-78385028D01*
X76378673Y-78861219D02*
X76378673Y-77861219D01*
X76378673Y-77861219D02*
X76759625Y-77861219D01*
X76759625Y-77861219D02*
X76854863Y-77908838D01*
X76854863Y-77908838D02*
X76902482Y-77956457D01*
X76902482Y-77956457D02*
X76950101Y-78051695D01*
X76950101Y-78051695D02*
X76950101Y-78194552D01*
X76950101Y-78194552D02*
X76902482Y-78289790D01*
X76902482Y-78289790D02*
X76854863Y-78337409D01*
X76854863Y-78337409D02*
X76759625Y-78385028D01*
X76759625Y-78385028D02*
X76378673Y-78385028D01*
X77426863Y-66034219D02*
X76950673Y-66034219D01*
X76950673Y-66034219D02*
X76950673Y-65034219D01*
X77760197Y-66034219D02*
X77760197Y-65034219D01*
X78236387Y-66034219D02*
X78236387Y-65034219D01*
X78236387Y-65034219D02*
X78569720Y-65748504D01*
X78569720Y-65748504D02*
X78903053Y-65034219D01*
X78903053Y-65034219D02*
X78903053Y-66034219D01*
X79379244Y-66034219D02*
X79379244Y-65034219D01*
X79712577Y-65034219D02*
X80284005Y-65034219D01*
X79998291Y-66034219D02*
X79998291Y-65034219D01*
X81331625Y-65986600D02*
X81474482Y-66034219D01*
X81474482Y-66034219D02*
X81712577Y-66034219D01*
X81712577Y-66034219D02*
X81807815Y-65986600D01*
X81807815Y-65986600D02*
X81855434Y-65938980D01*
X81855434Y-65938980D02*
X81903053Y-65843742D01*
X81903053Y-65843742D02*
X81903053Y-65748504D01*
X81903053Y-65748504D02*
X81855434Y-65653266D01*
X81855434Y-65653266D02*
X81807815Y-65605647D01*
X81807815Y-65605647D02*
X81712577Y-65558028D01*
X81712577Y-65558028D02*
X81522101Y-65510409D01*
X81522101Y-65510409D02*
X81426863Y-65462790D01*
X81426863Y-65462790D02*
X81379244Y-65415171D01*
X81379244Y-65415171D02*
X81331625Y-65319933D01*
X81331625Y-65319933D02*
X81331625Y-65224695D01*
X81331625Y-65224695D02*
X81379244Y-65129457D01*
X81379244Y-65129457D02*
X81426863Y-65081838D01*
X81426863Y-65081838D02*
X81522101Y-65034219D01*
X81522101Y-65034219D02*
X81760196Y-65034219D01*
X81760196Y-65034219D02*
X81903053Y-65081838D01*
X82236387Y-65034219D02*
X82474482Y-66034219D01*
X82474482Y-66034219D02*
X82664958Y-65319933D01*
X82664958Y-65319933D02*
X82855434Y-66034219D01*
X82855434Y-66034219D02*
X83093530Y-65034219D01*
X82554482Y-70161838D02*
X82459244Y-70114219D01*
X82459244Y-70114219D02*
X82316387Y-70114219D01*
X82316387Y-70114219D02*
X82173530Y-70161838D01*
X82173530Y-70161838D02*
X82078292Y-70257076D01*
X82078292Y-70257076D02*
X82030673Y-70352314D01*
X82030673Y-70352314D02*
X81983054Y-70542790D01*
X81983054Y-70542790D02*
X81983054Y-70685647D01*
X81983054Y-70685647D02*
X82030673Y-70876123D01*
X82030673Y-70876123D02*
X82078292Y-70971361D01*
X82078292Y-70971361D02*
X82173530Y-71066600D01*
X82173530Y-71066600D02*
X82316387Y-71114219D01*
X82316387Y-71114219D02*
X82411625Y-71114219D01*
X82411625Y-71114219D02*
X82554482Y-71066600D01*
X82554482Y-71066600D02*
X82602101Y-71018980D01*
X82602101Y-71018980D02*
X82602101Y-70685647D01*
X82602101Y-70685647D02*
X82411625Y-70685647D01*
X83030673Y-71114219D02*
X83030673Y-70114219D01*
X83030673Y-70114219D02*
X83602101Y-71114219D01*
X83602101Y-71114219D02*
X83602101Y-70114219D01*
X84078292Y-71114219D02*
X84078292Y-70114219D01*
X84078292Y-70114219D02*
X84316387Y-70114219D01*
X84316387Y-70114219D02*
X84459244Y-70161838D01*
X84459244Y-70161838D02*
X84554482Y-70257076D01*
X84554482Y-70257076D02*
X84602101Y-70352314D01*
X84602101Y-70352314D02*
X84649720Y-70542790D01*
X84649720Y-70542790D02*
X84649720Y-70685647D01*
X84649720Y-70685647D02*
X84602101Y-70876123D01*
X84602101Y-70876123D02*
X84554482Y-70971361D01*
X84554482Y-70971361D02*
X84459244Y-71066600D01*
X84459244Y-71066600D02*
X84316387Y-71114219D01*
X84316387Y-71114219D02*
X84078292Y-71114219D01*
X82062435Y-68082219D02*
X82681482Y-68082219D01*
X82681482Y-68082219D02*
X82348149Y-68463171D01*
X82348149Y-68463171D02*
X82491006Y-68463171D01*
X82491006Y-68463171D02*
X82586244Y-68510790D01*
X82586244Y-68510790D02*
X82633863Y-68558409D01*
X82633863Y-68558409D02*
X82681482Y-68653647D01*
X82681482Y-68653647D02*
X82681482Y-68891742D01*
X82681482Y-68891742D02*
X82633863Y-68986980D01*
X82633863Y-68986980D02*
X82586244Y-69034600D01*
X82586244Y-69034600D02*
X82491006Y-69082219D01*
X82491006Y-69082219D02*
X82205292Y-69082219D01*
X82205292Y-69082219D02*
X82110054Y-69034600D01*
X82110054Y-69034600D02*
X82062435Y-68986980D01*
X82967197Y-68082219D02*
X83300530Y-69082219D01*
X83300530Y-69082219D02*
X83633863Y-68082219D01*
X83871959Y-68082219D02*
X84491006Y-68082219D01*
X84491006Y-68082219D02*
X84157673Y-68463171D01*
X84157673Y-68463171D02*
X84300530Y-68463171D01*
X84300530Y-68463171D02*
X84395768Y-68510790D01*
X84395768Y-68510790D02*
X84443387Y-68558409D01*
X84443387Y-68558409D02*
X84491006Y-68653647D01*
X84491006Y-68653647D02*
X84491006Y-68891742D01*
X84491006Y-68891742D02*
X84443387Y-68986980D01*
X84443387Y-68986980D02*
X84395768Y-69034600D01*
X84395768Y-69034600D02*
X84300530Y-69082219D01*
X84300530Y-69082219D02*
X84014816Y-69082219D01*
X84014816Y-69082219D02*
X83919578Y-69034600D01*
X83919578Y-69034600D02*
X83871959Y-68986980D01*
X82633863Y-73146219D02*
X82157673Y-73146219D01*
X82157673Y-73146219D02*
X82157673Y-72146219D01*
X82919578Y-73098600D02*
X83062435Y-73146219D01*
X83062435Y-73146219D02*
X83300530Y-73146219D01*
X83300530Y-73146219D02*
X83395768Y-73098600D01*
X83395768Y-73098600D02*
X83443387Y-73050980D01*
X83443387Y-73050980D02*
X83491006Y-72955742D01*
X83491006Y-72955742D02*
X83491006Y-72860504D01*
X83491006Y-72860504D02*
X83443387Y-72765266D01*
X83443387Y-72765266D02*
X83395768Y-72717647D01*
X83395768Y-72717647D02*
X83300530Y-72670028D01*
X83300530Y-72670028D02*
X83110054Y-72622409D01*
X83110054Y-72622409D02*
X83014816Y-72574790D01*
X83014816Y-72574790D02*
X82967197Y-72527171D01*
X82967197Y-72527171D02*
X82919578Y-72431933D01*
X82919578Y-72431933D02*
X82919578Y-72336695D01*
X82919578Y-72336695D02*
X82967197Y-72241457D01*
X82967197Y-72241457D02*
X83014816Y-72193838D01*
X83014816Y-72193838D02*
X83110054Y-72146219D01*
X83110054Y-72146219D02*
X83348149Y-72146219D01*
X83348149Y-72146219D02*
X83491006Y-72193838D01*
X83824340Y-72146219D02*
X84062435Y-73146219D01*
X84062435Y-73146219D02*
X84252911Y-72431933D01*
X84252911Y-72431933D02*
X84443387Y-73146219D01*
X84443387Y-73146219D02*
X84681483Y-72146219D01*
X85586244Y-73146219D02*
X85014816Y-73146219D01*
X85300530Y-73146219D02*
X85300530Y-72146219D01*
X85300530Y-72146219D02*
X85205292Y-72289076D01*
X85205292Y-72289076D02*
X85110054Y-72384314D01*
X85110054Y-72384314D02*
X85014816Y-72431933D01*
X82633863Y-75178219D02*
X82157673Y-75178219D01*
X82157673Y-75178219D02*
X82157673Y-74178219D01*
X82919578Y-75130600D02*
X83062435Y-75178219D01*
X83062435Y-75178219D02*
X83300530Y-75178219D01*
X83300530Y-75178219D02*
X83395768Y-75130600D01*
X83395768Y-75130600D02*
X83443387Y-75082980D01*
X83443387Y-75082980D02*
X83491006Y-74987742D01*
X83491006Y-74987742D02*
X83491006Y-74892504D01*
X83491006Y-74892504D02*
X83443387Y-74797266D01*
X83443387Y-74797266D02*
X83395768Y-74749647D01*
X83395768Y-74749647D02*
X83300530Y-74702028D01*
X83300530Y-74702028D02*
X83110054Y-74654409D01*
X83110054Y-74654409D02*
X83014816Y-74606790D01*
X83014816Y-74606790D02*
X82967197Y-74559171D01*
X82967197Y-74559171D02*
X82919578Y-74463933D01*
X82919578Y-74463933D02*
X82919578Y-74368695D01*
X82919578Y-74368695D02*
X82967197Y-74273457D01*
X82967197Y-74273457D02*
X83014816Y-74225838D01*
X83014816Y-74225838D02*
X83110054Y-74178219D01*
X83110054Y-74178219D02*
X83348149Y-74178219D01*
X83348149Y-74178219D02*
X83491006Y-74225838D01*
X83824340Y-74178219D02*
X84062435Y-75178219D01*
X84062435Y-75178219D02*
X84252911Y-74463933D01*
X84252911Y-74463933D02*
X84443387Y-75178219D01*
X84443387Y-75178219D02*
X84681483Y-74178219D01*
X85014816Y-74273457D02*
X85062435Y-74225838D01*
X85062435Y-74225838D02*
X85157673Y-74178219D01*
X85157673Y-74178219D02*
X85395768Y-74178219D01*
X85395768Y-74178219D02*
X85491006Y-74225838D01*
X85491006Y-74225838D02*
X85538625Y-74273457D01*
X85538625Y-74273457D02*
X85586244Y-74368695D01*
X85586244Y-74368695D02*
X85586244Y-74463933D01*
X85586244Y-74463933D02*
X85538625Y-74606790D01*
X85538625Y-74606790D02*
X84967197Y-75178219D01*
X84967197Y-75178219D02*
X85586244Y-75178219D01*
X119956054Y-77543600D02*
X120098911Y-77591219D01*
X120098911Y-77591219D02*
X120337006Y-77591219D01*
X120337006Y-77591219D02*
X120432244Y-77543600D01*
X120432244Y-77543600D02*
X120479863Y-77495980D01*
X120479863Y-77495980D02*
X120527482Y-77400742D01*
X120527482Y-77400742D02*
X120527482Y-77305504D01*
X120527482Y-77305504D02*
X120479863Y-77210266D01*
X120479863Y-77210266D02*
X120432244Y-77162647D01*
X120432244Y-77162647D02*
X120337006Y-77115028D01*
X120337006Y-77115028D02*
X120146530Y-77067409D01*
X120146530Y-77067409D02*
X120051292Y-77019790D01*
X120051292Y-77019790D02*
X120003673Y-76972171D01*
X120003673Y-76972171D02*
X119956054Y-76876933D01*
X119956054Y-76876933D02*
X119956054Y-76781695D01*
X119956054Y-76781695D02*
X120003673Y-76686457D01*
X120003673Y-76686457D02*
X120051292Y-76638838D01*
X120051292Y-76638838D02*
X120146530Y-76591219D01*
X120146530Y-76591219D02*
X120384625Y-76591219D01*
X120384625Y-76591219D02*
X120527482Y-76638838D01*
X120860816Y-76591219D02*
X121098911Y-77591219D01*
X121098911Y-77591219D02*
X121289387Y-76876933D01*
X121289387Y-76876933D02*
X121479863Y-77591219D01*
X121479863Y-77591219D02*
X121717959Y-76591219D01*
X73908219Y-49858898D02*
X73432028Y-50192231D01*
X73908219Y-50430326D02*
X72908219Y-50430326D01*
X72908219Y-50430326D02*
X72908219Y-50049374D01*
X72908219Y-50049374D02*
X72955838Y-49954136D01*
X72955838Y-49954136D02*
X73003457Y-49906517D01*
X73003457Y-49906517D02*
X73098695Y-49858898D01*
X73098695Y-49858898D02*
X73241552Y-49858898D01*
X73241552Y-49858898D02*
X73336790Y-49906517D01*
X73336790Y-49906517D02*
X73384409Y-49954136D01*
X73384409Y-49954136D02*
X73432028Y-50049374D01*
X73432028Y-50049374D02*
X73432028Y-50430326D01*
X72908219Y-49573183D02*
X72908219Y-49001755D01*
X73908219Y-49287469D02*
X72908219Y-49287469D01*
X73860600Y-48716040D02*
X73908219Y-48573183D01*
X73908219Y-48573183D02*
X73908219Y-48335088D01*
X73908219Y-48335088D02*
X73860600Y-48239850D01*
X73860600Y-48239850D02*
X73812980Y-48192231D01*
X73812980Y-48192231D02*
X73717742Y-48144612D01*
X73717742Y-48144612D02*
X73622504Y-48144612D01*
X73622504Y-48144612D02*
X73527266Y-48192231D01*
X73527266Y-48192231D02*
X73479647Y-48239850D01*
X73479647Y-48239850D02*
X73432028Y-48335088D01*
X73432028Y-48335088D02*
X73384409Y-48525564D01*
X73384409Y-48525564D02*
X73336790Y-48620802D01*
X73336790Y-48620802D02*
X73289171Y-48668421D01*
X73289171Y-48668421D02*
X73193933Y-48716040D01*
X73193933Y-48716040D02*
X73098695Y-48716040D01*
X73098695Y-48716040D02*
X73003457Y-48668421D01*
X73003457Y-48668421D02*
X72955838Y-48620802D01*
X72955838Y-48620802D02*
X72908219Y-48525564D01*
X72908219Y-48525564D02*
X72908219Y-48287469D01*
X72908219Y-48287469D02*
X72955838Y-48144612D01*
X75940219Y-50430326D02*
X74940219Y-50430326D01*
X74940219Y-50430326D02*
X74940219Y-50192231D01*
X74940219Y-50192231D02*
X74987838Y-50049374D01*
X74987838Y-50049374D02*
X75083076Y-49954136D01*
X75083076Y-49954136D02*
X75178314Y-49906517D01*
X75178314Y-49906517D02*
X75368790Y-49858898D01*
X75368790Y-49858898D02*
X75511647Y-49858898D01*
X75511647Y-49858898D02*
X75702123Y-49906517D01*
X75702123Y-49906517D02*
X75797361Y-49954136D01*
X75797361Y-49954136D02*
X75892600Y-50049374D01*
X75892600Y-50049374D02*
X75940219Y-50192231D01*
X75940219Y-50192231D02*
X75940219Y-50430326D01*
X74940219Y-49573183D02*
X74940219Y-49001755D01*
X75940219Y-49287469D02*
X74940219Y-49287469D01*
X75940219Y-48096993D02*
X75464028Y-48430326D01*
X75940219Y-48668421D02*
X74940219Y-48668421D01*
X74940219Y-48668421D02*
X74940219Y-48287469D01*
X74940219Y-48287469D02*
X74987838Y-48192231D01*
X74987838Y-48192231D02*
X75035457Y-48144612D01*
X75035457Y-48144612D02*
X75130695Y-48096993D01*
X75130695Y-48096993D02*
X75273552Y-48096993D01*
X75273552Y-48096993D02*
X75368790Y-48144612D01*
X75368790Y-48144612D02*
X75416409Y-48192231D01*
X75416409Y-48192231D02*
X75464028Y-48287469D01*
X75464028Y-48287469D02*
X75464028Y-48668421D01*
X77972219Y-49858898D02*
X77496028Y-50192231D01*
X77972219Y-50430326D02*
X76972219Y-50430326D01*
X76972219Y-50430326D02*
X76972219Y-50049374D01*
X76972219Y-50049374D02*
X77019838Y-49954136D01*
X77019838Y-49954136D02*
X77067457Y-49906517D01*
X77067457Y-49906517D02*
X77162695Y-49858898D01*
X77162695Y-49858898D02*
X77305552Y-49858898D01*
X77305552Y-49858898D02*
X77400790Y-49906517D01*
X77400790Y-49906517D02*
X77448409Y-49954136D01*
X77448409Y-49954136D02*
X77496028Y-50049374D01*
X77496028Y-50049374D02*
X77496028Y-50430326D01*
X76972219Y-49525564D02*
X77972219Y-48858898D01*
X76972219Y-48858898D02*
X77972219Y-49525564D01*
X79004219Y-50573183D02*
X79004219Y-50001755D01*
X80004219Y-50287469D02*
X79004219Y-50287469D01*
X79004219Y-49763659D02*
X80004219Y-49096993D01*
X79004219Y-49096993D02*
X80004219Y-49763659D01*
X81210838Y-49906517D02*
X81163219Y-50001755D01*
X81163219Y-50001755D02*
X81163219Y-50144612D01*
X81163219Y-50144612D02*
X81210838Y-50287469D01*
X81210838Y-50287469D02*
X81306076Y-50382707D01*
X81306076Y-50382707D02*
X81401314Y-50430326D01*
X81401314Y-50430326D02*
X81591790Y-50477945D01*
X81591790Y-50477945D02*
X81734647Y-50477945D01*
X81734647Y-50477945D02*
X81925123Y-50430326D01*
X81925123Y-50430326D02*
X82020361Y-50382707D01*
X82020361Y-50382707D02*
X82115600Y-50287469D01*
X82115600Y-50287469D02*
X82163219Y-50144612D01*
X82163219Y-50144612D02*
X82163219Y-50049374D01*
X82163219Y-50049374D02*
X82115600Y-49906517D01*
X82115600Y-49906517D02*
X82067980Y-49858898D01*
X82067980Y-49858898D02*
X81734647Y-49858898D01*
X81734647Y-49858898D02*
X81734647Y-50049374D01*
X82163219Y-49430326D02*
X81163219Y-49430326D01*
X81163219Y-49430326D02*
X82163219Y-48858898D01*
X82163219Y-48858898D02*
X81163219Y-48858898D01*
X82163219Y-48382707D02*
X81163219Y-48382707D01*
X81163219Y-48382707D02*
X81163219Y-48144612D01*
X81163219Y-48144612D02*
X81210838Y-48001755D01*
X81210838Y-48001755D02*
X81306076Y-47906517D01*
X81306076Y-47906517D02*
X81401314Y-47858898D01*
X81401314Y-47858898D02*
X81591790Y-47811279D01*
X81591790Y-47811279D02*
X81734647Y-47811279D01*
X81734647Y-47811279D02*
X81925123Y-47858898D01*
X81925123Y-47858898D02*
X82020361Y-47906517D01*
X82020361Y-47906517D02*
X82115600Y-48001755D01*
X82115600Y-48001755D02*
X82163219Y-48144612D01*
X82163219Y-48144612D02*
X82163219Y-48382707D01*
X83195219Y-50525564D02*
X83195219Y-49906517D01*
X83195219Y-49906517D02*
X83576171Y-50239850D01*
X83576171Y-50239850D02*
X83576171Y-50096993D01*
X83576171Y-50096993D02*
X83623790Y-50001755D01*
X83623790Y-50001755D02*
X83671409Y-49954136D01*
X83671409Y-49954136D02*
X83766647Y-49906517D01*
X83766647Y-49906517D02*
X84004742Y-49906517D01*
X84004742Y-49906517D02*
X84099980Y-49954136D01*
X84099980Y-49954136D02*
X84147600Y-50001755D01*
X84147600Y-50001755D02*
X84195219Y-50096993D01*
X84195219Y-50096993D02*
X84195219Y-50382707D01*
X84195219Y-50382707D02*
X84147600Y-50477945D01*
X84147600Y-50477945D02*
X84099980Y-50525564D01*
X83195219Y-49620802D02*
X84195219Y-49287469D01*
X84195219Y-49287469D02*
X83195219Y-48954136D01*
X83195219Y-48716040D02*
X83195219Y-48096993D01*
X83195219Y-48096993D02*
X83576171Y-48430326D01*
X83576171Y-48430326D02*
X83576171Y-48287469D01*
X83576171Y-48287469D02*
X83623790Y-48192231D01*
X83623790Y-48192231D02*
X83671409Y-48144612D01*
X83671409Y-48144612D02*
X83766647Y-48096993D01*
X83766647Y-48096993D02*
X84004742Y-48096993D01*
X84004742Y-48096993D02*
X84099980Y-48144612D01*
X84099980Y-48144612D02*
X84147600Y-48192231D01*
X84147600Y-48192231D02*
X84195219Y-48287469D01*
X84195219Y-48287469D02*
X84195219Y-48573183D01*
X84195219Y-48573183D02*
X84147600Y-48668421D01*
X84147600Y-48668421D02*
X84099980Y-48716040D01*
D10*
X124919828Y-112308774D02*
X126419828Y-111808774D01*
X126419828Y-111808774D02*
X124919828Y-111308774D01*
X126419828Y-110023060D02*
X126419828Y-110880203D01*
X126419828Y-110451632D02*
X124919828Y-110451632D01*
X124919828Y-110451632D02*
X125134114Y-110594489D01*
X125134114Y-110594489D02*
X125276971Y-110737346D01*
X125276971Y-110737346D02*
X125348400Y-110880203D01*
X126276971Y-109380204D02*
X126348400Y-109308775D01*
X126348400Y-109308775D02*
X126419828Y-109380204D01*
X126419828Y-109380204D02*
X126348400Y-109451632D01*
X126348400Y-109451632D02*
X126276971Y-109380204D01*
X126276971Y-109380204D02*
X126419828Y-109380204D01*
X124919828Y-108380203D02*
X124919828Y-108237346D01*
X124919828Y-108237346D02*
X124991257Y-108094489D01*
X124991257Y-108094489D02*
X125062685Y-108023061D01*
X125062685Y-108023061D02*
X125205542Y-107951632D01*
X125205542Y-107951632D02*
X125491257Y-107880203D01*
X125491257Y-107880203D02*
X125848400Y-107880203D01*
X125848400Y-107880203D02*
X126134114Y-107951632D01*
X126134114Y-107951632D02*
X126276971Y-108023061D01*
X126276971Y-108023061D02*
X126348400Y-108094489D01*
X126348400Y-108094489D02*
X126419828Y-108237346D01*
X126419828Y-108237346D02*
X126419828Y-108380203D01*
X126419828Y-108380203D02*
X126348400Y-108523061D01*
X126348400Y-108523061D02*
X126276971Y-108594489D01*
X126276971Y-108594489D02*
X126134114Y-108665918D01*
X126134114Y-108665918D02*
X125848400Y-108737346D01*
X125848400Y-108737346D02*
X125491257Y-108737346D01*
X125491257Y-108737346D02*
X125205542Y-108665918D01*
X125205542Y-108665918D02*
X125062685Y-108594489D01*
X125062685Y-108594489D02*
X124991257Y-108523061D01*
X124991257Y-108523061D02*
X124919828Y-108380203D01*
D12*
X72771095Y-95974819D02*
X72771095Y-96784342D01*
X72771095Y-96784342D02*
X72818714Y-96879580D01*
X72818714Y-96879580D02*
X72866333Y-96927200D01*
X72866333Y-96927200D02*
X72961571Y-96974819D01*
X72961571Y-96974819D02*
X73152047Y-96974819D01*
X73152047Y-96974819D02*
X73247285Y-96927200D01*
X73247285Y-96927200D02*
X73294904Y-96879580D01*
X73294904Y-96879580D02*
X73342523Y-96784342D01*
X73342523Y-96784342D02*
X73342523Y-95974819D01*
X73771095Y-96070057D02*
X73818714Y-96022438D01*
X73818714Y-96022438D02*
X73913952Y-95974819D01*
X73913952Y-95974819D02*
X74152047Y-95974819D01*
X74152047Y-95974819D02*
X74247285Y-96022438D01*
X74247285Y-96022438D02*
X74294904Y-96070057D01*
X74294904Y-96070057D02*
X74342523Y-96165295D01*
X74342523Y-96165295D02*
X74342523Y-96260533D01*
X74342523Y-96260533D02*
X74294904Y-96403390D01*
X74294904Y-96403390D02*
X73723476Y-96974819D01*
X73723476Y-96974819D02*
X74342523Y-96974819D01*
X98806095Y-100831819D02*
X98806095Y-99831819D01*
X98806095Y-100308009D02*
X99377523Y-100308009D01*
X99377523Y-100831819D02*
X99377523Y-99831819D01*
X100377523Y-100831819D02*
X99806095Y-100831819D01*
X100091809Y-100831819D02*
X100091809Y-99831819D01*
X100091809Y-99831819D02*
X99996571Y-99974676D01*
X99996571Y-99974676D02*
X99901333Y-100069914D01*
X99901333Y-100069914D02*
X99806095Y-100117533D01*
X75271333Y-101705580D02*
X75223714Y-101753200D01*
X75223714Y-101753200D02*
X75080857Y-101800819D01*
X75080857Y-101800819D02*
X74985619Y-101800819D01*
X74985619Y-101800819D02*
X74842762Y-101753200D01*
X74842762Y-101753200D02*
X74747524Y-101657961D01*
X74747524Y-101657961D02*
X74699905Y-101562723D01*
X74699905Y-101562723D02*
X74652286Y-101372247D01*
X74652286Y-101372247D02*
X74652286Y-101229390D01*
X74652286Y-101229390D02*
X74699905Y-101038914D01*
X74699905Y-101038914D02*
X74747524Y-100943676D01*
X74747524Y-100943676D02*
X74842762Y-100848438D01*
X74842762Y-100848438D02*
X74985619Y-100800819D01*
X74985619Y-100800819D02*
X75080857Y-100800819D01*
X75080857Y-100800819D02*
X75223714Y-100848438D01*
X75223714Y-100848438D02*
X75271333Y-100896057D01*
X76223714Y-101800819D02*
X75652286Y-101800819D01*
X75938000Y-101800819D02*
X75938000Y-100800819D01*
X75938000Y-100800819D02*
X75842762Y-100943676D01*
X75842762Y-100943676D02*
X75747524Y-101038914D01*
X75747524Y-101038914D02*
X75652286Y-101086533D01*
X64555761Y-83004819D02*
X64222428Y-82528628D01*
X63984333Y-83004819D02*
X63984333Y-82004819D01*
X63984333Y-82004819D02*
X64365285Y-82004819D01*
X64365285Y-82004819D02*
X64460523Y-82052438D01*
X64460523Y-82052438D02*
X64508142Y-82100057D01*
X64508142Y-82100057D02*
X64555761Y-82195295D01*
X64555761Y-82195295D02*
X64555761Y-82338152D01*
X64555761Y-82338152D02*
X64508142Y-82433390D01*
X64508142Y-82433390D02*
X64460523Y-82481009D01*
X64460523Y-82481009D02*
X64365285Y-82528628D01*
X64365285Y-82528628D02*
X63984333Y-82528628D01*
X64841476Y-82004819D02*
X65174809Y-83004819D01*
X65174809Y-83004819D02*
X65508142Y-82004819D01*
X66365285Y-83004819D02*
X65793857Y-83004819D01*
X66079571Y-83004819D02*
X66079571Y-82004819D01*
X66079571Y-82004819D02*
X65984333Y-82147676D01*
X65984333Y-82147676D02*
X65889095Y-82242914D01*
X65889095Y-82242914D02*
X65793857Y-82290533D01*
X122734095Y-67427819D02*
X122734095Y-66427819D01*
X122734095Y-66904009D02*
X123305523Y-66904009D01*
X123305523Y-67427819D02*
X123305523Y-66427819D01*
X123686476Y-66427819D02*
X124305523Y-66427819D01*
X124305523Y-66427819D02*
X123972190Y-66808771D01*
X123972190Y-66808771D02*
X124115047Y-66808771D01*
X124115047Y-66808771D02*
X124210285Y-66856390D01*
X124210285Y-66856390D02*
X124257904Y-66904009D01*
X124257904Y-66904009D02*
X124305523Y-66999247D01*
X124305523Y-66999247D02*
X124305523Y-67237342D01*
X124305523Y-67237342D02*
X124257904Y-67332580D01*
X124257904Y-67332580D02*
X124210285Y-67380200D01*
X124210285Y-67380200D02*
X124115047Y-67427819D01*
X124115047Y-67427819D02*
X123829333Y-67427819D01*
X123829333Y-67427819D02*
X123734095Y-67380200D01*
X123734095Y-67380200D02*
X123686476Y-67332580D01*
X121612819Y-92114666D02*
X121136628Y-92447999D01*
X121612819Y-92686094D02*
X120612819Y-92686094D01*
X120612819Y-92686094D02*
X120612819Y-92305142D01*
X120612819Y-92305142D02*
X120660438Y-92209904D01*
X120660438Y-92209904D02*
X120708057Y-92162285D01*
X120708057Y-92162285D02*
X120803295Y-92114666D01*
X120803295Y-92114666D02*
X120946152Y-92114666D01*
X120946152Y-92114666D02*
X121041390Y-92162285D01*
X121041390Y-92162285D02*
X121089009Y-92209904D01*
X121089009Y-92209904D02*
X121136628Y-92305142D01*
X121136628Y-92305142D02*
X121136628Y-92686094D01*
X120612819Y-91781332D02*
X120612819Y-91162285D01*
X120612819Y-91162285D02*
X120993771Y-91495618D01*
X120993771Y-91495618D02*
X120993771Y-91352761D01*
X120993771Y-91352761D02*
X121041390Y-91257523D01*
X121041390Y-91257523D02*
X121089009Y-91209904D01*
X121089009Y-91209904D02*
X121184247Y-91162285D01*
X121184247Y-91162285D02*
X121422342Y-91162285D01*
X121422342Y-91162285D02*
X121517580Y-91209904D01*
X121517580Y-91209904D02*
X121565200Y-91257523D01*
X121565200Y-91257523D02*
X121612819Y-91352761D01*
X121612819Y-91352761D02*
X121612819Y-91638475D01*
X121612819Y-91638475D02*
X121565200Y-91733713D01*
X121565200Y-91733713D02*
X121517580Y-91781332D01*
X73479819Y-72937666D02*
X73003628Y-73270999D01*
X73479819Y-73509094D02*
X72479819Y-73509094D01*
X72479819Y-73509094D02*
X72479819Y-73128142D01*
X72479819Y-73128142D02*
X72527438Y-73032904D01*
X72527438Y-73032904D02*
X72575057Y-72985285D01*
X72575057Y-72985285D02*
X72670295Y-72937666D01*
X72670295Y-72937666D02*
X72813152Y-72937666D01*
X72813152Y-72937666D02*
X72908390Y-72985285D01*
X72908390Y-72985285D02*
X72956009Y-73032904D01*
X72956009Y-73032904D02*
X73003628Y-73128142D01*
X73003628Y-73128142D02*
X73003628Y-73509094D01*
X72908390Y-72366237D02*
X72860771Y-72461475D01*
X72860771Y-72461475D02*
X72813152Y-72509094D01*
X72813152Y-72509094D02*
X72717914Y-72556713D01*
X72717914Y-72556713D02*
X72670295Y-72556713D01*
X72670295Y-72556713D02*
X72575057Y-72509094D01*
X72575057Y-72509094D02*
X72527438Y-72461475D01*
X72527438Y-72461475D02*
X72479819Y-72366237D01*
X72479819Y-72366237D02*
X72479819Y-72175761D01*
X72479819Y-72175761D02*
X72527438Y-72080523D01*
X72527438Y-72080523D02*
X72575057Y-72032904D01*
X72575057Y-72032904D02*
X72670295Y-71985285D01*
X72670295Y-71985285D02*
X72717914Y-71985285D01*
X72717914Y-71985285D02*
X72813152Y-72032904D01*
X72813152Y-72032904D02*
X72860771Y-72080523D01*
X72860771Y-72080523D02*
X72908390Y-72175761D01*
X72908390Y-72175761D02*
X72908390Y-72366237D01*
X72908390Y-72366237D02*
X72956009Y-72461475D01*
X72956009Y-72461475D02*
X73003628Y-72509094D01*
X73003628Y-72509094D02*
X73098866Y-72556713D01*
X73098866Y-72556713D02*
X73289342Y-72556713D01*
X73289342Y-72556713D02*
X73384580Y-72509094D01*
X73384580Y-72509094D02*
X73432200Y-72461475D01*
X73432200Y-72461475D02*
X73479819Y-72366237D01*
X73479819Y-72366237D02*
X73479819Y-72175761D01*
X73479819Y-72175761D02*
X73432200Y-72080523D01*
X73432200Y-72080523D02*
X73384580Y-72032904D01*
X73384580Y-72032904D02*
X73289342Y-71985285D01*
X73289342Y-71985285D02*
X73098866Y-71985285D01*
X73098866Y-71985285D02*
X73003628Y-72032904D01*
X73003628Y-72032904D02*
X72956009Y-72080523D01*
X72956009Y-72080523D02*
X72908390Y-72175761D01*
X79191819Y-78184333D02*
X79906104Y-78184333D01*
X79906104Y-78184333D02*
X80048961Y-78231952D01*
X80048961Y-78231952D02*
X80144200Y-78327190D01*
X80144200Y-78327190D02*
X80191819Y-78470047D01*
X80191819Y-78470047D02*
X80191819Y-78565285D01*
X79191819Y-77803380D02*
X79191819Y-77184333D01*
X79191819Y-77184333D02*
X79572771Y-77517666D01*
X79572771Y-77517666D02*
X79572771Y-77374809D01*
X79572771Y-77374809D02*
X79620390Y-77279571D01*
X79620390Y-77279571D02*
X79668009Y-77231952D01*
X79668009Y-77231952D02*
X79763247Y-77184333D01*
X79763247Y-77184333D02*
X80001342Y-77184333D01*
X80001342Y-77184333D02*
X80096580Y-77231952D01*
X80096580Y-77231952D02*
X80144200Y-77279571D01*
X80144200Y-77279571D02*
X80191819Y-77374809D01*
X80191819Y-77374809D02*
X80191819Y-77660523D01*
X80191819Y-77660523D02*
X80144200Y-77755761D01*
X80144200Y-77755761D02*
X80096580Y-77803380D01*
X115744666Y-81644819D02*
X115744666Y-82359104D01*
X115744666Y-82359104D02*
X115697047Y-82501961D01*
X115697047Y-82501961D02*
X115601809Y-82597200D01*
X115601809Y-82597200D02*
X115458952Y-82644819D01*
X115458952Y-82644819D02*
X115363714Y-82644819D01*
X116173238Y-81740057D02*
X116220857Y-81692438D01*
X116220857Y-81692438D02*
X116316095Y-81644819D01*
X116316095Y-81644819D02*
X116554190Y-81644819D01*
X116554190Y-81644819D02*
X116649428Y-81692438D01*
X116649428Y-81692438D02*
X116697047Y-81740057D01*
X116697047Y-81740057D02*
X116744666Y-81835295D01*
X116744666Y-81835295D02*
X116744666Y-81930533D01*
X116744666Y-81930533D02*
X116697047Y-82073390D01*
X116697047Y-82073390D02*
X116125619Y-82644819D01*
X116125619Y-82644819D02*
X116744666Y-82644819D01*
X120292905Y-87436819D02*
X120292905Y-86436819D01*
X120292905Y-86436819D02*
X120531000Y-86436819D01*
X120531000Y-86436819D02*
X120673857Y-86484438D01*
X120673857Y-86484438D02*
X120769095Y-86579676D01*
X120769095Y-86579676D02*
X120816714Y-86674914D01*
X120816714Y-86674914D02*
X120864333Y-86865390D01*
X120864333Y-86865390D02*
X120864333Y-87008247D01*
X120864333Y-87008247D02*
X120816714Y-87198723D01*
X120816714Y-87198723D02*
X120769095Y-87293961D01*
X120769095Y-87293961D02*
X120673857Y-87389200D01*
X120673857Y-87389200D02*
X120531000Y-87436819D01*
X120531000Y-87436819D02*
X120292905Y-87436819D01*
X121721476Y-86770152D02*
X121721476Y-87436819D01*
X121483381Y-86389200D02*
X121245286Y-87103485D01*
X121245286Y-87103485D02*
X121864333Y-87103485D01*
X81225819Y-59166357D02*
X80749628Y-59499690D01*
X81225819Y-59737785D02*
X80225819Y-59737785D01*
X80225819Y-59737785D02*
X80225819Y-59356833D01*
X80225819Y-59356833D02*
X80273438Y-59261595D01*
X80273438Y-59261595D02*
X80321057Y-59213976D01*
X80321057Y-59213976D02*
X80416295Y-59166357D01*
X80416295Y-59166357D02*
X80559152Y-59166357D01*
X80559152Y-59166357D02*
X80654390Y-59213976D01*
X80654390Y-59213976D02*
X80702009Y-59261595D01*
X80702009Y-59261595D02*
X80749628Y-59356833D01*
X80749628Y-59356833D02*
X80749628Y-59737785D01*
X81225819Y-58213976D02*
X81225819Y-58785404D01*
X81225819Y-58499690D02*
X80225819Y-58499690D01*
X80225819Y-58499690D02*
X80368676Y-58594928D01*
X80368676Y-58594928D02*
X80463914Y-58690166D01*
X80463914Y-58690166D02*
X80511533Y-58785404D01*
X81225819Y-57261595D02*
X81225819Y-57833023D01*
X81225819Y-57547309D02*
X80225819Y-57547309D01*
X80225819Y-57547309D02*
X80368676Y-57642547D01*
X80368676Y-57642547D02*
X80463914Y-57737785D01*
X80463914Y-57737785D02*
X80511533Y-57833023D01*
X111188833Y-74113819D02*
X110855500Y-73637628D01*
X110617405Y-74113819D02*
X110617405Y-73113819D01*
X110617405Y-73113819D02*
X110998357Y-73113819D01*
X110998357Y-73113819D02*
X111093595Y-73161438D01*
X111093595Y-73161438D02*
X111141214Y-73209057D01*
X111141214Y-73209057D02*
X111188833Y-73304295D01*
X111188833Y-73304295D02*
X111188833Y-73447152D01*
X111188833Y-73447152D02*
X111141214Y-73542390D01*
X111141214Y-73542390D02*
X111093595Y-73590009D01*
X111093595Y-73590009D02*
X110998357Y-73637628D01*
X110998357Y-73637628D02*
X110617405Y-73637628D01*
X112093595Y-73113819D02*
X111617405Y-73113819D01*
X111617405Y-73113819D02*
X111569786Y-73590009D01*
X111569786Y-73590009D02*
X111617405Y-73542390D01*
X111617405Y-73542390D02*
X111712643Y-73494771D01*
X111712643Y-73494771D02*
X111950738Y-73494771D01*
X111950738Y-73494771D02*
X112045976Y-73542390D01*
X112045976Y-73542390D02*
X112093595Y-73590009D01*
X112093595Y-73590009D02*
X112141214Y-73685247D01*
X112141214Y-73685247D02*
X112141214Y-73923342D01*
X112141214Y-73923342D02*
X112093595Y-74018580D01*
X112093595Y-74018580D02*
X112045976Y-74066200D01*
X112045976Y-74066200D02*
X111950738Y-74113819D01*
X111950738Y-74113819D02*
X111712643Y-74113819D01*
X111712643Y-74113819D02*
X111617405Y-74066200D01*
X111617405Y-74066200D02*
X111569786Y-74018580D01*
X64603333Y-93037819D02*
X64270000Y-92561628D01*
X64031905Y-93037819D02*
X64031905Y-92037819D01*
X64031905Y-92037819D02*
X64412857Y-92037819D01*
X64412857Y-92037819D02*
X64508095Y-92085438D01*
X64508095Y-92085438D02*
X64555714Y-92133057D01*
X64555714Y-92133057D02*
X64603333Y-92228295D01*
X64603333Y-92228295D02*
X64603333Y-92371152D01*
X64603333Y-92371152D02*
X64555714Y-92466390D01*
X64555714Y-92466390D02*
X64508095Y-92514009D01*
X64508095Y-92514009D02*
X64412857Y-92561628D01*
X64412857Y-92561628D02*
X64031905Y-92561628D01*
X65555714Y-93037819D02*
X64984286Y-93037819D01*
X65270000Y-93037819D02*
X65270000Y-92037819D01*
X65270000Y-92037819D02*
X65174762Y-92180676D01*
X65174762Y-92180676D02*
X65079524Y-92275914D01*
X65079524Y-92275914D02*
X64984286Y-92323533D01*
X86534666Y-51270819D02*
X86534666Y-51985104D01*
X86534666Y-51985104D02*
X86487047Y-52127961D01*
X86487047Y-52127961D02*
X86391809Y-52223200D01*
X86391809Y-52223200D02*
X86248952Y-52270819D01*
X86248952Y-52270819D02*
X86153714Y-52270819D01*
X87439428Y-51604152D02*
X87439428Y-52270819D01*
X87201333Y-51223200D02*
X86963238Y-51937485D01*
X86963238Y-51937485D02*
X87582285Y-51937485D01*
X89447333Y-74388580D02*
X89399714Y-74436200D01*
X89399714Y-74436200D02*
X89256857Y-74483819D01*
X89256857Y-74483819D02*
X89161619Y-74483819D01*
X89161619Y-74483819D02*
X89018762Y-74436200D01*
X89018762Y-74436200D02*
X88923524Y-74340961D01*
X88923524Y-74340961D02*
X88875905Y-74245723D01*
X88875905Y-74245723D02*
X88828286Y-74055247D01*
X88828286Y-74055247D02*
X88828286Y-73912390D01*
X88828286Y-73912390D02*
X88875905Y-73721914D01*
X88875905Y-73721914D02*
X88923524Y-73626676D01*
X88923524Y-73626676D02*
X89018762Y-73531438D01*
X89018762Y-73531438D02*
X89161619Y-73483819D01*
X89161619Y-73483819D02*
X89256857Y-73483819D01*
X89256857Y-73483819D02*
X89399714Y-73531438D01*
X89399714Y-73531438D02*
X89447333Y-73579057D01*
X90304476Y-73817152D02*
X90304476Y-74483819D01*
X90066381Y-73436200D02*
X89828286Y-74150485D01*
X89828286Y-74150485D02*
X90447333Y-74150485D01*
X96180333Y-76662819D02*
X95704143Y-76662819D01*
X95704143Y-76662819D02*
X95704143Y-75662819D01*
X97037476Y-76662819D02*
X96466048Y-76662819D01*
X96751762Y-76662819D02*
X96751762Y-75662819D01*
X96751762Y-75662819D02*
X96656524Y-75805676D01*
X96656524Y-75805676D02*
X96561286Y-75900914D01*
X96561286Y-75900914D02*
X96466048Y-75948533D01*
X64621580Y-100750666D02*
X64669200Y-100798285D01*
X64669200Y-100798285D02*
X64716819Y-100941142D01*
X64716819Y-100941142D02*
X64716819Y-101036380D01*
X64716819Y-101036380D02*
X64669200Y-101179237D01*
X64669200Y-101179237D02*
X64573961Y-101274475D01*
X64573961Y-101274475D02*
X64478723Y-101322094D01*
X64478723Y-101322094D02*
X64288247Y-101369713D01*
X64288247Y-101369713D02*
X64145390Y-101369713D01*
X64145390Y-101369713D02*
X63954914Y-101322094D01*
X63954914Y-101322094D02*
X63859676Y-101274475D01*
X63859676Y-101274475D02*
X63764438Y-101179237D01*
X63764438Y-101179237D02*
X63716819Y-101036380D01*
X63716819Y-101036380D02*
X63716819Y-100941142D01*
X63716819Y-100941142D02*
X63764438Y-100798285D01*
X63764438Y-100798285D02*
X63812057Y-100750666D01*
X63716819Y-100417332D02*
X63716819Y-99798285D01*
X63716819Y-99798285D02*
X64097771Y-100131618D01*
X64097771Y-100131618D02*
X64097771Y-99988761D01*
X64097771Y-99988761D02*
X64145390Y-99893523D01*
X64145390Y-99893523D02*
X64193009Y-99845904D01*
X64193009Y-99845904D02*
X64288247Y-99798285D01*
X64288247Y-99798285D02*
X64526342Y-99798285D01*
X64526342Y-99798285D02*
X64621580Y-99845904D01*
X64621580Y-99845904D02*
X64669200Y-99893523D01*
X64669200Y-99893523D02*
X64716819Y-99988761D01*
X64716819Y-99988761D02*
X64716819Y-100274475D01*
X64716819Y-100274475D02*
X64669200Y-100369713D01*
X64669200Y-100369713D02*
X64621580Y-100417332D01*
X72128142Y-90751819D02*
X71794809Y-90275628D01*
X71556714Y-90751819D02*
X71556714Y-89751819D01*
X71556714Y-89751819D02*
X71937666Y-89751819D01*
X71937666Y-89751819D02*
X72032904Y-89799438D01*
X72032904Y-89799438D02*
X72080523Y-89847057D01*
X72080523Y-89847057D02*
X72128142Y-89942295D01*
X72128142Y-89942295D02*
X72128142Y-90085152D01*
X72128142Y-90085152D02*
X72080523Y-90180390D01*
X72080523Y-90180390D02*
X72032904Y-90228009D01*
X72032904Y-90228009D02*
X71937666Y-90275628D01*
X71937666Y-90275628D02*
X71556714Y-90275628D01*
X73080523Y-90751819D02*
X72509095Y-90751819D01*
X72794809Y-90751819D02*
X72794809Y-89751819D01*
X72794809Y-89751819D02*
X72699571Y-89894676D01*
X72699571Y-89894676D02*
X72604333Y-89989914D01*
X72604333Y-89989914D02*
X72509095Y-90037533D01*
X73413857Y-89751819D02*
X74032904Y-89751819D01*
X74032904Y-89751819D02*
X73699571Y-90132771D01*
X73699571Y-90132771D02*
X73842428Y-90132771D01*
X73842428Y-90132771D02*
X73937666Y-90180390D01*
X73937666Y-90180390D02*
X73985285Y-90228009D01*
X73985285Y-90228009D02*
X74032904Y-90323247D01*
X74032904Y-90323247D02*
X74032904Y-90561342D01*
X74032904Y-90561342D02*
X73985285Y-90656580D01*
X73985285Y-90656580D02*
X73937666Y-90704200D01*
X73937666Y-90704200D02*
X73842428Y-90751819D01*
X73842428Y-90751819D02*
X73556714Y-90751819D01*
X73556714Y-90751819D02*
X73461476Y-90704200D01*
X73461476Y-90704200D02*
X73413857Y-90656580D01*
X106132333Y-69193580D02*
X106084714Y-69241200D01*
X106084714Y-69241200D02*
X105941857Y-69288819D01*
X105941857Y-69288819D02*
X105846619Y-69288819D01*
X105846619Y-69288819D02*
X105703762Y-69241200D01*
X105703762Y-69241200D02*
X105608524Y-69145961D01*
X105608524Y-69145961D02*
X105560905Y-69050723D01*
X105560905Y-69050723D02*
X105513286Y-68860247D01*
X105513286Y-68860247D02*
X105513286Y-68717390D01*
X105513286Y-68717390D02*
X105560905Y-68526914D01*
X105560905Y-68526914D02*
X105608524Y-68431676D01*
X105608524Y-68431676D02*
X105703762Y-68336438D01*
X105703762Y-68336438D02*
X105846619Y-68288819D01*
X105846619Y-68288819D02*
X105941857Y-68288819D01*
X105941857Y-68288819D02*
X106084714Y-68336438D01*
X106084714Y-68336438D02*
X106132333Y-68384057D01*
X106703762Y-68717390D02*
X106608524Y-68669771D01*
X106608524Y-68669771D02*
X106560905Y-68622152D01*
X106560905Y-68622152D02*
X106513286Y-68526914D01*
X106513286Y-68526914D02*
X106513286Y-68479295D01*
X106513286Y-68479295D02*
X106560905Y-68384057D01*
X106560905Y-68384057D02*
X106608524Y-68336438D01*
X106608524Y-68336438D02*
X106703762Y-68288819D01*
X106703762Y-68288819D02*
X106894238Y-68288819D01*
X106894238Y-68288819D02*
X106989476Y-68336438D01*
X106989476Y-68336438D02*
X107037095Y-68384057D01*
X107037095Y-68384057D02*
X107084714Y-68479295D01*
X107084714Y-68479295D02*
X107084714Y-68526914D01*
X107084714Y-68526914D02*
X107037095Y-68622152D01*
X107037095Y-68622152D02*
X106989476Y-68669771D01*
X106989476Y-68669771D02*
X106894238Y-68717390D01*
X106894238Y-68717390D02*
X106703762Y-68717390D01*
X106703762Y-68717390D02*
X106608524Y-68765009D01*
X106608524Y-68765009D02*
X106560905Y-68812628D01*
X106560905Y-68812628D02*
X106513286Y-68907866D01*
X106513286Y-68907866D02*
X106513286Y-69098342D01*
X106513286Y-69098342D02*
X106560905Y-69193580D01*
X106560905Y-69193580D02*
X106608524Y-69241200D01*
X106608524Y-69241200D02*
X106703762Y-69288819D01*
X106703762Y-69288819D02*
X106894238Y-69288819D01*
X106894238Y-69288819D02*
X106989476Y-69241200D01*
X106989476Y-69241200D02*
X107037095Y-69193580D01*
X107037095Y-69193580D02*
X107084714Y-69098342D01*
X107084714Y-69098342D02*
X107084714Y-68907866D01*
X107084714Y-68907866D02*
X107037095Y-68812628D01*
X107037095Y-68812628D02*
X106989476Y-68765009D01*
X106989476Y-68765009D02*
X106894238Y-68717390D01*
X65734095Y-67427819D02*
X65734095Y-66427819D01*
X65734095Y-66904009D02*
X66305523Y-66904009D01*
X66305523Y-67427819D02*
X66305523Y-66427819D01*
X66734095Y-66523057D02*
X66781714Y-66475438D01*
X66781714Y-66475438D02*
X66876952Y-66427819D01*
X66876952Y-66427819D02*
X67115047Y-66427819D01*
X67115047Y-66427819D02*
X67210285Y-66475438D01*
X67210285Y-66475438D02*
X67257904Y-66523057D01*
X67257904Y-66523057D02*
X67305523Y-66618295D01*
X67305523Y-66618295D02*
X67305523Y-66713533D01*
X67305523Y-66713533D02*
X67257904Y-66856390D01*
X67257904Y-66856390D02*
X66686476Y-67427819D01*
X66686476Y-67427819D02*
X67305523Y-67427819D01*
X91432142Y-48841819D02*
X91098809Y-48365628D01*
X90860714Y-48841819D02*
X90860714Y-47841819D01*
X90860714Y-47841819D02*
X91241666Y-47841819D01*
X91241666Y-47841819D02*
X91336904Y-47889438D01*
X91336904Y-47889438D02*
X91384523Y-47937057D01*
X91384523Y-47937057D02*
X91432142Y-48032295D01*
X91432142Y-48032295D02*
X91432142Y-48175152D01*
X91432142Y-48175152D02*
X91384523Y-48270390D01*
X91384523Y-48270390D02*
X91336904Y-48318009D01*
X91336904Y-48318009D02*
X91241666Y-48365628D01*
X91241666Y-48365628D02*
X90860714Y-48365628D01*
X92384523Y-48841819D02*
X91813095Y-48841819D01*
X92098809Y-48841819D02*
X92098809Y-47841819D01*
X92098809Y-47841819D02*
X92003571Y-47984676D01*
X92003571Y-47984676D02*
X91908333Y-48079914D01*
X91908333Y-48079914D02*
X91813095Y-48127533D01*
X93003571Y-47841819D02*
X93098809Y-47841819D01*
X93098809Y-47841819D02*
X93194047Y-47889438D01*
X93194047Y-47889438D02*
X93241666Y-47937057D01*
X93241666Y-47937057D02*
X93289285Y-48032295D01*
X93289285Y-48032295D02*
X93336904Y-48222771D01*
X93336904Y-48222771D02*
X93336904Y-48460866D01*
X93336904Y-48460866D02*
X93289285Y-48651342D01*
X93289285Y-48651342D02*
X93241666Y-48746580D01*
X93241666Y-48746580D02*
X93194047Y-48794200D01*
X93194047Y-48794200D02*
X93098809Y-48841819D01*
X93098809Y-48841819D02*
X93003571Y-48841819D01*
X93003571Y-48841819D02*
X92908333Y-48794200D01*
X92908333Y-48794200D02*
X92860714Y-48746580D01*
X92860714Y-48746580D02*
X92813095Y-48651342D01*
X92813095Y-48651342D02*
X92765476Y-48460866D01*
X92765476Y-48460866D02*
X92765476Y-48222771D01*
X92765476Y-48222771D02*
X92813095Y-48032295D01*
X92813095Y-48032295D02*
X92860714Y-47937057D01*
X92860714Y-47937057D02*
X92908333Y-47889438D01*
X92908333Y-47889438D02*
X93003571Y-47841819D01*
X95832819Y-63412666D02*
X95356628Y-63745999D01*
X95832819Y-63984094D02*
X94832819Y-63984094D01*
X94832819Y-63984094D02*
X94832819Y-63603142D01*
X94832819Y-63603142D02*
X94880438Y-63507904D01*
X94880438Y-63507904D02*
X94928057Y-63460285D01*
X94928057Y-63460285D02*
X95023295Y-63412666D01*
X95023295Y-63412666D02*
X95166152Y-63412666D01*
X95166152Y-63412666D02*
X95261390Y-63460285D01*
X95261390Y-63460285D02*
X95309009Y-63507904D01*
X95309009Y-63507904D02*
X95356628Y-63603142D01*
X95356628Y-63603142D02*
X95356628Y-63984094D01*
X95166152Y-62555523D02*
X95832819Y-62555523D01*
X94785200Y-62793618D02*
X95499485Y-63031713D01*
X95499485Y-63031713D02*
X95499485Y-62412666D01*
X93662667Y-111024200D02*
X93805524Y-111071819D01*
X93805524Y-111071819D02*
X94043619Y-111071819D01*
X94043619Y-111071819D02*
X94138857Y-111024200D01*
X94138857Y-111024200D02*
X94186476Y-110976580D01*
X94186476Y-110976580D02*
X94234095Y-110881342D01*
X94234095Y-110881342D02*
X94234095Y-110786104D01*
X94234095Y-110786104D02*
X94186476Y-110690866D01*
X94186476Y-110690866D02*
X94138857Y-110643247D01*
X94138857Y-110643247D02*
X94043619Y-110595628D01*
X94043619Y-110595628D02*
X93853143Y-110548009D01*
X93853143Y-110548009D02*
X93757905Y-110500390D01*
X93757905Y-110500390D02*
X93710286Y-110452771D01*
X93710286Y-110452771D02*
X93662667Y-110357533D01*
X93662667Y-110357533D02*
X93662667Y-110262295D01*
X93662667Y-110262295D02*
X93710286Y-110167057D01*
X93710286Y-110167057D02*
X93757905Y-110119438D01*
X93757905Y-110119438D02*
X93853143Y-110071819D01*
X93853143Y-110071819D02*
X94091238Y-110071819D01*
X94091238Y-110071819D02*
X94234095Y-110119438D01*
X94567429Y-110071819D02*
X94805524Y-111071819D01*
X94805524Y-111071819D02*
X94996000Y-110357533D01*
X94996000Y-110357533D02*
X95186476Y-111071819D01*
X95186476Y-111071819D02*
X95424572Y-110071819D01*
X96329333Y-111071819D02*
X95757905Y-111071819D01*
X96043619Y-111071819D02*
X96043619Y-110071819D01*
X96043619Y-110071819D02*
X95948381Y-110214676D01*
X95948381Y-110214676D02*
X95853143Y-110309914D01*
X95853143Y-110309914D02*
X95757905Y-110357533D01*
X120088819Y-69222857D02*
X119612628Y-69556190D01*
X120088819Y-69794285D02*
X119088819Y-69794285D01*
X119088819Y-69794285D02*
X119088819Y-69413333D01*
X119088819Y-69413333D02*
X119136438Y-69318095D01*
X119136438Y-69318095D02*
X119184057Y-69270476D01*
X119184057Y-69270476D02*
X119279295Y-69222857D01*
X119279295Y-69222857D02*
X119422152Y-69222857D01*
X119422152Y-69222857D02*
X119517390Y-69270476D01*
X119517390Y-69270476D02*
X119565009Y-69318095D01*
X119565009Y-69318095D02*
X119612628Y-69413333D01*
X119612628Y-69413333D02*
X119612628Y-69794285D01*
X120088819Y-68270476D02*
X120088819Y-68841904D01*
X120088819Y-68556190D02*
X119088819Y-68556190D01*
X119088819Y-68556190D02*
X119231676Y-68651428D01*
X119231676Y-68651428D02*
X119326914Y-68746666D01*
X119326914Y-68746666D02*
X119374533Y-68841904D01*
X119088819Y-67365714D02*
X119088819Y-67841904D01*
X119088819Y-67841904D02*
X119565009Y-67889523D01*
X119565009Y-67889523D02*
X119517390Y-67841904D01*
X119517390Y-67841904D02*
X119469771Y-67746666D01*
X119469771Y-67746666D02*
X119469771Y-67508571D01*
X119469771Y-67508571D02*
X119517390Y-67413333D01*
X119517390Y-67413333D02*
X119565009Y-67365714D01*
X119565009Y-67365714D02*
X119660247Y-67318095D01*
X119660247Y-67318095D02*
X119898342Y-67318095D01*
X119898342Y-67318095D02*
X119993580Y-67365714D01*
X119993580Y-67365714D02*
X120041200Y-67413333D01*
X120041200Y-67413333D02*
X120088819Y-67508571D01*
X120088819Y-67508571D02*
X120088819Y-67746666D01*
X120088819Y-67746666D02*
X120041200Y-67841904D01*
X120041200Y-67841904D02*
X119993580Y-67889523D01*
X115897819Y-92051094D02*
X114897819Y-92051094D01*
X114897819Y-92051094D02*
X114897819Y-91812999D01*
X114897819Y-91812999D02*
X114945438Y-91670142D01*
X114945438Y-91670142D02*
X115040676Y-91574904D01*
X115040676Y-91574904D02*
X115135914Y-91527285D01*
X115135914Y-91527285D02*
X115326390Y-91479666D01*
X115326390Y-91479666D02*
X115469247Y-91479666D01*
X115469247Y-91479666D02*
X115659723Y-91527285D01*
X115659723Y-91527285D02*
X115754961Y-91574904D01*
X115754961Y-91574904D02*
X115850200Y-91670142D01*
X115850200Y-91670142D02*
X115897819Y-91812999D01*
X115897819Y-91812999D02*
X115897819Y-92051094D01*
X115897819Y-90527285D02*
X115897819Y-91098713D01*
X115897819Y-90812999D02*
X114897819Y-90812999D01*
X114897819Y-90812999D02*
X115040676Y-90908237D01*
X115040676Y-90908237D02*
X115135914Y-91003475D01*
X115135914Y-91003475D02*
X115183533Y-91098713D01*
X107505833Y-74113819D02*
X107172500Y-73637628D01*
X106934405Y-74113819D02*
X106934405Y-73113819D01*
X106934405Y-73113819D02*
X107315357Y-73113819D01*
X107315357Y-73113819D02*
X107410595Y-73161438D01*
X107410595Y-73161438D02*
X107458214Y-73209057D01*
X107458214Y-73209057D02*
X107505833Y-73304295D01*
X107505833Y-73304295D02*
X107505833Y-73447152D01*
X107505833Y-73447152D02*
X107458214Y-73542390D01*
X107458214Y-73542390D02*
X107410595Y-73590009D01*
X107410595Y-73590009D02*
X107315357Y-73637628D01*
X107315357Y-73637628D02*
X106934405Y-73637628D01*
X108362976Y-73113819D02*
X108172500Y-73113819D01*
X108172500Y-73113819D02*
X108077262Y-73161438D01*
X108077262Y-73161438D02*
X108029643Y-73209057D01*
X108029643Y-73209057D02*
X107934405Y-73351914D01*
X107934405Y-73351914D02*
X107886786Y-73542390D01*
X107886786Y-73542390D02*
X107886786Y-73923342D01*
X107886786Y-73923342D02*
X107934405Y-74018580D01*
X107934405Y-74018580D02*
X107982024Y-74066200D01*
X107982024Y-74066200D02*
X108077262Y-74113819D01*
X108077262Y-74113819D02*
X108267738Y-74113819D01*
X108267738Y-74113819D02*
X108362976Y-74066200D01*
X108362976Y-74066200D02*
X108410595Y-74018580D01*
X108410595Y-74018580D02*
X108458214Y-73923342D01*
X108458214Y-73923342D02*
X108458214Y-73685247D01*
X108458214Y-73685247D02*
X108410595Y-73590009D01*
X108410595Y-73590009D02*
X108362976Y-73542390D01*
X108362976Y-73542390D02*
X108267738Y-73494771D01*
X108267738Y-73494771D02*
X108077262Y-73494771D01*
X108077262Y-73494771D02*
X107982024Y-73542390D01*
X107982024Y-73542390D02*
X107934405Y-73590009D01*
X107934405Y-73590009D02*
X107886786Y-73685247D01*
X88796952Y-111579819D02*
X88320762Y-111579819D01*
X88320762Y-111579819D02*
X88320762Y-110579819D01*
X89130286Y-111056009D02*
X89463619Y-111056009D01*
X89606476Y-111579819D02*
X89130286Y-111579819D01*
X89130286Y-111579819D02*
X89130286Y-110579819D01*
X89130286Y-110579819D02*
X89606476Y-110579819D01*
X90035048Y-111579819D02*
X90035048Y-110579819D01*
X90035048Y-110579819D02*
X90273143Y-110579819D01*
X90273143Y-110579819D02*
X90416000Y-110627438D01*
X90416000Y-110627438D02*
X90511238Y-110722676D01*
X90511238Y-110722676D02*
X90558857Y-110817914D01*
X90558857Y-110817914D02*
X90606476Y-111008390D01*
X90606476Y-111008390D02*
X90606476Y-111151247D01*
X90606476Y-111151247D02*
X90558857Y-111341723D01*
X90558857Y-111341723D02*
X90511238Y-111436961D01*
X90511238Y-111436961D02*
X90416000Y-111532200D01*
X90416000Y-111532200D02*
X90273143Y-111579819D01*
X90273143Y-111579819D02*
X90035048Y-111579819D01*
X91558857Y-111579819D02*
X90987429Y-111579819D01*
X91273143Y-111579819D02*
X91273143Y-110579819D01*
X91273143Y-110579819D02*
X91177905Y-110722676D01*
X91177905Y-110722676D02*
X91082667Y-110817914D01*
X91082667Y-110817914D02*
X90987429Y-110865533D01*
X117936261Y-86608057D02*
X117841023Y-86560438D01*
X117841023Y-86560438D02*
X117745785Y-86465200D01*
X117745785Y-86465200D02*
X117602928Y-86322342D01*
X117602928Y-86322342D02*
X117507690Y-86274723D01*
X117507690Y-86274723D02*
X117412452Y-86274723D01*
X117460071Y-86512819D02*
X117364833Y-86465200D01*
X117364833Y-86465200D02*
X117269595Y-86369961D01*
X117269595Y-86369961D02*
X117221976Y-86179485D01*
X117221976Y-86179485D02*
X117221976Y-85846152D01*
X117221976Y-85846152D02*
X117269595Y-85655676D01*
X117269595Y-85655676D02*
X117364833Y-85560438D01*
X117364833Y-85560438D02*
X117460071Y-85512819D01*
X117460071Y-85512819D02*
X117650547Y-85512819D01*
X117650547Y-85512819D02*
X117745785Y-85560438D01*
X117745785Y-85560438D02*
X117841023Y-85655676D01*
X117841023Y-85655676D02*
X117888642Y-85846152D01*
X117888642Y-85846152D02*
X117888642Y-86179485D01*
X117888642Y-86179485D02*
X117841023Y-86369961D01*
X117841023Y-86369961D02*
X117745785Y-86465200D01*
X117745785Y-86465200D02*
X117650547Y-86512819D01*
X117650547Y-86512819D02*
X117460071Y-86512819D01*
X118269595Y-85608057D02*
X118317214Y-85560438D01*
X118317214Y-85560438D02*
X118412452Y-85512819D01*
X118412452Y-85512819D02*
X118650547Y-85512819D01*
X118650547Y-85512819D02*
X118745785Y-85560438D01*
X118745785Y-85560438D02*
X118793404Y-85608057D01*
X118793404Y-85608057D02*
X118841023Y-85703295D01*
X118841023Y-85703295D02*
X118841023Y-85798533D01*
X118841023Y-85798533D02*
X118793404Y-85941390D01*
X118793404Y-85941390D02*
X118221976Y-86512819D01*
X118221976Y-86512819D02*
X118841023Y-86512819D01*
X72223333Y-111389580D02*
X72175714Y-111437200D01*
X72175714Y-111437200D02*
X72032857Y-111484819D01*
X72032857Y-111484819D02*
X71937619Y-111484819D01*
X71937619Y-111484819D02*
X71794762Y-111437200D01*
X71794762Y-111437200D02*
X71699524Y-111341961D01*
X71699524Y-111341961D02*
X71651905Y-111246723D01*
X71651905Y-111246723D02*
X71604286Y-111056247D01*
X71604286Y-111056247D02*
X71604286Y-110913390D01*
X71604286Y-110913390D02*
X71651905Y-110722914D01*
X71651905Y-110722914D02*
X71699524Y-110627676D01*
X71699524Y-110627676D02*
X71794762Y-110532438D01*
X71794762Y-110532438D02*
X71937619Y-110484819D01*
X71937619Y-110484819D02*
X72032857Y-110484819D01*
X72032857Y-110484819D02*
X72175714Y-110532438D01*
X72175714Y-110532438D02*
X72223333Y-110580057D01*
X72604286Y-110580057D02*
X72651905Y-110532438D01*
X72651905Y-110532438D02*
X72747143Y-110484819D01*
X72747143Y-110484819D02*
X72985238Y-110484819D01*
X72985238Y-110484819D02*
X73080476Y-110532438D01*
X73080476Y-110532438D02*
X73128095Y-110580057D01*
X73128095Y-110580057D02*
X73175714Y-110675295D01*
X73175714Y-110675295D02*
X73175714Y-110770533D01*
X73175714Y-110770533D02*
X73128095Y-110913390D01*
X73128095Y-110913390D02*
X72556667Y-111484819D01*
X72556667Y-111484819D02*
X73175714Y-111484819D01*
X98956952Y-111706819D02*
X98480762Y-111706819D01*
X98480762Y-111706819D02*
X98480762Y-110706819D01*
X99290286Y-111183009D02*
X99623619Y-111183009D01*
X99766476Y-111706819D02*
X99290286Y-111706819D01*
X99290286Y-111706819D02*
X99290286Y-110706819D01*
X99290286Y-110706819D02*
X99766476Y-110706819D01*
X100195048Y-111706819D02*
X100195048Y-110706819D01*
X100195048Y-110706819D02*
X100433143Y-110706819D01*
X100433143Y-110706819D02*
X100576000Y-110754438D01*
X100576000Y-110754438D02*
X100671238Y-110849676D01*
X100671238Y-110849676D02*
X100718857Y-110944914D01*
X100718857Y-110944914D02*
X100766476Y-111135390D01*
X100766476Y-111135390D02*
X100766476Y-111278247D01*
X100766476Y-111278247D02*
X100718857Y-111468723D01*
X100718857Y-111468723D02*
X100671238Y-111563961D01*
X100671238Y-111563961D02*
X100576000Y-111659200D01*
X100576000Y-111659200D02*
X100433143Y-111706819D01*
X100433143Y-111706819D02*
X100195048Y-111706819D01*
X101147429Y-110802057D02*
X101195048Y-110754438D01*
X101195048Y-110754438D02*
X101290286Y-110706819D01*
X101290286Y-110706819D02*
X101528381Y-110706819D01*
X101528381Y-110706819D02*
X101623619Y-110754438D01*
X101623619Y-110754438D02*
X101671238Y-110802057D01*
X101671238Y-110802057D02*
X101718857Y-110897295D01*
X101718857Y-110897295D02*
X101718857Y-110992533D01*
X101718857Y-110992533D02*
X101671238Y-111135390D01*
X101671238Y-111135390D02*
X101099810Y-111706819D01*
X101099810Y-111706819D02*
X101718857Y-111706819D01*
X89368333Y-87227580D02*
X89320714Y-87275200D01*
X89320714Y-87275200D02*
X89177857Y-87322819D01*
X89177857Y-87322819D02*
X89082619Y-87322819D01*
X89082619Y-87322819D02*
X88939762Y-87275200D01*
X88939762Y-87275200D02*
X88844524Y-87179961D01*
X88844524Y-87179961D02*
X88796905Y-87084723D01*
X88796905Y-87084723D02*
X88749286Y-86894247D01*
X88749286Y-86894247D02*
X88749286Y-86751390D01*
X88749286Y-86751390D02*
X88796905Y-86560914D01*
X88796905Y-86560914D02*
X88844524Y-86465676D01*
X88844524Y-86465676D02*
X88939762Y-86370438D01*
X88939762Y-86370438D02*
X89082619Y-86322819D01*
X89082619Y-86322819D02*
X89177857Y-86322819D01*
X89177857Y-86322819D02*
X89320714Y-86370438D01*
X89320714Y-86370438D02*
X89368333Y-86418057D01*
X89701667Y-86322819D02*
X90368333Y-86322819D01*
X90368333Y-86322819D02*
X89939762Y-87322819D01*
X114246819Y-69476857D02*
X113770628Y-69810190D01*
X114246819Y-70048285D02*
X113246819Y-70048285D01*
X113246819Y-70048285D02*
X113246819Y-69667333D01*
X113246819Y-69667333D02*
X113294438Y-69572095D01*
X113294438Y-69572095D02*
X113342057Y-69524476D01*
X113342057Y-69524476D02*
X113437295Y-69476857D01*
X113437295Y-69476857D02*
X113580152Y-69476857D01*
X113580152Y-69476857D02*
X113675390Y-69524476D01*
X113675390Y-69524476D02*
X113723009Y-69572095D01*
X113723009Y-69572095D02*
X113770628Y-69667333D01*
X113770628Y-69667333D02*
X113770628Y-70048285D01*
X114246819Y-68524476D02*
X114246819Y-69095904D01*
X114246819Y-68810190D02*
X113246819Y-68810190D01*
X113246819Y-68810190D02*
X113389676Y-68905428D01*
X113389676Y-68905428D02*
X113484914Y-69000666D01*
X113484914Y-69000666D02*
X113532533Y-69095904D01*
X113580152Y-67667333D02*
X114246819Y-67667333D01*
X113199200Y-67905428D02*
X113913485Y-68143523D01*
X113913485Y-68143523D02*
X113913485Y-67524476D01*
X86487095Y-67666819D02*
X86487095Y-68476342D01*
X86487095Y-68476342D02*
X86534714Y-68571580D01*
X86534714Y-68571580D02*
X86582333Y-68619200D01*
X86582333Y-68619200D02*
X86677571Y-68666819D01*
X86677571Y-68666819D02*
X86868047Y-68666819D01*
X86868047Y-68666819D02*
X86963285Y-68619200D01*
X86963285Y-68619200D02*
X87010904Y-68571580D01*
X87010904Y-68571580D02*
X87058523Y-68476342D01*
X87058523Y-68476342D02*
X87058523Y-67666819D01*
X87963285Y-68000152D02*
X87963285Y-68666819D01*
X87725190Y-67619200D02*
X87487095Y-68333485D01*
X87487095Y-68333485D02*
X88106142Y-68333485D01*
X73606819Y-69127666D02*
X73130628Y-69460999D01*
X73606819Y-69699094D02*
X72606819Y-69699094D01*
X72606819Y-69699094D02*
X72606819Y-69318142D01*
X72606819Y-69318142D02*
X72654438Y-69222904D01*
X72654438Y-69222904D02*
X72702057Y-69175285D01*
X72702057Y-69175285D02*
X72797295Y-69127666D01*
X72797295Y-69127666D02*
X72940152Y-69127666D01*
X72940152Y-69127666D02*
X73035390Y-69175285D01*
X73035390Y-69175285D02*
X73083009Y-69222904D01*
X73083009Y-69222904D02*
X73130628Y-69318142D01*
X73130628Y-69318142D02*
X73130628Y-69699094D01*
X73606819Y-68651475D02*
X73606819Y-68460999D01*
X73606819Y-68460999D02*
X73559200Y-68365761D01*
X73559200Y-68365761D02*
X73511580Y-68318142D01*
X73511580Y-68318142D02*
X73368723Y-68222904D01*
X73368723Y-68222904D02*
X73178247Y-68175285D01*
X73178247Y-68175285D02*
X72797295Y-68175285D01*
X72797295Y-68175285D02*
X72702057Y-68222904D01*
X72702057Y-68222904D02*
X72654438Y-68270523D01*
X72654438Y-68270523D02*
X72606819Y-68365761D01*
X72606819Y-68365761D02*
X72606819Y-68556237D01*
X72606819Y-68556237D02*
X72654438Y-68651475D01*
X72654438Y-68651475D02*
X72702057Y-68699094D01*
X72702057Y-68699094D02*
X72797295Y-68746713D01*
X72797295Y-68746713D02*
X73035390Y-68746713D01*
X73035390Y-68746713D02*
X73130628Y-68699094D01*
X73130628Y-68699094D02*
X73178247Y-68651475D01*
X73178247Y-68651475D02*
X73225866Y-68556237D01*
X73225866Y-68556237D02*
X73225866Y-68365761D01*
X73225866Y-68365761D02*
X73178247Y-68270523D01*
X73178247Y-68270523D02*
X73130628Y-68222904D01*
X73130628Y-68222904D02*
X73035390Y-68175285D01*
X119411761Y-97959057D02*
X119316523Y-97911438D01*
X119316523Y-97911438D02*
X119221285Y-97816200D01*
X119221285Y-97816200D02*
X119078428Y-97673342D01*
X119078428Y-97673342D02*
X118983190Y-97625723D01*
X118983190Y-97625723D02*
X118887952Y-97625723D01*
X118935571Y-97863819D02*
X118840333Y-97816200D01*
X118840333Y-97816200D02*
X118745095Y-97720961D01*
X118745095Y-97720961D02*
X118697476Y-97530485D01*
X118697476Y-97530485D02*
X118697476Y-97197152D01*
X118697476Y-97197152D02*
X118745095Y-97006676D01*
X118745095Y-97006676D02*
X118840333Y-96911438D01*
X118840333Y-96911438D02*
X118935571Y-96863819D01*
X118935571Y-96863819D02*
X119126047Y-96863819D01*
X119126047Y-96863819D02*
X119221285Y-96911438D01*
X119221285Y-96911438D02*
X119316523Y-97006676D01*
X119316523Y-97006676D02*
X119364142Y-97197152D01*
X119364142Y-97197152D02*
X119364142Y-97530485D01*
X119364142Y-97530485D02*
X119316523Y-97720961D01*
X119316523Y-97720961D02*
X119221285Y-97816200D01*
X119221285Y-97816200D02*
X119126047Y-97863819D01*
X119126047Y-97863819D02*
X118935571Y-97863819D01*
X120316523Y-97863819D02*
X119745095Y-97863819D01*
X120030809Y-97863819D02*
X120030809Y-96863819D01*
X120030809Y-96863819D02*
X119935571Y-97006676D01*
X119935571Y-97006676D02*
X119840333Y-97101914D01*
X119840333Y-97101914D02*
X119745095Y-97149533D01*
X98893333Y-84814580D02*
X98845714Y-84862200D01*
X98845714Y-84862200D02*
X98702857Y-84909819D01*
X98702857Y-84909819D02*
X98607619Y-84909819D01*
X98607619Y-84909819D02*
X98464762Y-84862200D01*
X98464762Y-84862200D02*
X98369524Y-84766961D01*
X98369524Y-84766961D02*
X98321905Y-84671723D01*
X98321905Y-84671723D02*
X98274286Y-84481247D01*
X98274286Y-84481247D02*
X98274286Y-84338390D01*
X98274286Y-84338390D02*
X98321905Y-84147914D01*
X98321905Y-84147914D02*
X98369524Y-84052676D01*
X98369524Y-84052676D02*
X98464762Y-83957438D01*
X98464762Y-83957438D02*
X98607619Y-83909819D01*
X98607619Y-83909819D02*
X98702857Y-83909819D01*
X98702857Y-83909819D02*
X98845714Y-83957438D01*
X98845714Y-83957438D02*
X98893333Y-84005057D01*
X99798095Y-83909819D02*
X99321905Y-83909819D01*
X99321905Y-83909819D02*
X99274286Y-84386009D01*
X99274286Y-84386009D02*
X99321905Y-84338390D01*
X99321905Y-84338390D02*
X99417143Y-84290771D01*
X99417143Y-84290771D02*
X99655238Y-84290771D01*
X99655238Y-84290771D02*
X99750476Y-84338390D01*
X99750476Y-84338390D02*
X99798095Y-84386009D01*
X99798095Y-84386009D02*
X99845714Y-84481247D01*
X99845714Y-84481247D02*
X99845714Y-84719342D01*
X99845714Y-84719342D02*
X99798095Y-84814580D01*
X99798095Y-84814580D02*
X99750476Y-84862200D01*
X99750476Y-84862200D02*
X99655238Y-84909819D01*
X99655238Y-84909819D02*
X99417143Y-84909819D01*
X99417143Y-84909819D02*
X99321905Y-84862200D01*
X99321905Y-84862200D02*
X99274286Y-84814580D01*
X98380779Y-66891819D02*
X98380779Y-67701342D01*
X98380779Y-67701342D02*
X98428398Y-67796580D01*
X98428398Y-67796580D02*
X98476017Y-67844200D01*
X98476017Y-67844200D02*
X98571255Y-67891819D01*
X98571255Y-67891819D02*
X98761731Y-67891819D01*
X98761731Y-67891819D02*
X98856969Y-67844200D01*
X98856969Y-67844200D02*
X98904588Y-67796580D01*
X98904588Y-67796580D02*
X98952207Y-67701342D01*
X98952207Y-67701342D02*
X98952207Y-66891819D01*
X99952207Y-67891819D02*
X99380779Y-67891819D01*
X99666493Y-67891819D02*
X99666493Y-66891819D01*
X99666493Y-66891819D02*
X99571255Y-67034676D01*
X99571255Y-67034676D02*
X99476017Y-67129914D01*
X99476017Y-67129914D02*
X99380779Y-67177533D01*
X111992580Y-95257857D02*
X112040200Y-95305476D01*
X112040200Y-95305476D02*
X112087819Y-95448333D01*
X112087819Y-95448333D02*
X112087819Y-95543571D01*
X112087819Y-95543571D02*
X112040200Y-95686428D01*
X112040200Y-95686428D02*
X111944961Y-95781666D01*
X111944961Y-95781666D02*
X111849723Y-95829285D01*
X111849723Y-95829285D02*
X111659247Y-95876904D01*
X111659247Y-95876904D02*
X111516390Y-95876904D01*
X111516390Y-95876904D02*
X111325914Y-95829285D01*
X111325914Y-95829285D02*
X111230676Y-95781666D01*
X111230676Y-95781666D02*
X111135438Y-95686428D01*
X111135438Y-95686428D02*
X111087819Y-95543571D01*
X111087819Y-95543571D02*
X111087819Y-95448333D01*
X111087819Y-95448333D02*
X111135438Y-95305476D01*
X111135438Y-95305476D02*
X111183057Y-95257857D01*
X112087819Y-94305476D02*
X112087819Y-94876904D01*
X112087819Y-94591190D02*
X111087819Y-94591190D01*
X111087819Y-94591190D02*
X111230676Y-94686428D01*
X111230676Y-94686428D02*
X111325914Y-94781666D01*
X111325914Y-94781666D02*
X111373533Y-94876904D01*
X111183057Y-93924523D02*
X111135438Y-93876904D01*
X111135438Y-93876904D02*
X111087819Y-93781666D01*
X111087819Y-93781666D02*
X111087819Y-93543571D01*
X111087819Y-93543571D02*
X111135438Y-93448333D01*
X111135438Y-93448333D02*
X111183057Y-93400714D01*
X111183057Y-93400714D02*
X111278295Y-93353095D01*
X111278295Y-93353095D02*
X111373533Y-93353095D01*
X111373533Y-93353095D02*
X111516390Y-93400714D01*
X111516390Y-93400714D02*
X112087819Y-93972142D01*
X112087819Y-93972142D02*
X112087819Y-93353095D01*
X94988142Y-53445580D02*
X94940523Y-53493200D01*
X94940523Y-53493200D02*
X94797666Y-53540819D01*
X94797666Y-53540819D02*
X94702428Y-53540819D01*
X94702428Y-53540819D02*
X94559571Y-53493200D01*
X94559571Y-53493200D02*
X94464333Y-53397961D01*
X94464333Y-53397961D02*
X94416714Y-53302723D01*
X94416714Y-53302723D02*
X94369095Y-53112247D01*
X94369095Y-53112247D02*
X94369095Y-52969390D01*
X94369095Y-52969390D02*
X94416714Y-52778914D01*
X94416714Y-52778914D02*
X94464333Y-52683676D01*
X94464333Y-52683676D02*
X94559571Y-52588438D01*
X94559571Y-52588438D02*
X94702428Y-52540819D01*
X94702428Y-52540819D02*
X94797666Y-52540819D01*
X94797666Y-52540819D02*
X94940523Y-52588438D01*
X94940523Y-52588438D02*
X94988142Y-52636057D01*
X95940523Y-53540819D02*
X95369095Y-53540819D01*
X95654809Y-53540819D02*
X95654809Y-52540819D01*
X95654809Y-52540819D02*
X95559571Y-52683676D01*
X95559571Y-52683676D02*
X95464333Y-52778914D01*
X95464333Y-52778914D02*
X95369095Y-52826533D01*
X96559571Y-52540819D02*
X96654809Y-52540819D01*
X96654809Y-52540819D02*
X96750047Y-52588438D01*
X96750047Y-52588438D02*
X96797666Y-52636057D01*
X96797666Y-52636057D02*
X96845285Y-52731295D01*
X96845285Y-52731295D02*
X96892904Y-52921771D01*
X96892904Y-52921771D02*
X96892904Y-53159866D01*
X96892904Y-53159866D02*
X96845285Y-53350342D01*
X96845285Y-53350342D02*
X96797666Y-53445580D01*
X96797666Y-53445580D02*
X96750047Y-53493200D01*
X96750047Y-53493200D02*
X96654809Y-53540819D01*
X96654809Y-53540819D02*
X96559571Y-53540819D01*
X96559571Y-53540819D02*
X96464333Y-53493200D01*
X96464333Y-53493200D02*
X96416714Y-53445580D01*
X96416714Y-53445580D02*
X96369095Y-53350342D01*
X96369095Y-53350342D02*
X96321476Y-53159866D01*
X96321476Y-53159866D02*
X96321476Y-52921771D01*
X96321476Y-52921771D02*
X96369095Y-52731295D01*
X96369095Y-52731295D02*
X96416714Y-52636057D01*
X96416714Y-52636057D02*
X96464333Y-52588438D01*
X96464333Y-52588438D02*
X96559571Y-52540819D01*
X88987333Y-54461580D02*
X88939714Y-54509200D01*
X88939714Y-54509200D02*
X88796857Y-54556819D01*
X88796857Y-54556819D02*
X88701619Y-54556819D01*
X88701619Y-54556819D02*
X88558762Y-54509200D01*
X88558762Y-54509200D02*
X88463524Y-54413961D01*
X88463524Y-54413961D02*
X88415905Y-54318723D01*
X88415905Y-54318723D02*
X88368286Y-54128247D01*
X88368286Y-54128247D02*
X88368286Y-53985390D01*
X88368286Y-53985390D02*
X88415905Y-53794914D01*
X88415905Y-53794914D02*
X88463524Y-53699676D01*
X88463524Y-53699676D02*
X88558762Y-53604438D01*
X88558762Y-53604438D02*
X88701619Y-53556819D01*
X88701619Y-53556819D02*
X88796857Y-53556819D01*
X88796857Y-53556819D02*
X88939714Y-53604438D01*
X88939714Y-53604438D02*
X88987333Y-53652057D01*
X89463524Y-54556819D02*
X89654000Y-54556819D01*
X89654000Y-54556819D02*
X89749238Y-54509200D01*
X89749238Y-54509200D02*
X89796857Y-54461580D01*
X89796857Y-54461580D02*
X89892095Y-54318723D01*
X89892095Y-54318723D02*
X89939714Y-54128247D01*
X89939714Y-54128247D02*
X89939714Y-53747295D01*
X89939714Y-53747295D02*
X89892095Y-53652057D01*
X89892095Y-53652057D02*
X89844476Y-53604438D01*
X89844476Y-53604438D02*
X89749238Y-53556819D01*
X89749238Y-53556819D02*
X89558762Y-53556819D01*
X89558762Y-53556819D02*
X89463524Y-53604438D01*
X89463524Y-53604438D02*
X89415905Y-53652057D01*
X89415905Y-53652057D02*
X89368286Y-53747295D01*
X89368286Y-53747295D02*
X89368286Y-53985390D01*
X89368286Y-53985390D02*
X89415905Y-54080628D01*
X89415905Y-54080628D02*
X89463524Y-54128247D01*
X89463524Y-54128247D02*
X89558762Y-54175866D01*
X89558762Y-54175866D02*
X89749238Y-54175866D01*
X89749238Y-54175866D02*
X89844476Y-54128247D01*
X89844476Y-54128247D02*
X89892095Y-54080628D01*
X89892095Y-54080628D02*
X89939714Y-53985390D01*
X83100057Y-63341238D02*
X83052438Y-63436476D01*
X83052438Y-63436476D02*
X82957200Y-63531714D01*
X82957200Y-63531714D02*
X82814342Y-63674571D01*
X82814342Y-63674571D02*
X82766723Y-63769809D01*
X82766723Y-63769809D02*
X82766723Y-63865047D01*
X83004819Y-63817428D02*
X82957200Y-63912666D01*
X82957200Y-63912666D02*
X82861961Y-64007904D01*
X82861961Y-64007904D02*
X82671485Y-64055523D01*
X82671485Y-64055523D02*
X82338152Y-64055523D01*
X82338152Y-64055523D02*
X82147676Y-64007904D01*
X82147676Y-64007904D02*
X82052438Y-63912666D01*
X82052438Y-63912666D02*
X82004819Y-63817428D01*
X82004819Y-63817428D02*
X82004819Y-63626952D01*
X82004819Y-63626952D02*
X82052438Y-63531714D01*
X82052438Y-63531714D02*
X82147676Y-63436476D01*
X82147676Y-63436476D02*
X82338152Y-63388857D01*
X82338152Y-63388857D02*
X82671485Y-63388857D01*
X82671485Y-63388857D02*
X82861961Y-63436476D01*
X82861961Y-63436476D02*
X82957200Y-63531714D01*
X82957200Y-63531714D02*
X83004819Y-63626952D01*
X83004819Y-63626952D02*
X83004819Y-63817428D01*
X82004819Y-63055523D02*
X82004819Y-62436476D01*
X82004819Y-62436476D02*
X82385771Y-62769809D01*
X82385771Y-62769809D02*
X82385771Y-62626952D01*
X82385771Y-62626952D02*
X82433390Y-62531714D01*
X82433390Y-62531714D02*
X82481009Y-62484095D01*
X82481009Y-62484095D02*
X82576247Y-62436476D01*
X82576247Y-62436476D02*
X82814342Y-62436476D01*
X82814342Y-62436476D02*
X82909580Y-62484095D01*
X82909580Y-62484095D02*
X82957200Y-62531714D01*
X82957200Y-62531714D02*
X83004819Y-62626952D01*
X83004819Y-62626952D02*
X83004819Y-62912666D01*
X83004819Y-62912666D02*
X82957200Y-63007904D01*
X82957200Y-63007904D02*
X82909580Y-63055523D01*
X113484819Y-85764666D02*
X113008628Y-86097999D01*
X113484819Y-86336094D02*
X112484819Y-86336094D01*
X112484819Y-86336094D02*
X112484819Y-85955142D01*
X112484819Y-85955142D02*
X112532438Y-85859904D01*
X112532438Y-85859904D02*
X112580057Y-85812285D01*
X112580057Y-85812285D02*
X112675295Y-85764666D01*
X112675295Y-85764666D02*
X112818152Y-85764666D01*
X112818152Y-85764666D02*
X112913390Y-85812285D01*
X112913390Y-85812285D02*
X112961009Y-85859904D01*
X112961009Y-85859904D02*
X113008628Y-85955142D01*
X113008628Y-85955142D02*
X113008628Y-86336094D01*
X112484819Y-85431332D02*
X112484819Y-84764666D01*
X112484819Y-84764666D02*
X113484819Y-85193237D01*
X86106095Y-79083819D02*
X86106095Y-79893342D01*
X86106095Y-79893342D02*
X86153714Y-79988580D01*
X86153714Y-79988580D02*
X86201333Y-80036200D01*
X86201333Y-80036200D02*
X86296571Y-80083819D01*
X86296571Y-80083819D02*
X86487047Y-80083819D01*
X86487047Y-80083819D02*
X86582285Y-80036200D01*
X86582285Y-80036200D02*
X86629904Y-79988580D01*
X86629904Y-79988580D02*
X86677523Y-79893342D01*
X86677523Y-79893342D02*
X86677523Y-79083819D01*
X87058476Y-79083819D02*
X87677523Y-79083819D01*
X87677523Y-79083819D02*
X87344190Y-79464771D01*
X87344190Y-79464771D02*
X87487047Y-79464771D01*
X87487047Y-79464771D02*
X87582285Y-79512390D01*
X87582285Y-79512390D02*
X87629904Y-79560009D01*
X87629904Y-79560009D02*
X87677523Y-79655247D01*
X87677523Y-79655247D02*
X87677523Y-79893342D01*
X87677523Y-79893342D02*
X87629904Y-79988580D01*
X87629904Y-79988580D02*
X87582285Y-80036200D01*
X87582285Y-80036200D02*
X87487047Y-80083819D01*
X87487047Y-80083819D02*
X87201333Y-80083819D01*
X87201333Y-80083819D02*
X87106095Y-80036200D01*
X87106095Y-80036200D02*
X87058476Y-79988580D01*
X94194333Y-89386580D02*
X94146714Y-89434200D01*
X94146714Y-89434200D02*
X94003857Y-89481819D01*
X94003857Y-89481819D02*
X93908619Y-89481819D01*
X93908619Y-89481819D02*
X93765762Y-89434200D01*
X93765762Y-89434200D02*
X93670524Y-89338961D01*
X93670524Y-89338961D02*
X93622905Y-89243723D01*
X93622905Y-89243723D02*
X93575286Y-89053247D01*
X93575286Y-89053247D02*
X93575286Y-88910390D01*
X93575286Y-88910390D02*
X93622905Y-88719914D01*
X93622905Y-88719914D02*
X93670524Y-88624676D01*
X93670524Y-88624676D02*
X93765762Y-88529438D01*
X93765762Y-88529438D02*
X93908619Y-88481819D01*
X93908619Y-88481819D02*
X94003857Y-88481819D01*
X94003857Y-88481819D02*
X94146714Y-88529438D01*
X94146714Y-88529438D02*
X94194333Y-88577057D01*
X95051476Y-88481819D02*
X94861000Y-88481819D01*
X94861000Y-88481819D02*
X94765762Y-88529438D01*
X94765762Y-88529438D02*
X94718143Y-88577057D01*
X94718143Y-88577057D02*
X94622905Y-88719914D01*
X94622905Y-88719914D02*
X94575286Y-88910390D01*
X94575286Y-88910390D02*
X94575286Y-89291342D01*
X94575286Y-89291342D02*
X94622905Y-89386580D01*
X94622905Y-89386580D02*
X94670524Y-89434200D01*
X94670524Y-89434200D02*
X94765762Y-89481819D01*
X94765762Y-89481819D02*
X94956238Y-89481819D01*
X94956238Y-89481819D02*
X95051476Y-89434200D01*
X95051476Y-89434200D02*
X95099095Y-89386580D01*
X95099095Y-89386580D02*
X95146714Y-89291342D01*
X95146714Y-89291342D02*
X95146714Y-89053247D01*
X95146714Y-89053247D02*
X95099095Y-88958009D01*
X95099095Y-88958009D02*
X95051476Y-88910390D01*
X95051476Y-88910390D02*
X94956238Y-88862771D01*
X94956238Y-88862771D02*
X94765762Y-88862771D01*
X94765762Y-88862771D02*
X94670524Y-88910390D01*
X94670524Y-88910390D02*
X94622905Y-88958009D01*
X94622905Y-88958009D02*
X94575286Y-89053247D01*
X119326819Y-92114666D02*
X118850628Y-92447999D01*
X119326819Y-92686094D02*
X118326819Y-92686094D01*
X118326819Y-92686094D02*
X118326819Y-92305142D01*
X118326819Y-92305142D02*
X118374438Y-92209904D01*
X118374438Y-92209904D02*
X118422057Y-92162285D01*
X118422057Y-92162285D02*
X118517295Y-92114666D01*
X118517295Y-92114666D02*
X118660152Y-92114666D01*
X118660152Y-92114666D02*
X118755390Y-92162285D01*
X118755390Y-92162285D02*
X118803009Y-92209904D01*
X118803009Y-92209904D02*
X118850628Y-92305142D01*
X118850628Y-92305142D02*
X118850628Y-92686094D01*
X118422057Y-91733713D02*
X118374438Y-91686094D01*
X118374438Y-91686094D02*
X118326819Y-91590856D01*
X118326819Y-91590856D02*
X118326819Y-91352761D01*
X118326819Y-91352761D02*
X118374438Y-91257523D01*
X118374438Y-91257523D02*
X118422057Y-91209904D01*
X118422057Y-91209904D02*
X118517295Y-91162285D01*
X118517295Y-91162285D02*
X118612533Y-91162285D01*
X118612533Y-91162285D02*
X118755390Y-91209904D01*
X118755390Y-91209904D02*
X119326819Y-91781332D01*
X119326819Y-91781332D02*
X119326819Y-91162285D01*
X74200319Y-63786857D02*
X73724128Y-64120190D01*
X74200319Y-64358285D02*
X73200319Y-64358285D01*
X73200319Y-64358285D02*
X73200319Y-63977333D01*
X73200319Y-63977333D02*
X73247938Y-63882095D01*
X73247938Y-63882095D02*
X73295557Y-63834476D01*
X73295557Y-63834476D02*
X73390795Y-63786857D01*
X73390795Y-63786857D02*
X73533652Y-63786857D01*
X73533652Y-63786857D02*
X73628890Y-63834476D01*
X73628890Y-63834476D02*
X73676509Y-63882095D01*
X73676509Y-63882095D02*
X73724128Y-63977333D01*
X73724128Y-63977333D02*
X73724128Y-64358285D01*
X74200319Y-62834476D02*
X74200319Y-63405904D01*
X74200319Y-63120190D02*
X73200319Y-63120190D01*
X73200319Y-63120190D02*
X73343176Y-63215428D01*
X73343176Y-63215428D02*
X73438414Y-63310666D01*
X73438414Y-63310666D02*
X73486033Y-63405904D01*
X73295557Y-62453523D02*
X73247938Y-62405904D01*
X73247938Y-62405904D02*
X73200319Y-62310666D01*
X73200319Y-62310666D02*
X73200319Y-62072571D01*
X73200319Y-62072571D02*
X73247938Y-61977333D01*
X73247938Y-61977333D02*
X73295557Y-61929714D01*
X73295557Y-61929714D02*
X73390795Y-61882095D01*
X73390795Y-61882095D02*
X73486033Y-61882095D01*
X73486033Y-61882095D02*
X73628890Y-61929714D01*
X73628890Y-61929714D02*
X74200319Y-62501142D01*
X74200319Y-62501142D02*
X74200319Y-61882095D01*
X74210057Y-60462738D02*
X74162438Y-60557976D01*
X74162438Y-60557976D02*
X74067200Y-60653214D01*
X74067200Y-60653214D02*
X73924342Y-60796071D01*
X73924342Y-60796071D02*
X73876723Y-60891309D01*
X73876723Y-60891309D02*
X73876723Y-60986547D01*
X74114819Y-60938928D02*
X74067200Y-61034166D01*
X74067200Y-61034166D02*
X73971961Y-61129404D01*
X73971961Y-61129404D02*
X73781485Y-61177023D01*
X73781485Y-61177023D02*
X73448152Y-61177023D01*
X73448152Y-61177023D02*
X73257676Y-61129404D01*
X73257676Y-61129404D02*
X73162438Y-61034166D01*
X73162438Y-61034166D02*
X73114819Y-60938928D01*
X73114819Y-60938928D02*
X73114819Y-60748452D01*
X73114819Y-60748452D02*
X73162438Y-60653214D01*
X73162438Y-60653214D02*
X73257676Y-60557976D01*
X73257676Y-60557976D02*
X73448152Y-60510357D01*
X73448152Y-60510357D02*
X73781485Y-60510357D01*
X73781485Y-60510357D02*
X73971961Y-60557976D01*
X73971961Y-60557976D02*
X74067200Y-60653214D01*
X74067200Y-60653214D02*
X74114819Y-60748452D01*
X74114819Y-60748452D02*
X74114819Y-60938928D01*
X73448152Y-59653214D02*
X74114819Y-59653214D01*
X73067200Y-59891309D02*
X73781485Y-60129404D01*
X73781485Y-60129404D02*
X73781485Y-59510357D01*
X74108666Y-86068819D02*
X74108666Y-86783104D01*
X74108666Y-86783104D02*
X74061047Y-86925961D01*
X74061047Y-86925961D02*
X73965809Y-87021200D01*
X73965809Y-87021200D02*
X73822952Y-87068819D01*
X73822952Y-87068819D02*
X73727714Y-87068819D01*
X75108666Y-87068819D02*
X74537238Y-87068819D01*
X74822952Y-87068819D02*
X74822952Y-86068819D01*
X74822952Y-86068819D02*
X74727714Y-86211676D01*
X74727714Y-86211676D02*
X74632476Y-86306914D01*
X74632476Y-86306914D02*
X74537238Y-86354533D01*
%TO.C,U2*%
D13*
X66616000Y-94034000D02*
X66941000Y-94034000D01*
X66616000Y-94129000D02*
X66616000Y-94034000D01*
X66616000Y-99154000D02*
X66616000Y-99059000D01*
X66941000Y-99154000D02*
X66616000Y-99154000D01*
X70411000Y-94034000D02*
X70736000Y-94034000D01*
X70736000Y-94034000D02*
X70736000Y-94129000D01*
X70736000Y-99059000D02*
X70736000Y-99154000D01*
X70736000Y-99154000D02*
X70411000Y-99154000D01*
X66076000Y-94124000D02*
X65836000Y-93794000D01*
X66316000Y-93794000D01*
X66076000Y-94124000D01*
G36*
X66076000Y-94124000D02*
G01*
X65836000Y-93794000D01*
X66316000Y-93794000D01*
X66076000Y-94124000D01*
G37*
%TO.C,C1*%
X72974252Y-100436000D02*
X71551748Y-100436000D01*
X72974252Y-102256000D02*
X71551748Y-102256000D01*
%TO.C,RV1*%
X64315000Y-84000000D02*
X65445000Y-84000000D01*
X64315000Y-88720000D02*
X64315000Y-84000000D01*
X64645000Y-88720000D02*
X64315000Y-88720000D01*
X66945000Y-88720000D02*
X66405000Y-88720000D01*
X67905000Y-84000000D02*
X69035000Y-84000000D01*
X69035000Y-84000000D02*
X69035000Y-88720000D01*
X69035000Y-88720000D02*
X68705000Y-88720000D01*
%TO.C,R3*%
X120423000Y-94744064D02*
X120423000Y-94289936D01*
X121893000Y-94744064D02*
X121893000Y-94289936D01*
%TO.C,R8*%
X74237000Y-72416936D02*
X74237000Y-72871064D01*
X75707000Y-72416936D02*
X75707000Y-72871064D01*
%TO.C,J3*%
X76990000Y-67192000D02*
X76990000Y-76092000D01*
X76990000Y-69542000D02*
X77490000Y-69542000D01*
X76990000Y-69642000D02*
X77490000Y-69642000D01*
X76990000Y-71542000D02*
X77490000Y-71542000D01*
X76990000Y-71642000D02*
X77490000Y-71642000D01*
X76990000Y-73542000D02*
X77490000Y-73542000D01*
X76990000Y-73642000D02*
X77490000Y-73642000D01*
X76990000Y-76092000D02*
X80490000Y-76092000D01*
X77490000Y-69542000D02*
X77490000Y-69742000D01*
X77490000Y-69742000D02*
X76990000Y-69742000D01*
X77490000Y-71542000D02*
X77490000Y-71742000D01*
X77490000Y-71742000D02*
X76990000Y-71742000D01*
X77490000Y-73542000D02*
X77490000Y-73742000D01*
X77490000Y-73742000D02*
X76990000Y-73742000D01*
X78490000Y-66582000D02*
X78490000Y-67192000D01*
X78490000Y-76702000D02*
X78490000Y-76092000D01*
X79790000Y-66582000D02*
X79790000Y-67192000D01*
X79790000Y-76702000D02*
X79790000Y-76092000D01*
X80490000Y-67192000D02*
X76990000Y-67192000D01*
X80490000Y-69142000D02*
X80490000Y-67192000D01*
X80490000Y-74142000D02*
X81100000Y-74142000D01*
X80490000Y-76092000D02*
X80490000Y-74142000D01*
X81100000Y-68342000D02*
X81300000Y-68342000D01*
X81100000Y-69142000D02*
X80490000Y-69142000D01*
X81200000Y-68342000D02*
X81200000Y-68042000D01*
X81300000Y-68042000D02*
X81100000Y-68042000D01*
X81300000Y-68342000D02*
X81300000Y-68042000D01*
X81400000Y-66282000D02*
X80150000Y-66282000D01*
X81400000Y-67532000D02*
X81400000Y-66282000D01*
X76380000Y-66582000D02*
X81100000Y-66582000D01*
X81100000Y-76702000D01*
X76380000Y-76702000D01*
X76380000Y-66582000D01*
%TO.C,J2*%
X113018000Y-78490000D02*
X113628000Y-78490000D01*
X113018000Y-79790000D02*
X113628000Y-79790000D01*
X113628000Y-76990000D02*
X113628000Y-80490000D01*
X113628000Y-80490000D02*
X115578000Y-80490000D01*
X115578000Y-80490000D02*
X115578000Y-81100000D01*
X115978000Y-77490000D02*
X115978000Y-76990000D01*
X116078000Y-76990000D02*
X116078000Y-77490000D01*
X116178000Y-76990000D02*
X116178000Y-77490000D01*
X116178000Y-77490000D02*
X115978000Y-77490000D01*
X116578000Y-80490000D02*
X118528000Y-80490000D01*
X116578000Y-81100000D02*
X116578000Y-80490000D01*
X117378000Y-81100000D02*
X117378000Y-81300000D01*
X117378000Y-81200000D02*
X117678000Y-81200000D01*
X117378000Y-81300000D02*
X117678000Y-81300000D01*
X117678000Y-81300000D02*
X117678000Y-81100000D01*
X118188000Y-81400000D02*
X119438000Y-81400000D01*
X118528000Y-76990000D02*
X113628000Y-76990000D01*
X118528000Y-80490000D02*
X118528000Y-76990000D01*
X119138000Y-78490000D02*
X118528000Y-78490000D01*
X119138000Y-79790000D02*
X118528000Y-79790000D01*
X119438000Y-81400000D02*
X119438000Y-80150000D01*
X113018000Y-76380000D02*
X119138000Y-76380000D01*
X119138000Y-81100000D01*
X113018000Y-81100000D01*
X113018000Y-76380000D01*
%TO.C,D4*%
X120271000Y-83022000D02*
X121791000Y-83022000D01*
X120271000Y-84022000D02*
X120271000Y-83022000D01*
X120271000Y-86142000D02*
X120271000Y-85142000D01*
X121791000Y-83022000D02*
X121791000Y-83072000D01*
X121791000Y-84192000D02*
X121791000Y-84972000D01*
X121791000Y-86092000D02*
X121791000Y-86142000D01*
X121791000Y-86142000D02*
X120271000Y-86142000D01*
X122331000Y-84962000D02*
X122091000Y-84632000D01*
X122571000Y-84632000D01*
X122331000Y-84962000D01*
G36*
X122331000Y-84962000D02*
G01*
X122091000Y-84632000D01*
X122571000Y-84632000D01*
X122331000Y-84962000D01*
G37*
%TO.C,R11*%
X78386000Y-58296436D02*
X78386000Y-58750564D01*
X79856000Y-58296436D02*
X79856000Y-58750564D01*
%TO.C,R5*%
X111582564Y-71274000D02*
X111128436Y-71274000D01*
X111582564Y-72744000D02*
X111128436Y-72744000D01*
%TO.C,R1*%
X66701936Y-90451000D02*
X67156064Y-90451000D01*
X66701936Y-91921000D02*
X67156064Y-91921000D01*
%TO.C,J4*%
X71680000Y-53217000D02*
X72290000Y-53217000D01*
X71680000Y-54517000D02*
X72290000Y-54517000D01*
X72290000Y-51717000D02*
X72290000Y-55217000D01*
X72290000Y-55217000D02*
X74240000Y-55217000D01*
X74240000Y-55217000D02*
X74240000Y-55827000D01*
X74640000Y-52217000D02*
X74640000Y-51717000D01*
X74740000Y-51717000D02*
X74740000Y-52217000D01*
X74840000Y-51717000D02*
X74840000Y-52217000D01*
X74840000Y-52217000D02*
X74640000Y-52217000D01*
X76640000Y-52217000D02*
X76640000Y-51717000D01*
X76740000Y-51717000D02*
X76740000Y-52217000D01*
X76840000Y-51717000D02*
X76840000Y-52217000D01*
X76840000Y-52217000D02*
X76640000Y-52217000D01*
X78640000Y-52217000D02*
X78640000Y-51717000D01*
X78740000Y-51717000D02*
X78740000Y-52217000D01*
X78840000Y-51717000D02*
X78840000Y-52217000D01*
X78840000Y-52217000D02*
X78640000Y-52217000D01*
X80640000Y-52217000D02*
X80640000Y-51717000D01*
X80740000Y-51717000D02*
X80740000Y-52217000D01*
X80840000Y-51717000D02*
X80840000Y-52217000D01*
X80840000Y-52217000D02*
X80640000Y-52217000D01*
X82640000Y-52217000D02*
X82640000Y-51717000D01*
X82740000Y-51717000D02*
X82740000Y-52217000D01*
X82840000Y-51717000D02*
X82840000Y-52217000D01*
X82840000Y-52217000D02*
X82640000Y-52217000D01*
X83240000Y-55217000D02*
X85190000Y-55217000D01*
X83240000Y-55827000D02*
X83240000Y-55217000D01*
X84040000Y-55827000D02*
X84040000Y-56027000D01*
X84040000Y-55927000D02*
X84340000Y-55927000D01*
X84040000Y-56027000D02*
X84340000Y-56027000D01*
X84340000Y-56027000D02*
X84340000Y-55827000D01*
X84850000Y-56127000D02*
X86100000Y-56127000D01*
X85190000Y-51717000D02*
X72290000Y-51717000D01*
X85190000Y-55217000D02*
X85190000Y-51717000D01*
X85800000Y-53217000D02*
X85190000Y-53217000D01*
X85800000Y-54517000D02*
X85190000Y-54517000D01*
X86100000Y-56127000D02*
X86100000Y-54877000D01*
X71680000Y-51107000D02*
X85800000Y-51107000D01*
X85800000Y-55827000D01*
X71680000Y-55827000D01*
X71680000Y-51107000D01*
%TO.C,C4*%
X91461252Y-75090000D02*
X90038748Y-75090000D01*
X91461252Y-76910000D02*
X90038748Y-76910000D01*
%TO.C,L1*%
X93487000Y-77048000D02*
X99207000Y-77048000D01*
X93487000Y-77598000D02*
X93487000Y-77048000D01*
X93487000Y-82268000D02*
X93487000Y-81718000D01*
X99207000Y-77048000D02*
X99207000Y-77598000D01*
X99207000Y-81718000D02*
X99207000Y-82268000D01*
X99207000Y-82268000D02*
X93487000Y-82268000D01*
%TO.C,C3*%
X65084000Y-102060748D02*
X65084000Y-103483252D01*
X66904000Y-102060748D02*
X66904000Y-103483252D01*
%TO.C,R13*%
X69623000Y-90069936D02*
X69623000Y-90524064D01*
X71093000Y-90069936D02*
X71093000Y-90524064D01*
%TO.C,C8*%
X110366752Y-68432000D02*
X108944248Y-68432000D01*
X110366752Y-70252000D02*
X108944248Y-70252000D01*
%TO.C,R10*%
X91340000Y-50699936D02*
X91340000Y-51154064D01*
X92810000Y-50699936D02*
X92810000Y-51154064D01*
%TO.C,R4*%
X96293000Y-63473064D02*
X96293000Y-63018936D01*
X97763000Y-63473064D02*
X97763000Y-63018936D01*
%TO.C,SW1*%
X93346000Y-112138000D02*
X93346000Y-112438000D01*
X93346000Y-114938000D02*
X93346000Y-114638000D01*
X93996000Y-115258000D02*
X93996000Y-114938000D01*
X94496000Y-115638000D02*
X93996000Y-115258000D01*
X95496000Y-115638000D02*
X94496000Y-115638000D01*
X95496000Y-115638000D02*
X95996000Y-115258000D01*
X95996000Y-115258000D02*
X95996000Y-114938000D01*
X96646000Y-112138000D02*
X93346000Y-112138000D01*
X96646000Y-112438000D02*
X96646000Y-112138000D01*
X96646000Y-114638000D02*
X96646000Y-114938000D01*
X96646000Y-114938000D02*
X93346000Y-114938000D01*
%TO.C,R15*%
X117121000Y-70384936D02*
X117121000Y-70839064D01*
X118591000Y-70384936D02*
X118591000Y-70839064D01*
%TO.C,D1*%
X115509000Y-92358000D02*
X115509000Y-96018000D01*
X117409000Y-92358000D02*
X115509000Y-92358000D01*
X117409000Y-92358000D02*
X117409000Y-96018000D01*
%TO.C,R6*%
X107899564Y-71274000D02*
X107445436Y-71274000D01*
X107899564Y-72744000D02*
X107445436Y-72744000D01*
%TO.C,LED1*%
X88189000Y-114546000D02*
X92074000Y-114546000D01*
X92074000Y-112276000D02*
X88189000Y-112276000D01*
X92074000Y-114546000D02*
X92074000Y-112276000D01*
%TO.C,Q2*%
X117271500Y-86898000D02*
X118791500Y-86898000D01*
X117271500Y-86948000D02*
X117271500Y-86898000D01*
X117271500Y-88848000D02*
X117271500Y-88068000D01*
X117271500Y-90018000D02*
X117271500Y-89968000D01*
X118791500Y-86898000D02*
X118791500Y-87898000D01*
X118791500Y-89018000D02*
X118791500Y-90018000D01*
X118791500Y-90018000D02*
X117271500Y-90018000D01*
X116731500Y-88078000D02*
X116971500Y-88408000D01*
X116491500Y-88408000D01*
X116731500Y-88078000D01*
G36*
X116971500Y-88408000D02*
G01*
X116491500Y-88408000D01*
X116731500Y-88078000D01*
X116971500Y-88408000D01*
G37*
%TO.C,C2*%
X68980000Y-103270000D02*
X68980000Y-105620000D01*
X68980000Y-110090000D02*
X68980000Y-107740000D01*
X74735563Y-103270000D02*
X68980000Y-103270000D01*
X74735563Y-110090000D02*
X68980000Y-110090000D01*
X75800000Y-104334437D02*
X74735563Y-103270000D01*
X75800000Y-104334437D02*
X75800000Y-105620000D01*
X75800000Y-109025563D02*
X74735563Y-110090000D01*
X75800000Y-109025563D02*
X75800000Y-107740000D01*
X76433750Y-108921250D02*
X76433750Y-108133750D01*
X76827500Y-108527500D02*
X76040000Y-108527500D01*
%TO.C,LED2*%
X98603000Y-114546000D02*
X102488000Y-114546000D01*
X102488000Y-112276000D02*
X98603000Y-112276000D01*
X102488000Y-114546000D02*
X102488000Y-112276000D01*
%TO.C,C7*%
X88777748Y-82968000D02*
X90200252Y-82968000D01*
X88777748Y-85688000D02*
X90200252Y-85688000D01*
%TO.C,R14*%
X114708000Y-70384936D02*
X114708000Y-70839064D01*
X116178000Y-70384936D02*
X116178000Y-70839064D01*
%TO.C,U4*%
X86339000Y-69052000D02*
X88159000Y-69052000D01*
X86339000Y-69102000D02*
X86339000Y-69052000D01*
X86339000Y-72172000D02*
X86339000Y-72122000D01*
X88159000Y-69052000D02*
X88159000Y-69102000D01*
X88159000Y-72122000D02*
X88159000Y-72172000D01*
X88159000Y-72172000D02*
X86339000Y-72172000D01*
X85799000Y-69102000D02*
X85559000Y-68772000D01*
X86039000Y-68772000D01*
X85799000Y-69102000D01*
G36*
X85799000Y-69102000D02*
G01*
X85559000Y-68772000D01*
X86039000Y-68772000D01*
X85799000Y-69102000D01*
G37*
%TO.C,R9*%
X74237000Y-68733936D02*
X74237000Y-69188064D01*
X75707000Y-68733936D02*
X75707000Y-69188064D01*
%TO.C,Q1*%
X115721000Y-98759500D02*
X115721000Y-99029500D01*
X115721000Y-105659500D02*
X115721000Y-105389500D01*
X122141000Y-98759500D02*
X115721000Y-98759500D01*
X122141000Y-105659500D02*
X115721000Y-105659500D01*
X113991000Y-99069500D02*
X113651000Y-98599500D01*
X114331000Y-98599500D01*
X113991000Y-99069500D01*
G36*
X113991000Y-99069500D02*
G01*
X113651000Y-98599500D01*
X114331000Y-98599500D01*
X113991000Y-99069500D01*
G37*
%TO.C,C5*%
X95199252Y-83545000D02*
X93776748Y-83545000D01*
X95199252Y-85365000D02*
X93776748Y-85365000D01*
%TO.C,U1*%
X99004000Y-66535000D02*
X99004000Y-65585000D01*
X100404000Y-66535000D02*
X99004000Y-66535000D01*
X116004000Y-66535000D02*
X117404000Y-66535000D01*
X117404000Y-66535000D02*
X117404000Y-65585000D01*
X99004000Y-47585000D02*
X98504000Y-47585000D01*
X99004000Y-47085000D01*
X99004000Y-47585000D01*
G36*
X99004000Y-47585000D02*
G01*
X98504000Y-47585000D01*
X99004000Y-47085000D01*
X99004000Y-47585000D01*
G37*
%TO.C,C12*%
X112755000Y-93903748D02*
X112755000Y-95326252D01*
X114575000Y-93903748D02*
X114575000Y-95326252D01*
%TO.C,C10*%
X94753000Y-50456252D02*
X94753000Y-49033748D01*
X96573000Y-50456252D02*
X96573000Y-49033748D01*
%TO.C,C9*%
X88244000Y-51638252D02*
X88244000Y-50215748D01*
X90064000Y-51638252D02*
X90064000Y-50215748D01*
%TO.C,Q3*%
X78778000Y-61523000D02*
X80298000Y-61523000D01*
X78778000Y-61573000D02*
X78778000Y-61523000D01*
X78778000Y-63473000D02*
X78778000Y-62693000D01*
X78778000Y-64643000D02*
X78778000Y-64593000D01*
X80298000Y-61523000D02*
X80298000Y-62523000D01*
X80298000Y-63643000D02*
X80298000Y-64643000D01*
X80298000Y-64643000D02*
X78778000Y-64643000D01*
X78238000Y-62703000D02*
X78478000Y-63033000D01*
X77998000Y-63033000D01*
X78238000Y-62703000D01*
G36*
X78478000Y-63033000D02*
G01*
X77998000Y-63033000D01*
X78238000Y-62703000D01*
X78478000Y-63033000D01*
G37*
%TO.C,R7*%
X112422000Y-88164936D02*
X112422000Y-88619064D01*
X113892000Y-88164936D02*
X113892000Y-88619064D01*
%TO.C,U3*%
X89133000Y-78323000D02*
X90953000Y-78323000D01*
X89133000Y-78373000D02*
X89133000Y-78323000D01*
X89133000Y-81443000D02*
X89133000Y-81393000D01*
X90953000Y-78323000D02*
X90953000Y-78373000D01*
X90953000Y-81393000D02*
X90953000Y-81443000D01*
X90953000Y-81443000D02*
X89133000Y-81443000D01*
X88593000Y-78373000D02*
X88353000Y-78043000D01*
X88833000Y-78043000D01*
X88593000Y-78373000D01*
G36*
X88593000Y-78373000D02*
G01*
X88353000Y-78043000D01*
X88833000Y-78043000D01*
X88593000Y-78373000D01*
G37*
%TO.C,C6*%
X95199252Y-86085000D02*
X93776748Y-86085000D01*
X95199252Y-87905000D02*
X93776748Y-87905000D01*
%TO.C,R2*%
X118137000Y-94260936D02*
X118137000Y-94715064D01*
X119607000Y-94260936D02*
X119607000Y-94715064D01*
%TO.C,R12*%
X74660500Y-63371064D02*
X74660500Y-62916936D01*
X76130500Y-63371064D02*
X76130500Y-62916936D01*
%TO.C,Q4*%
X74551000Y-57156500D02*
X76071000Y-57156500D01*
X74551000Y-58156500D02*
X74551000Y-57156500D01*
X74551000Y-60276500D02*
X74551000Y-59276500D01*
X76071000Y-57156500D02*
X76071000Y-57206500D01*
X76071000Y-58326500D02*
X76071000Y-59106500D01*
X76071000Y-60226500D02*
X76071000Y-60276500D01*
X76071000Y-60276500D02*
X74551000Y-60276500D01*
X76611000Y-59096500D02*
X76371000Y-58766500D01*
X76851000Y-58766500D01*
X76611000Y-59096500D01*
G36*
X76611000Y-59096500D02*
G01*
X76371000Y-58766500D01*
X76851000Y-58766500D01*
X76611000Y-59096500D01*
G37*
%TO.C,J1*%
X70642000Y-83258000D02*
X71392000Y-83258000D01*
X71392000Y-80308000D02*
X74442000Y-80308000D01*
X71392000Y-83258000D02*
X71392000Y-80308000D01*
X77292000Y-85808000D02*
X78542000Y-85808000D01*
X77492000Y-80308000D02*
X74442000Y-80308000D01*
X77492000Y-83258000D02*
X77492000Y-80308000D01*
X78242000Y-83258000D02*
X77492000Y-83258000D01*
X78542000Y-85808000D02*
X78542000Y-84558000D01*
X70642000Y-84758000D02*
X72442000Y-84758000D01*
X72442000Y-85508000D01*
X70642000Y-85508000D01*
X70642000Y-84758000D01*
X73942000Y-84758000D02*
X74942000Y-84758000D01*
X74942000Y-85508000D01*
X73942000Y-85508000D01*
X73942000Y-84758000D01*
X76442000Y-84758000D02*
X78242000Y-84758000D01*
X78242000Y-85508000D01*
X76442000Y-85508000D01*
X76442000Y-84758000D01*
X70632000Y-79548000D02*
X78252000Y-79548000D01*
X78252000Y-85518000D01*
X70632000Y-85518000D01*
X70632000Y-79548000D01*
%TD*%
M02*
