%TF.GenerationSoftware,KiCad,Pcbnew,10.0.4*%
%TF.CreationDate,2026-07-06T14:32:58+02:00*%
%TF.ProjectId,spinkovacka,7370696e-6b6f-4766-9163-6b612e6b6963,rev?*%
%TF.SameCoordinates,Original*%
%TF.FileFunction,Soldermask,Bot*%
%TF.FilePolarity,Negative*%
%FSLAX46Y46*%
G04 Gerber Fmt 4.6, Leading zero omitted, Abs format (unit mm)*
G04 Created by KiCad (PCBNEW 10.0.4) date 2026-07-06 14:32:58*
%MOMM*%
%LPD*%
G01*
G04 APERTURE LIST*
G04 APERTURE END LIST*
G36*
X95164381Y-113131493D02*
G01*
X95263855Y-113188925D01*
X95345075Y-113270145D01*
X95402507Y-113369619D01*
X95432236Y-113480568D01*
X95432236Y-113595432D01*
X95402507Y-113706381D01*
X95345075Y-113805855D01*
X95263855Y-113887075D01*
X95164381Y-113944507D01*
X95053432Y-113974236D01*
X94938568Y-113974236D01*
X94827619Y-113944507D01*
X94728145Y-113887075D01*
X94646925Y-113805855D01*
X94589493Y-113706381D01*
X94559764Y-113595432D01*
X94559764Y-113480568D01*
X94589493Y-113369619D01*
X94646925Y-113270145D01*
X94728145Y-113188925D01*
X94827619Y-113131493D01*
X94938568Y-113101764D01*
X95053432Y-113101764D01*
X95164381Y-113131493D01*
G37*
G36*
X83235035Y-83094273D02*
G01*
X83251267Y-83096843D01*
X83269081Y-83097805D01*
X83416054Y-83122943D01*
X83550084Y-83144171D01*
X83564281Y-83148295D01*
X83577508Y-83150558D01*
X83724974Y-83194981D01*
X83856394Y-83233163D01*
X83867105Y-83237798D01*
X83876937Y-83240760D01*
X84023727Y-83305574D01*
X84149136Y-83359843D01*
X84156505Y-83364201D01*
X84163016Y-83367076D01*
X84309302Y-83454565D01*
X84423692Y-83522215D01*
X84427987Y-83525546D01*
X84431392Y-83527583D01*
X84584241Y-83646750D01*
X84675732Y-83717718D01*
X84677374Y-83719360D01*
X84678010Y-83719856D01*
X84899143Y-83940989D01*
X84899638Y-83941624D01*
X84901282Y-83943268D01*
X84972292Y-84034813D01*
X85091416Y-84187607D01*
X85093451Y-84191010D01*
X85096785Y-84195308D01*
X85164470Y-84309757D01*
X85251923Y-84455983D01*
X85254796Y-84462490D01*
X85259157Y-84469864D01*
X85313453Y-84595335D01*
X85378239Y-84742062D01*
X85381199Y-84751888D01*
X85385837Y-84762606D01*
X85424037Y-84894090D01*
X85468441Y-85041491D01*
X85470702Y-85054711D01*
X85474829Y-85068916D01*
X85496068Y-85203018D01*
X85521194Y-85349919D01*
X85522154Y-85367722D01*
X85524727Y-85383965D01*
X85536000Y-85623000D01*
X85536000Y-104623000D01*
X85524727Y-104862035D01*
X85522154Y-104878277D01*
X85521194Y-104896081D01*
X85496069Y-105042975D01*
X85474829Y-105177084D01*
X85470701Y-105191289D01*
X85468441Y-105204508D01*
X85424045Y-105351881D01*
X85385837Y-105483394D01*
X85381198Y-105494113D01*
X85378239Y-105503937D01*
X85313474Y-105650614D01*
X85259157Y-105776136D01*
X85254794Y-105783512D01*
X85251923Y-105790016D01*
X85164523Y-105936152D01*
X85096785Y-106050692D01*
X85093448Y-106054992D01*
X85091416Y-106058392D01*
X84972445Y-106210989D01*
X84901282Y-106302732D01*
X84899634Y-106304379D01*
X84899143Y-106305010D01*
X84678010Y-106526143D01*
X84677379Y-106526634D01*
X84675732Y-106528282D01*
X84583989Y-106599445D01*
X84431392Y-106718416D01*
X84427992Y-106720448D01*
X84423692Y-106723785D01*
X84309152Y-106791523D01*
X84163016Y-106878923D01*
X84156512Y-106881794D01*
X84149136Y-106886157D01*
X84023614Y-106940474D01*
X83876937Y-107005239D01*
X83867113Y-107008198D01*
X83856394Y-107012837D01*
X83724881Y-107051045D01*
X83577508Y-107095441D01*
X83564289Y-107097701D01*
X83550084Y-107101829D01*
X83415968Y-107123070D01*
X83269080Y-107148194D01*
X83251278Y-107149154D01*
X83235035Y-107151727D01*
X82996000Y-107163000D01*
X82756965Y-107151727D01*
X82740723Y-107149154D01*
X82722918Y-107148194D01*
X82576011Y-107123067D01*
X82441916Y-107101829D01*
X82427711Y-107097702D01*
X82414491Y-107095441D01*
X82267090Y-107051037D01*
X82135606Y-107012837D01*
X82124888Y-107008199D01*
X82115062Y-107005239D01*
X81968335Y-106940453D01*
X81842864Y-106886157D01*
X81835490Y-106881796D01*
X81828983Y-106878923D01*
X81682757Y-106791470D01*
X81568308Y-106723785D01*
X81564010Y-106720451D01*
X81560607Y-106718416D01*
X81407813Y-106599292D01*
X81316268Y-106528282D01*
X81314624Y-106526638D01*
X81313989Y-106526143D01*
X81092856Y-106305010D01*
X81092360Y-106304374D01*
X81090718Y-106302732D01*
X81019750Y-106211241D01*
X80900583Y-106058392D01*
X80898546Y-106054987D01*
X80895215Y-106050692D01*
X80827565Y-105936302D01*
X80740076Y-105790016D01*
X80737201Y-105783505D01*
X80732843Y-105776136D01*
X80678574Y-105650727D01*
X80613760Y-105503937D01*
X80610798Y-105494105D01*
X80606163Y-105483394D01*
X80567981Y-105351974D01*
X80523558Y-105204508D01*
X80521295Y-105191281D01*
X80517171Y-105177084D01*
X80495942Y-105043047D01*
X80470805Y-104896080D01*
X80469844Y-104878268D01*
X80467273Y-104862035D01*
X80456000Y-104623000D01*
X80456000Y-85623000D01*
X80467273Y-85383965D01*
X80469843Y-85367732D01*
X80470805Y-85349918D01*
X80495945Y-85202932D01*
X80517171Y-85068916D01*
X80521295Y-85054720D01*
X80523558Y-85041491D01*
X80567989Y-84893997D01*
X80606163Y-84762606D01*
X80610797Y-84751896D01*
X80613760Y-84742062D01*
X80678596Y-84595222D01*
X80732843Y-84469864D01*
X80737199Y-84462497D01*
X80740076Y-84455983D01*
X80827618Y-84309607D01*
X80895215Y-84195308D01*
X80898544Y-84191016D01*
X80900583Y-84187607D01*
X81019903Y-84034560D01*
X81090718Y-83943268D01*
X81092357Y-83941628D01*
X81092856Y-83940989D01*
X81313989Y-83719856D01*
X81314628Y-83719357D01*
X81316268Y-83717718D01*
X81407560Y-83646903D01*
X81560607Y-83527583D01*
X81564016Y-83525544D01*
X81568308Y-83522215D01*
X81682607Y-83454618D01*
X81828983Y-83367076D01*
X81835497Y-83364199D01*
X81842864Y-83359843D01*
X81968222Y-83305596D01*
X82115062Y-83240760D01*
X82124896Y-83237797D01*
X82135606Y-83233163D01*
X82266997Y-83194989D01*
X82414491Y-83150558D01*
X82427720Y-83148295D01*
X82441916Y-83144171D01*
X82575939Y-83122944D01*
X82722919Y-83097805D01*
X82740731Y-83096844D01*
X82756965Y-83094273D01*
X82996000Y-83083000D01*
X83235035Y-83094273D01*
G37*
G36*
X107235035Y-83094273D02*
G01*
X107251267Y-83096843D01*
X107269081Y-83097805D01*
X107416054Y-83122943D01*
X107550084Y-83144171D01*
X107564281Y-83148295D01*
X107577508Y-83150558D01*
X107724974Y-83194981D01*
X107856394Y-83233163D01*
X107867105Y-83237798D01*
X107876937Y-83240760D01*
X108023727Y-83305574D01*
X108149136Y-83359843D01*
X108156505Y-83364201D01*
X108163016Y-83367076D01*
X108309302Y-83454565D01*
X108423692Y-83522215D01*
X108427987Y-83525546D01*
X108431392Y-83527583D01*
X108584241Y-83646750D01*
X108675732Y-83717718D01*
X108677374Y-83719360D01*
X108678010Y-83719856D01*
X108899143Y-83940989D01*
X108899638Y-83941624D01*
X108901282Y-83943268D01*
X108972292Y-84034813D01*
X109091416Y-84187607D01*
X109093451Y-84191010D01*
X109096785Y-84195308D01*
X109164470Y-84309757D01*
X109251923Y-84455983D01*
X109254796Y-84462490D01*
X109259157Y-84469864D01*
X109313453Y-84595335D01*
X109378239Y-84742062D01*
X109381199Y-84751888D01*
X109385837Y-84762606D01*
X109424037Y-84894090D01*
X109468441Y-85041491D01*
X109470702Y-85054711D01*
X109474829Y-85068916D01*
X109496068Y-85203018D01*
X109521194Y-85349919D01*
X109522154Y-85367722D01*
X109524727Y-85383965D01*
X109536000Y-85623000D01*
X109536000Y-104623000D01*
X109524727Y-104862035D01*
X109522154Y-104878277D01*
X109521194Y-104896081D01*
X109496069Y-105042975D01*
X109474829Y-105177084D01*
X109470701Y-105191289D01*
X109468441Y-105204508D01*
X109424045Y-105351881D01*
X109385837Y-105483394D01*
X109381198Y-105494113D01*
X109378239Y-105503937D01*
X109313474Y-105650614D01*
X109259157Y-105776136D01*
X109254794Y-105783512D01*
X109251923Y-105790016D01*
X109164523Y-105936152D01*
X109096785Y-106050692D01*
X109093448Y-106054992D01*
X109091416Y-106058392D01*
X108972445Y-106210989D01*
X108901282Y-106302732D01*
X108899634Y-106304379D01*
X108899143Y-106305010D01*
X108678010Y-106526143D01*
X108677379Y-106526634D01*
X108675732Y-106528282D01*
X108583989Y-106599445D01*
X108431392Y-106718416D01*
X108427992Y-106720448D01*
X108423692Y-106723785D01*
X108309152Y-106791523D01*
X108163016Y-106878923D01*
X108156512Y-106881794D01*
X108149136Y-106886157D01*
X108023614Y-106940474D01*
X107876937Y-107005239D01*
X107867113Y-107008198D01*
X107856394Y-107012837D01*
X107724881Y-107051045D01*
X107577508Y-107095441D01*
X107564289Y-107097701D01*
X107550084Y-107101829D01*
X107415968Y-107123070D01*
X107269080Y-107148194D01*
X107251278Y-107149154D01*
X107235035Y-107151727D01*
X106996000Y-107163000D01*
X106756965Y-107151727D01*
X106740723Y-107149154D01*
X106722918Y-107148194D01*
X106576011Y-107123067D01*
X106441916Y-107101829D01*
X106427711Y-107097702D01*
X106414491Y-107095441D01*
X106267090Y-107051037D01*
X106135606Y-107012837D01*
X106124888Y-107008199D01*
X106115062Y-107005239D01*
X105968335Y-106940453D01*
X105842864Y-106886157D01*
X105835490Y-106881796D01*
X105828983Y-106878923D01*
X105682757Y-106791470D01*
X105568308Y-106723785D01*
X105564010Y-106720451D01*
X105560607Y-106718416D01*
X105407813Y-106599292D01*
X105316268Y-106528282D01*
X105314624Y-106526638D01*
X105313989Y-106526143D01*
X105092856Y-106305010D01*
X105092360Y-106304374D01*
X105090718Y-106302732D01*
X105019750Y-106211241D01*
X104900583Y-106058392D01*
X104898546Y-106054987D01*
X104895215Y-106050692D01*
X104827565Y-105936302D01*
X104740076Y-105790016D01*
X104737201Y-105783505D01*
X104732843Y-105776136D01*
X104678574Y-105650727D01*
X104613760Y-105503937D01*
X104610798Y-105494105D01*
X104606163Y-105483394D01*
X104567981Y-105351974D01*
X104523558Y-105204508D01*
X104521295Y-105191281D01*
X104517171Y-105177084D01*
X104495942Y-105043047D01*
X104470805Y-104896080D01*
X104469844Y-104878268D01*
X104467273Y-104862035D01*
X104456000Y-104623000D01*
X104456000Y-85623000D01*
X104467273Y-85383965D01*
X104469843Y-85367732D01*
X104470805Y-85349918D01*
X104495945Y-85202932D01*
X104517171Y-85068916D01*
X104521295Y-85054720D01*
X104523558Y-85041491D01*
X104567989Y-84893997D01*
X104606163Y-84762606D01*
X104610797Y-84751896D01*
X104613760Y-84742062D01*
X104678596Y-84595222D01*
X104732843Y-84469864D01*
X104737199Y-84462497D01*
X104740076Y-84455983D01*
X104827618Y-84309607D01*
X104895215Y-84195308D01*
X104898544Y-84191016D01*
X104900583Y-84187607D01*
X105019903Y-84034560D01*
X105090718Y-83943268D01*
X105092357Y-83941628D01*
X105092856Y-83940989D01*
X105313989Y-83719856D01*
X105314628Y-83719357D01*
X105316268Y-83717718D01*
X105407560Y-83646903D01*
X105560607Y-83527583D01*
X105564016Y-83525544D01*
X105568308Y-83522215D01*
X105682607Y-83454618D01*
X105828983Y-83367076D01*
X105835497Y-83364199D01*
X105842864Y-83359843D01*
X105968222Y-83305596D01*
X106115062Y-83240760D01*
X106124896Y-83237797D01*
X106135606Y-83233163D01*
X106266997Y-83194989D01*
X106414491Y-83150558D01*
X106427720Y-83148295D01*
X106441916Y-83144171D01*
X106575939Y-83122944D01*
X106722919Y-83097805D01*
X106740731Y-83096844D01*
X106756965Y-83094273D01*
X106996000Y-83083000D01*
X107235035Y-83094273D01*
G37*
G36*
X95114179Y-98488056D02*
G01*
X95124673Y-98488056D01*
X95176367Y-98496243D01*
X95315926Y-98514617D01*
X95349969Y-98523738D01*
X95378850Y-98528313D01*
X95434390Y-98546359D01*
X95523123Y-98570135D01*
X95579743Y-98593587D01*
X95623601Y-98607838D01*
X95664686Y-98628771D01*
X95721310Y-98652226D01*
X95800880Y-98698165D01*
X95852898Y-98724670D01*
X95876546Y-98741851D01*
X95907073Y-98759476D01*
X96018743Y-98845163D01*
X96061095Y-98875934D01*
X96068518Y-98883357D01*
X96077252Y-98890059D01*
X96228940Y-99041747D01*
X96235641Y-99050480D01*
X96243066Y-99057905D01*
X96273840Y-99100262D01*
X96359523Y-99211926D01*
X96377146Y-99242451D01*
X96394330Y-99266102D01*
X96420837Y-99318125D01*
X96466773Y-99397689D01*
X96490224Y-99454307D01*
X96511162Y-99495399D01*
X96525414Y-99539263D01*
X96548864Y-99595876D01*
X96572636Y-99684597D01*
X96590687Y-99740150D01*
X96595262Y-99769037D01*
X96604382Y-99803073D01*
X96622754Y-99942621D01*
X96630944Y-99994327D01*
X96630944Y-100004821D01*
X96632382Y-100015744D01*
X96632382Y-100230255D01*
X96630944Y-100241177D01*
X96630944Y-100251673D01*
X96622753Y-100303383D01*
X96604382Y-100442926D01*
X96595262Y-100476960D01*
X96590687Y-100505850D01*
X96572635Y-100561407D01*
X96548864Y-100650123D01*
X96525416Y-100706731D01*
X96511162Y-100750601D01*
X96490222Y-100791696D01*
X96466773Y-100848310D01*
X96420841Y-100927865D01*
X96394330Y-100979898D01*
X96377143Y-101003552D01*
X96359523Y-101034073D01*
X96273853Y-101145719D01*
X96243066Y-101188095D01*
X96235638Y-101195522D01*
X96228940Y-101204252D01*
X96077252Y-101355940D01*
X96068522Y-101362638D01*
X96061095Y-101370066D01*
X96018719Y-101400853D01*
X95907073Y-101486523D01*
X95876552Y-101504143D01*
X95852898Y-101521330D01*
X95800865Y-101547841D01*
X95721310Y-101593773D01*
X95664696Y-101617222D01*
X95623601Y-101638162D01*
X95579731Y-101652416D01*
X95523123Y-101675864D01*
X95434407Y-101699635D01*
X95378850Y-101717687D01*
X95349960Y-101722262D01*
X95315926Y-101731382D01*
X95176380Y-101749754D01*
X95124673Y-101757944D01*
X95114178Y-101757944D01*
X95103256Y-101759382D01*
X94888744Y-101759382D01*
X94877822Y-101757944D01*
X94867327Y-101757944D01*
X94815621Y-101749754D01*
X94676073Y-101731382D01*
X94642037Y-101722262D01*
X94613150Y-101717687D01*
X94557597Y-101699636D01*
X94468876Y-101675864D01*
X94412263Y-101652414D01*
X94368399Y-101638162D01*
X94327307Y-101617224D01*
X94270689Y-101593773D01*
X94191125Y-101547837D01*
X94139102Y-101521330D01*
X94115451Y-101504146D01*
X94084926Y-101486523D01*
X93973262Y-101400840D01*
X93930905Y-101370066D01*
X93923480Y-101362641D01*
X93914747Y-101355940D01*
X93763059Y-101204252D01*
X93756357Y-101195518D01*
X93748934Y-101188095D01*
X93718163Y-101145743D01*
X93632476Y-101034073D01*
X93614851Y-101003546D01*
X93597670Y-100979898D01*
X93571165Y-100927880D01*
X93525226Y-100848310D01*
X93501771Y-100791686D01*
X93480838Y-100750601D01*
X93466587Y-100706743D01*
X93443135Y-100650123D01*
X93419359Y-100561390D01*
X93401313Y-100505850D01*
X93396738Y-100476969D01*
X93387617Y-100442926D01*
X93369244Y-100303370D01*
X93361056Y-100251673D01*
X93361056Y-100241177D01*
X93359618Y-100230255D01*
X93359618Y-100015744D01*
X93361056Y-100004821D01*
X93361056Y-99994327D01*
X93369243Y-99942634D01*
X93387617Y-99803073D01*
X93396739Y-99769028D01*
X93401313Y-99740150D01*
X93419357Y-99684614D01*
X93443135Y-99595876D01*
X93466589Y-99539252D01*
X93480838Y-99495399D01*
X93501769Y-99454317D01*
X93525226Y-99397689D01*
X93571170Y-99318111D01*
X93597670Y-99266102D01*
X93614848Y-99242457D01*
X93632476Y-99211926D01*
X93718177Y-99100237D01*
X93748934Y-99057905D01*
X93756354Y-99050484D01*
X93763059Y-99041747D01*
X93914747Y-98890059D01*
X93923484Y-98883354D01*
X93930905Y-98875934D01*
X93973237Y-98845177D01*
X94084926Y-98759476D01*
X94115457Y-98741848D01*
X94139102Y-98724670D01*
X94191111Y-98698170D01*
X94270689Y-98652226D01*
X94327317Y-98628769D01*
X94368399Y-98607838D01*
X94412252Y-98593589D01*
X94468876Y-98570135D01*
X94557614Y-98546357D01*
X94613150Y-98528313D01*
X94642028Y-98523739D01*
X94676073Y-98514617D01*
X94815634Y-98496243D01*
X94867327Y-98488056D01*
X94877821Y-98488056D01*
X94888744Y-98486618D01*
X95103256Y-98486618D01*
X95114179Y-98488056D01*
G37*
G36*
X68156112Y-96929881D02*
G01*
X68232979Y-96974260D01*
X68295740Y-97037021D01*
X68340119Y-97113888D01*
X68363091Y-97199621D01*
X68363091Y-97288379D01*
X68340119Y-97374112D01*
X68295740Y-97450979D01*
X68232979Y-97513740D01*
X68156112Y-97558119D01*
X68070379Y-97581091D01*
X67981621Y-97581091D01*
X67895888Y-97558119D01*
X67819021Y-97513740D01*
X67756260Y-97450979D01*
X67711881Y-97374112D01*
X67688909Y-97288379D01*
X67688909Y-97199621D01*
X67711881Y-97113888D01*
X67756260Y-97037021D01*
X67819021Y-96974260D01*
X67895888Y-96929881D01*
X67981621Y-96906909D01*
X68070379Y-96906909D01*
X68156112Y-96929881D01*
G37*
G36*
X69456112Y-96929881D02*
G01*
X69532979Y-96974260D01*
X69595740Y-97037021D01*
X69640119Y-97113888D01*
X69663091Y-97199621D01*
X69663091Y-97288379D01*
X69640119Y-97374112D01*
X69595740Y-97450979D01*
X69532979Y-97513740D01*
X69456112Y-97558119D01*
X69370379Y-97581091D01*
X69281621Y-97581091D01*
X69195888Y-97558119D01*
X69119021Y-97513740D01*
X69056260Y-97450979D01*
X69011881Y-97374112D01*
X68988909Y-97288379D01*
X68988909Y-97199621D01*
X69011881Y-97113888D01*
X69056260Y-97037021D01*
X69119021Y-96974260D01*
X69195888Y-96929881D01*
X69281621Y-96906909D01*
X69370379Y-96906909D01*
X69456112Y-96929881D01*
G37*
G36*
X68156112Y-95629881D02*
G01*
X68232979Y-95674260D01*
X68295740Y-95737021D01*
X68340119Y-95813888D01*
X68363091Y-95899621D01*
X68363091Y-95988379D01*
X68340119Y-96074112D01*
X68295740Y-96150979D01*
X68232979Y-96213740D01*
X68156112Y-96258119D01*
X68070379Y-96281091D01*
X67981621Y-96281091D01*
X67895888Y-96258119D01*
X67819021Y-96213740D01*
X67756260Y-96150979D01*
X67711881Y-96074112D01*
X67688909Y-95988379D01*
X67688909Y-95899621D01*
X67711881Y-95813888D01*
X67756260Y-95737021D01*
X67819021Y-95674260D01*
X67895888Y-95629881D01*
X67981621Y-95606909D01*
X68070379Y-95606909D01*
X68156112Y-95629881D01*
G37*
G36*
X69456112Y-95629881D02*
G01*
X69532979Y-95674260D01*
X69595740Y-95737021D01*
X69640119Y-95813888D01*
X69663091Y-95899621D01*
X69663091Y-95988379D01*
X69640119Y-96074112D01*
X69595740Y-96150979D01*
X69532979Y-96213740D01*
X69456112Y-96258119D01*
X69370379Y-96281091D01*
X69281621Y-96281091D01*
X69195888Y-96258119D01*
X69119021Y-96213740D01*
X69056260Y-96150979D01*
X69011881Y-96074112D01*
X68988909Y-95988379D01*
X68988909Y-95899621D01*
X69011881Y-95813888D01*
X69056260Y-95737021D01*
X69119021Y-95674260D01*
X69195888Y-95629881D01*
X69281621Y-95606909D01*
X69370379Y-95606909D01*
X69456112Y-95629881D01*
G37*
G36*
X76358396Y-82025703D02*
G01*
X76363135Y-82027795D01*
X76365841Y-82028152D01*
X76399695Y-82043938D01*
X76455890Y-82068751D01*
X76531249Y-82144110D01*
X76556070Y-82200325D01*
X76571847Y-82234158D01*
X76572202Y-82236861D01*
X76574297Y-82241604D01*
X76582000Y-82308000D01*
X76582000Y-83808000D01*
X76574297Y-83874396D01*
X76572202Y-83879139D01*
X76571847Y-83881841D01*
X76556079Y-83915655D01*
X76531249Y-83971890D01*
X76455890Y-84047249D01*
X76399655Y-84072079D01*
X76365841Y-84087847D01*
X76363139Y-84088202D01*
X76358396Y-84090297D01*
X76292000Y-84098000D01*
X75092000Y-84098000D01*
X75025604Y-84090297D01*
X75020861Y-84088202D01*
X75018158Y-84087847D01*
X74984325Y-84072070D01*
X74928110Y-84047249D01*
X74852751Y-83971890D01*
X74827938Y-83915695D01*
X74812152Y-83881841D01*
X74811795Y-83879135D01*
X74809703Y-83874396D01*
X74802000Y-83808000D01*
X74802000Y-82308000D01*
X74809703Y-82241604D01*
X74811795Y-82236864D01*
X74812152Y-82234158D01*
X74827947Y-82200285D01*
X74852751Y-82144110D01*
X74928110Y-82068751D01*
X74984285Y-82043947D01*
X75018158Y-82028152D01*
X75020864Y-82027795D01*
X75025604Y-82025703D01*
X75092000Y-82018000D01*
X76292000Y-82018000D01*
X76358396Y-82025703D01*
G37*
G36*
X73450353Y-82056323D02*
G01*
X73611543Y-82123090D01*
X73756610Y-82220021D01*
X73879979Y-82343390D01*
X73976910Y-82488457D01*
X74043677Y-82649647D01*
X74077714Y-82820765D01*
X74082000Y-82908000D01*
X74082000Y-83208000D01*
X74077714Y-83295235D01*
X74043677Y-83466353D01*
X73976910Y-83627543D01*
X73879979Y-83772610D01*
X73756610Y-83895979D01*
X73611543Y-83992910D01*
X73450353Y-84059677D01*
X73279235Y-84093714D01*
X73104765Y-84093714D01*
X72933647Y-84059677D01*
X72772457Y-83992910D01*
X72627390Y-83895979D01*
X72504021Y-83772610D01*
X72407090Y-83627543D01*
X72340323Y-83466353D01*
X72306286Y-83295235D01*
X72302000Y-83208000D01*
X72302000Y-82908000D01*
X72306286Y-82820765D01*
X72340323Y-82649647D01*
X72407090Y-82488457D01*
X72504021Y-82343390D01*
X72627390Y-82220021D01*
X72772457Y-82123090D01*
X72933647Y-82056323D01*
X73104765Y-82022286D01*
X73279235Y-82022286D01*
X73450353Y-82056323D01*
G37*
G36*
X117494396Y-78382703D02*
G01*
X117499135Y-78384795D01*
X117501841Y-78385152D01*
X117535695Y-78400938D01*
X117591890Y-78425751D01*
X117667249Y-78501110D01*
X117692070Y-78557325D01*
X117707847Y-78591158D01*
X117708202Y-78593861D01*
X117710297Y-78598604D01*
X117718000Y-78665000D01*
X117718000Y-79915000D01*
X117710297Y-79981396D01*
X117708202Y-79986139D01*
X117707847Y-79988841D01*
X117692079Y-80022655D01*
X117667249Y-80078890D01*
X117591890Y-80154249D01*
X117535655Y-80179079D01*
X117501841Y-80194847D01*
X117499139Y-80195202D01*
X117494396Y-80197297D01*
X117428000Y-80205000D01*
X116728000Y-80205000D01*
X116661604Y-80197297D01*
X116656861Y-80195202D01*
X116654158Y-80194847D01*
X116620325Y-80179070D01*
X116564110Y-80154249D01*
X116488751Y-80078890D01*
X116463938Y-80022695D01*
X116448152Y-79988841D01*
X116447795Y-79986135D01*
X116445703Y-79981396D01*
X116438000Y-79915000D01*
X116438000Y-78665000D01*
X116445703Y-78598604D01*
X116447795Y-78593864D01*
X116448152Y-78591158D01*
X116463947Y-78557285D01*
X116488751Y-78501110D01*
X116564110Y-78425751D01*
X116620285Y-78400947D01*
X116654158Y-78385152D01*
X116656864Y-78384795D01*
X116661604Y-78382703D01*
X116728000Y-78375000D01*
X117428000Y-78375000D01*
X117494396Y-78382703D01*
G37*
G36*
X115263782Y-78402558D02*
G01*
X115379694Y-78450570D01*
X115484012Y-78520273D01*
X115572727Y-78608988D01*
X115642430Y-78713306D01*
X115690442Y-78829218D01*
X115714918Y-78952269D01*
X115718000Y-79015000D01*
X115718000Y-79565000D01*
X115714918Y-79627731D01*
X115690442Y-79750782D01*
X115642430Y-79866694D01*
X115572727Y-79971012D01*
X115484012Y-80059727D01*
X115379694Y-80129430D01*
X115263782Y-80177442D01*
X115140731Y-80201918D01*
X115015269Y-80201918D01*
X114892218Y-80177442D01*
X114776306Y-80129430D01*
X114671988Y-80059727D01*
X114583273Y-79971012D01*
X114513570Y-79866694D01*
X114465558Y-79750782D01*
X114441082Y-79627731D01*
X114438000Y-79565000D01*
X114438000Y-79015000D01*
X114441082Y-78952269D01*
X114465558Y-78829218D01*
X114513570Y-78713306D01*
X114583273Y-78608988D01*
X114671988Y-78520273D01*
X114776306Y-78450570D01*
X114892218Y-78402558D01*
X115015269Y-78378082D01*
X115140731Y-78378082D01*
X115263782Y-78402558D01*
G37*
G36*
X79627731Y-74005082D02*
G01*
X79750782Y-74029558D01*
X79866694Y-74077570D01*
X79971012Y-74147273D01*
X80059727Y-74235988D01*
X80129430Y-74340306D01*
X80177442Y-74456218D01*
X80201918Y-74579269D01*
X80201918Y-74704731D01*
X80177442Y-74827782D01*
X80129430Y-74943694D01*
X80059727Y-75048012D01*
X79971012Y-75136727D01*
X79866694Y-75206430D01*
X79750782Y-75254442D01*
X79627731Y-75278918D01*
X79565000Y-75282000D01*
X79563767Y-75282000D01*
X79016233Y-75282000D01*
X79015000Y-75282000D01*
X78952269Y-75278918D01*
X78829218Y-75254442D01*
X78713306Y-75206430D01*
X78608988Y-75136727D01*
X78520273Y-75048012D01*
X78450570Y-74943694D01*
X78402558Y-74827782D01*
X78378082Y-74704731D01*
X78378082Y-74579269D01*
X78402558Y-74456218D01*
X78450570Y-74340306D01*
X78520273Y-74235988D01*
X78608988Y-74147273D01*
X78713306Y-74077570D01*
X78829218Y-74029558D01*
X78952269Y-74005082D01*
X79015000Y-74002000D01*
X79565000Y-74002000D01*
X79627731Y-74005082D01*
G37*
G36*
X79627731Y-72005082D02*
G01*
X79750782Y-72029558D01*
X79866694Y-72077570D01*
X79971012Y-72147273D01*
X80059727Y-72235988D01*
X80129430Y-72340306D01*
X80177442Y-72456218D01*
X80201918Y-72579269D01*
X80201918Y-72704731D01*
X80177442Y-72827782D01*
X80129430Y-72943694D01*
X80059727Y-73048012D01*
X79971012Y-73136727D01*
X79866694Y-73206430D01*
X79750782Y-73254442D01*
X79627731Y-73278918D01*
X79565000Y-73282000D01*
X79563767Y-73282000D01*
X79016233Y-73282000D01*
X79015000Y-73282000D01*
X78952269Y-73278918D01*
X78829218Y-73254442D01*
X78713306Y-73206430D01*
X78608988Y-73136727D01*
X78520273Y-73048012D01*
X78450570Y-72943694D01*
X78402558Y-72827782D01*
X78378082Y-72704731D01*
X78378082Y-72579269D01*
X78402558Y-72456218D01*
X78450570Y-72340306D01*
X78520273Y-72235988D01*
X78608988Y-72147273D01*
X78713306Y-72077570D01*
X78829218Y-72029558D01*
X78952269Y-72005082D01*
X79015000Y-72002000D01*
X79565000Y-72002000D01*
X79627731Y-72005082D01*
G37*
G36*
X66614179Y-69488056D02*
G01*
X66624673Y-69488056D01*
X66676367Y-69496243D01*
X66815926Y-69514617D01*
X66849969Y-69523738D01*
X66878850Y-69528313D01*
X66934390Y-69546359D01*
X67023123Y-69570135D01*
X67079743Y-69593587D01*
X67123601Y-69607838D01*
X67164686Y-69628771D01*
X67221310Y-69652226D01*
X67300880Y-69698165D01*
X67352898Y-69724670D01*
X67376546Y-69741851D01*
X67407073Y-69759476D01*
X67518743Y-69845163D01*
X67561095Y-69875934D01*
X67568518Y-69883357D01*
X67577252Y-69890059D01*
X67728940Y-70041747D01*
X67735641Y-70050480D01*
X67743066Y-70057905D01*
X67773840Y-70100262D01*
X67859523Y-70211926D01*
X67877146Y-70242451D01*
X67894330Y-70266102D01*
X67920837Y-70318125D01*
X67966773Y-70397689D01*
X67990224Y-70454307D01*
X68011162Y-70495399D01*
X68025414Y-70539263D01*
X68048864Y-70595876D01*
X68072636Y-70684597D01*
X68090687Y-70740150D01*
X68095262Y-70769037D01*
X68104382Y-70803073D01*
X68122754Y-70942621D01*
X68130944Y-70994327D01*
X68130944Y-71004821D01*
X68132382Y-71015744D01*
X68132382Y-71230255D01*
X68130944Y-71241177D01*
X68130944Y-71251673D01*
X68122753Y-71303383D01*
X68104382Y-71442926D01*
X68095262Y-71476960D01*
X68090687Y-71505850D01*
X68072635Y-71561407D01*
X68048864Y-71650123D01*
X68025416Y-71706731D01*
X68011162Y-71750601D01*
X67990222Y-71791696D01*
X67966773Y-71848310D01*
X67920841Y-71927865D01*
X67894330Y-71979898D01*
X67877143Y-72003552D01*
X67859523Y-72034073D01*
X67773853Y-72145719D01*
X67743066Y-72188095D01*
X67735638Y-72195522D01*
X67728940Y-72204252D01*
X67577252Y-72355940D01*
X67568522Y-72362638D01*
X67561095Y-72370066D01*
X67518719Y-72400853D01*
X67407073Y-72486523D01*
X67376552Y-72504143D01*
X67352898Y-72521330D01*
X67300865Y-72547841D01*
X67221310Y-72593773D01*
X67164696Y-72617222D01*
X67123601Y-72638162D01*
X67079731Y-72652416D01*
X67023123Y-72675864D01*
X66934407Y-72699635D01*
X66878850Y-72717687D01*
X66849960Y-72722262D01*
X66815926Y-72731382D01*
X66676380Y-72749754D01*
X66624673Y-72757944D01*
X66614178Y-72757944D01*
X66603256Y-72759382D01*
X66388744Y-72759382D01*
X66377822Y-72757944D01*
X66367327Y-72757944D01*
X66315621Y-72749754D01*
X66176073Y-72731382D01*
X66142037Y-72722262D01*
X66113150Y-72717687D01*
X66057597Y-72699636D01*
X65968876Y-72675864D01*
X65912263Y-72652414D01*
X65868399Y-72638162D01*
X65827307Y-72617224D01*
X65770689Y-72593773D01*
X65691125Y-72547837D01*
X65639102Y-72521330D01*
X65615451Y-72504146D01*
X65584926Y-72486523D01*
X65473262Y-72400840D01*
X65430905Y-72370066D01*
X65423480Y-72362641D01*
X65414747Y-72355940D01*
X65263059Y-72204252D01*
X65256357Y-72195518D01*
X65248934Y-72188095D01*
X65218163Y-72145743D01*
X65132476Y-72034073D01*
X65114851Y-72003546D01*
X65097670Y-71979898D01*
X65071165Y-71927880D01*
X65025226Y-71848310D01*
X65001771Y-71791686D01*
X64980838Y-71750601D01*
X64966587Y-71706743D01*
X64943135Y-71650123D01*
X64919359Y-71561390D01*
X64901313Y-71505850D01*
X64896738Y-71476969D01*
X64887617Y-71442926D01*
X64869244Y-71303370D01*
X64861056Y-71251673D01*
X64861056Y-71241177D01*
X64859618Y-71230255D01*
X64859618Y-71015744D01*
X64861056Y-71004821D01*
X64861056Y-70994327D01*
X64869243Y-70942634D01*
X64887617Y-70803073D01*
X64896739Y-70769028D01*
X64901313Y-70740150D01*
X64919357Y-70684614D01*
X64943135Y-70595876D01*
X64966589Y-70539252D01*
X64980838Y-70495399D01*
X65001769Y-70454317D01*
X65025226Y-70397689D01*
X65071170Y-70318111D01*
X65097670Y-70266102D01*
X65114848Y-70242457D01*
X65132476Y-70211926D01*
X65218177Y-70100237D01*
X65248934Y-70057905D01*
X65256354Y-70050484D01*
X65263059Y-70041747D01*
X65414747Y-69890059D01*
X65423484Y-69883354D01*
X65430905Y-69875934D01*
X65473237Y-69845177D01*
X65584926Y-69759476D01*
X65615457Y-69741848D01*
X65639102Y-69724670D01*
X65691111Y-69698170D01*
X65770689Y-69652226D01*
X65827317Y-69628769D01*
X65868399Y-69607838D01*
X65912252Y-69593589D01*
X65968876Y-69570135D01*
X66057614Y-69546357D01*
X66113150Y-69528313D01*
X66142028Y-69523739D01*
X66176073Y-69514617D01*
X66315634Y-69496243D01*
X66367327Y-69488056D01*
X66377821Y-69488056D01*
X66388744Y-69486618D01*
X66603256Y-69486618D01*
X66614179Y-69488056D01*
G37*
G36*
X123614179Y-69488056D02*
G01*
X123624673Y-69488056D01*
X123676367Y-69496243D01*
X123815926Y-69514617D01*
X123849969Y-69523738D01*
X123878850Y-69528313D01*
X123934390Y-69546359D01*
X124023123Y-69570135D01*
X124079743Y-69593587D01*
X124123601Y-69607838D01*
X124164686Y-69628771D01*
X124221310Y-69652226D01*
X124300880Y-69698165D01*
X124352898Y-69724670D01*
X124376546Y-69741851D01*
X124407073Y-69759476D01*
X124518743Y-69845163D01*
X124561095Y-69875934D01*
X124568518Y-69883357D01*
X124577252Y-69890059D01*
X124728940Y-70041747D01*
X124735641Y-70050480D01*
X124743066Y-70057905D01*
X124773840Y-70100262D01*
X124859523Y-70211926D01*
X124877146Y-70242451D01*
X124894330Y-70266102D01*
X124920837Y-70318125D01*
X124966773Y-70397689D01*
X124990224Y-70454307D01*
X125011162Y-70495399D01*
X125025414Y-70539263D01*
X125048864Y-70595876D01*
X125072636Y-70684597D01*
X125090687Y-70740150D01*
X125095262Y-70769037D01*
X125104382Y-70803073D01*
X125122754Y-70942621D01*
X125130944Y-70994327D01*
X125130944Y-71004821D01*
X125132382Y-71015744D01*
X125132382Y-71230255D01*
X125130944Y-71241177D01*
X125130944Y-71251673D01*
X125122753Y-71303383D01*
X125104382Y-71442926D01*
X125095262Y-71476960D01*
X125090687Y-71505850D01*
X125072635Y-71561407D01*
X125048864Y-71650123D01*
X125025416Y-71706731D01*
X125011162Y-71750601D01*
X124990222Y-71791696D01*
X124966773Y-71848310D01*
X124920841Y-71927865D01*
X124894330Y-71979898D01*
X124877143Y-72003552D01*
X124859523Y-72034073D01*
X124773853Y-72145719D01*
X124743066Y-72188095D01*
X124735638Y-72195522D01*
X124728940Y-72204252D01*
X124577252Y-72355940D01*
X124568522Y-72362638D01*
X124561095Y-72370066D01*
X124518719Y-72400853D01*
X124407073Y-72486523D01*
X124376552Y-72504143D01*
X124352898Y-72521330D01*
X124300865Y-72547841D01*
X124221310Y-72593773D01*
X124164696Y-72617222D01*
X124123601Y-72638162D01*
X124079731Y-72652416D01*
X124023123Y-72675864D01*
X123934407Y-72699635D01*
X123878850Y-72717687D01*
X123849960Y-72722262D01*
X123815926Y-72731382D01*
X123676380Y-72749754D01*
X123624673Y-72757944D01*
X123614178Y-72757944D01*
X123603256Y-72759382D01*
X123388744Y-72759382D01*
X123377822Y-72757944D01*
X123367327Y-72757944D01*
X123315621Y-72749754D01*
X123176073Y-72731382D01*
X123142037Y-72722262D01*
X123113150Y-72717687D01*
X123057597Y-72699636D01*
X122968876Y-72675864D01*
X122912263Y-72652414D01*
X122868399Y-72638162D01*
X122827307Y-72617224D01*
X122770689Y-72593773D01*
X122691125Y-72547837D01*
X122639102Y-72521330D01*
X122615451Y-72504146D01*
X122584926Y-72486523D01*
X122473262Y-72400840D01*
X122430905Y-72370066D01*
X122423480Y-72362641D01*
X122414747Y-72355940D01*
X122263059Y-72204252D01*
X122256357Y-72195518D01*
X122248934Y-72188095D01*
X122218163Y-72145743D01*
X122132476Y-72034073D01*
X122114851Y-72003546D01*
X122097670Y-71979898D01*
X122071165Y-71927880D01*
X122025226Y-71848310D01*
X122001771Y-71791686D01*
X121980838Y-71750601D01*
X121966587Y-71706743D01*
X121943135Y-71650123D01*
X121919359Y-71561390D01*
X121901313Y-71505850D01*
X121896738Y-71476969D01*
X121887617Y-71442926D01*
X121869244Y-71303370D01*
X121861056Y-71251673D01*
X121861056Y-71241177D01*
X121859618Y-71230255D01*
X121859618Y-71015744D01*
X121861056Y-71004821D01*
X121861056Y-70994327D01*
X121869243Y-70942634D01*
X121887617Y-70803073D01*
X121896739Y-70769028D01*
X121901313Y-70740150D01*
X121919357Y-70684614D01*
X121943135Y-70595876D01*
X121966589Y-70539252D01*
X121980838Y-70495399D01*
X122001769Y-70454317D01*
X122025226Y-70397689D01*
X122071170Y-70318111D01*
X122097670Y-70266102D01*
X122114848Y-70242457D01*
X122132476Y-70211926D01*
X122218177Y-70100237D01*
X122248934Y-70057905D01*
X122256354Y-70050484D01*
X122263059Y-70041747D01*
X122414747Y-69890059D01*
X122423484Y-69883354D01*
X122430905Y-69875934D01*
X122473237Y-69845177D01*
X122584926Y-69759476D01*
X122615457Y-69741848D01*
X122639102Y-69724670D01*
X122691111Y-69698170D01*
X122770689Y-69652226D01*
X122827317Y-69628769D01*
X122868399Y-69607838D01*
X122912252Y-69593589D01*
X122968876Y-69570135D01*
X123057614Y-69546357D01*
X123113150Y-69528313D01*
X123142028Y-69523739D01*
X123176073Y-69514617D01*
X123315634Y-69496243D01*
X123367327Y-69488056D01*
X123377821Y-69488056D01*
X123388744Y-69486618D01*
X123603256Y-69486618D01*
X123614179Y-69488056D01*
G37*
G36*
X79627731Y-70005082D02*
G01*
X79750782Y-70029558D01*
X79866694Y-70077570D01*
X79971012Y-70147273D01*
X80059727Y-70235988D01*
X80129430Y-70340306D01*
X80177442Y-70456218D01*
X80201918Y-70579269D01*
X80201918Y-70704731D01*
X80177442Y-70827782D01*
X80129430Y-70943694D01*
X80059727Y-71048012D01*
X79971012Y-71136727D01*
X79866694Y-71206430D01*
X79750782Y-71254442D01*
X79627731Y-71278918D01*
X79565000Y-71282000D01*
X79563767Y-71282000D01*
X79016233Y-71282000D01*
X79015000Y-71282000D01*
X78952269Y-71278918D01*
X78829218Y-71254442D01*
X78713306Y-71206430D01*
X78608988Y-71136727D01*
X78520273Y-71048012D01*
X78450570Y-70943694D01*
X78402558Y-70827782D01*
X78378082Y-70704731D01*
X78378082Y-70579269D01*
X78402558Y-70456218D01*
X78450570Y-70340306D01*
X78520273Y-70235988D01*
X78608988Y-70147273D01*
X78713306Y-70077570D01*
X78829218Y-70029558D01*
X78952269Y-70005082D01*
X79015000Y-70002000D01*
X79565000Y-70002000D01*
X79627731Y-70005082D01*
G37*
G36*
X79981396Y-68009703D02*
G01*
X79986135Y-68011795D01*
X79988841Y-68012152D01*
X80022695Y-68027938D01*
X80078890Y-68052751D01*
X80154249Y-68128110D01*
X80179070Y-68184325D01*
X80194847Y-68218158D01*
X80195202Y-68220861D01*
X80197297Y-68225604D01*
X80205000Y-68292000D01*
X80205000Y-68992000D01*
X80197297Y-69058396D01*
X80195202Y-69063139D01*
X80194847Y-69065841D01*
X80179079Y-69099655D01*
X80154249Y-69155890D01*
X80078890Y-69231249D01*
X80022655Y-69256079D01*
X79988841Y-69271847D01*
X79986139Y-69272202D01*
X79981396Y-69274297D01*
X79915000Y-69282000D01*
X78665000Y-69282000D01*
X78598604Y-69274297D01*
X78593861Y-69272202D01*
X78591158Y-69271847D01*
X78557325Y-69256070D01*
X78501110Y-69231249D01*
X78425751Y-69155890D01*
X78400938Y-69099695D01*
X78385152Y-69065841D01*
X78384795Y-69063135D01*
X78382703Y-69058396D01*
X78375000Y-68992000D01*
X78375000Y-68292000D01*
X78382703Y-68225604D01*
X78384795Y-68220864D01*
X78385152Y-68218158D01*
X78400947Y-68184285D01*
X78425751Y-68128110D01*
X78501110Y-68052751D01*
X78557285Y-68027947D01*
X78591158Y-68012152D01*
X78593864Y-68011795D01*
X78598604Y-68009703D01*
X78665000Y-68002000D01*
X79915000Y-68002000D01*
X79981396Y-68009703D01*
G37*
G36*
X106134112Y-57130881D02*
G01*
X106210979Y-57175260D01*
X106273740Y-57238021D01*
X106318119Y-57314888D01*
X106341091Y-57400621D01*
X106341091Y-57489379D01*
X106318119Y-57575112D01*
X106273740Y-57651979D01*
X106210979Y-57714740D01*
X106134112Y-57759119D01*
X106048379Y-57782091D01*
X105959621Y-57782091D01*
X105873888Y-57759119D01*
X105797021Y-57714740D01*
X105734260Y-57651979D01*
X105689881Y-57575112D01*
X105666909Y-57489379D01*
X105666909Y-57400621D01*
X105689881Y-57314888D01*
X105734260Y-57238021D01*
X105797021Y-57175260D01*
X105873888Y-57130881D01*
X105959621Y-57107909D01*
X106048379Y-57107909D01*
X106134112Y-57130881D01*
G37*
G36*
X107534112Y-57130881D02*
G01*
X107610979Y-57175260D01*
X107673740Y-57238021D01*
X107718119Y-57314888D01*
X107741091Y-57400621D01*
X107741091Y-57489379D01*
X107718119Y-57575112D01*
X107673740Y-57651979D01*
X107610979Y-57714740D01*
X107534112Y-57759119D01*
X107448379Y-57782091D01*
X107359621Y-57782091D01*
X107273888Y-57759119D01*
X107197021Y-57714740D01*
X107134260Y-57651979D01*
X107089881Y-57575112D01*
X107066909Y-57489379D01*
X107066909Y-57400621D01*
X107089881Y-57314888D01*
X107134260Y-57238021D01*
X107197021Y-57175260D01*
X107273888Y-57130881D01*
X107359621Y-57107909D01*
X107448379Y-57107909D01*
X107534112Y-57130881D01*
G37*
G36*
X105434112Y-56430881D02*
G01*
X105510979Y-56475260D01*
X105573740Y-56538021D01*
X105618119Y-56614888D01*
X105641091Y-56700621D01*
X105641091Y-56789379D01*
X105618119Y-56875112D01*
X105573740Y-56951979D01*
X105510979Y-57014740D01*
X105434112Y-57059119D01*
X105348379Y-57082091D01*
X105259621Y-57082091D01*
X105173888Y-57059119D01*
X105097021Y-57014740D01*
X105034260Y-56951979D01*
X104989881Y-56875112D01*
X104966909Y-56789379D01*
X104966909Y-56700621D01*
X104989881Y-56614888D01*
X105034260Y-56538021D01*
X105097021Y-56475260D01*
X105173888Y-56430881D01*
X105259621Y-56407909D01*
X105348379Y-56407909D01*
X105434112Y-56430881D01*
G37*
G36*
X106834112Y-56430881D02*
G01*
X106910979Y-56475260D01*
X106973740Y-56538021D01*
X107018119Y-56614888D01*
X107041091Y-56700621D01*
X107041091Y-56789379D01*
X107018119Y-56875112D01*
X106973740Y-56951979D01*
X106910979Y-57014740D01*
X106834112Y-57059119D01*
X106748379Y-57082091D01*
X106659621Y-57082091D01*
X106573888Y-57059119D01*
X106497021Y-57014740D01*
X106434260Y-56951979D01*
X106389881Y-56875112D01*
X106366909Y-56789379D01*
X106366909Y-56700621D01*
X106389881Y-56614888D01*
X106434260Y-56538021D01*
X106497021Y-56475260D01*
X106573888Y-56430881D01*
X106659621Y-56407909D01*
X106748379Y-56407909D01*
X106834112Y-56430881D01*
G37*
G36*
X108234112Y-56430881D02*
G01*
X108310979Y-56475260D01*
X108373740Y-56538021D01*
X108418119Y-56614888D01*
X108441091Y-56700621D01*
X108441091Y-56789379D01*
X108418119Y-56875112D01*
X108373740Y-56951979D01*
X108310979Y-57014740D01*
X108234112Y-57059119D01*
X108148379Y-57082091D01*
X108059621Y-57082091D01*
X107973888Y-57059119D01*
X107897021Y-57014740D01*
X107834260Y-56951979D01*
X107789881Y-56875112D01*
X107766909Y-56789379D01*
X107766909Y-56700621D01*
X107789881Y-56614888D01*
X107834260Y-56538021D01*
X107897021Y-56475260D01*
X107973888Y-56430881D01*
X108059621Y-56407909D01*
X108148379Y-56407909D01*
X108234112Y-56430881D01*
G37*
G36*
X106134112Y-55730881D02*
G01*
X106210979Y-55775260D01*
X106273740Y-55838021D01*
X106318119Y-55914888D01*
X106341091Y-56000621D01*
X106341091Y-56089379D01*
X106318119Y-56175112D01*
X106273740Y-56251979D01*
X106210979Y-56314740D01*
X106134112Y-56359119D01*
X106048379Y-56382091D01*
X105959621Y-56382091D01*
X105873888Y-56359119D01*
X105797021Y-56314740D01*
X105734260Y-56251979D01*
X105689881Y-56175112D01*
X105666909Y-56089379D01*
X105666909Y-56000621D01*
X105689881Y-55914888D01*
X105734260Y-55838021D01*
X105797021Y-55775260D01*
X105873888Y-55730881D01*
X105959621Y-55707909D01*
X106048379Y-55707909D01*
X106134112Y-55730881D01*
G37*
G36*
X107534112Y-55730881D02*
G01*
X107610979Y-55775260D01*
X107673740Y-55838021D01*
X107718119Y-55914888D01*
X107741091Y-56000621D01*
X107741091Y-56089379D01*
X107718119Y-56175112D01*
X107673740Y-56251979D01*
X107610979Y-56314740D01*
X107534112Y-56359119D01*
X107448379Y-56382091D01*
X107359621Y-56382091D01*
X107273888Y-56359119D01*
X107197021Y-56314740D01*
X107134260Y-56251979D01*
X107089881Y-56175112D01*
X107066909Y-56089379D01*
X107066909Y-56000621D01*
X107089881Y-55914888D01*
X107134260Y-55838021D01*
X107197021Y-55775260D01*
X107273888Y-55730881D01*
X107359621Y-55707909D01*
X107448379Y-55707909D01*
X107534112Y-55730881D01*
G37*
G36*
X105434112Y-55030881D02*
G01*
X105510979Y-55075260D01*
X105573740Y-55138021D01*
X105618119Y-55214888D01*
X105641091Y-55300621D01*
X105641091Y-55389379D01*
X105618119Y-55475112D01*
X105573740Y-55551979D01*
X105510979Y-55614740D01*
X105434112Y-55659119D01*
X105348379Y-55682091D01*
X105259621Y-55682091D01*
X105173888Y-55659119D01*
X105097021Y-55614740D01*
X105034260Y-55551979D01*
X104989881Y-55475112D01*
X104966909Y-55389379D01*
X104966909Y-55300621D01*
X104989881Y-55214888D01*
X105034260Y-55138021D01*
X105097021Y-55075260D01*
X105173888Y-55030881D01*
X105259621Y-55007909D01*
X105348379Y-55007909D01*
X105434112Y-55030881D01*
G37*
G36*
X106834112Y-55030881D02*
G01*
X106910979Y-55075260D01*
X106973740Y-55138021D01*
X107018119Y-55214888D01*
X107041091Y-55300621D01*
X107041091Y-55389379D01*
X107018119Y-55475112D01*
X106973740Y-55551979D01*
X106910979Y-55614740D01*
X106834112Y-55659119D01*
X106748379Y-55682091D01*
X106659621Y-55682091D01*
X106573888Y-55659119D01*
X106497021Y-55614740D01*
X106434260Y-55551979D01*
X106389881Y-55475112D01*
X106366909Y-55389379D01*
X106366909Y-55300621D01*
X106389881Y-55214888D01*
X106434260Y-55138021D01*
X106497021Y-55075260D01*
X106573888Y-55030881D01*
X106659621Y-55007909D01*
X106748379Y-55007909D01*
X106834112Y-55030881D01*
G37*
G36*
X108234112Y-55030881D02*
G01*
X108310979Y-55075260D01*
X108373740Y-55138021D01*
X108418119Y-55214888D01*
X108441091Y-55300621D01*
X108441091Y-55389379D01*
X108418119Y-55475112D01*
X108373740Y-55551979D01*
X108310979Y-55614740D01*
X108234112Y-55659119D01*
X108148379Y-55682091D01*
X108059621Y-55682091D01*
X107973888Y-55659119D01*
X107897021Y-55614740D01*
X107834260Y-55551979D01*
X107789881Y-55475112D01*
X107766909Y-55389379D01*
X107766909Y-55300621D01*
X107789881Y-55214888D01*
X107834260Y-55138021D01*
X107897021Y-55075260D01*
X107973888Y-55030881D01*
X108059621Y-55007909D01*
X108148379Y-55007909D01*
X108234112Y-55030881D01*
G37*
G36*
X106134112Y-54330881D02*
G01*
X106210979Y-54375260D01*
X106273740Y-54438021D01*
X106318119Y-54514888D01*
X106341091Y-54600621D01*
X106341091Y-54689379D01*
X106318119Y-54775112D01*
X106273740Y-54851979D01*
X106210979Y-54914740D01*
X106134112Y-54959119D01*
X106048379Y-54982091D01*
X105959621Y-54982091D01*
X105873888Y-54959119D01*
X105797021Y-54914740D01*
X105734260Y-54851979D01*
X105689881Y-54775112D01*
X105666909Y-54689379D01*
X105666909Y-54600621D01*
X105689881Y-54514888D01*
X105734260Y-54438021D01*
X105797021Y-54375260D01*
X105873888Y-54330881D01*
X105959621Y-54307909D01*
X106048379Y-54307909D01*
X106134112Y-54330881D01*
G37*
G36*
X107534112Y-54330881D02*
G01*
X107610979Y-54375260D01*
X107673740Y-54438021D01*
X107718119Y-54514888D01*
X107741091Y-54600621D01*
X107741091Y-54689379D01*
X107718119Y-54775112D01*
X107673740Y-54851979D01*
X107610979Y-54914740D01*
X107534112Y-54959119D01*
X107448379Y-54982091D01*
X107359621Y-54982091D01*
X107273888Y-54959119D01*
X107197021Y-54914740D01*
X107134260Y-54851979D01*
X107089881Y-54775112D01*
X107066909Y-54689379D01*
X107066909Y-54600621D01*
X107089881Y-54514888D01*
X107134260Y-54438021D01*
X107197021Y-54375260D01*
X107273888Y-54330881D01*
X107359621Y-54307909D01*
X107448379Y-54307909D01*
X107534112Y-54330881D01*
G37*
G36*
X84156396Y-53109703D02*
G01*
X84161135Y-53111795D01*
X84163841Y-53112152D01*
X84197695Y-53127938D01*
X84253890Y-53152751D01*
X84329249Y-53228110D01*
X84354070Y-53284325D01*
X84369847Y-53318158D01*
X84370202Y-53320861D01*
X84372297Y-53325604D01*
X84380000Y-53392000D01*
X84380000Y-54642000D01*
X84372297Y-54708396D01*
X84370202Y-54713139D01*
X84369847Y-54715841D01*
X84354079Y-54749655D01*
X84329249Y-54805890D01*
X84253890Y-54881249D01*
X84197655Y-54906079D01*
X84163841Y-54921847D01*
X84161139Y-54922202D01*
X84156396Y-54924297D01*
X84090000Y-54932000D01*
X83390000Y-54932000D01*
X83323604Y-54924297D01*
X83318861Y-54922202D01*
X83316158Y-54921847D01*
X83282325Y-54906070D01*
X83226110Y-54881249D01*
X83150751Y-54805890D01*
X83125938Y-54749695D01*
X83110152Y-54715841D01*
X83109795Y-54713135D01*
X83107703Y-54708396D01*
X83100000Y-54642000D01*
X83100000Y-53392000D01*
X83107703Y-53325604D01*
X83109795Y-53320864D01*
X83110152Y-53318158D01*
X83125947Y-53284285D01*
X83150751Y-53228110D01*
X83226110Y-53152751D01*
X83282285Y-53127947D01*
X83316158Y-53112152D01*
X83318864Y-53111795D01*
X83323604Y-53109703D01*
X83390000Y-53102000D01*
X84090000Y-53102000D01*
X84156396Y-53109703D01*
G37*
G36*
X73925782Y-53129558D02*
G01*
X74041694Y-53177570D01*
X74146012Y-53247273D01*
X74234727Y-53335988D01*
X74304430Y-53440306D01*
X74352442Y-53556218D01*
X74376918Y-53679269D01*
X74380000Y-53742000D01*
X74380000Y-54292000D01*
X74376918Y-54354731D01*
X74352442Y-54477782D01*
X74304430Y-54593694D01*
X74234727Y-54698012D01*
X74146012Y-54786727D01*
X74041694Y-54856430D01*
X73925782Y-54904442D01*
X73802731Y-54928918D01*
X73677269Y-54928918D01*
X73554218Y-54904442D01*
X73438306Y-54856430D01*
X73333988Y-54786727D01*
X73245273Y-54698012D01*
X73175570Y-54593694D01*
X73127558Y-54477782D01*
X73103082Y-54354731D01*
X73100000Y-54292000D01*
X73100000Y-53742000D01*
X73103082Y-53679269D01*
X73127558Y-53556218D01*
X73175570Y-53440306D01*
X73245273Y-53335988D01*
X73333988Y-53247273D01*
X73438306Y-53177570D01*
X73554218Y-53129558D01*
X73677269Y-53105082D01*
X73802731Y-53105082D01*
X73925782Y-53129558D01*
G37*
G36*
X75925782Y-53129558D02*
G01*
X76041694Y-53177570D01*
X76146012Y-53247273D01*
X76234727Y-53335988D01*
X76304430Y-53440306D01*
X76352442Y-53556218D01*
X76376918Y-53679269D01*
X76380000Y-53742000D01*
X76380000Y-54292000D01*
X76376918Y-54354731D01*
X76352442Y-54477782D01*
X76304430Y-54593694D01*
X76234727Y-54698012D01*
X76146012Y-54786727D01*
X76041694Y-54856430D01*
X75925782Y-54904442D01*
X75802731Y-54928918D01*
X75677269Y-54928918D01*
X75554218Y-54904442D01*
X75438306Y-54856430D01*
X75333988Y-54786727D01*
X75245273Y-54698012D01*
X75175570Y-54593694D01*
X75127558Y-54477782D01*
X75103082Y-54354731D01*
X75100000Y-54292000D01*
X75100000Y-53742000D01*
X75103082Y-53679269D01*
X75127558Y-53556218D01*
X75175570Y-53440306D01*
X75245273Y-53335988D01*
X75333988Y-53247273D01*
X75438306Y-53177570D01*
X75554218Y-53129558D01*
X75677269Y-53105082D01*
X75802731Y-53105082D01*
X75925782Y-53129558D01*
G37*
G36*
X77925782Y-53129558D02*
G01*
X78041694Y-53177570D01*
X78146012Y-53247273D01*
X78234727Y-53335988D01*
X78304430Y-53440306D01*
X78352442Y-53556218D01*
X78376918Y-53679269D01*
X78380000Y-53742000D01*
X78380000Y-54292000D01*
X78376918Y-54354731D01*
X78352442Y-54477782D01*
X78304430Y-54593694D01*
X78234727Y-54698012D01*
X78146012Y-54786727D01*
X78041694Y-54856430D01*
X77925782Y-54904442D01*
X77802731Y-54928918D01*
X77677269Y-54928918D01*
X77554218Y-54904442D01*
X77438306Y-54856430D01*
X77333988Y-54786727D01*
X77245273Y-54698012D01*
X77175570Y-54593694D01*
X77127558Y-54477782D01*
X77103082Y-54354731D01*
X77100000Y-54292000D01*
X77100000Y-53742000D01*
X77103082Y-53679269D01*
X77127558Y-53556218D01*
X77175570Y-53440306D01*
X77245273Y-53335988D01*
X77333988Y-53247273D01*
X77438306Y-53177570D01*
X77554218Y-53129558D01*
X77677269Y-53105082D01*
X77802731Y-53105082D01*
X77925782Y-53129558D01*
G37*
G36*
X79925782Y-53129558D02*
G01*
X80041694Y-53177570D01*
X80146012Y-53247273D01*
X80234727Y-53335988D01*
X80304430Y-53440306D01*
X80352442Y-53556218D01*
X80376918Y-53679269D01*
X80380000Y-53742000D01*
X80380000Y-54292000D01*
X80376918Y-54354731D01*
X80352442Y-54477782D01*
X80304430Y-54593694D01*
X80234727Y-54698012D01*
X80146012Y-54786727D01*
X80041694Y-54856430D01*
X79925782Y-54904442D01*
X79802731Y-54928918D01*
X79677269Y-54928918D01*
X79554218Y-54904442D01*
X79438306Y-54856430D01*
X79333988Y-54786727D01*
X79245273Y-54698012D01*
X79175570Y-54593694D01*
X79127558Y-54477782D01*
X79103082Y-54354731D01*
X79100000Y-54292000D01*
X79100000Y-53742000D01*
X79103082Y-53679269D01*
X79127558Y-53556218D01*
X79175570Y-53440306D01*
X79245273Y-53335988D01*
X79333988Y-53247273D01*
X79438306Y-53177570D01*
X79554218Y-53129558D01*
X79677269Y-53105082D01*
X79802731Y-53105082D01*
X79925782Y-53129558D01*
G37*
G36*
X81925782Y-53129558D02*
G01*
X82041694Y-53177570D01*
X82146012Y-53247273D01*
X82234727Y-53335988D01*
X82304430Y-53440306D01*
X82352442Y-53556218D01*
X82376918Y-53679269D01*
X82380000Y-53742000D01*
X82380000Y-54292000D01*
X82376918Y-54354731D01*
X82352442Y-54477782D01*
X82304430Y-54593694D01*
X82234727Y-54698012D01*
X82146012Y-54786727D01*
X82041694Y-54856430D01*
X81925782Y-54904442D01*
X81802731Y-54928918D01*
X81677269Y-54928918D01*
X81554218Y-54904442D01*
X81438306Y-54856430D01*
X81333988Y-54786727D01*
X81245273Y-54698012D01*
X81175570Y-54593694D01*
X81127558Y-54477782D01*
X81103082Y-54354731D01*
X81100000Y-54292000D01*
X81100000Y-53742000D01*
X81103082Y-53679269D01*
X81127558Y-53556218D01*
X81175570Y-53440306D01*
X81245273Y-53335988D01*
X81333988Y-53247273D01*
X81438306Y-53177570D01*
X81554218Y-53129558D01*
X81677269Y-53105082D01*
X81802731Y-53105082D01*
X81925782Y-53129558D01*
G37*
M02*
