%TF.GenerationSoftware,KiCad,Pcbnew,10.0.4*%
%TF.CreationDate,2026-07-06T14:32:58+02:00*%
%TF.ProjectId,spinkovacka,7370696e-6b6f-4766-9163-6b612e6b6963,rev?*%
%TF.SameCoordinates,Original*%
%TF.FileFunction,Paste,Top*%
%TF.FilePolarity,Positive*%
%FSLAX46Y46*%
G04 Gerber Fmt 4.6, Leading zero omitted, Abs format (unit mm)*
G04 Created by KiCad (PCBNEW 10.0.4) date 2026-07-06 14:32:58*
%MOMM*%
%LPD*%
G01*
G04 APERTURE LIST*
G04 Aperture macros list*
%AMRoundRect*
0 Rectangle with rounded corners*
0 $1 Rounding radius*
0 $2 $3 $4 $5 $6 $7 $8 $9 X,Y pos of 4 corners*
0 Add a 4 corners polygon primitive as box body*
4,1,4,$2,$3,$4,$5,$6,$7,$8,$9,$2,$3,0*
0 Add four circle primitives for the rounded corners*
1,1,$1+$1,$2,$3*
1,1,$1+$1,$4,$5*
1,1,$1+$1,$6,$7*
1,1,$1+$1,$8,$9*
0 Add four rect primitives between the rounded corners*
20,1,$1+$1,$2,$3,$4,$5,0*
20,1,$1+$1,$4,$5,$6,$7,0*
20,1,$1+$1,$6,$7,$8,$9,0*
20,1,$1+$1,$8,$9,$2,$3,0*%
G04 Aperture macros list end*
%ADD10RoundRect,0.250000X-0.295000X-0.435000X0.295000X-0.435000X0.295000X0.435000X-0.295000X0.435000X0*%
%ADD11RoundRect,0.150000X-0.737500X-0.150000X0.737500X-0.150000X0.737500X0.150000X-0.737500X0.150000X0*%
%ADD12RoundRect,0.250000X0.325000X0.650000X-0.325000X0.650000X-0.325000X-0.650000X0.325000X-0.650000X0*%
%ADD13RoundRect,0.250000X0.400000X0.750000X-0.400000X0.750000X-0.400000X-0.750000X0.400000X-0.750000X0*%
%ADD14RoundRect,0.250000X0.750000X0.750000X-0.750000X0.750000X-0.750000X-0.750000X0.750000X-0.750000X0*%
%ADD15RoundRect,0.250000X0.450000X-0.262500X0.450000X0.262500X-0.450000X0.262500X-0.450000X-0.262500X0*%
%ADD16RoundRect,0.250000X-0.450000X0.262500X-0.450000X-0.262500X0.450000X-0.262500X0.450000X0.262500X0*%
%ADD17RoundRect,0.150000X0.587500X0.150000X-0.587500X0.150000X-0.587500X-0.150000X0.587500X-0.150000X0*%
%ADD18RoundRect,0.250000X0.262500X0.450000X-0.262500X0.450000X-0.262500X-0.450000X0.262500X-0.450000X0*%
%ADD19RoundRect,0.250000X-0.262500X-0.450000X0.262500X-0.450000X0.262500X0.450000X-0.262500X0.450000X0*%
%ADD20RoundRect,0.250000X-1.000000X-1.550000X1.000000X-1.550000X1.000000X1.550000X-1.000000X1.550000X0*%
%ADD21RoundRect,0.250000X-0.650000X0.325000X-0.650000X-0.325000X0.650000X-0.325000X0.650000X0.325000X0*%
%ADD22R,0.900000X1.700000*%
%ADD23R,1.200000X1.200000*%
%ADD24RoundRect,0.250000X0.375000X0.625000X-0.375000X0.625000X-0.375000X-0.625000X0.375000X-0.625000X0*%
%ADD25RoundRect,0.150000X-0.587500X-0.150000X0.587500X-0.150000X0.587500X0.150000X-0.587500X0.150000X0*%
%ADD26RoundRect,0.250000X1.500000X0.550000X-1.500000X0.550000X-1.500000X-0.550000X1.500000X-0.550000X0*%
%ADD27RoundRect,0.250000X-0.325000X-1.100000X0.325000X-1.100000X0.325000X1.100000X-0.325000X1.100000X0*%
%ADD28RoundRect,0.150000X-0.512500X-0.150000X0.512500X-0.150000X0.512500X0.150000X-0.512500X0.150000X0*%
%ADD29RoundRect,0.250000X-1.275000X-1.125000X1.275000X-1.125000X1.275000X1.125000X-1.275000X1.125000X0*%
%ADD30RoundRect,0.250000X-0.850000X-0.350000X0.850000X-0.350000X0.850000X0.350000X-0.850000X0.350000X0*%
%ADD31R,1.500000X0.900000*%
%ADD32R,0.900000X1.500000*%
%ADD33R,0.900000X0.900000*%
%ADD34RoundRect,0.250000X0.650000X-0.325000X0.650000X0.325000X-0.650000X0.325000X-0.650000X-0.325000X0*%
G04 APERTURE END LIST*
D10*
%TO.C,U2*%
X67996000Y-95744000D03*
X67996000Y-97444000D03*
X69356000Y-95744000D03*
X69356000Y-97444000D03*
D11*
X66113500Y-94689000D03*
X66113500Y-95959000D03*
X66113500Y-97229000D03*
X66113500Y-98499000D03*
X71238500Y-98499000D03*
X71238500Y-97229000D03*
X71238500Y-95959000D03*
X71238500Y-94689000D03*
%TD*%
D12*
%TO.C,C1*%
X73738000Y-101346000D03*
X70788000Y-101346000D03*
%TD*%
D13*
%TO.C,RV1*%
X65525000Y-88360000D03*
D14*
X66675000Y-84360000D03*
D13*
X67825000Y-88360000D03*
%TD*%
D15*
%TO.C,R3*%
X121158000Y-95429500D03*
X121158000Y-93604500D03*
%TD*%
D16*
%TO.C,R8*%
X74972000Y-71731500D03*
X74972000Y-73556500D03*
%TD*%
D17*
%TO.C,D4*%
X121968500Y-85532000D03*
X121968500Y-83632000D03*
X120093500Y-84582000D03*
%TD*%
D16*
%TO.C,R11*%
X79121000Y-57611000D03*
X79121000Y-59436000D03*
%TD*%
D18*
%TO.C,R5*%
X112268000Y-72009000D03*
X110443000Y-72009000D03*
%TD*%
D19*
%TO.C,R1*%
X66016500Y-91186000D03*
X67841500Y-91186000D03*
%TD*%
D12*
%TO.C,C4*%
X92225000Y-76000000D03*
X89275000Y-76000000D03*
%TD*%
D20*
%TO.C,L1*%
X93997000Y-79658000D03*
X98697000Y-79658000D03*
%TD*%
D21*
%TO.C,C3*%
X65994000Y-101297000D03*
X65994000Y-104247000D03*
%TD*%
D16*
%TO.C,R13*%
X70358000Y-89384500D03*
X70358000Y-91209500D03*
%TD*%
D12*
%TO.C,C8*%
X111130500Y-69342000D03*
X108180500Y-69342000D03*
%TD*%
D16*
%TO.C,R10*%
X92075000Y-50014500D03*
X92075000Y-51839500D03*
%TD*%
D15*
%TO.C,R4*%
X97028000Y-64158500D03*
X97028000Y-62333500D03*
%TD*%
D22*
%TO.C,SW1*%
X96696000Y-113538000D03*
X93296000Y-113538000D03*
%TD*%
D16*
%TO.C,R15*%
X117856000Y-69699500D03*
X117856000Y-71524500D03*
%TD*%
D23*
%TO.C,D1*%
X116459000Y-93218000D03*
X116459000Y-96018000D03*
%TD*%
D18*
%TO.C,R6*%
X108585000Y-72009000D03*
X106760000Y-72009000D03*
%TD*%
D24*
%TO.C,LED1*%
X91189000Y-113411000D03*
X88389000Y-113411000D03*
%TD*%
D25*
%TO.C,Q2*%
X117094000Y-87508000D03*
X117094000Y-89408000D03*
X118969000Y-88458000D03*
%TD*%
D26*
%TO.C,C2*%
X75090000Y-106680000D03*
X69690000Y-106680000D03*
%TD*%
D24*
%TO.C,LED2*%
X101603000Y-113411000D03*
X98803000Y-113411000D03*
%TD*%
D27*
%TO.C,C7*%
X88014000Y-84328000D03*
X90964000Y-84328000D03*
%TD*%
D16*
%TO.C,R14*%
X115443000Y-69699500D03*
X115443000Y-71524500D03*
%TD*%
D28*
%TO.C,U4*%
X86111500Y-69662000D03*
X86111500Y-70612000D03*
X86111500Y-71562000D03*
X88386500Y-71562000D03*
X88386500Y-70612000D03*
X88386500Y-69662000D03*
%TD*%
D16*
%TO.C,R9*%
X74972000Y-68048500D03*
X74972000Y-69873500D03*
%TD*%
D29*
%TO.C,Q1*%
X118616000Y-100684500D03*
X118616000Y-103734500D03*
X121966000Y-100684500D03*
X121966000Y-103734500D03*
D30*
X113991000Y-99929500D03*
X113991000Y-104489500D03*
%TD*%
D12*
%TO.C,C5*%
X95963000Y-84455000D03*
X93013000Y-84455000D03*
%TD*%
D31*
%TO.C,U1*%
X99454000Y-48325000D03*
X99454000Y-49595000D03*
X99454000Y-50865000D03*
X99454000Y-52135000D03*
X99454000Y-53405000D03*
X99454000Y-54675000D03*
X99454000Y-55945000D03*
X99454000Y-57215000D03*
X99454000Y-58485000D03*
X99454000Y-59755000D03*
X99454000Y-61025000D03*
X99454000Y-62295000D03*
X99454000Y-63565000D03*
X99454000Y-64835000D03*
D32*
X102489000Y-66085000D03*
X103759000Y-66085000D03*
X105029000Y-66085000D03*
X106299000Y-66085000D03*
X107569000Y-66085000D03*
X108839000Y-66085000D03*
X110109000Y-66085000D03*
X111379000Y-66085000D03*
X112649000Y-66085000D03*
X113919000Y-66085000D03*
D31*
X116954000Y-64835000D03*
X116954000Y-63565000D03*
X116954000Y-62295000D03*
X116954000Y-61025000D03*
X116954000Y-59755000D03*
X116954000Y-58485000D03*
X116954000Y-57215000D03*
X116954000Y-55945000D03*
X116954000Y-54675000D03*
X116954000Y-53405000D03*
X116954000Y-52135000D03*
X116954000Y-50865000D03*
X116954000Y-49595000D03*
X116954000Y-48325000D03*
D33*
X105304000Y-54645000D03*
X105304000Y-56045000D03*
X105304000Y-57445000D03*
X106704000Y-54645000D03*
X106704000Y-56045000D03*
X106704000Y-57445000D03*
X108104000Y-54645000D03*
X108104000Y-56045000D03*
X108104000Y-57445000D03*
%TD*%
D21*
%TO.C,C12*%
X113665000Y-93140000D03*
X113665000Y-96090000D03*
%TD*%
D34*
%TO.C,C10*%
X95663000Y-51220000D03*
X95663000Y-48270000D03*
%TD*%
%TO.C,C9*%
X89154000Y-52402000D03*
X89154000Y-49452000D03*
%TD*%
D25*
%TO.C,Q3*%
X78600500Y-62133000D03*
X78600500Y-64033000D03*
X80475500Y-63083000D03*
%TD*%
D16*
%TO.C,R7*%
X113157000Y-87479500D03*
X113157000Y-89304500D03*
%TD*%
D28*
%TO.C,U3*%
X88905500Y-78933000D03*
X88905500Y-79883000D03*
X88905500Y-80833000D03*
X91180500Y-80833000D03*
X91180500Y-79883000D03*
X91180500Y-78933000D03*
%TD*%
D12*
%TO.C,C6*%
X95963000Y-86995000D03*
X93013000Y-86995000D03*
%TD*%
D16*
%TO.C,R2*%
X118872000Y-93575500D03*
X118872000Y-95400500D03*
%TD*%
D15*
%TO.C,R12*%
X75395500Y-64056500D03*
X75395500Y-62231500D03*
%TD*%
D17*
%TO.C,Q4*%
X76248500Y-59666500D03*
X76248500Y-57766500D03*
X74373500Y-58716500D03*
%TD*%
M02*
