%TF.GenerationSoftware,KiCad,Pcbnew,10.0.4*%
%TF.CreationDate,2026-07-06T14:32:58+02:00*%
%TF.ProjectId,spinkovacka,7370696e-6b6f-4766-9163-6b612e6b6963,rev?*%
%TF.SameCoordinates,Original*%
%TF.FileFunction,Soldermask,Top*%
%TF.FilePolarity,Negative*%
%FSLAX46Y46*%
G04 Gerber Fmt 4.6, Leading zero omitted, Abs format (unit mm)*
G04 Created by KiCad (PCBNEW 10.0.4) date 2026-07-06 14:32:58*
%MOMM*%
%LPD*%
G01*
G04 APERTURE LIST*
G04 APERTURE END LIST*
G36*
X93761307Y-112651045D02*
G01*
X93774284Y-112659716D01*
X93782955Y-112672693D01*
X93786000Y-112688000D01*
X93786000Y-114388000D01*
X93782955Y-114403307D01*
X93774284Y-114416284D01*
X93761307Y-114424955D01*
X93746000Y-114428000D01*
X92846000Y-114428000D01*
X92830693Y-114424955D01*
X92817716Y-114416284D01*
X92809045Y-114403307D01*
X92806000Y-114388000D01*
X92806000Y-112688000D01*
X92809045Y-112672693D01*
X92817716Y-112659716D01*
X92830693Y-112651045D01*
X92846000Y-112648000D01*
X93746000Y-112648000D01*
X93761307Y-112651045D01*
G37*
G36*
X97161307Y-112651045D02*
G01*
X97174284Y-112659716D01*
X97182955Y-112672693D01*
X97186000Y-112688000D01*
X97186000Y-114388000D01*
X97182955Y-114403307D01*
X97174284Y-114416284D01*
X97161307Y-114424955D01*
X97146000Y-114428000D01*
X96246000Y-114428000D01*
X96230693Y-114424955D01*
X96217716Y-114416284D01*
X96209045Y-114403307D01*
X96206000Y-114388000D01*
X96206000Y-112688000D01*
X96209045Y-112672693D01*
X96217716Y-112659716D01*
X96230693Y-112651045D01*
X96246000Y-112648000D01*
X97146000Y-112648000D01*
X97161307Y-112651045D01*
G37*
G36*
X88830396Y-112503703D02*
G01*
X88835135Y-112505795D01*
X88837841Y-112506152D01*
X88871695Y-112521938D01*
X88927890Y-112546751D01*
X89003249Y-112622110D01*
X89028070Y-112678325D01*
X89043847Y-112712158D01*
X89044202Y-112714861D01*
X89046297Y-112719604D01*
X89054000Y-112786000D01*
X89054000Y-114036000D01*
X89046297Y-114102396D01*
X89044202Y-114107139D01*
X89043847Y-114109841D01*
X89028079Y-114143655D01*
X89003249Y-114199890D01*
X88927890Y-114275249D01*
X88871655Y-114300079D01*
X88837841Y-114315847D01*
X88835139Y-114316202D01*
X88830396Y-114318297D01*
X88764000Y-114326000D01*
X88014000Y-114326000D01*
X87947604Y-114318297D01*
X87942861Y-114316202D01*
X87940158Y-114315847D01*
X87906325Y-114300070D01*
X87850110Y-114275249D01*
X87774751Y-114199890D01*
X87749938Y-114143695D01*
X87734152Y-114109841D01*
X87733795Y-114107135D01*
X87731703Y-114102396D01*
X87724000Y-114036000D01*
X87724000Y-112786000D01*
X87731703Y-112719604D01*
X87733795Y-112714864D01*
X87734152Y-112712158D01*
X87749947Y-112678285D01*
X87774751Y-112622110D01*
X87850110Y-112546751D01*
X87906285Y-112521947D01*
X87940158Y-112506152D01*
X87942864Y-112505795D01*
X87947604Y-112503703D01*
X88014000Y-112496000D01*
X88764000Y-112496000D01*
X88830396Y-112503703D01*
G37*
G36*
X91630396Y-112503703D02*
G01*
X91635135Y-112505795D01*
X91637841Y-112506152D01*
X91671695Y-112521938D01*
X91727890Y-112546751D01*
X91803249Y-112622110D01*
X91828070Y-112678325D01*
X91843847Y-112712158D01*
X91844202Y-112714861D01*
X91846297Y-112719604D01*
X91854000Y-112786000D01*
X91854000Y-114036000D01*
X91846297Y-114102396D01*
X91844202Y-114107139D01*
X91843847Y-114109841D01*
X91828079Y-114143655D01*
X91803249Y-114199890D01*
X91727890Y-114275249D01*
X91671655Y-114300079D01*
X91637841Y-114315847D01*
X91635139Y-114316202D01*
X91630396Y-114318297D01*
X91564000Y-114326000D01*
X90814000Y-114326000D01*
X90747604Y-114318297D01*
X90742861Y-114316202D01*
X90740158Y-114315847D01*
X90706325Y-114300070D01*
X90650110Y-114275249D01*
X90574751Y-114199890D01*
X90549938Y-114143695D01*
X90534152Y-114109841D01*
X90533795Y-114107135D01*
X90531703Y-114102396D01*
X90524000Y-114036000D01*
X90524000Y-112786000D01*
X90531703Y-112719604D01*
X90533795Y-112714864D01*
X90534152Y-112712158D01*
X90549947Y-112678285D01*
X90574751Y-112622110D01*
X90650110Y-112546751D01*
X90706285Y-112521947D01*
X90740158Y-112506152D01*
X90742864Y-112505795D01*
X90747604Y-112503703D01*
X90814000Y-112496000D01*
X91564000Y-112496000D01*
X91630396Y-112503703D01*
G37*
G36*
X99244396Y-112503703D02*
G01*
X99249135Y-112505795D01*
X99251841Y-112506152D01*
X99285695Y-112521938D01*
X99341890Y-112546751D01*
X99417249Y-112622110D01*
X99442070Y-112678325D01*
X99457847Y-112712158D01*
X99458202Y-112714861D01*
X99460297Y-112719604D01*
X99468000Y-112786000D01*
X99468000Y-114036000D01*
X99460297Y-114102396D01*
X99458202Y-114107139D01*
X99457847Y-114109841D01*
X99442079Y-114143655D01*
X99417249Y-114199890D01*
X99341890Y-114275249D01*
X99285655Y-114300079D01*
X99251841Y-114315847D01*
X99249139Y-114316202D01*
X99244396Y-114318297D01*
X99178000Y-114326000D01*
X98428000Y-114326000D01*
X98361604Y-114318297D01*
X98356861Y-114316202D01*
X98354158Y-114315847D01*
X98320325Y-114300070D01*
X98264110Y-114275249D01*
X98188751Y-114199890D01*
X98163938Y-114143695D01*
X98148152Y-114109841D01*
X98147795Y-114107135D01*
X98145703Y-114102396D01*
X98138000Y-114036000D01*
X98138000Y-112786000D01*
X98145703Y-112719604D01*
X98147795Y-112714864D01*
X98148152Y-112712158D01*
X98163947Y-112678285D01*
X98188751Y-112622110D01*
X98264110Y-112546751D01*
X98320285Y-112521947D01*
X98354158Y-112506152D01*
X98356864Y-112505795D01*
X98361604Y-112503703D01*
X98428000Y-112496000D01*
X99178000Y-112496000D01*
X99244396Y-112503703D01*
G37*
G36*
X102044396Y-112503703D02*
G01*
X102049135Y-112505795D01*
X102051841Y-112506152D01*
X102085695Y-112521938D01*
X102141890Y-112546751D01*
X102217249Y-112622110D01*
X102242070Y-112678325D01*
X102257847Y-112712158D01*
X102258202Y-112714861D01*
X102260297Y-112719604D01*
X102268000Y-112786000D01*
X102268000Y-114036000D01*
X102260297Y-114102396D01*
X102258202Y-114107139D01*
X102257847Y-114109841D01*
X102242079Y-114143655D01*
X102217249Y-114199890D01*
X102141890Y-114275249D01*
X102085655Y-114300079D01*
X102051841Y-114315847D01*
X102049139Y-114316202D01*
X102044396Y-114318297D01*
X101978000Y-114326000D01*
X101228000Y-114326000D01*
X101161604Y-114318297D01*
X101156861Y-114316202D01*
X101154158Y-114315847D01*
X101120325Y-114300070D01*
X101064110Y-114275249D01*
X100988751Y-114199890D01*
X100963938Y-114143695D01*
X100948152Y-114109841D01*
X100947795Y-114107135D01*
X100945703Y-114102396D01*
X100938000Y-114036000D01*
X100938000Y-112786000D01*
X100945703Y-112719604D01*
X100947795Y-112714864D01*
X100948152Y-112712158D01*
X100963947Y-112678285D01*
X100988751Y-112622110D01*
X101064110Y-112546751D01*
X101120285Y-112521947D01*
X101154158Y-112506152D01*
X101156864Y-112505795D01*
X101161604Y-112503703D01*
X101228000Y-112496000D01*
X101978000Y-112496000D01*
X102044396Y-112503703D01*
G37*
G36*
X95164381Y-113131493D02*
G01*
X95263855Y-113188925D01*
X95345075Y-113270145D01*
X95402507Y-113369619D01*
X95432236Y-113480568D01*
X95432236Y-113595432D01*
X95402507Y-113706381D01*
X95345075Y-113805855D01*
X95263855Y-113887075D01*
X95164381Y-113944507D01*
X95053432Y-113974236D01*
X94938568Y-113974236D01*
X94827619Y-113944507D01*
X94728145Y-113887075D01*
X94646925Y-113805855D01*
X94589493Y-113706381D01*
X94559764Y-113595432D01*
X94559764Y-113480568D01*
X94589493Y-113369619D01*
X94646925Y-113270145D01*
X94728145Y-113188925D01*
X94827619Y-113131493D01*
X94938568Y-113101764D01*
X95053432Y-113101764D01*
X95164381Y-113131493D01*
G37*
G36*
X71256396Y-105847703D02*
G01*
X71261135Y-105849795D01*
X71263841Y-105850152D01*
X71297695Y-105865938D01*
X71353890Y-105890751D01*
X71429249Y-105966110D01*
X71454070Y-106022325D01*
X71469847Y-106056158D01*
X71470202Y-106058861D01*
X71472297Y-106063604D01*
X71480000Y-106130000D01*
X71480000Y-107230000D01*
X71472297Y-107296396D01*
X71470202Y-107301139D01*
X71469847Y-107303841D01*
X71454079Y-107337655D01*
X71429249Y-107393890D01*
X71353890Y-107469249D01*
X71297655Y-107494079D01*
X71263841Y-107509847D01*
X71261139Y-107510202D01*
X71256396Y-107512297D01*
X71190000Y-107520000D01*
X68190000Y-107520000D01*
X68123604Y-107512297D01*
X68118861Y-107510202D01*
X68116158Y-107509847D01*
X68082325Y-107494070D01*
X68026110Y-107469249D01*
X67950751Y-107393890D01*
X67925938Y-107337695D01*
X67910152Y-107303841D01*
X67909795Y-107301135D01*
X67907703Y-107296396D01*
X67900000Y-107230000D01*
X67900000Y-106130000D01*
X67907703Y-106063604D01*
X67909795Y-106058864D01*
X67910152Y-106056158D01*
X67925947Y-106022285D01*
X67950751Y-105966110D01*
X68026110Y-105890751D01*
X68082285Y-105865947D01*
X68116158Y-105850152D01*
X68118864Y-105849795D01*
X68123604Y-105847703D01*
X68190000Y-105840000D01*
X71190000Y-105840000D01*
X71256396Y-105847703D01*
G37*
G36*
X76656396Y-105847703D02*
G01*
X76661135Y-105849795D01*
X76663841Y-105850152D01*
X76697695Y-105865938D01*
X76753890Y-105890751D01*
X76829249Y-105966110D01*
X76854070Y-106022325D01*
X76869847Y-106056158D01*
X76870202Y-106058861D01*
X76872297Y-106063604D01*
X76880000Y-106130000D01*
X76880000Y-107230000D01*
X76872297Y-107296396D01*
X76870202Y-107301139D01*
X76869847Y-107303841D01*
X76854079Y-107337655D01*
X76829249Y-107393890D01*
X76753890Y-107469249D01*
X76697655Y-107494079D01*
X76663841Y-107509847D01*
X76661139Y-107510202D01*
X76656396Y-107512297D01*
X76590000Y-107520000D01*
X73590000Y-107520000D01*
X73523604Y-107512297D01*
X73518861Y-107510202D01*
X73516158Y-107509847D01*
X73482325Y-107494070D01*
X73426110Y-107469249D01*
X73350751Y-107393890D01*
X73325938Y-107337695D01*
X73310152Y-107303841D01*
X73309795Y-107301135D01*
X73307703Y-107296396D01*
X73300000Y-107230000D01*
X73300000Y-106130000D01*
X73307703Y-106063604D01*
X73309795Y-106058864D01*
X73310152Y-106056158D01*
X73325947Y-106022285D01*
X73350751Y-105966110D01*
X73426110Y-105890751D01*
X73482285Y-105865947D01*
X73516158Y-105850152D01*
X73518864Y-105849795D01*
X73523604Y-105847703D01*
X73590000Y-105840000D01*
X76590000Y-105840000D01*
X76656396Y-105847703D01*
G37*
G36*
X83235035Y-83094273D02*
G01*
X83251267Y-83096843D01*
X83269081Y-83097805D01*
X83416054Y-83122943D01*
X83550084Y-83144171D01*
X83564281Y-83148295D01*
X83577508Y-83150558D01*
X83724974Y-83194981D01*
X83856394Y-83233163D01*
X83867105Y-83237798D01*
X83876937Y-83240760D01*
X84023727Y-83305574D01*
X84149136Y-83359843D01*
X84156505Y-83364201D01*
X84163016Y-83367076D01*
X84309302Y-83454565D01*
X84423692Y-83522215D01*
X84427987Y-83525546D01*
X84431392Y-83527583D01*
X84584241Y-83646750D01*
X84675732Y-83717718D01*
X84677374Y-83719360D01*
X84678010Y-83719856D01*
X84899143Y-83940989D01*
X84899638Y-83941624D01*
X84901282Y-83943268D01*
X84972292Y-84034813D01*
X85091416Y-84187607D01*
X85093451Y-84191010D01*
X85096785Y-84195308D01*
X85164470Y-84309757D01*
X85251923Y-84455983D01*
X85254796Y-84462490D01*
X85259157Y-84469864D01*
X85313453Y-84595335D01*
X85378239Y-84742062D01*
X85381199Y-84751888D01*
X85385837Y-84762606D01*
X85424037Y-84894090D01*
X85468441Y-85041491D01*
X85470702Y-85054711D01*
X85474829Y-85068916D01*
X85496068Y-85203018D01*
X85521194Y-85349919D01*
X85522154Y-85367722D01*
X85524727Y-85383965D01*
X85536000Y-85623000D01*
X85536000Y-104623000D01*
X85524727Y-104862035D01*
X85522154Y-104878277D01*
X85521194Y-104896081D01*
X85496069Y-105042975D01*
X85474829Y-105177084D01*
X85470701Y-105191289D01*
X85468441Y-105204508D01*
X85424045Y-105351881D01*
X85385837Y-105483394D01*
X85381198Y-105494113D01*
X85378239Y-105503937D01*
X85313474Y-105650614D01*
X85259157Y-105776136D01*
X85254794Y-105783512D01*
X85251923Y-105790016D01*
X85164523Y-105936152D01*
X85096785Y-106050692D01*
X85093448Y-106054992D01*
X85091416Y-106058392D01*
X84972445Y-106210989D01*
X84901282Y-106302732D01*
X84899634Y-106304379D01*
X84899143Y-106305010D01*
X84678010Y-106526143D01*
X84677379Y-106526634D01*
X84675732Y-106528282D01*
X84583989Y-106599445D01*
X84431392Y-106718416D01*
X84427992Y-106720448D01*
X84423692Y-106723785D01*
X84309152Y-106791523D01*
X84163016Y-106878923D01*
X84156512Y-106881794D01*
X84149136Y-106886157D01*
X84023614Y-106940474D01*
X83876937Y-107005239D01*
X83867113Y-107008198D01*
X83856394Y-107012837D01*
X83724881Y-107051045D01*
X83577508Y-107095441D01*
X83564289Y-107097701D01*
X83550084Y-107101829D01*
X83415968Y-107123070D01*
X83269080Y-107148194D01*
X83251278Y-107149154D01*
X83235035Y-107151727D01*
X82996000Y-107163000D01*
X82756965Y-107151727D01*
X82740723Y-107149154D01*
X82722918Y-107148194D01*
X82576011Y-107123067D01*
X82441916Y-107101829D01*
X82427711Y-107097702D01*
X82414491Y-107095441D01*
X82267090Y-107051037D01*
X82135606Y-107012837D01*
X82124888Y-107008199D01*
X82115062Y-107005239D01*
X81968335Y-106940453D01*
X81842864Y-106886157D01*
X81835490Y-106881796D01*
X81828983Y-106878923D01*
X81682757Y-106791470D01*
X81568308Y-106723785D01*
X81564010Y-106720451D01*
X81560607Y-106718416D01*
X81407813Y-106599292D01*
X81316268Y-106528282D01*
X81314624Y-106526638D01*
X81313989Y-106526143D01*
X81092856Y-106305010D01*
X81092360Y-106304374D01*
X81090718Y-106302732D01*
X81019750Y-106211241D01*
X80900583Y-106058392D01*
X80898546Y-106054987D01*
X80895215Y-106050692D01*
X80827565Y-105936302D01*
X80740076Y-105790016D01*
X80737201Y-105783505D01*
X80732843Y-105776136D01*
X80678574Y-105650727D01*
X80613760Y-105503937D01*
X80610798Y-105494105D01*
X80606163Y-105483394D01*
X80567981Y-105351974D01*
X80523558Y-105204508D01*
X80521295Y-105191281D01*
X80517171Y-105177084D01*
X80495942Y-105043047D01*
X80470805Y-104896080D01*
X80469844Y-104878268D01*
X80467273Y-104862035D01*
X80456000Y-104623000D01*
X80456000Y-85623000D01*
X80467273Y-85383965D01*
X80469843Y-85367732D01*
X80470805Y-85349918D01*
X80495945Y-85202932D01*
X80517171Y-85068916D01*
X80521295Y-85054720D01*
X80523558Y-85041491D01*
X80567989Y-84893997D01*
X80606163Y-84762606D01*
X80610797Y-84751896D01*
X80613760Y-84742062D01*
X80678596Y-84595222D01*
X80732843Y-84469864D01*
X80737199Y-84462497D01*
X80740076Y-84455983D01*
X80827618Y-84309607D01*
X80895215Y-84195308D01*
X80898544Y-84191016D01*
X80900583Y-84187607D01*
X81019903Y-84034560D01*
X81090718Y-83943268D01*
X81092357Y-83941628D01*
X81092856Y-83940989D01*
X81313989Y-83719856D01*
X81314628Y-83719357D01*
X81316268Y-83717718D01*
X81407560Y-83646903D01*
X81560607Y-83527583D01*
X81564016Y-83525544D01*
X81568308Y-83522215D01*
X81682607Y-83454618D01*
X81828983Y-83367076D01*
X81835497Y-83364199D01*
X81842864Y-83359843D01*
X81968222Y-83305596D01*
X82115062Y-83240760D01*
X82124896Y-83237797D01*
X82135606Y-83233163D01*
X82266997Y-83194989D01*
X82414491Y-83150558D01*
X82427720Y-83148295D01*
X82441916Y-83144171D01*
X82575939Y-83122944D01*
X82722919Y-83097805D01*
X82740731Y-83096844D01*
X82756965Y-83094273D01*
X82996000Y-83083000D01*
X83235035Y-83094273D01*
G37*
G36*
X107235035Y-83094273D02*
G01*
X107251267Y-83096843D01*
X107269081Y-83097805D01*
X107416054Y-83122943D01*
X107550084Y-83144171D01*
X107564281Y-83148295D01*
X107577508Y-83150558D01*
X107724974Y-83194981D01*
X107856394Y-83233163D01*
X107867105Y-83237798D01*
X107876937Y-83240760D01*
X108023727Y-83305574D01*
X108149136Y-83359843D01*
X108156505Y-83364201D01*
X108163016Y-83367076D01*
X108309302Y-83454565D01*
X108423692Y-83522215D01*
X108427987Y-83525546D01*
X108431392Y-83527583D01*
X108584241Y-83646750D01*
X108675732Y-83717718D01*
X108677374Y-83719360D01*
X108678010Y-83719856D01*
X108899143Y-83940989D01*
X108899638Y-83941624D01*
X108901282Y-83943268D01*
X108972292Y-84034813D01*
X109091416Y-84187607D01*
X109093451Y-84191010D01*
X109096785Y-84195308D01*
X109164470Y-84309757D01*
X109251923Y-84455983D01*
X109254796Y-84462490D01*
X109259157Y-84469864D01*
X109313453Y-84595335D01*
X109378239Y-84742062D01*
X109381199Y-84751888D01*
X109385837Y-84762606D01*
X109424037Y-84894090D01*
X109468441Y-85041491D01*
X109470702Y-85054711D01*
X109474829Y-85068916D01*
X109496068Y-85203018D01*
X109521194Y-85349919D01*
X109522154Y-85367722D01*
X109524727Y-85383965D01*
X109536000Y-85623000D01*
X109536000Y-94074923D01*
X109536000Y-102475711D01*
X109565289Y-102505000D01*
X113006500Y-102505000D01*
X113104517Y-102509815D01*
X113296785Y-102548060D01*
X113477897Y-102623079D01*
X113640893Y-102731990D01*
X113779510Y-102870607D01*
X113888421Y-103033603D01*
X113963440Y-103214715D01*
X114001685Y-103406983D01*
X114001685Y-103603017D01*
X113963440Y-103795285D01*
X113962966Y-103796428D01*
X113959682Y-103812940D01*
X113989686Y-103849500D01*
X114841000Y-103849500D01*
X114907396Y-103857203D01*
X114912135Y-103859295D01*
X114914841Y-103859652D01*
X114948695Y-103875438D01*
X115004890Y-103900251D01*
X115080249Y-103975610D01*
X115105070Y-104031825D01*
X115120847Y-104065658D01*
X115121202Y-104068361D01*
X115123297Y-104073104D01*
X115131000Y-104139500D01*
X115131000Y-104839500D01*
X115123297Y-104905896D01*
X115121202Y-104910639D01*
X115120847Y-104913341D01*
X115105079Y-104947155D01*
X115080249Y-105003390D01*
X115004890Y-105078749D01*
X114948655Y-105103579D01*
X114914841Y-105119347D01*
X114912139Y-105119702D01*
X114907396Y-105121797D01*
X114841000Y-105129500D01*
X113141000Y-105129500D01*
X113074604Y-105121797D01*
X113069861Y-105119702D01*
X113067158Y-105119347D01*
X113033325Y-105103570D01*
X112977110Y-105078749D01*
X112901751Y-105003390D01*
X112876938Y-104947195D01*
X112861152Y-104913341D01*
X112860795Y-104910636D01*
X112858703Y-104905896D01*
X112851000Y-104839500D01*
X112851000Y-104534288D01*
X112821712Y-104505000D01*
X109565289Y-104505000D01*
X109536000Y-104534289D01*
X109536000Y-104623000D01*
X109524727Y-104862035D01*
X109522154Y-104878276D01*
X109521194Y-104896081D01*
X109496069Y-105042975D01*
X109474829Y-105177084D01*
X109470701Y-105191289D01*
X109468441Y-105204508D01*
X109424045Y-105351881D01*
X109385837Y-105483394D01*
X109381198Y-105494113D01*
X109378239Y-105503937D01*
X109313474Y-105650614D01*
X109259157Y-105776136D01*
X109254794Y-105783512D01*
X109251923Y-105790016D01*
X109164523Y-105936152D01*
X109096785Y-106050692D01*
X109093448Y-106054992D01*
X109091416Y-106058392D01*
X108972445Y-106210989D01*
X108901282Y-106302732D01*
X108899634Y-106304379D01*
X108899143Y-106305010D01*
X108678010Y-106526143D01*
X108677379Y-106526634D01*
X108675732Y-106528282D01*
X108583989Y-106599445D01*
X108431392Y-106718416D01*
X108427992Y-106720448D01*
X108423692Y-106723785D01*
X108309152Y-106791523D01*
X108163016Y-106878923D01*
X108156512Y-106881794D01*
X108149136Y-106886157D01*
X108023614Y-106940474D01*
X107876937Y-107005239D01*
X107867113Y-107008198D01*
X107856394Y-107012837D01*
X107724881Y-107051045D01*
X107577508Y-107095441D01*
X107564289Y-107097701D01*
X107550084Y-107101829D01*
X107415968Y-107123070D01*
X107269080Y-107148194D01*
X107251278Y-107149154D01*
X107235035Y-107151727D01*
X106996000Y-107163000D01*
X106756965Y-107151727D01*
X106740723Y-107149154D01*
X106722918Y-107148194D01*
X106576011Y-107123067D01*
X106441916Y-107101829D01*
X106427711Y-107097702D01*
X106414491Y-107095441D01*
X106267090Y-107051037D01*
X106135606Y-107012837D01*
X106124888Y-107008199D01*
X106115062Y-107005239D01*
X105968335Y-106940453D01*
X105842864Y-106886157D01*
X105835490Y-106881796D01*
X105828983Y-106878923D01*
X105682757Y-106791470D01*
X105568308Y-106723785D01*
X105564010Y-106720451D01*
X105560607Y-106718416D01*
X105407813Y-106599292D01*
X105316268Y-106528282D01*
X105314624Y-106526638D01*
X105313989Y-106526143D01*
X105092856Y-106305010D01*
X105092360Y-106304374D01*
X105090718Y-106302732D01*
X105019750Y-106211241D01*
X104900583Y-106058392D01*
X104898546Y-106054987D01*
X104895215Y-106050692D01*
X104827565Y-105936302D01*
X104740076Y-105790016D01*
X104737201Y-105783505D01*
X104732843Y-105776136D01*
X104678574Y-105650727D01*
X104613760Y-105503937D01*
X104610798Y-105494105D01*
X104606163Y-105483394D01*
X104567981Y-105351974D01*
X104523558Y-105204508D01*
X104521295Y-105191281D01*
X104517171Y-105177084D01*
X104495942Y-105043047D01*
X104470805Y-104896080D01*
X104469844Y-104878268D01*
X104467273Y-104862035D01*
X104456000Y-104623000D01*
X104456000Y-85623000D01*
X104467273Y-85383965D01*
X104469843Y-85367732D01*
X104470805Y-85349918D01*
X104495945Y-85202932D01*
X104517171Y-85068916D01*
X104521295Y-85054720D01*
X104523558Y-85041491D01*
X104567989Y-84893997D01*
X104606163Y-84762606D01*
X104610797Y-84751896D01*
X104613760Y-84742062D01*
X104678596Y-84595222D01*
X104732843Y-84469864D01*
X104737199Y-84462497D01*
X104740076Y-84455983D01*
X104827618Y-84309607D01*
X104895215Y-84195308D01*
X104898544Y-84191016D01*
X104900583Y-84187607D01*
X105019903Y-84034560D01*
X105090718Y-83943268D01*
X105092357Y-83941628D01*
X105092856Y-83940989D01*
X105313989Y-83719856D01*
X105314628Y-83719357D01*
X105316268Y-83717718D01*
X105407560Y-83646903D01*
X105560607Y-83527583D01*
X105564016Y-83525544D01*
X105568308Y-83522215D01*
X105682607Y-83454618D01*
X105828983Y-83367076D01*
X105835497Y-83364199D01*
X105842864Y-83359843D01*
X105968222Y-83305596D01*
X106115062Y-83240760D01*
X106124896Y-83237797D01*
X106135606Y-83233163D01*
X106266997Y-83194989D01*
X106414491Y-83150558D01*
X106427720Y-83148295D01*
X106441916Y-83144171D01*
X106575939Y-83122944D01*
X106722919Y-83097805D01*
X106740731Y-83096844D01*
X106756965Y-83094273D01*
X106996000Y-83083000D01*
X107235035Y-83094273D01*
G37*
G36*
X123307398Y-99277203D02*
G01*
X123312137Y-99279295D01*
X123314843Y-99279652D01*
X123348688Y-99295434D01*
X123404891Y-99320250D01*
X123480250Y-99395609D01*
X123505075Y-99451833D01*
X123520847Y-99485656D01*
X123521202Y-99488359D01*
X123523297Y-99493102D01*
X123530999Y-99559498D01*
X123530999Y-99562764D01*
X123531000Y-99562772D01*
X123531000Y-102232923D01*
X123531000Y-104859503D01*
X123523297Y-104925898D01*
X123521202Y-104930641D01*
X123520847Y-104933343D01*
X123505083Y-104967148D01*
X123480250Y-105023391D01*
X123404891Y-105098750D01*
X123348648Y-105123583D01*
X123314843Y-105139347D01*
X123312141Y-105139702D01*
X123307398Y-105141797D01*
X123241002Y-105149499D01*
X123237735Y-105149499D01*
X123237728Y-105149500D01*
X117344272Y-105149500D01*
X117344271Y-105149499D01*
X117340997Y-105149500D01*
X117274602Y-105141797D01*
X117269859Y-105139702D01*
X117267156Y-105139347D01*
X117233333Y-105123575D01*
X117177109Y-105098750D01*
X117101750Y-105023391D01*
X117076934Y-104967188D01*
X117061152Y-104933343D01*
X117060795Y-104930638D01*
X117058703Y-104925898D01*
X117051001Y-104859502D01*
X117051000Y-104856234D01*
X117051000Y-104856227D01*
X117051000Y-99562772D01*
X117051000Y-99562771D01*
X117051000Y-99559497D01*
X117058703Y-99493102D01*
X117060795Y-99488362D01*
X117061152Y-99485656D01*
X117076942Y-99451792D01*
X117101750Y-99395609D01*
X117177109Y-99320250D01*
X117233292Y-99295442D01*
X117267156Y-99279652D01*
X117269862Y-99279295D01*
X117274602Y-99277203D01*
X117340998Y-99269501D01*
X117344264Y-99269500D01*
X117344272Y-99269500D01*
X123237728Y-99269500D01*
X123241003Y-99269500D01*
X123307398Y-99277203D01*
G37*
G36*
X66710396Y-103639703D02*
G01*
X66715135Y-103641795D01*
X66717841Y-103642152D01*
X66751695Y-103657938D01*
X66807890Y-103682751D01*
X66883249Y-103758110D01*
X66908070Y-103814325D01*
X66923847Y-103848158D01*
X66924202Y-103850861D01*
X66926297Y-103855604D01*
X66934000Y-103922000D01*
X66934000Y-104572000D01*
X66926297Y-104638396D01*
X66924202Y-104643139D01*
X66923847Y-104645841D01*
X66908079Y-104679655D01*
X66883249Y-104735890D01*
X66807890Y-104811249D01*
X66751655Y-104836079D01*
X66717841Y-104851847D01*
X66715139Y-104852202D01*
X66710396Y-104854297D01*
X66644000Y-104862000D01*
X65344000Y-104862000D01*
X65277604Y-104854297D01*
X65272861Y-104852202D01*
X65270158Y-104851847D01*
X65236325Y-104836070D01*
X65180110Y-104811249D01*
X65104751Y-104735890D01*
X65079938Y-104679695D01*
X65064152Y-104645841D01*
X65063795Y-104643135D01*
X65061703Y-104638396D01*
X65054000Y-104572000D01*
X65054000Y-103922000D01*
X65061703Y-103855604D01*
X65063795Y-103850864D01*
X65064152Y-103848158D01*
X65079947Y-103814285D01*
X65104751Y-103758110D01*
X65180110Y-103682751D01*
X65236285Y-103657947D01*
X65270158Y-103642152D01*
X65272864Y-103641795D01*
X65277604Y-103639703D01*
X65344000Y-103632000D01*
X66644000Y-103632000D01*
X66710396Y-103639703D01*
G37*
G36*
X71179396Y-100413703D02*
G01*
X71184135Y-100415795D01*
X71186841Y-100416152D01*
X71220695Y-100431938D01*
X71276890Y-100456751D01*
X71352249Y-100532110D01*
X71377070Y-100588325D01*
X71392847Y-100622158D01*
X71393202Y-100624861D01*
X71395297Y-100629604D01*
X71403000Y-100696000D01*
X71403000Y-101996000D01*
X71395297Y-102062396D01*
X71393202Y-102067139D01*
X71392847Y-102069841D01*
X71377079Y-102103655D01*
X71352249Y-102159890D01*
X71276890Y-102235249D01*
X71220655Y-102260079D01*
X71186841Y-102275847D01*
X71184139Y-102276202D01*
X71179396Y-102278297D01*
X71113000Y-102286000D01*
X70463000Y-102286000D01*
X70396604Y-102278297D01*
X70391861Y-102276202D01*
X70389158Y-102275847D01*
X70355325Y-102260070D01*
X70299110Y-102235249D01*
X70223751Y-102159890D01*
X70198938Y-102103695D01*
X70183152Y-102069841D01*
X70182795Y-102067135D01*
X70180703Y-102062396D01*
X70173000Y-101996000D01*
X70173000Y-100696000D01*
X70180703Y-100629604D01*
X70182795Y-100624864D01*
X70183152Y-100622158D01*
X70198947Y-100588285D01*
X70223751Y-100532110D01*
X70299110Y-100456751D01*
X70355285Y-100431947D01*
X70389158Y-100416152D01*
X70391864Y-100415795D01*
X70396604Y-100413703D01*
X70463000Y-100406000D01*
X71113000Y-100406000D01*
X71179396Y-100413703D01*
G37*
G36*
X74129396Y-100413703D02*
G01*
X74134135Y-100415795D01*
X74136841Y-100416152D01*
X74170695Y-100431938D01*
X74226890Y-100456751D01*
X74302249Y-100532110D01*
X74327070Y-100588325D01*
X74342847Y-100622158D01*
X74343202Y-100624861D01*
X74345297Y-100629604D01*
X74353000Y-100696000D01*
X74353000Y-101996000D01*
X74345297Y-102062396D01*
X74343202Y-102067139D01*
X74342847Y-102069841D01*
X74327079Y-102103655D01*
X74302249Y-102159890D01*
X74226890Y-102235249D01*
X74170655Y-102260079D01*
X74136841Y-102275847D01*
X74134139Y-102276202D01*
X74129396Y-102278297D01*
X74063000Y-102286000D01*
X73413000Y-102286000D01*
X73346604Y-102278297D01*
X73341861Y-102276202D01*
X73339158Y-102275847D01*
X73305325Y-102260070D01*
X73249110Y-102235249D01*
X73173751Y-102159890D01*
X73148938Y-102103695D01*
X73133152Y-102069841D01*
X73132795Y-102067135D01*
X73130703Y-102062396D01*
X73123000Y-101996000D01*
X73123000Y-100696000D01*
X73130703Y-100629604D01*
X73132795Y-100624864D01*
X73133152Y-100622158D01*
X73148947Y-100588285D01*
X73173751Y-100532110D01*
X73249110Y-100456751D01*
X73305285Y-100431947D01*
X73339158Y-100416152D01*
X73341864Y-100415795D01*
X73346604Y-100413703D01*
X73413000Y-100406000D01*
X74063000Y-100406000D01*
X74129396Y-100413703D01*
G37*
G36*
X66710396Y-100689703D02*
G01*
X66715135Y-100691795D01*
X66717841Y-100692152D01*
X66751695Y-100707938D01*
X66807890Y-100732751D01*
X66883249Y-100808110D01*
X66908070Y-100864325D01*
X66923847Y-100898158D01*
X66924202Y-100900861D01*
X66926297Y-100905604D01*
X66934000Y-100972000D01*
X66934000Y-101622000D01*
X66926297Y-101688396D01*
X66924202Y-101693139D01*
X66923847Y-101695841D01*
X66908079Y-101729655D01*
X66883249Y-101785890D01*
X66807890Y-101861249D01*
X66751655Y-101886079D01*
X66717841Y-101901847D01*
X66715139Y-101902202D01*
X66710396Y-101904297D01*
X66644000Y-101912000D01*
X65344000Y-101912000D01*
X65277604Y-101904297D01*
X65272861Y-101902202D01*
X65270158Y-101901847D01*
X65236325Y-101886070D01*
X65180110Y-101861249D01*
X65104751Y-101785890D01*
X65079938Y-101729695D01*
X65064152Y-101695841D01*
X65063795Y-101693135D01*
X65061703Y-101688396D01*
X65054000Y-101622000D01*
X65054000Y-100972000D01*
X65061703Y-100905604D01*
X65063795Y-100900864D01*
X65064152Y-100898158D01*
X65079947Y-100864285D01*
X65104751Y-100808110D01*
X65180110Y-100732751D01*
X65236285Y-100707947D01*
X65270158Y-100692152D01*
X65272864Y-100691795D01*
X65277604Y-100689703D01*
X65344000Y-100682000D01*
X66644000Y-100682000D01*
X66710396Y-100689703D01*
G37*
G36*
X95114179Y-98488056D02*
G01*
X95124673Y-98488056D01*
X95176367Y-98496243D01*
X95315926Y-98514617D01*
X95349969Y-98523738D01*
X95378850Y-98528313D01*
X95434390Y-98546359D01*
X95523123Y-98570135D01*
X95579743Y-98593587D01*
X95623601Y-98607838D01*
X95664686Y-98628771D01*
X95721310Y-98652226D01*
X95800880Y-98698165D01*
X95852898Y-98724670D01*
X95876546Y-98741851D01*
X95907073Y-98759476D01*
X96018743Y-98845163D01*
X96061095Y-98875934D01*
X96068518Y-98883357D01*
X96077252Y-98890059D01*
X96228940Y-99041747D01*
X96235641Y-99050480D01*
X96243066Y-99057905D01*
X96273840Y-99100262D01*
X96359523Y-99211926D01*
X96377146Y-99242451D01*
X96394330Y-99266102D01*
X96420837Y-99318125D01*
X96466773Y-99397689D01*
X96490224Y-99454307D01*
X96511162Y-99495399D01*
X96525414Y-99539263D01*
X96548864Y-99595876D01*
X96572636Y-99684597D01*
X96590687Y-99740150D01*
X96595262Y-99769037D01*
X96604382Y-99803073D01*
X96622754Y-99942621D01*
X96630944Y-99994327D01*
X96630944Y-100004821D01*
X96632382Y-100015744D01*
X96632382Y-100230255D01*
X96630944Y-100241177D01*
X96630944Y-100251673D01*
X96622753Y-100303383D01*
X96604382Y-100442926D01*
X96595262Y-100476960D01*
X96590687Y-100505850D01*
X96572635Y-100561407D01*
X96548864Y-100650123D01*
X96525416Y-100706731D01*
X96511162Y-100750601D01*
X96490222Y-100791696D01*
X96466773Y-100848310D01*
X96420841Y-100927865D01*
X96394330Y-100979898D01*
X96377143Y-101003552D01*
X96359523Y-101034073D01*
X96273853Y-101145719D01*
X96243066Y-101188095D01*
X96235638Y-101195522D01*
X96228940Y-101204252D01*
X96077252Y-101355940D01*
X96068522Y-101362638D01*
X96061095Y-101370066D01*
X96018719Y-101400853D01*
X95907073Y-101486523D01*
X95876552Y-101504143D01*
X95852898Y-101521330D01*
X95800865Y-101547841D01*
X95721310Y-101593773D01*
X95664696Y-101617222D01*
X95623601Y-101638162D01*
X95579731Y-101652416D01*
X95523123Y-101675864D01*
X95434407Y-101699635D01*
X95378850Y-101717687D01*
X95349960Y-101722262D01*
X95315926Y-101731382D01*
X95176380Y-101749754D01*
X95124673Y-101757944D01*
X95114178Y-101757944D01*
X95103256Y-101759382D01*
X94888744Y-101759382D01*
X94877822Y-101757944D01*
X94867327Y-101757944D01*
X94815621Y-101749754D01*
X94676073Y-101731382D01*
X94642037Y-101722262D01*
X94613150Y-101717687D01*
X94557597Y-101699636D01*
X94468876Y-101675864D01*
X94412263Y-101652414D01*
X94368399Y-101638162D01*
X94327307Y-101617224D01*
X94270689Y-101593773D01*
X94191125Y-101547837D01*
X94139102Y-101521330D01*
X94115451Y-101504146D01*
X94084926Y-101486523D01*
X93973262Y-101400840D01*
X93930905Y-101370066D01*
X93923480Y-101362641D01*
X93914747Y-101355940D01*
X93763059Y-101204252D01*
X93756357Y-101195518D01*
X93748934Y-101188095D01*
X93718163Y-101145743D01*
X93632476Y-101034073D01*
X93614851Y-101003546D01*
X93597670Y-100979898D01*
X93571165Y-100927880D01*
X93525226Y-100848310D01*
X93501771Y-100791686D01*
X93480838Y-100750601D01*
X93466587Y-100706743D01*
X93443135Y-100650123D01*
X93419359Y-100561390D01*
X93401313Y-100505850D01*
X93396738Y-100476969D01*
X93387617Y-100442926D01*
X93369244Y-100303370D01*
X93361056Y-100251673D01*
X93361056Y-100241177D01*
X93359618Y-100230255D01*
X93359618Y-100015744D01*
X93361056Y-100004821D01*
X93361056Y-99994327D01*
X93369243Y-99942634D01*
X93387617Y-99803073D01*
X93396739Y-99769028D01*
X93401313Y-99740150D01*
X93419357Y-99684614D01*
X93443135Y-99595876D01*
X93466589Y-99539252D01*
X93480838Y-99495399D01*
X93501769Y-99454317D01*
X93525226Y-99397689D01*
X93571170Y-99318111D01*
X93597670Y-99266102D01*
X93614848Y-99242457D01*
X93632476Y-99211926D01*
X93718177Y-99100237D01*
X93748934Y-99057905D01*
X93756354Y-99050484D01*
X93763059Y-99041747D01*
X93914747Y-98890059D01*
X93923484Y-98883354D01*
X93930905Y-98875934D01*
X93973237Y-98845177D01*
X94084926Y-98759476D01*
X94115457Y-98741848D01*
X94139102Y-98724670D01*
X94191111Y-98698170D01*
X94270689Y-98652226D01*
X94327317Y-98628769D01*
X94368399Y-98607838D01*
X94412252Y-98593589D01*
X94468876Y-98570135D01*
X94557614Y-98546357D01*
X94613150Y-98528313D01*
X94642028Y-98523739D01*
X94676073Y-98514617D01*
X94815634Y-98496243D01*
X94867327Y-98488056D01*
X94877821Y-98488056D01*
X94888744Y-98486618D01*
X95103256Y-98486618D01*
X95114179Y-98488056D01*
G37*
G36*
X114907396Y-99297203D02*
G01*
X114912135Y-99299295D01*
X114914841Y-99299652D01*
X114948695Y-99315438D01*
X115004890Y-99340251D01*
X115080249Y-99415610D01*
X115105070Y-99471825D01*
X115120847Y-99505658D01*
X115121202Y-99508361D01*
X115123297Y-99513104D01*
X115131000Y-99579500D01*
X115131000Y-100279500D01*
X115123297Y-100345896D01*
X115121202Y-100350639D01*
X115120847Y-100353341D01*
X115105079Y-100387155D01*
X115080249Y-100443390D01*
X115004890Y-100518749D01*
X114948655Y-100543579D01*
X114914841Y-100559347D01*
X114912139Y-100559702D01*
X114907396Y-100561797D01*
X114841000Y-100569500D01*
X113141000Y-100569500D01*
X113074604Y-100561797D01*
X113069861Y-100559702D01*
X113067158Y-100559347D01*
X113033325Y-100543570D01*
X112977110Y-100518749D01*
X112901751Y-100443390D01*
X112876938Y-100387195D01*
X112861152Y-100353341D01*
X112860795Y-100350635D01*
X112858703Y-100345896D01*
X112851000Y-100279500D01*
X112851000Y-99579500D01*
X112858703Y-99513104D01*
X112860795Y-99508364D01*
X112861152Y-99505658D01*
X112876947Y-99471785D01*
X112901751Y-99415610D01*
X112977110Y-99340251D01*
X113033285Y-99315447D01*
X113067158Y-99299652D01*
X113069864Y-99299295D01*
X113074604Y-99297203D01*
X113141000Y-99289500D01*
X114841000Y-99289500D01*
X114907396Y-99297203D01*
G37*
G36*
X66923710Y-98173463D02*
G01*
X66985350Y-98214650D01*
X67026537Y-98276290D01*
X67041000Y-98349000D01*
X67041000Y-98649000D01*
X67026537Y-98721710D01*
X66985350Y-98783350D01*
X66923710Y-98824537D01*
X66851000Y-98839000D01*
X65376000Y-98839000D01*
X65303290Y-98824537D01*
X65241650Y-98783350D01*
X65200463Y-98721710D01*
X65186000Y-98649000D01*
X65186000Y-98349000D01*
X65200463Y-98276290D01*
X65241650Y-98214650D01*
X65303290Y-98173463D01*
X65376000Y-98159000D01*
X66851000Y-98159000D01*
X66923710Y-98173463D01*
G37*
G36*
X72048710Y-98173463D02*
G01*
X72110350Y-98214650D01*
X72151537Y-98276290D01*
X72166000Y-98349000D01*
X72166000Y-98649000D01*
X72151537Y-98721710D01*
X72110350Y-98783350D01*
X72048710Y-98824537D01*
X71976000Y-98839000D01*
X70501000Y-98839000D01*
X70428290Y-98824537D01*
X70366650Y-98783350D01*
X70325463Y-98721710D01*
X70311000Y-98649000D01*
X70311000Y-98349000D01*
X70325463Y-98276290D01*
X70366650Y-98214650D01*
X70428290Y-98173463D01*
X70501000Y-98159000D01*
X71976000Y-98159000D01*
X72048710Y-98173463D01*
G37*
G36*
X70031000Y-98294000D02*
G01*
X67321000Y-98294000D01*
X67321000Y-94894000D01*
X70031000Y-94894000D01*
X70031000Y-98294000D01*
G37*
G36*
X66923710Y-96903463D02*
G01*
X66985350Y-96944650D01*
X67026537Y-97006290D01*
X67041000Y-97079000D01*
X67041000Y-97379000D01*
X67026537Y-97451710D01*
X66985350Y-97513350D01*
X66923710Y-97554537D01*
X66851000Y-97569000D01*
X65376000Y-97569000D01*
X65303290Y-97554537D01*
X65241650Y-97513350D01*
X65200463Y-97451710D01*
X65186000Y-97379000D01*
X65186000Y-97079000D01*
X65200463Y-97006290D01*
X65241650Y-96944650D01*
X65303290Y-96903463D01*
X65376000Y-96889000D01*
X66851000Y-96889000D01*
X66923710Y-96903463D01*
G37*
G36*
X72048710Y-96903463D02*
G01*
X72110350Y-96944650D01*
X72151537Y-97006290D01*
X72166000Y-97079000D01*
X72166000Y-97379000D01*
X72151537Y-97451710D01*
X72110350Y-97513350D01*
X72048710Y-97554537D01*
X71976000Y-97569000D01*
X70501000Y-97569000D01*
X70428290Y-97554537D01*
X70366650Y-97513350D01*
X70325463Y-97451710D01*
X70311000Y-97379000D01*
X70311000Y-97079000D01*
X70325463Y-97006290D01*
X70366650Y-96944650D01*
X70428290Y-96903463D01*
X70501000Y-96889000D01*
X71976000Y-96889000D01*
X72048710Y-96903463D01*
G37*
G36*
X114381396Y-95482703D02*
G01*
X114386135Y-95484795D01*
X114388841Y-95485152D01*
X114422695Y-95500938D01*
X114478890Y-95525751D01*
X114554249Y-95601110D01*
X114579070Y-95657325D01*
X114594847Y-95691158D01*
X114595202Y-95693861D01*
X114597297Y-95698604D01*
X114605000Y-95765000D01*
X114605000Y-96415000D01*
X114597297Y-96481396D01*
X114595202Y-96486139D01*
X114594847Y-96488841D01*
X114579079Y-96522655D01*
X114554249Y-96578890D01*
X114478890Y-96654249D01*
X114422655Y-96679079D01*
X114388841Y-96694847D01*
X114386139Y-96695202D01*
X114381396Y-96697297D01*
X114315000Y-96705000D01*
X113015000Y-96705000D01*
X112948604Y-96697297D01*
X112943861Y-96695202D01*
X112941158Y-96694847D01*
X112907325Y-96679070D01*
X112851110Y-96654249D01*
X112775751Y-96578890D01*
X112750938Y-96522695D01*
X112735152Y-96488841D01*
X112734795Y-96486135D01*
X112732703Y-96481396D01*
X112725000Y-96415000D01*
X112725000Y-95765000D01*
X112732703Y-95698604D01*
X112734795Y-95693864D01*
X112735152Y-95691158D01*
X112750947Y-95657285D01*
X112775751Y-95601110D01*
X112851110Y-95525751D01*
X112907285Y-95500947D01*
X112941158Y-95485152D01*
X112943864Y-95484795D01*
X112948604Y-95482703D01*
X113015000Y-95475000D01*
X114315000Y-95475000D01*
X114381396Y-95482703D01*
G37*
G36*
X117074307Y-95381045D02*
G01*
X117087284Y-95389716D01*
X117095955Y-95402693D01*
X117099000Y-95418000D01*
X117099000Y-96618000D01*
X117095955Y-96633307D01*
X117087284Y-96646284D01*
X117074307Y-96654955D01*
X117059000Y-96658000D01*
X115859000Y-96658000D01*
X115843693Y-96654955D01*
X115830716Y-96646284D01*
X115822045Y-96633307D01*
X115819000Y-96618000D01*
X115819000Y-95418000D01*
X115822045Y-95402693D01*
X115830716Y-95389716D01*
X115843693Y-95381045D01*
X115859000Y-95378000D01*
X117059000Y-95378000D01*
X117074307Y-95381045D01*
G37*
G36*
X66923710Y-95633463D02*
G01*
X66985350Y-95674650D01*
X67026537Y-95736290D01*
X67041000Y-95809000D01*
X67041000Y-96109000D01*
X67026537Y-96181710D01*
X66985350Y-96243350D01*
X66923710Y-96284537D01*
X66851000Y-96299000D01*
X65376000Y-96299000D01*
X65303290Y-96284537D01*
X65241650Y-96243350D01*
X65200463Y-96181710D01*
X65186000Y-96109000D01*
X65186000Y-95809000D01*
X65200463Y-95736290D01*
X65241650Y-95674650D01*
X65303290Y-95633463D01*
X65376000Y-95619000D01*
X66851000Y-95619000D01*
X66923710Y-95633463D01*
G37*
G36*
X72048710Y-95633463D02*
G01*
X72110350Y-95674650D01*
X72151537Y-95736290D01*
X72166000Y-95809000D01*
X72166000Y-96109000D01*
X72151537Y-96181710D01*
X72110350Y-96243350D01*
X72048710Y-96284537D01*
X71976000Y-96299000D01*
X70501000Y-96299000D01*
X70428290Y-96284537D01*
X70366650Y-96243350D01*
X70325463Y-96181710D01*
X70311000Y-96109000D01*
X70311000Y-95809000D01*
X70325463Y-95736290D01*
X70366650Y-95674650D01*
X70428290Y-95633463D01*
X70501000Y-95619000D01*
X71976000Y-95619000D01*
X72048710Y-95633463D01*
G37*
G36*
X121674396Y-94884703D02*
G01*
X121679135Y-94886795D01*
X121681841Y-94887152D01*
X121715695Y-94902938D01*
X121771890Y-94927751D01*
X121847249Y-95003110D01*
X121872070Y-95059325D01*
X121887847Y-95093158D01*
X121888202Y-95095861D01*
X121890297Y-95100604D01*
X121898000Y-95167000D01*
X121898000Y-95692000D01*
X121890297Y-95758396D01*
X121888202Y-95763139D01*
X121887847Y-95765841D01*
X121872079Y-95799655D01*
X121847249Y-95855890D01*
X121771890Y-95931249D01*
X121715655Y-95956079D01*
X121681841Y-95971847D01*
X121679139Y-95972202D01*
X121674396Y-95974297D01*
X121608000Y-95982000D01*
X120708000Y-95982000D01*
X120641604Y-95974297D01*
X120636861Y-95972202D01*
X120634158Y-95971847D01*
X120600325Y-95956070D01*
X120544110Y-95931249D01*
X120468751Y-95855890D01*
X120443938Y-95799695D01*
X120428152Y-95765841D01*
X120427795Y-95763135D01*
X120425703Y-95758396D01*
X120418000Y-95692000D01*
X120418000Y-95167000D01*
X120425703Y-95100604D01*
X120427795Y-95095864D01*
X120428152Y-95093158D01*
X120443947Y-95059285D01*
X120468751Y-95003110D01*
X120544110Y-94927751D01*
X120600285Y-94902947D01*
X120634158Y-94887152D01*
X120636864Y-94886795D01*
X120641604Y-94884703D01*
X120708000Y-94877000D01*
X121608000Y-94877000D01*
X121674396Y-94884703D01*
G37*
G36*
X119388396Y-94855703D02*
G01*
X119393135Y-94857795D01*
X119395841Y-94858152D01*
X119429695Y-94873938D01*
X119485890Y-94898751D01*
X119561249Y-94974110D01*
X119586070Y-95030325D01*
X119601847Y-95064158D01*
X119602202Y-95066861D01*
X119604297Y-95071604D01*
X119612000Y-95138000D01*
X119612000Y-95663000D01*
X119604297Y-95729396D01*
X119602202Y-95734139D01*
X119601847Y-95736841D01*
X119586079Y-95770655D01*
X119561249Y-95826890D01*
X119485890Y-95902249D01*
X119429655Y-95927079D01*
X119395841Y-95942847D01*
X119393139Y-95943202D01*
X119388396Y-95945297D01*
X119322000Y-95953000D01*
X118422000Y-95953000D01*
X118355604Y-95945297D01*
X118350861Y-95943202D01*
X118348158Y-95942847D01*
X118314325Y-95927070D01*
X118258110Y-95902249D01*
X118182751Y-95826890D01*
X118157938Y-95770695D01*
X118142152Y-95736841D01*
X118141795Y-95734135D01*
X118139703Y-95729396D01*
X118132000Y-95663000D01*
X118132000Y-95138000D01*
X118139703Y-95071604D01*
X118141795Y-95066864D01*
X118142152Y-95064158D01*
X118157947Y-95030285D01*
X118182751Y-94974110D01*
X118258110Y-94898751D01*
X118314285Y-94873947D01*
X118348158Y-94858152D01*
X118350864Y-94857795D01*
X118355604Y-94855703D01*
X118422000Y-94848000D01*
X119322000Y-94848000D01*
X119388396Y-94855703D01*
G37*
G36*
X66923710Y-94363463D02*
G01*
X66985350Y-94404650D01*
X67026537Y-94466290D01*
X67041000Y-94539000D01*
X67041000Y-94839000D01*
X67026537Y-94911710D01*
X66985350Y-94973350D01*
X66923710Y-95014537D01*
X66851000Y-95029000D01*
X65376000Y-95029000D01*
X65303290Y-95014537D01*
X65241650Y-94973350D01*
X65200463Y-94911710D01*
X65186000Y-94839000D01*
X65186000Y-94539000D01*
X65200463Y-94466290D01*
X65241650Y-94404650D01*
X65303290Y-94363463D01*
X65376000Y-94349000D01*
X66851000Y-94349000D01*
X66923710Y-94363463D01*
G37*
G36*
X72048710Y-94363463D02*
G01*
X72110350Y-94404650D01*
X72151537Y-94466290D01*
X72166000Y-94539000D01*
X72166000Y-94839000D01*
X72151537Y-94911710D01*
X72110350Y-94973350D01*
X72048710Y-95014537D01*
X71976000Y-95029000D01*
X70501000Y-95029000D01*
X70428290Y-95014537D01*
X70366650Y-94973350D01*
X70325463Y-94911710D01*
X70311000Y-94839000D01*
X70311000Y-94539000D01*
X70325463Y-94466290D01*
X70366650Y-94404650D01*
X70428290Y-94363463D01*
X70501000Y-94349000D01*
X71976000Y-94349000D01*
X72048710Y-94363463D01*
G37*
G36*
X121674396Y-93059703D02*
G01*
X121679135Y-93061795D01*
X121681841Y-93062152D01*
X121715695Y-93077938D01*
X121771890Y-93102751D01*
X121847249Y-93178110D01*
X121872070Y-93234325D01*
X121887847Y-93268158D01*
X121888202Y-93270861D01*
X121890297Y-93275604D01*
X121898000Y-93342000D01*
X121898000Y-93867000D01*
X121890297Y-93933396D01*
X121888202Y-93938139D01*
X121887847Y-93940841D01*
X121872079Y-93974655D01*
X121847249Y-94030890D01*
X121771890Y-94106249D01*
X121715655Y-94131079D01*
X121681841Y-94146847D01*
X121679139Y-94147202D01*
X121674396Y-94149297D01*
X121608000Y-94157000D01*
X120708000Y-94157000D01*
X120641604Y-94149297D01*
X120636861Y-94147202D01*
X120634158Y-94146847D01*
X120600325Y-94131070D01*
X120544110Y-94106249D01*
X120468751Y-94030890D01*
X120443938Y-93974695D01*
X120428152Y-93940841D01*
X120427795Y-93938135D01*
X120425703Y-93933396D01*
X120418000Y-93867000D01*
X120418000Y-93342000D01*
X120425703Y-93275604D01*
X120427795Y-93270864D01*
X120428152Y-93268158D01*
X120443947Y-93234285D01*
X120468751Y-93178110D01*
X120544110Y-93102751D01*
X120600285Y-93077947D01*
X120634158Y-93062152D01*
X120636864Y-93061795D01*
X120641604Y-93059703D01*
X120708000Y-93052000D01*
X121608000Y-93052000D01*
X121674396Y-93059703D01*
G37*
G36*
X119388396Y-93030703D02*
G01*
X119393135Y-93032795D01*
X119395841Y-93033152D01*
X119429695Y-93048938D01*
X119485890Y-93073751D01*
X119561249Y-93149110D01*
X119586070Y-93205325D01*
X119601847Y-93239158D01*
X119602202Y-93241861D01*
X119604297Y-93246604D01*
X119612000Y-93313000D01*
X119612000Y-93838000D01*
X119604297Y-93904396D01*
X119602202Y-93909139D01*
X119601847Y-93911841D01*
X119586079Y-93945655D01*
X119561249Y-94001890D01*
X119485890Y-94077249D01*
X119429655Y-94102079D01*
X119395841Y-94117847D01*
X119393139Y-94118202D01*
X119388396Y-94120297D01*
X119322000Y-94128000D01*
X118422000Y-94128000D01*
X118355604Y-94120297D01*
X118350861Y-94118202D01*
X118348158Y-94117847D01*
X118314325Y-94102070D01*
X118258110Y-94077249D01*
X118182751Y-94001890D01*
X118157938Y-93945695D01*
X118142152Y-93911841D01*
X118141795Y-93909135D01*
X118139703Y-93904396D01*
X118132000Y-93838000D01*
X118132000Y-93313000D01*
X118139703Y-93246604D01*
X118141795Y-93241864D01*
X118142152Y-93239158D01*
X118157947Y-93205285D01*
X118182751Y-93149110D01*
X118258110Y-93073751D01*
X118314285Y-93048947D01*
X118348158Y-93033152D01*
X118350864Y-93032795D01*
X118355604Y-93030703D01*
X118422000Y-93023000D01*
X119322000Y-93023000D01*
X119388396Y-93030703D01*
G37*
G36*
X117074307Y-92581045D02*
G01*
X117087284Y-92589716D01*
X117095955Y-92602693D01*
X117099000Y-92618000D01*
X117099000Y-93818000D01*
X117095955Y-93833307D01*
X117087284Y-93846284D01*
X117074307Y-93854955D01*
X117059000Y-93858000D01*
X115859000Y-93858000D01*
X115843693Y-93854955D01*
X115830716Y-93846284D01*
X115822045Y-93833307D01*
X115819000Y-93818000D01*
X115819000Y-92618000D01*
X115822045Y-92602693D01*
X115830716Y-92589716D01*
X115843693Y-92581045D01*
X115859000Y-92578000D01*
X117059000Y-92578000D01*
X117074307Y-92581045D01*
G37*
G36*
X114381396Y-92532703D02*
G01*
X114386135Y-92534795D01*
X114388841Y-92535152D01*
X114422695Y-92550938D01*
X114478890Y-92575751D01*
X114554249Y-92651110D01*
X114579070Y-92707325D01*
X114594847Y-92741158D01*
X114595202Y-92743861D01*
X114597297Y-92748604D01*
X114605000Y-92815000D01*
X114605000Y-93465000D01*
X114597297Y-93531396D01*
X114595202Y-93536139D01*
X114594847Y-93538841D01*
X114579079Y-93572655D01*
X114554249Y-93628890D01*
X114478890Y-93704249D01*
X114422655Y-93729079D01*
X114388841Y-93744847D01*
X114386139Y-93745202D01*
X114381396Y-93747297D01*
X114315000Y-93755000D01*
X113015000Y-93755000D01*
X112948604Y-93747297D01*
X112943861Y-93745202D01*
X112941158Y-93744847D01*
X112907325Y-93729070D01*
X112851110Y-93704249D01*
X112775751Y-93628890D01*
X112750938Y-93572695D01*
X112735152Y-93538841D01*
X112734795Y-93536135D01*
X112732703Y-93531396D01*
X112725000Y-93465000D01*
X112725000Y-92815000D01*
X112732703Y-92748604D01*
X112734795Y-92743864D01*
X112735152Y-92741158D01*
X112750947Y-92707285D01*
X112775751Y-92651110D01*
X112851110Y-92575751D01*
X112907285Y-92550947D01*
X112941158Y-92535152D01*
X112943864Y-92534795D01*
X112948604Y-92532703D01*
X113015000Y-92525000D01*
X114315000Y-92525000D01*
X114381396Y-92532703D01*
G37*
G36*
X66345396Y-90453703D02*
G01*
X66350135Y-90455795D01*
X66352841Y-90456152D01*
X66386695Y-90471938D01*
X66442890Y-90496751D01*
X66518249Y-90572110D01*
X66543070Y-90628325D01*
X66558847Y-90662158D01*
X66559202Y-90664861D01*
X66561297Y-90669604D01*
X66569000Y-90736000D01*
X66569000Y-91636000D01*
X66561297Y-91702396D01*
X66559202Y-91707139D01*
X66558847Y-91709841D01*
X66543079Y-91743655D01*
X66518249Y-91799890D01*
X66442890Y-91875249D01*
X66386655Y-91900079D01*
X66352841Y-91915847D01*
X66350139Y-91916202D01*
X66345396Y-91918297D01*
X66279000Y-91926000D01*
X65754000Y-91926000D01*
X65687604Y-91918297D01*
X65682861Y-91916202D01*
X65680158Y-91915847D01*
X65646325Y-91900070D01*
X65590110Y-91875249D01*
X65514751Y-91799890D01*
X65489938Y-91743695D01*
X65474152Y-91709841D01*
X65473795Y-91707135D01*
X65471703Y-91702396D01*
X65464000Y-91636000D01*
X65464000Y-90736000D01*
X65471703Y-90669604D01*
X65473795Y-90664864D01*
X65474152Y-90662158D01*
X65489947Y-90628285D01*
X65514751Y-90572110D01*
X65590110Y-90496751D01*
X65646285Y-90471947D01*
X65680158Y-90456152D01*
X65682864Y-90455795D01*
X65687604Y-90453703D01*
X65754000Y-90446000D01*
X66279000Y-90446000D01*
X66345396Y-90453703D01*
G37*
G36*
X68170396Y-90453703D02*
G01*
X68175135Y-90455795D01*
X68177841Y-90456152D01*
X68211695Y-90471938D01*
X68267890Y-90496751D01*
X68343249Y-90572110D01*
X68368070Y-90628325D01*
X68383847Y-90662158D01*
X68384202Y-90664861D01*
X68386297Y-90669604D01*
X68394000Y-90736000D01*
X68394000Y-91636000D01*
X68386297Y-91702396D01*
X68384202Y-91707139D01*
X68383847Y-91709841D01*
X68368079Y-91743655D01*
X68343249Y-91799890D01*
X68267890Y-91875249D01*
X68211655Y-91900079D01*
X68177841Y-91915847D01*
X68175139Y-91916202D01*
X68170396Y-91918297D01*
X68104000Y-91926000D01*
X67579000Y-91926000D01*
X67512604Y-91918297D01*
X67507861Y-91916202D01*
X67505158Y-91915847D01*
X67471325Y-91900070D01*
X67415110Y-91875249D01*
X67339751Y-91799890D01*
X67314938Y-91743695D01*
X67299152Y-91709841D01*
X67298795Y-91707135D01*
X67296703Y-91702396D01*
X67289000Y-91636000D01*
X67289000Y-90736000D01*
X67296703Y-90669604D01*
X67298795Y-90664864D01*
X67299152Y-90662158D01*
X67314947Y-90628285D01*
X67339751Y-90572110D01*
X67415110Y-90496751D01*
X67471285Y-90471947D01*
X67505158Y-90456152D01*
X67507864Y-90455795D01*
X67512604Y-90453703D01*
X67579000Y-90446000D01*
X68104000Y-90446000D01*
X68170396Y-90453703D01*
G37*
G36*
X70874396Y-90664703D02*
G01*
X70879135Y-90666795D01*
X70881841Y-90667152D01*
X70915695Y-90682938D01*
X70971890Y-90707751D01*
X71047249Y-90783110D01*
X71072070Y-90839325D01*
X71087847Y-90873158D01*
X71088202Y-90875861D01*
X71090297Y-90880604D01*
X71098000Y-90947000D01*
X71098000Y-91472000D01*
X71090297Y-91538396D01*
X71088202Y-91543139D01*
X71087847Y-91545841D01*
X71072079Y-91579655D01*
X71047249Y-91635890D01*
X70971890Y-91711249D01*
X70915655Y-91736079D01*
X70881841Y-91751847D01*
X70879139Y-91752202D01*
X70874396Y-91754297D01*
X70808000Y-91762000D01*
X69908000Y-91762000D01*
X69841604Y-91754297D01*
X69836861Y-91752202D01*
X69834158Y-91751847D01*
X69800325Y-91736070D01*
X69744110Y-91711249D01*
X69668751Y-91635890D01*
X69643938Y-91579695D01*
X69628152Y-91545841D01*
X69627795Y-91543135D01*
X69625703Y-91538396D01*
X69618000Y-91472000D01*
X69618000Y-90947000D01*
X69625703Y-90880604D01*
X69627795Y-90875864D01*
X69628152Y-90873158D01*
X69643947Y-90839285D01*
X69668751Y-90783110D01*
X69744110Y-90707751D01*
X69800285Y-90682947D01*
X69834158Y-90667152D01*
X69836864Y-90666795D01*
X69841604Y-90664703D01*
X69908000Y-90657000D01*
X70808000Y-90657000D01*
X70874396Y-90664703D01*
G37*
G36*
X70874396Y-88839703D02*
G01*
X70879135Y-88841795D01*
X70881841Y-88842152D01*
X70915695Y-88857938D01*
X70971890Y-88882751D01*
X71047249Y-88958110D01*
X71072070Y-89014325D01*
X71087847Y-89048158D01*
X71088202Y-89050861D01*
X71090297Y-89055604D01*
X71098000Y-89122000D01*
X71098000Y-89647000D01*
X71090297Y-89713396D01*
X71088202Y-89718139D01*
X71087847Y-89720841D01*
X71072079Y-89754655D01*
X71047249Y-89810890D01*
X70971890Y-89886249D01*
X70915655Y-89911079D01*
X70881841Y-89926847D01*
X70879139Y-89927202D01*
X70874396Y-89929297D01*
X70808000Y-89937000D01*
X69908000Y-89937000D01*
X69841604Y-89929297D01*
X69836861Y-89927202D01*
X69834158Y-89926847D01*
X69800325Y-89911070D01*
X69744110Y-89886249D01*
X69668751Y-89810890D01*
X69643938Y-89754695D01*
X69628152Y-89720841D01*
X69627795Y-89718135D01*
X69625703Y-89713396D01*
X69618000Y-89647000D01*
X69618000Y-89122000D01*
X69625703Y-89055604D01*
X69627795Y-89050864D01*
X69628152Y-89048158D01*
X69643947Y-89014285D01*
X69668751Y-88958110D01*
X69744110Y-88882751D01*
X69800285Y-88857947D01*
X69834158Y-88842152D01*
X69836864Y-88841795D01*
X69841604Y-88839703D01*
X69908000Y-88832000D01*
X70808000Y-88832000D01*
X70874396Y-88839703D01*
G37*
G36*
X113673396Y-88759703D02*
G01*
X113678135Y-88761795D01*
X113680841Y-88762152D01*
X113714695Y-88777938D01*
X113770890Y-88802751D01*
X113846249Y-88878110D01*
X113871070Y-88934325D01*
X113886847Y-88968158D01*
X113887202Y-88970861D01*
X113889297Y-88975604D01*
X113897000Y-89042000D01*
X113897000Y-89567000D01*
X113889297Y-89633396D01*
X113887202Y-89638139D01*
X113886847Y-89640841D01*
X113871079Y-89674655D01*
X113846249Y-89730890D01*
X113770890Y-89806249D01*
X113714655Y-89831079D01*
X113680841Y-89846847D01*
X113678139Y-89847202D01*
X113673396Y-89849297D01*
X113607000Y-89857000D01*
X112707000Y-89857000D01*
X112640604Y-89849297D01*
X112635861Y-89847202D01*
X112633158Y-89846847D01*
X112599325Y-89831070D01*
X112543110Y-89806249D01*
X112467751Y-89730890D01*
X112442938Y-89674695D01*
X112427152Y-89640841D01*
X112426795Y-89638135D01*
X112424703Y-89633396D01*
X112417000Y-89567000D01*
X112417000Y-89042000D01*
X112424703Y-88975604D01*
X112426795Y-88970864D01*
X112427152Y-88968158D01*
X112442947Y-88934285D01*
X112467751Y-88878110D01*
X112543110Y-88802751D01*
X112599285Y-88777947D01*
X112633158Y-88762152D01*
X112635864Y-88761795D01*
X112640604Y-88759703D01*
X112707000Y-88752000D01*
X113607000Y-88752000D01*
X113673396Y-88759703D01*
G37*
G36*
X117754210Y-89082463D02*
G01*
X117815850Y-89123650D01*
X117857037Y-89185290D01*
X117871500Y-89258000D01*
X117871500Y-89558000D01*
X117857037Y-89630710D01*
X117815850Y-89692350D01*
X117754210Y-89733537D01*
X117681500Y-89748000D01*
X116506500Y-89748000D01*
X116433790Y-89733537D01*
X116372150Y-89692350D01*
X116330963Y-89630710D01*
X116316500Y-89558000D01*
X116316500Y-89258000D01*
X116330963Y-89185290D01*
X116372150Y-89123650D01*
X116433790Y-89082463D01*
X116506500Y-89068000D01*
X117681500Y-89068000D01*
X117754210Y-89082463D01*
G37*
G36*
X65991396Y-87327703D02*
G01*
X65996135Y-87329795D01*
X65998841Y-87330152D01*
X66032695Y-87345938D01*
X66088890Y-87370751D01*
X66164249Y-87446110D01*
X66189070Y-87502325D01*
X66204847Y-87536158D01*
X66205202Y-87538861D01*
X66207297Y-87543604D01*
X66215000Y-87610000D01*
X66215000Y-89110000D01*
X66207297Y-89176396D01*
X66205202Y-89181139D01*
X66204847Y-89183841D01*
X66189079Y-89217655D01*
X66164249Y-89273890D01*
X66088890Y-89349249D01*
X66032655Y-89374079D01*
X65998841Y-89389847D01*
X65996139Y-89390202D01*
X65991396Y-89392297D01*
X65925000Y-89400000D01*
X65125000Y-89400000D01*
X65058604Y-89392297D01*
X65053861Y-89390202D01*
X65051158Y-89389847D01*
X65017325Y-89374070D01*
X64961110Y-89349249D01*
X64885751Y-89273890D01*
X64860938Y-89217695D01*
X64845152Y-89183841D01*
X64844795Y-89181135D01*
X64842703Y-89176396D01*
X64835000Y-89110000D01*
X64835000Y-87610000D01*
X64842703Y-87543604D01*
X64844795Y-87538864D01*
X64845152Y-87536158D01*
X64860947Y-87502285D01*
X64885751Y-87446110D01*
X64961110Y-87370751D01*
X65017285Y-87345947D01*
X65051158Y-87330152D01*
X65053864Y-87329795D01*
X65058604Y-87327703D01*
X65125000Y-87320000D01*
X65925000Y-87320000D01*
X65991396Y-87327703D01*
G37*
G36*
X68291396Y-87327703D02*
G01*
X68296135Y-87329795D01*
X68298841Y-87330152D01*
X68332695Y-87345938D01*
X68388890Y-87370751D01*
X68464249Y-87446110D01*
X68489070Y-87502325D01*
X68504847Y-87536158D01*
X68505202Y-87538861D01*
X68507297Y-87543604D01*
X68515000Y-87610000D01*
X68515000Y-89110000D01*
X68507297Y-89176396D01*
X68505202Y-89181139D01*
X68504847Y-89183841D01*
X68489079Y-89217655D01*
X68464249Y-89273890D01*
X68388890Y-89349249D01*
X68332655Y-89374079D01*
X68298841Y-89389847D01*
X68296139Y-89390202D01*
X68291396Y-89392297D01*
X68225000Y-89400000D01*
X67425000Y-89400000D01*
X67358604Y-89392297D01*
X67353861Y-89390202D01*
X67351158Y-89389847D01*
X67317325Y-89374070D01*
X67261110Y-89349249D01*
X67185751Y-89273890D01*
X67160938Y-89217695D01*
X67145152Y-89183841D01*
X67144795Y-89181135D01*
X67142703Y-89176396D01*
X67135000Y-89110000D01*
X67135000Y-87610000D01*
X67142703Y-87543604D01*
X67144795Y-87538864D01*
X67145152Y-87536158D01*
X67160947Y-87502285D01*
X67185751Y-87446110D01*
X67261110Y-87370751D01*
X67317285Y-87345947D01*
X67351158Y-87330152D01*
X67353864Y-87329795D01*
X67358604Y-87327703D01*
X67425000Y-87320000D01*
X68225000Y-87320000D01*
X68291396Y-87327703D01*
G37*
G36*
X119629210Y-88132463D02*
G01*
X119690850Y-88173650D01*
X119732037Y-88235290D01*
X119746500Y-88308000D01*
X119746500Y-88608000D01*
X119732037Y-88680710D01*
X119690850Y-88742350D01*
X119629210Y-88783537D01*
X119556500Y-88798000D01*
X118381500Y-88798000D01*
X118308790Y-88783537D01*
X118247150Y-88742350D01*
X118205963Y-88680710D01*
X118191500Y-88608000D01*
X118191500Y-88308000D01*
X118205963Y-88235290D01*
X118247150Y-88173650D01*
X118308790Y-88132463D01*
X118381500Y-88118000D01*
X119556500Y-88118000D01*
X119629210Y-88132463D01*
G37*
G36*
X113673396Y-86934703D02*
G01*
X113678135Y-86936795D01*
X113680841Y-86937152D01*
X113714695Y-86952938D01*
X113770890Y-86977751D01*
X113846249Y-87053110D01*
X113871070Y-87109325D01*
X113886847Y-87143158D01*
X113887202Y-87145861D01*
X113889297Y-87150604D01*
X113897000Y-87217000D01*
X113897000Y-87742000D01*
X113889297Y-87808396D01*
X113887202Y-87813139D01*
X113886847Y-87815841D01*
X113871079Y-87849655D01*
X113846249Y-87905890D01*
X113770890Y-87981249D01*
X113714655Y-88006079D01*
X113680841Y-88021847D01*
X113678139Y-88022202D01*
X113673396Y-88024297D01*
X113607000Y-88032000D01*
X112707000Y-88032000D01*
X112640604Y-88024297D01*
X112635861Y-88022202D01*
X112633158Y-88021847D01*
X112599325Y-88006070D01*
X112543110Y-87981249D01*
X112467751Y-87905890D01*
X112442938Y-87849695D01*
X112427152Y-87815841D01*
X112426795Y-87813135D01*
X112424703Y-87808396D01*
X112417000Y-87742000D01*
X112417000Y-87217000D01*
X112424703Y-87150604D01*
X112426795Y-87145864D01*
X112427152Y-87143158D01*
X112442947Y-87109285D01*
X112467751Y-87053110D01*
X112543110Y-86977751D01*
X112599285Y-86952947D01*
X112633158Y-86937152D01*
X112635864Y-86936795D01*
X112640604Y-86934703D01*
X112707000Y-86927000D01*
X113607000Y-86927000D01*
X113673396Y-86934703D01*
G37*
G36*
X93404396Y-86062703D02*
G01*
X93409135Y-86064795D01*
X93411841Y-86065152D01*
X93445695Y-86080938D01*
X93501890Y-86105751D01*
X93577249Y-86181110D01*
X93602070Y-86237325D01*
X93617847Y-86271158D01*
X93618202Y-86273861D01*
X93620297Y-86278604D01*
X93628000Y-86345000D01*
X93628000Y-87645000D01*
X93620297Y-87711396D01*
X93618202Y-87716139D01*
X93617847Y-87718841D01*
X93602079Y-87752655D01*
X93577249Y-87808890D01*
X93501890Y-87884249D01*
X93445655Y-87909079D01*
X93411841Y-87924847D01*
X93409139Y-87925202D01*
X93404396Y-87927297D01*
X93338000Y-87935000D01*
X92688000Y-87935000D01*
X92621604Y-87927297D01*
X92616861Y-87925202D01*
X92614158Y-87924847D01*
X92580325Y-87909070D01*
X92524110Y-87884249D01*
X92448751Y-87808890D01*
X92423938Y-87752695D01*
X92408152Y-87718841D01*
X92407795Y-87716135D01*
X92405703Y-87711396D01*
X92398000Y-87645000D01*
X92398000Y-86345000D01*
X92405703Y-86278604D01*
X92407795Y-86273864D01*
X92408152Y-86271158D01*
X92423947Y-86237285D01*
X92448751Y-86181110D01*
X92524110Y-86105751D01*
X92580285Y-86080947D01*
X92614158Y-86065152D01*
X92616864Y-86064795D01*
X92621604Y-86062703D01*
X92688000Y-86055000D01*
X93338000Y-86055000D01*
X93404396Y-86062703D01*
G37*
G36*
X96354396Y-86062703D02*
G01*
X96359135Y-86064795D01*
X96361841Y-86065152D01*
X96395695Y-86080938D01*
X96451890Y-86105751D01*
X96527249Y-86181110D01*
X96552070Y-86237325D01*
X96567847Y-86271158D01*
X96568202Y-86273861D01*
X96570297Y-86278604D01*
X96578000Y-86345000D01*
X96578000Y-87645000D01*
X96570297Y-87711396D01*
X96568202Y-87716139D01*
X96567847Y-87718841D01*
X96552079Y-87752655D01*
X96527249Y-87808890D01*
X96451890Y-87884249D01*
X96395655Y-87909079D01*
X96361841Y-87924847D01*
X96359139Y-87925202D01*
X96354396Y-87927297D01*
X96288000Y-87935000D01*
X95638000Y-87935000D01*
X95571604Y-87927297D01*
X95566861Y-87925202D01*
X95564158Y-87924847D01*
X95530325Y-87909070D01*
X95474110Y-87884249D01*
X95398751Y-87808890D01*
X95373938Y-87752695D01*
X95358152Y-87718841D01*
X95357795Y-87716135D01*
X95355703Y-87711396D01*
X95348000Y-87645000D01*
X95348000Y-86345000D01*
X95355703Y-86278604D01*
X95357795Y-86273864D01*
X95358152Y-86271158D01*
X95373947Y-86237285D01*
X95398751Y-86181110D01*
X95474110Y-86105751D01*
X95530285Y-86080947D01*
X95564158Y-86065152D01*
X95566864Y-86064795D01*
X95571604Y-86062703D01*
X95638000Y-86055000D01*
X96288000Y-86055000D01*
X96354396Y-86062703D01*
G37*
G36*
X117754210Y-87182463D02*
G01*
X117815850Y-87223650D01*
X117857037Y-87285290D01*
X117871500Y-87358000D01*
X117871500Y-87658000D01*
X117857037Y-87730710D01*
X117815850Y-87792350D01*
X117754210Y-87833537D01*
X117681500Y-87848000D01*
X116506500Y-87848000D01*
X116433790Y-87833537D01*
X116372150Y-87792350D01*
X116330963Y-87730710D01*
X116316500Y-87658000D01*
X116316500Y-87358000D01*
X116330963Y-87285290D01*
X116372150Y-87223650D01*
X116433790Y-87182463D01*
X116506500Y-87168000D01*
X117681500Y-87168000D01*
X117754210Y-87182463D01*
G37*
G36*
X122628710Y-85206463D02*
G01*
X122690350Y-85247650D01*
X122731537Y-85309290D01*
X122746000Y-85382000D01*
X122746000Y-85682000D01*
X122731537Y-85754710D01*
X122690350Y-85816350D01*
X122628710Y-85857537D01*
X122556000Y-85872000D01*
X121381000Y-85872000D01*
X121308290Y-85857537D01*
X121246650Y-85816350D01*
X121205463Y-85754710D01*
X121191000Y-85682000D01*
X121191000Y-85382000D01*
X121205463Y-85309290D01*
X121246650Y-85247650D01*
X121308290Y-85206463D01*
X121381000Y-85192000D01*
X122556000Y-85192000D01*
X122628710Y-85206463D01*
G37*
G36*
X88405396Y-82945703D02*
G01*
X88410135Y-82947795D01*
X88412841Y-82948152D01*
X88446695Y-82963938D01*
X88502890Y-82988751D01*
X88578249Y-83064110D01*
X88603070Y-83120325D01*
X88618847Y-83154158D01*
X88619202Y-83156861D01*
X88621297Y-83161604D01*
X88629000Y-83228000D01*
X88629000Y-85428000D01*
X88621297Y-85494396D01*
X88619202Y-85499139D01*
X88618847Y-85501841D01*
X88603079Y-85535655D01*
X88578249Y-85591890D01*
X88502890Y-85667249D01*
X88446655Y-85692079D01*
X88412841Y-85707847D01*
X88410139Y-85708202D01*
X88405396Y-85710297D01*
X88339000Y-85718000D01*
X87689000Y-85718000D01*
X87622604Y-85710297D01*
X87617861Y-85708202D01*
X87615158Y-85707847D01*
X87581325Y-85692070D01*
X87525110Y-85667249D01*
X87449751Y-85591890D01*
X87424938Y-85535695D01*
X87409152Y-85501841D01*
X87408795Y-85499135D01*
X87406703Y-85494396D01*
X87399000Y-85428000D01*
X87399000Y-83228000D01*
X87406703Y-83161604D01*
X87408795Y-83156864D01*
X87409152Y-83154158D01*
X87424947Y-83120285D01*
X87449751Y-83064110D01*
X87525110Y-82988751D01*
X87581285Y-82963947D01*
X87615158Y-82948152D01*
X87617864Y-82947795D01*
X87622604Y-82945703D01*
X87689000Y-82938000D01*
X88339000Y-82938000D01*
X88405396Y-82945703D01*
G37*
G36*
X91355396Y-82945703D02*
G01*
X91360135Y-82947795D01*
X91362841Y-82948152D01*
X91396695Y-82963938D01*
X91452890Y-82988751D01*
X91528249Y-83064110D01*
X91553070Y-83120325D01*
X91568847Y-83154158D01*
X91569202Y-83156861D01*
X91571297Y-83161604D01*
X91579000Y-83228000D01*
X91579000Y-85428000D01*
X91571297Y-85494396D01*
X91569202Y-85499139D01*
X91568847Y-85501841D01*
X91553079Y-85535655D01*
X91528249Y-85591890D01*
X91452890Y-85667249D01*
X91396655Y-85692079D01*
X91362841Y-85707847D01*
X91360139Y-85708202D01*
X91355396Y-85710297D01*
X91289000Y-85718000D01*
X90639000Y-85718000D01*
X90572604Y-85710297D01*
X90567861Y-85708202D01*
X90565158Y-85707847D01*
X90531325Y-85692070D01*
X90475110Y-85667249D01*
X90399751Y-85591890D01*
X90374938Y-85535695D01*
X90359152Y-85501841D01*
X90358795Y-85499135D01*
X90356703Y-85494396D01*
X90349000Y-85428000D01*
X90349000Y-83228000D01*
X90356703Y-83161604D01*
X90358795Y-83156864D01*
X90359152Y-83154158D01*
X90374947Y-83120285D01*
X90399751Y-83064110D01*
X90475110Y-82988751D01*
X90531285Y-82963947D01*
X90565158Y-82948152D01*
X90567864Y-82947795D01*
X90572604Y-82945703D01*
X90639000Y-82938000D01*
X91289000Y-82938000D01*
X91355396Y-82945703D01*
G37*
G36*
X67491396Y-83327703D02*
G01*
X67496135Y-83329795D01*
X67498841Y-83330152D01*
X67532695Y-83345938D01*
X67588890Y-83370751D01*
X67664249Y-83446110D01*
X67689070Y-83502325D01*
X67704847Y-83536158D01*
X67705202Y-83538861D01*
X67707297Y-83543604D01*
X67715000Y-83610000D01*
X67715000Y-85110000D01*
X67707297Y-85176396D01*
X67705202Y-85181139D01*
X67704847Y-85183841D01*
X67689079Y-85217655D01*
X67664249Y-85273890D01*
X67588890Y-85349249D01*
X67532655Y-85374079D01*
X67498841Y-85389847D01*
X67496139Y-85390202D01*
X67491396Y-85392297D01*
X67425000Y-85400000D01*
X65925000Y-85400000D01*
X65858604Y-85392297D01*
X65853861Y-85390202D01*
X65851158Y-85389847D01*
X65817325Y-85374070D01*
X65761110Y-85349249D01*
X65685751Y-85273890D01*
X65660938Y-85217695D01*
X65645152Y-85183841D01*
X65644795Y-85181135D01*
X65642703Y-85176396D01*
X65635000Y-85110000D01*
X65635000Y-83610000D01*
X65642703Y-83543604D01*
X65644795Y-83538864D01*
X65645152Y-83536158D01*
X65660947Y-83502285D01*
X65685751Y-83446110D01*
X65761110Y-83370751D01*
X65817285Y-83345947D01*
X65851158Y-83330152D01*
X65853864Y-83329795D01*
X65858604Y-83327703D01*
X65925000Y-83320000D01*
X67425000Y-83320000D01*
X67491396Y-83327703D01*
G37*
G36*
X93404396Y-83522703D02*
G01*
X93409135Y-83524795D01*
X93411841Y-83525152D01*
X93445695Y-83540938D01*
X93501890Y-83565751D01*
X93577249Y-83641110D01*
X93602070Y-83697325D01*
X93617847Y-83731158D01*
X93618202Y-83733861D01*
X93620297Y-83738604D01*
X93628000Y-83805000D01*
X93628000Y-85105000D01*
X93620297Y-85171396D01*
X93618202Y-85176139D01*
X93617847Y-85178841D01*
X93602079Y-85212655D01*
X93577249Y-85268890D01*
X93501890Y-85344249D01*
X93445655Y-85369079D01*
X93411841Y-85384847D01*
X93409139Y-85385202D01*
X93404396Y-85387297D01*
X93338000Y-85395000D01*
X92688000Y-85395000D01*
X92621604Y-85387297D01*
X92616861Y-85385202D01*
X92614158Y-85384847D01*
X92580325Y-85369070D01*
X92524110Y-85344249D01*
X92448751Y-85268890D01*
X92423938Y-85212695D01*
X92408152Y-85178841D01*
X92407795Y-85176135D01*
X92405703Y-85171396D01*
X92398000Y-85105000D01*
X92398000Y-83805000D01*
X92405703Y-83738604D01*
X92407795Y-83733864D01*
X92408152Y-83731158D01*
X92423947Y-83697285D01*
X92448751Y-83641110D01*
X92524110Y-83565751D01*
X92580285Y-83540947D01*
X92614158Y-83525152D01*
X92616864Y-83524795D01*
X92621604Y-83522703D01*
X92688000Y-83515000D01*
X93338000Y-83515000D01*
X93404396Y-83522703D01*
G37*
G36*
X96354396Y-83522703D02*
G01*
X96359135Y-83524795D01*
X96361841Y-83525152D01*
X96395695Y-83540938D01*
X96451890Y-83565751D01*
X96527249Y-83641110D01*
X96552070Y-83697325D01*
X96567847Y-83731158D01*
X96568202Y-83733861D01*
X96570297Y-83738604D01*
X96578000Y-83805000D01*
X96578000Y-85105000D01*
X96570297Y-85171396D01*
X96568202Y-85176139D01*
X96567847Y-85178841D01*
X96552079Y-85212655D01*
X96527249Y-85268890D01*
X96451890Y-85344249D01*
X96395655Y-85369079D01*
X96361841Y-85384847D01*
X96359139Y-85385202D01*
X96354396Y-85387297D01*
X96288000Y-85395000D01*
X95638000Y-85395000D01*
X95571604Y-85387297D01*
X95566861Y-85385202D01*
X95564158Y-85384847D01*
X95530325Y-85369070D01*
X95474110Y-85344249D01*
X95398751Y-85268890D01*
X95373938Y-85212695D01*
X95358152Y-85178841D01*
X95357795Y-85176135D01*
X95355703Y-85171396D01*
X95348000Y-85105000D01*
X95348000Y-83805000D01*
X95355703Y-83738604D01*
X95357795Y-83733864D01*
X95358152Y-83731158D01*
X95373947Y-83697285D01*
X95398751Y-83641110D01*
X95474110Y-83565751D01*
X95530285Y-83540947D01*
X95564158Y-83525152D01*
X95566864Y-83524795D01*
X95571604Y-83522703D01*
X95638000Y-83515000D01*
X96288000Y-83515000D01*
X96354396Y-83522703D01*
G37*
G36*
X120753710Y-84256463D02*
G01*
X120815350Y-84297650D01*
X120856537Y-84359290D01*
X120871000Y-84432000D01*
X120871000Y-84732000D01*
X120856537Y-84804710D01*
X120815350Y-84866350D01*
X120753710Y-84907537D01*
X120681000Y-84922000D01*
X119506000Y-84922000D01*
X119433290Y-84907537D01*
X119371650Y-84866350D01*
X119330463Y-84804710D01*
X119316000Y-84732000D01*
X119316000Y-84432000D01*
X119330463Y-84359290D01*
X119371650Y-84297650D01*
X119433290Y-84256463D01*
X119506000Y-84242000D01*
X120681000Y-84242000D01*
X120753710Y-84256463D01*
G37*
G36*
X76358396Y-82025703D02*
G01*
X76363135Y-82027795D01*
X76365841Y-82028152D01*
X76399695Y-82043938D01*
X76455890Y-82068751D01*
X76531249Y-82144110D01*
X76556070Y-82200325D01*
X76571847Y-82234158D01*
X76572202Y-82236861D01*
X76574297Y-82241604D01*
X76582000Y-82308000D01*
X76582000Y-83808000D01*
X76574297Y-83874396D01*
X76572202Y-83879139D01*
X76571847Y-83881841D01*
X76556079Y-83915655D01*
X76531249Y-83971890D01*
X76455890Y-84047249D01*
X76399655Y-84072079D01*
X76365841Y-84087847D01*
X76363139Y-84088202D01*
X76358396Y-84090297D01*
X76292000Y-84098000D01*
X75092000Y-84098000D01*
X75025604Y-84090297D01*
X75020861Y-84088202D01*
X75018158Y-84087847D01*
X74984325Y-84072070D01*
X74928110Y-84047249D01*
X74852751Y-83971890D01*
X74827938Y-83915695D01*
X74812152Y-83881841D01*
X74811795Y-83879135D01*
X74809703Y-83874396D01*
X74802000Y-83808000D01*
X74802000Y-82308000D01*
X74809703Y-82241604D01*
X74811795Y-82236864D01*
X74812152Y-82234158D01*
X74827947Y-82200285D01*
X74852751Y-82144110D01*
X74928110Y-82068751D01*
X74984285Y-82043947D01*
X75018158Y-82028152D01*
X75020864Y-82027795D01*
X75025604Y-82025703D01*
X75092000Y-82018000D01*
X76292000Y-82018000D01*
X76358396Y-82025703D01*
G37*
G36*
X73450353Y-82056323D02*
G01*
X73611543Y-82123090D01*
X73756610Y-82220021D01*
X73879979Y-82343390D01*
X73976910Y-82488457D01*
X74043677Y-82649647D01*
X74077714Y-82820765D01*
X74082000Y-82908000D01*
X74082000Y-83208000D01*
X74077714Y-83295235D01*
X74043677Y-83466353D01*
X73976910Y-83627543D01*
X73879979Y-83772610D01*
X73756610Y-83895979D01*
X73611543Y-83992910D01*
X73450353Y-84059677D01*
X73279235Y-84093714D01*
X73104765Y-84093714D01*
X72933647Y-84059677D01*
X72772457Y-83992910D01*
X72627390Y-83895979D01*
X72504021Y-83772610D01*
X72407090Y-83627543D01*
X72340323Y-83466353D01*
X72306286Y-83295235D01*
X72302000Y-83208000D01*
X72302000Y-82908000D01*
X72306286Y-82820765D01*
X72340323Y-82649647D01*
X72407090Y-82488457D01*
X72504021Y-82343390D01*
X72627390Y-82220021D01*
X72772457Y-82123090D01*
X72933647Y-82056323D01*
X73104765Y-82022286D01*
X73279235Y-82022286D01*
X73450353Y-82056323D01*
G37*
G36*
X122628710Y-83306463D02*
G01*
X122690350Y-83347650D01*
X122731537Y-83409290D01*
X122746000Y-83482000D01*
X122746000Y-83782000D01*
X122731537Y-83854710D01*
X122690350Y-83916350D01*
X122628710Y-83957537D01*
X122556000Y-83972000D01*
X121381000Y-83972000D01*
X121308290Y-83957537D01*
X121246650Y-83916350D01*
X121205463Y-83854710D01*
X121191000Y-83782000D01*
X121191000Y-83482000D01*
X121205463Y-83409290D01*
X121246650Y-83347650D01*
X121308290Y-83306463D01*
X121381000Y-83292000D01*
X122556000Y-83292000D01*
X122628710Y-83306463D01*
G37*
G36*
X95063396Y-77825703D02*
G01*
X95068135Y-77827795D01*
X95070841Y-77828152D01*
X95104695Y-77843938D01*
X95160890Y-77868751D01*
X95236249Y-77944110D01*
X95261070Y-78000325D01*
X95276847Y-78034158D01*
X95277202Y-78036861D01*
X95279297Y-78041604D01*
X95287000Y-78108000D01*
X95287000Y-81208000D01*
X95279297Y-81274396D01*
X95277202Y-81279139D01*
X95276847Y-81281841D01*
X95261079Y-81315655D01*
X95236249Y-81371890D01*
X95160890Y-81447249D01*
X95104655Y-81472079D01*
X95070841Y-81487847D01*
X95068139Y-81488202D01*
X95063396Y-81490297D01*
X94997000Y-81498000D01*
X92997000Y-81498000D01*
X92930604Y-81490297D01*
X92925861Y-81488202D01*
X92923158Y-81487847D01*
X92889325Y-81472070D01*
X92833110Y-81447249D01*
X92757751Y-81371890D01*
X92732938Y-81315695D01*
X92717152Y-81281841D01*
X92716795Y-81279135D01*
X92714703Y-81274396D01*
X92707000Y-81208000D01*
X92707000Y-78108000D01*
X92714703Y-78041604D01*
X92716795Y-78036864D01*
X92717152Y-78034158D01*
X92732947Y-78000285D01*
X92757751Y-77944110D01*
X92833110Y-77868751D01*
X92889285Y-77843947D01*
X92923158Y-77828152D01*
X92925864Y-77827795D01*
X92930604Y-77825703D01*
X92997000Y-77818000D01*
X94997000Y-77818000D01*
X95063396Y-77825703D01*
G37*
G36*
X99763396Y-77825703D02*
G01*
X99768135Y-77827795D01*
X99770841Y-77828152D01*
X99804695Y-77843938D01*
X99860890Y-77868751D01*
X99936249Y-77944110D01*
X99961070Y-78000325D01*
X99976847Y-78034158D01*
X99977202Y-78036861D01*
X99979297Y-78041604D01*
X99987000Y-78108000D01*
X99987000Y-81208000D01*
X99979297Y-81274396D01*
X99977202Y-81279139D01*
X99976847Y-81281841D01*
X99961079Y-81315655D01*
X99936249Y-81371890D01*
X99860890Y-81447249D01*
X99804655Y-81472079D01*
X99770841Y-81487847D01*
X99768139Y-81488202D01*
X99763396Y-81490297D01*
X99697000Y-81498000D01*
X97697000Y-81498000D01*
X97630604Y-81490297D01*
X97625861Y-81488202D01*
X97623158Y-81487847D01*
X97589325Y-81472070D01*
X97533110Y-81447249D01*
X97457751Y-81371890D01*
X97432938Y-81315695D01*
X97417152Y-81281841D01*
X97416795Y-81279135D01*
X97414703Y-81274396D01*
X97407000Y-81208000D01*
X97407000Y-78108000D01*
X97414703Y-78041604D01*
X97416795Y-78036864D01*
X97417152Y-78034158D01*
X97432947Y-78000285D01*
X97457751Y-77944110D01*
X97533110Y-77868751D01*
X97589285Y-77843947D01*
X97623158Y-77828152D01*
X97625864Y-77827795D01*
X97630604Y-77825703D01*
X97697000Y-77818000D01*
X99697000Y-77818000D01*
X99763396Y-77825703D01*
G37*
G36*
X89490710Y-80507463D02*
G01*
X89552350Y-80548650D01*
X89593537Y-80610290D01*
X89608000Y-80683000D01*
X89608000Y-80983000D01*
X89593537Y-81055710D01*
X89552350Y-81117350D01*
X89490710Y-81158537D01*
X89418000Y-81173000D01*
X88393000Y-81173000D01*
X88320290Y-81158537D01*
X88258650Y-81117350D01*
X88217463Y-81055710D01*
X88203000Y-80983000D01*
X88203000Y-80683000D01*
X88217463Y-80610290D01*
X88258650Y-80548650D01*
X88320290Y-80507463D01*
X88393000Y-80493000D01*
X89418000Y-80493000D01*
X89490710Y-80507463D01*
G37*
G36*
X91765710Y-80507463D02*
G01*
X91827350Y-80548650D01*
X91868537Y-80610290D01*
X91883000Y-80683000D01*
X91883000Y-80983000D01*
X91868537Y-81055710D01*
X91827350Y-81117350D01*
X91765710Y-81158537D01*
X91693000Y-81173000D01*
X90668000Y-81173000D01*
X90595290Y-81158537D01*
X90533650Y-81117350D01*
X90492463Y-81055710D01*
X90478000Y-80983000D01*
X90478000Y-80683000D01*
X90492463Y-80610290D01*
X90533650Y-80548650D01*
X90595290Y-80507463D01*
X90668000Y-80493000D01*
X91693000Y-80493000D01*
X91765710Y-80507463D01*
G37*
G36*
X89490710Y-79557463D02*
G01*
X89552350Y-79598650D01*
X89593537Y-79660290D01*
X89608000Y-79733000D01*
X89608000Y-80033000D01*
X89593537Y-80105710D01*
X89552350Y-80167350D01*
X89490710Y-80208537D01*
X89418000Y-80223000D01*
X88393000Y-80223000D01*
X88320290Y-80208537D01*
X88258650Y-80167350D01*
X88217463Y-80105710D01*
X88203000Y-80033000D01*
X88203000Y-79733000D01*
X88217463Y-79660290D01*
X88258650Y-79598650D01*
X88320290Y-79557463D01*
X88393000Y-79543000D01*
X89418000Y-79543000D01*
X89490710Y-79557463D01*
G37*
G36*
X91765710Y-79557463D02*
G01*
X91827350Y-79598650D01*
X91868537Y-79660290D01*
X91883000Y-79733000D01*
X91883000Y-80033000D01*
X91868537Y-80105710D01*
X91827350Y-80167350D01*
X91765710Y-80208537D01*
X91693000Y-80223000D01*
X90668000Y-80223000D01*
X90595290Y-80208537D01*
X90533650Y-80167350D01*
X90492463Y-80105710D01*
X90478000Y-80033000D01*
X90478000Y-79733000D01*
X90492463Y-79660290D01*
X90533650Y-79598650D01*
X90595290Y-79557463D01*
X90668000Y-79543000D01*
X91693000Y-79543000D01*
X91765710Y-79557463D01*
G37*
G36*
X117494396Y-78382703D02*
G01*
X117499135Y-78384795D01*
X117501841Y-78385152D01*
X117535695Y-78400938D01*
X117591890Y-78425751D01*
X117667249Y-78501110D01*
X117692070Y-78557325D01*
X117707847Y-78591158D01*
X117708202Y-78593861D01*
X117710297Y-78598604D01*
X117718000Y-78665000D01*
X117718000Y-79915000D01*
X117710297Y-79981396D01*
X117708202Y-79986139D01*
X117707847Y-79988841D01*
X117692079Y-80022655D01*
X117667249Y-80078890D01*
X117591890Y-80154249D01*
X117535655Y-80179079D01*
X117501841Y-80194847D01*
X117499139Y-80195202D01*
X117494396Y-80197297D01*
X117428000Y-80205000D01*
X116728000Y-80205000D01*
X116661604Y-80197297D01*
X116656861Y-80195202D01*
X116654158Y-80194847D01*
X116620325Y-80179070D01*
X116564110Y-80154249D01*
X116488751Y-80078890D01*
X116463938Y-80022695D01*
X116448152Y-79988841D01*
X116447795Y-79986135D01*
X116445703Y-79981396D01*
X116438000Y-79915000D01*
X116438000Y-78665000D01*
X116445703Y-78598604D01*
X116447795Y-78593864D01*
X116448152Y-78591158D01*
X116463947Y-78557285D01*
X116488751Y-78501110D01*
X116564110Y-78425751D01*
X116620285Y-78400947D01*
X116654158Y-78385152D01*
X116656864Y-78384795D01*
X116661604Y-78382703D01*
X116728000Y-78375000D01*
X117428000Y-78375000D01*
X117494396Y-78382703D01*
G37*
G36*
X115263782Y-78402558D02*
G01*
X115379694Y-78450570D01*
X115484012Y-78520273D01*
X115572727Y-78608988D01*
X115642430Y-78713306D01*
X115690442Y-78829218D01*
X115714918Y-78952269D01*
X115718000Y-79015000D01*
X115718000Y-79565000D01*
X115714918Y-79627731D01*
X115690442Y-79750782D01*
X115642430Y-79866694D01*
X115572727Y-79971012D01*
X115484012Y-80059727D01*
X115379694Y-80129430D01*
X115263782Y-80177442D01*
X115140731Y-80201918D01*
X115015269Y-80201918D01*
X114892218Y-80177442D01*
X114776306Y-80129430D01*
X114671988Y-80059727D01*
X114583273Y-79971012D01*
X114513570Y-79866694D01*
X114465558Y-79750782D01*
X114441082Y-79627731D01*
X114438000Y-79565000D01*
X114438000Y-79015000D01*
X114441082Y-78952269D01*
X114465558Y-78829218D01*
X114513570Y-78713306D01*
X114583273Y-78608988D01*
X114671988Y-78520273D01*
X114776306Y-78450570D01*
X114892218Y-78402558D01*
X115015269Y-78378082D01*
X115140731Y-78378082D01*
X115263782Y-78402558D01*
G37*
G36*
X89490710Y-78607463D02*
G01*
X89552350Y-78648650D01*
X89593537Y-78710290D01*
X89608000Y-78783000D01*
X89608000Y-79083000D01*
X89593537Y-79155710D01*
X89552350Y-79217350D01*
X89490710Y-79258537D01*
X89418000Y-79273000D01*
X88393000Y-79273000D01*
X88320290Y-79258537D01*
X88258650Y-79217350D01*
X88217463Y-79155710D01*
X88203000Y-79083000D01*
X88203000Y-78783000D01*
X88217463Y-78710290D01*
X88258650Y-78648650D01*
X88320290Y-78607463D01*
X88393000Y-78593000D01*
X89418000Y-78593000D01*
X89490710Y-78607463D01*
G37*
G36*
X91765710Y-78607463D02*
G01*
X91827350Y-78648650D01*
X91868537Y-78710290D01*
X91883000Y-78783000D01*
X91883000Y-79083000D01*
X91868537Y-79155710D01*
X91827350Y-79217350D01*
X91765710Y-79258537D01*
X91693000Y-79273000D01*
X90668000Y-79273000D01*
X90595290Y-79258537D01*
X90533650Y-79217350D01*
X90492463Y-79155710D01*
X90478000Y-79083000D01*
X90478000Y-78783000D01*
X90492463Y-78710290D01*
X90533650Y-78648650D01*
X90595290Y-78607463D01*
X90668000Y-78593000D01*
X91693000Y-78593000D01*
X91765710Y-78607463D01*
G37*
G36*
X89666396Y-75067703D02*
G01*
X89671135Y-75069795D01*
X89673841Y-75070152D01*
X89707695Y-75085938D01*
X89763890Y-75110751D01*
X89839249Y-75186110D01*
X89864070Y-75242325D01*
X89879847Y-75276158D01*
X89880202Y-75278861D01*
X89882297Y-75283604D01*
X89890000Y-75350000D01*
X89890000Y-76650000D01*
X89882297Y-76716396D01*
X89880202Y-76721139D01*
X89879847Y-76723841D01*
X89864079Y-76757655D01*
X89839249Y-76813890D01*
X89763890Y-76889249D01*
X89707655Y-76914079D01*
X89673841Y-76929847D01*
X89671139Y-76930202D01*
X89666396Y-76932297D01*
X89600000Y-76940000D01*
X88950000Y-76940000D01*
X88883604Y-76932297D01*
X88878861Y-76930202D01*
X88876158Y-76929847D01*
X88842325Y-76914070D01*
X88786110Y-76889249D01*
X88710751Y-76813890D01*
X88685938Y-76757695D01*
X88670152Y-76723841D01*
X88669795Y-76721135D01*
X88667703Y-76716396D01*
X88660000Y-76650000D01*
X88660000Y-75350000D01*
X88667703Y-75283604D01*
X88669795Y-75278864D01*
X88670152Y-75276158D01*
X88685947Y-75242285D01*
X88710751Y-75186110D01*
X88786110Y-75110751D01*
X88842285Y-75085947D01*
X88876158Y-75070152D01*
X88878864Y-75069795D01*
X88883604Y-75067703D01*
X88950000Y-75060000D01*
X89600000Y-75060000D01*
X89666396Y-75067703D01*
G37*
G36*
X92616396Y-75067703D02*
G01*
X92621135Y-75069795D01*
X92623841Y-75070152D01*
X92657695Y-75085938D01*
X92713890Y-75110751D01*
X92789249Y-75186110D01*
X92814070Y-75242325D01*
X92829847Y-75276158D01*
X92830202Y-75278861D01*
X92832297Y-75283604D01*
X92840000Y-75350000D01*
X92840000Y-76650000D01*
X92832297Y-76716396D01*
X92830202Y-76721139D01*
X92829847Y-76723841D01*
X92814079Y-76757655D01*
X92789249Y-76813890D01*
X92713890Y-76889249D01*
X92657655Y-76914079D01*
X92623841Y-76929847D01*
X92621139Y-76930202D01*
X92616396Y-76932297D01*
X92550000Y-76940000D01*
X91900000Y-76940000D01*
X91833604Y-76932297D01*
X91828861Y-76930202D01*
X91826158Y-76929847D01*
X91792325Y-76914070D01*
X91736110Y-76889249D01*
X91660751Y-76813890D01*
X91635938Y-76757695D01*
X91620152Y-76723841D01*
X91619795Y-76721135D01*
X91617703Y-76716396D01*
X91610000Y-76650000D01*
X91610000Y-75350000D01*
X91617703Y-75283604D01*
X91619795Y-75278864D01*
X91620152Y-75276158D01*
X91635947Y-75242285D01*
X91660751Y-75186110D01*
X91736110Y-75110751D01*
X91792285Y-75085947D01*
X91826158Y-75070152D01*
X91828864Y-75069795D01*
X91833604Y-75067703D01*
X91900000Y-75060000D01*
X92550000Y-75060000D01*
X92616396Y-75067703D01*
G37*
G36*
X79627731Y-74005082D02*
G01*
X79750782Y-74029558D01*
X79866694Y-74077570D01*
X79971012Y-74147273D01*
X80059727Y-74235988D01*
X80129430Y-74340306D01*
X80177442Y-74456218D01*
X80201918Y-74579269D01*
X80201918Y-74704731D01*
X80177442Y-74827782D01*
X80129430Y-74943694D01*
X80059727Y-75048012D01*
X79971012Y-75136727D01*
X79866694Y-75206430D01*
X79750782Y-75254442D01*
X79627731Y-75278918D01*
X79565000Y-75282000D01*
X79563767Y-75282000D01*
X79016233Y-75282000D01*
X79015000Y-75282000D01*
X78952269Y-75278918D01*
X78829218Y-75254442D01*
X78713306Y-75206430D01*
X78608988Y-75136727D01*
X78520273Y-75048012D01*
X78450570Y-74943694D01*
X78402558Y-74827782D01*
X78378082Y-74704731D01*
X78378082Y-74579269D01*
X78402558Y-74456218D01*
X78450570Y-74340306D01*
X78520273Y-74235988D01*
X78608988Y-74147273D01*
X78713306Y-74077570D01*
X78829218Y-74029558D01*
X78952269Y-74005082D01*
X79015000Y-74002000D01*
X79565000Y-74002000D01*
X79627731Y-74005082D01*
G37*
G36*
X75488396Y-73011703D02*
G01*
X75493135Y-73013795D01*
X75495841Y-73014152D01*
X75529695Y-73029938D01*
X75585890Y-73054751D01*
X75661249Y-73130110D01*
X75686070Y-73186325D01*
X75701847Y-73220158D01*
X75702202Y-73222861D01*
X75704297Y-73227604D01*
X75712000Y-73294000D01*
X75712000Y-73819000D01*
X75704297Y-73885396D01*
X75702202Y-73890139D01*
X75701847Y-73892841D01*
X75686079Y-73926655D01*
X75661249Y-73982890D01*
X75585890Y-74058249D01*
X75529655Y-74083079D01*
X75495841Y-74098847D01*
X75493139Y-74099202D01*
X75488396Y-74101297D01*
X75422000Y-74109000D01*
X74522000Y-74109000D01*
X74455604Y-74101297D01*
X74450861Y-74099202D01*
X74448158Y-74098847D01*
X74414325Y-74083070D01*
X74358110Y-74058249D01*
X74282751Y-73982890D01*
X74257938Y-73926695D01*
X74242152Y-73892841D01*
X74241795Y-73890135D01*
X74239703Y-73885396D01*
X74232000Y-73819000D01*
X74232000Y-73294000D01*
X74239703Y-73227604D01*
X74241795Y-73222864D01*
X74242152Y-73220158D01*
X74257947Y-73186285D01*
X74282751Y-73130110D01*
X74358110Y-73054751D01*
X74414285Y-73029947D01*
X74448158Y-73014152D01*
X74450864Y-73013795D01*
X74455604Y-73011703D01*
X74522000Y-73004000D01*
X75422000Y-73004000D01*
X75488396Y-73011703D01*
G37*
G36*
X79627731Y-72005082D02*
G01*
X79750782Y-72029558D01*
X79866694Y-72077570D01*
X79971012Y-72147273D01*
X80059727Y-72235988D01*
X80129430Y-72340306D01*
X80177442Y-72456218D01*
X80201918Y-72579269D01*
X80201918Y-72704731D01*
X80177442Y-72827782D01*
X80129430Y-72943694D01*
X80059727Y-73048012D01*
X79971012Y-73136727D01*
X79866694Y-73206430D01*
X79750782Y-73254442D01*
X79627731Y-73278918D01*
X79565000Y-73282000D01*
X79563767Y-73282000D01*
X79016233Y-73282000D01*
X79015000Y-73282000D01*
X78952269Y-73278918D01*
X78829218Y-73254442D01*
X78713306Y-73206430D01*
X78608988Y-73136727D01*
X78520273Y-73048012D01*
X78450570Y-72943694D01*
X78402558Y-72827782D01*
X78378082Y-72704731D01*
X78378082Y-72579269D01*
X78402558Y-72456218D01*
X78450570Y-72340306D01*
X78520273Y-72235988D01*
X78608988Y-72147273D01*
X78713306Y-72077570D01*
X78829218Y-72029558D01*
X78952269Y-72005082D01*
X79015000Y-72002000D01*
X79565000Y-72002000D01*
X79627731Y-72005082D01*
G37*
G36*
X66614179Y-69488056D02*
G01*
X66624673Y-69488056D01*
X66676367Y-69496243D01*
X66815926Y-69514617D01*
X66849969Y-69523738D01*
X66878850Y-69528313D01*
X66934390Y-69546359D01*
X67023123Y-69570135D01*
X67079743Y-69593587D01*
X67123601Y-69607838D01*
X67164686Y-69628771D01*
X67221310Y-69652226D01*
X67300880Y-69698165D01*
X67352898Y-69724670D01*
X67376546Y-69741851D01*
X67407073Y-69759476D01*
X67518743Y-69845163D01*
X67561095Y-69875934D01*
X67568518Y-69883357D01*
X67577252Y-69890059D01*
X67728940Y-70041747D01*
X67735641Y-70050480D01*
X67743066Y-70057905D01*
X67773840Y-70100262D01*
X67859523Y-70211926D01*
X67877146Y-70242451D01*
X67894330Y-70266102D01*
X67920837Y-70318125D01*
X67966773Y-70397689D01*
X67990224Y-70454307D01*
X68011162Y-70495399D01*
X68025414Y-70539263D01*
X68048864Y-70595876D01*
X68072636Y-70684597D01*
X68090687Y-70740150D01*
X68095262Y-70769037D01*
X68104382Y-70803073D01*
X68122754Y-70942621D01*
X68130944Y-70994327D01*
X68130944Y-71004821D01*
X68132382Y-71015744D01*
X68132382Y-71230255D01*
X68130944Y-71241177D01*
X68130944Y-71251673D01*
X68122753Y-71303383D01*
X68104382Y-71442926D01*
X68095262Y-71476960D01*
X68090687Y-71505850D01*
X68072635Y-71561407D01*
X68048864Y-71650123D01*
X68025416Y-71706731D01*
X68011162Y-71750601D01*
X67990222Y-71791696D01*
X67966773Y-71848310D01*
X67920841Y-71927865D01*
X67894330Y-71979898D01*
X67877143Y-72003552D01*
X67859523Y-72034073D01*
X67773853Y-72145719D01*
X67743066Y-72188095D01*
X67735638Y-72195522D01*
X67728940Y-72204252D01*
X67577252Y-72355940D01*
X67568522Y-72362638D01*
X67561095Y-72370066D01*
X67518719Y-72400853D01*
X67407073Y-72486523D01*
X67376552Y-72504143D01*
X67352898Y-72521330D01*
X67300865Y-72547841D01*
X67221310Y-72593773D01*
X67164696Y-72617222D01*
X67123601Y-72638162D01*
X67079731Y-72652416D01*
X67023123Y-72675864D01*
X66934407Y-72699635D01*
X66878850Y-72717687D01*
X66849960Y-72722262D01*
X66815926Y-72731382D01*
X66676380Y-72749754D01*
X66624673Y-72757944D01*
X66614178Y-72757944D01*
X66603256Y-72759382D01*
X66388744Y-72759382D01*
X66377822Y-72757944D01*
X66367327Y-72757944D01*
X66315621Y-72749754D01*
X66176073Y-72731382D01*
X66142037Y-72722262D01*
X66113150Y-72717687D01*
X66057597Y-72699636D01*
X65968876Y-72675864D01*
X65912263Y-72652414D01*
X65868399Y-72638162D01*
X65827307Y-72617224D01*
X65770689Y-72593773D01*
X65691125Y-72547837D01*
X65639102Y-72521330D01*
X65615451Y-72504146D01*
X65584926Y-72486523D01*
X65473262Y-72400840D01*
X65430905Y-72370066D01*
X65423480Y-72362641D01*
X65414747Y-72355940D01*
X65263059Y-72204252D01*
X65256357Y-72195518D01*
X65248934Y-72188095D01*
X65218163Y-72145743D01*
X65132476Y-72034073D01*
X65114851Y-72003546D01*
X65097670Y-71979898D01*
X65071165Y-71927880D01*
X65025226Y-71848310D01*
X65001771Y-71791686D01*
X64980838Y-71750601D01*
X64966587Y-71706743D01*
X64943135Y-71650123D01*
X64919359Y-71561390D01*
X64901313Y-71505850D01*
X64896738Y-71476969D01*
X64887617Y-71442926D01*
X64869244Y-71303370D01*
X64861056Y-71251673D01*
X64861056Y-71241177D01*
X64859618Y-71230255D01*
X64859618Y-71015744D01*
X64861056Y-71004821D01*
X64861056Y-70994327D01*
X64869243Y-70942634D01*
X64887617Y-70803073D01*
X64896739Y-70769028D01*
X64901313Y-70740150D01*
X64919357Y-70684614D01*
X64943135Y-70595876D01*
X64966589Y-70539252D01*
X64980838Y-70495399D01*
X65001769Y-70454317D01*
X65025226Y-70397689D01*
X65071170Y-70318111D01*
X65097670Y-70266102D01*
X65114848Y-70242457D01*
X65132476Y-70211926D01*
X65218177Y-70100237D01*
X65248934Y-70057905D01*
X65256354Y-70050484D01*
X65263059Y-70041747D01*
X65414747Y-69890059D01*
X65423484Y-69883354D01*
X65430905Y-69875934D01*
X65473237Y-69845177D01*
X65584926Y-69759476D01*
X65615457Y-69741848D01*
X65639102Y-69724670D01*
X65691111Y-69698170D01*
X65770689Y-69652226D01*
X65827317Y-69628769D01*
X65868399Y-69607838D01*
X65912252Y-69593589D01*
X65968876Y-69570135D01*
X66057614Y-69546357D01*
X66113150Y-69528313D01*
X66142028Y-69523739D01*
X66176073Y-69514617D01*
X66315634Y-69496243D01*
X66367327Y-69488056D01*
X66377821Y-69488056D01*
X66388744Y-69486618D01*
X66603256Y-69486618D01*
X66614179Y-69488056D01*
G37*
G36*
X123614179Y-69488056D02*
G01*
X123624673Y-69488056D01*
X123676367Y-69496243D01*
X123815926Y-69514617D01*
X123849969Y-69523738D01*
X123878850Y-69528313D01*
X123934390Y-69546359D01*
X124023123Y-69570135D01*
X124079743Y-69593587D01*
X124123601Y-69607838D01*
X124164686Y-69628771D01*
X124221310Y-69652226D01*
X124300880Y-69698165D01*
X124352898Y-69724670D01*
X124376546Y-69741851D01*
X124407073Y-69759476D01*
X124518743Y-69845163D01*
X124561095Y-69875934D01*
X124568518Y-69883357D01*
X124577252Y-69890059D01*
X124728940Y-70041747D01*
X124735641Y-70050480D01*
X124743066Y-70057905D01*
X124773840Y-70100262D01*
X124859523Y-70211926D01*
X124877146Y-70242451D01*
X124894330Y-70266102D01*
X124920837Y-70318125D01*
X124966773Y-70397689D01*
X124990224Y-70454307D01*
X125011162Y-70495399D01*
X125025414Y-70539263D01*
X125048864Y-70595876D01*
X125072636Y-70684597D01*
X125090687Y-70740150D01*
X125095262Y-70769037D01*
X125104382Y-70803073D01*
X125122754Y-70942621D01*
X125130944Y-70994327D01*
X125130944Y-71004821D01*
X125132382Y-71015744D01*
X125132382Y-71230255D01*
X125130944Y-71241177D01*
X125130944Y-71251673D01*
X125122753Y-71303383D01*
X125104382Y-71442926D01*
X125095262Y-71476960D01*
X125090687Y-71505850D01*
X125072635Y-71561407D01*
X125048864Y-71650123D01*
X125025416Y-71706731D01*
X125011162Y-71750601D01*
X124990222Y-71791696D01*
X124966773Y-71848310D01*
X124920841Y-71927865D01*
X124894330Y-71979898D01*
X124877143Y-72003552D01*
X124859523Y-72034073D01*
X124773853Y-72145719D01*
X124743066Y-72188095D01*
X124735638Y-72195522D01*
X124728940Y-72204252D01*
X124577252Y-72355940D01*
X124568522Y-72362638D01*
X124561095Y-72370066D01*
X124518719Y-72400853D01*
X124407073Y-72486523D01*
X124376552Y-72504143D01*
X124352898Y-72521330D01*
X124300865Y-72547841D01*
X124221310Y-72593773D01*
X124164696Y-72617222D01*
X124123601Y-72638162D01*
X124079731Y-72652416D01*
X124023123Y-72675864D01*
X123934407Y-72699635D01*
X123878850Y-72717687D01*
X123849960Y-72722262D01*
X123815926Y-72731382D01*
X123676380Y-72749754D01*
X123624673Y-72757944D01*
X123614178Y-72757944D01*
X123603256Y-72759382D01*
X123388744Y-72759382D01*
X123377822Y-72757944D01*
X123367327Y-72757944D01*
X123315621Y-72749754D01*
X123176073Y-72731382D01*
X123142037Y-72722262D01*
X123113150Y-72717687D01*
X123057597Y-72699636D01*
X122968876Y-72675864D01*
X122912263Y-72652414D01*
X122868399Y-72638162D01*
X122827307Y-72617224D01*
X122770689Y-72593773D01*
X122691125Y-72547837D01*
X122639102Y-72521330D01*
X122615451Y-72504146D01*
X122584926Y-72486523D01*
X122473262Y-72400840D01*
X122430905Y-72370066D01*
X122423480Y-72362641D01*
X122414747Y-72355940D01*
X122263059Y-72204252D01*
X122256357Y-72195518D01*
X122248934Y-72188095D01*
X122218163Y-72145743D01*
X122132476Y-72034073D01*
X122114851Y-72003546D01*
X122097670Y-71979898D01*
X122071165Y-71927880D01*
X122025226Y-71848310D01*
X122001771Y-71791686D01*
X121980838Y-71750601D01*
X121966587Y-71706743D01*
X121943135Y-71650123D01*
X121919359Y-71561390D01*
X121901313Y-71505850D01*
X121896738Y-71476969D01*
X121887617Y-71442926D01*
X121869244Y-71303370D01*
X121861056Y-71251673D01*
X121861056Y-71241177D01*
X121859618Y-71230255D01*
X121859618Y-71015744D01*
X121861056Y-71004821D01*
X121861056Y-70994327D01*
X121869243Y-70942634D01*
X121887617Y-70803073D01*
X121896739Y-70769028D01*
X121901313Y-70740150D01*
X121919357Y-70684614D01*
X121943135Y-70595876D01*
X121966589Y-70539252D01*
X121980838Y-70495399D01*
X122001769Y-70454317D01*
X122025226Y-70397689D01*
X122071170Y-70318111D01*
X122097670Y-70266102D01*
X122114848Y-70242457D01*
X122132476Y-70211926D01*
X122218177Y-70100237D01*
X122248934Y-70057905D01*
X122256354Y-70050484D01*
X122263059Y-70041747D01*
X122414747Y-69890059D01*
X122423484Y-69883354D01*
X122430905Y-69875934D01*
X122473237Y-69845177D01*
X122584926Y-69759476D01*
X122615457Y-69741848D01*
X122639102Y-69724670D01*
X122691111Y-69698170D01*
X122770689Y-69652226D01*
X122827317Y-69628769D01*
X122868399Y-69607838D01*
X122912252Y-69593589D01*
X122968876Y-69570135D01*
X123057614Y-69546357D01*
X123113150Y-69528313D01*
X123142028Y-69523739D01*
X123176073Y-69514617D01*
X123315634Y-69496243D01*
X123367327Y-69488056D01*
X123377821Y-69488056D01*
X123388744Y-69486618D01*
X123603256Y-69486618D01*
X123614179Y-69488056D01*
G37*
G36*
X107088896Y-71276703D02*
G01*
X107093635Y-71278795D01*
X107096341Y-71279152D01*
X107130195Y-71294938D01*
X107186390Y-71319751D01*
X107261749Y-71395110D01*
X107286570Y-71451325D01*
X107302347Y-71485158D01*
X107302702Y-71487861D01*
X107304797Y-71492604D01*
X107312500Y-71559000D01*
X107312500Y-72459000D01*
X107304797Y-72525396D01*
X107302702Y-72530139D01*
X107302347Y-72532841D01*
X107286579Y-72566655D01*
X107261749Y-72622890D01*
X107186390Y-72698249D01*
X107130155Y-72723079D01*
X107096341Y-72738847D01*
X107093639Y-72739202D01*
X107088896Y-72741297D01*
X107022500Y-72749000D01*
X106497500Y-72749000D01*
X106431104Y-72741297D01*
X106426361Y-72739202D01*
X106423658Y-72738847D01*
X106389825Y-72723070D01*
X106333610Y-72698249D01*
X106258251Y-72622890D01*
X106233438Y-72566695D01*
X106217652Y-72532841D01*
X106217295Y-72530135D01*
X106215203Y-72525396D01*
X106207500Y-72459000D01*
X106207500Y-71559000D01*
X106215203Y-71492604D01*
X106217295Y-71487864D01*
X106217652Y-71485158D01*
X106233447Y-71451285D01*
X106258251Y-71395110D01*
X106333610Y-71319751D01*
X106389785Y-71294947D01*
X106423658Y-71279152D01*
X106426364Y-71278795D01*
X106431104Y-71276703D01*
X106497500Y-71269000D01*
X107022500Y-71269000D01*
X107088896Y-71276703D01*
G37*
G36*
X108913896Y-71276703D02*
G01*
X108918635Y-71278795D01*
X108921341Y-71279152D01*
X108955195Y-71294938D01*
X109011390Y-71319751D01*
X109086749Y-71395110D01*
X109111570Y-71451325D01*
X109127347Y-71485158D01*
X109127702Y-71487861D01*
X109129797Y-71492604D01*
X109137500Y-71559000D01*
X109137500Y-72459000D01*
X109129797Y-72525396D01*
X109127702Y-72530139D01*
X109127347Y-72532841D01*
X109111579Y-72566655D01*
X109086749Y-72622890D01*
X109011390Y-72698249D01*
X108955155Y-72723079D01*
X108921341Y-72738847D01*
X108918639Y-72739202D01*
X108913896Y-72741297D01*
X108847500Y-72749000D01*
X108322500Y-72749000D01*
X108256104Y-72741297D01*
X108251361Y-72739202D01*
X108248658Y-72738847D01*
X108214825Y-72723070D01*
X108158610Y-72698249D01*
X108083251Y-72622890D01*
X108058438Y-72566695D01*
X108042652Y-72532841D01*
X108042295Y-72530135D01*
X108040203Y-72525396D01*
X108032500Y-72459000D01*
X108032500Y-71559000D01*
X108040203Y-71492604D01*
X108042295Y-71487864D01*
X108042652Y-71485158D01*
X108058447Y-71451285D01*
X108083251Y-71395110D01*
X108158610Y-71319751D01*
X108214785Y-71294947D01*
X108248658Y-71279152D01*
X108251364Y-71278795D01*
X108256104Y-71276703D01*
X108322500Y-71269000D01*
X108847500Y-71269000D01*
X108913896Y-71276703D01*
G37*
G36*
X110771896Y-71276703D02*
G01*
X110776635Y-71278795D01*
X110779341Y-71279152D01*
X110813195Y-71294938D01*
X110869390Y-71319751D01*
X110944749Y-71395110D01*
X110969570Y-71451325D01*
X110985347Y-71485158D01*
X110985702Y-71487861D01*
X110987797Y-71492604D01*
X110995500Y-71559000D01*
X110995500Y-72459000D01*
X110987797Y-72525396D01*
X110985702Y-72530139D01*
X110985347Y-72532841D01*
X110969579Y-72566655D01*
X110944749Y-72622890D01*
X110869390Y-72698249D01*
X110813155Y-72723079D01*
X110779341Y-72738847D01*
X110776639Y-72739202D01*
X110771896Y-72741297D01*
X110705500Y-72749000D01*
X110180500Y-72749000D01*
X110114104Y-72741297D01*
X110109361Y-72739202D01*
X110106658Y-72738847D01*
X110072825Y-72723070D01*
X110016610Y-72698249D01*
X109941251Y-72622890D01*
X109916438Y-72566695D01*
X109900652Y-72532841D01*
X109900295Y-72530135D01*
X109898203Y-72525396D01*
X109890500Y-72459000D01*
X109890500Y-71559000D01*
X109898203Y-71492604D01*
X109900295Y-71487864D01*
X109900652Y-71485158D01*
X109916447Y-71451285D01*
X109941251Y-71395110D01*
X110016610Y-71319751D01*
X110072785Y-71294947D01*
X110106658Y-71279152D01*
X110109364Y-71278795D01*
X110114104Y-71276703D01*
X110180500Y-71269000D01*
X110705500Y-71269000D01*
X110771896Y-71276703D01*
G37*
G36*
X112596896Y-71276703D02*
G01*
X112601635Y-71278795D01*
X112604341Y-71279152D01*
X112638195Y-71294938D01*
X112694390Y-71319751D01*
X112769749Y-71395110D01*
X112794570Y-71451325D01*
X112810347Y-71485158D01*
X112810702Y-71487861D01*
X112812797Y-71492604D01*
X112820500Y-71559000D01*
X112820500Y-72459000D01*
X112812797Y-72525396D01*
X112810702Y-72530139D01*
X112810347Y-72532841D01*
X112794579Y-72566655D01*
X112769749Y-72622890D01*
X112694390Y-72698249D01*
X112638155Y-72723079D01*
X112604341Y-72738847D01*
X112601639Y-72739202D01*
X112596896Y-72741297D01*
X112530500Y-72749000D01*
X112005500Y-72749000D01*
X111939104Y-72741297D01*
X111934361Y-72739202D01*
X111931658Y-72738847D01*
X111897825Y-72723070D01*
X111841610Y-72698249D01*
X111766251Y-72622890D01*
X111741438Y-72566695D01*
X111725652Y-72532841D01*
X111725295Y-72530135D01*
X111723203Y-72525396D01*
X111715500Y-72459000D01*
X111715500Y-71559000D01*
X111723203Y-71492604D01*
X111725295Y-71487864D01*
X111725652Y-71485158D01*
X111741447Y-71451285D01*
X111766251Y-71395110D01*
X111841610Y-71319751D01*
X111897785Y-71294947D01*
X111931658Y-71279152D01*
X111934364Y-71278795D01*
X111939104Y-71276703D01*
X112005500Y-71269000D01*
X112530500Y-71269000D01*
X112596896Y-71276703D01*
G37*
G36*
X75488396Y-71186703D02*
G01*
X75493135Y-71188795D01*
X75495841Y-71189152D01*
X75529695Y-71204938D01*
X75585890Y-71229751D01*
X75661249Y-71305110D01*
X75686070Y-71361325D01*
X75701847Y-71395158D01*
X75702202Y-71397861D01*
X75704297Y-71402604D01*
X75712000Y-71469000D01*
X75712000Y-71994000D01*
X75704297Y-72060396D01*
X75702202Y-72065139D01*
X75701847Y-72067841D01*
X75686079Y-72101655D01*
X75661249Y-72157890D01*
X75585890Y-72233249D01*
X75529655Y-72258079D01*
X75495841Y-72273847D01*
X75493139Y-72274202D01*
X75488396Y-72276297D01*
X75422000Y-72284000D01*
X74522000Y-72284000D01*
X74455604Y-72276297D01*
X74450861Y-72274202D01*
X74448158Y-72273847D01*
X74414325Y-72258070D01*
X74358110Y-72233249D01*
X74282751Y-72157890D01*
X74257938Y-72101695D01*
X74242152Y-72067841D01*
X74241795Y-72065135D01*
X74239703Y-72060396D01*
X74232000Y-71994000D01*
X74232000Y-71469000D01*
X74239703Y-71402604D01*
X74241795Y-71397864D01*
X74242152Y-71395158D01*
X74257947Y-71361285D01*
X74282751Y-71305110D01*
X74358110Y-71229751D01*
X74414285Y-71204947D01*
X74448158Y-71189152D01*
X74450864Y-71188795D01*
X74455604Y-71186703D01*
X74522000Y-71179000D01*
X75422000Y-71179000D01*
X75488396Y-71186703D01*
G37*
G36*
X115959396Y-70979703D02*
G01*
X115964135Y-70981795D01*
X115966841Y-70982152D01*
X116000695Y-70997938D01*
X116056890Y-71022751D01*
X116132249Y-71098110D01*
X116157070Y-71154325D01*
X116172847Y-71188158D01*
X116173202Y-71190861D01*
X116175297Y-71195604D01*
X116183000Y-71262000D01*
X116183000Y-71787000D01*
X116175297Y-71853396D01*
X116173202Y-71858139D01*
X116172847Y-71860841D01*
X116157079Y-71894655D01*
X116132249Y-71950890D01*
X116056890Y-72026249D01*
X116000655Y-72051079D01*
X115966841Y-72066847D01*
X115964139Y-72067202D01*
X115959396Y-72069297D01*
X115893000Y-72077000D01*
X114993000Y-72077000D01*
X114926604Y-72069297D01*
X114921861Y-72067202D01*
X114919158Y-72066847D01*
X114885325Y-72051070D01*
X114829110Y-72026249D01*
X114753751Y-71950890D01*
X114728938Y-71894695D01*
X114713152Y-71860841D01*
X114712795Y-71858135D01*
X114710703Y-71853396D01*
X114703000Y-71787000D01*
X114703000Y-71262000D01*
X114710703Y-71195604D01*
X114712795Y-71190864D01*
X114713152Y-71188158D01*
X114728947Y-71154285D01*
X114753751Y-71098110D01*
X114829110Y-71022751D01*
X114885285Y-70997947D01*
X114919158Y-70982152D01*
X114921864Y-70981795D01*
X114926604Y-70979703D01*
X114993000Y-70972000D01*
X115893000Y-70972000D01*
X115959396Y-70979703D01*
G37*
G36*
X118372396Y-70979703D02*
G01*
X118377135Y-70981795D01*
X118379841Y-70982152D01*
X118413695Y-70997938D01*
X118469890Y-71022751D01*
X118545249Y-71098110D01*
X118570070Y-71154325D01*
X118585847Y-71188158D01*
X118586202Y-71190861D01*
X118588297Y-71195604D01*
X118596000Y-71262000D01*
X118596000Y-71787000D01*
X118588297Y-71853396D01*
X118586202Y-71858139D01*
X118585847Y-71860841D01*
X118570079Y-71894655D01*
X118545249Y-71950890D01*
X118469890Y-72026249D01*
X118413655Y-72051079D01*
X118379841Y-72066847D01*
X118377139Y-72067202D01*
X118372396Y-72069297D01*
X118306000Y-72077000D01*
X117406000Y-72077000D01*
X117339604Y-72069297D01*
X117334861Y-72067202D01*
X117332158Y-72066847D01*
X117298325Y-72051070D01*
X117242110Y-72026249D01*
X117166751Y-71950890D01*
X117141938Y-71894695D01*
X117126152Y-71860841D01*
X117125795Y-71858135D01*
X117123703Y-71853396D01*
X117116000Y-71787000D01*
X117116000Y-71262000D01*
X117123703Y-71195604D01*
X117125795Y-71190864D01*
X117126152Y-71188158D01*
X117141947Y-71154285D01*
X117166751Y-71098110D01*
X117242110Y-71022751D01*
X117298285Y-70997947D01*
X117332158Y-70982152D01*
X117334864Y-70981795D01*
X117339604Y-70979703D01*
X117406000Y-70972000D01*
X118306000Y-70972000D01*
X118372396Y-70979703D01*
G37*
G36*
X86696710Y-71236463D02*
G01*
X86758350Y-71277650D01*
X86799537Y-71339290D01*
X86814000Y-71412000D01*
X86814000Y-71712000D01*
X86799537Y-71784710D01*
X86758350Y-71846350D01*
X86696710Y-71887537D01*
X86624000Y-71902000D01*
X85599000Y-71902000D01*
X85526290Y-71887537D01*
X85464650Y-71846350D01*
X85423463Y-71784710D01*
X85409000Y-71712000D01*
X85409000Y-71412000D01*
X85423463Y-71339290D01*
X85464650Y-71277650D01*
X85526290Y-71236463D01*
X85599000Y-71222000D01*
X86624000Y-71222000D01*
X86696710Y-71236463D01*
G37*
G36*
X88971710Y-71236463D02*
G01*
X89033350Y-71277650D01*
X89074537Y-71339290D01*
X89089000Y-71412000D01*
X89089000Y-71712000D01*
X89074537Y-71784710D01*
X89033350Y-71846350D01*
X88971710Y-71887537D01*
X88899000Y-71902000D01*
X87874000Y-71902000D01*
X87801290Y-71887537D01*
X87739650Y-71846350D01*
X87698463Y-71784710D01*
X87684000Y-71712000D01*
X87684000Y-71412000D01*
X87698463Y-71339290D01*
X87739650Y-71277650D01*
X87801290Y-71236463D01*
X87874000Y-71222000D01*
X88899000Y-71222000D01*
X88971710Y-71236463D01*
G37*
G36*
X79627731Y-70005082D02*
G01*
X79750782Y-70029558D01*
X79866694Y-70077570D01*
X79971012Y-70147273D01*
X80059727Y-70235988D01*
X80129430Y-70340306D01*
X80177442Y-70456218D01*
X80201918Y-70579269D01*
X80201918Y-70704731D01*
X80177442Y-70827782D01*
X80129430Y-70943694D01*
X80059727Y-71048012D01*
X79971012Y-71136727D01*
X79866694Y-71206430D01*
X79750782Y-71254442D01*
X79627731Y-71278918D01*
X79565000Y-71282000D01*
X79563767Y-71282000D01*
X79016233Y-71282000D01*
X79015000Y-71282000D01*
X78952269Y-71278918D01*
X78829218Y-71254442D01*
X78713306Y-71206430D01*
X78608988Y-71136727D01*
X78520273Y-71048012D01*
X78450570Y-70943694D01*
X78402558Y-70827782D01*
X78378082Y-70704731D01*
X78378082Y-70579269D01*
X78402558Y-70456218D01*
X78450570Y-70340306D01*
X78520273Y-70235988D01*
X78608988Y-70147273D01*
X78713306Y-70077570D01*
X78829218Y-70029558D01*
X78952269Y-70005082D01*
X79015000Y-70002000D01*
X79565000Y-70002000D01*
X79627731Y-70005082D01*
G37*
G36*
X86696710Y-70286463D02*
G01*
X86758350Y-70327650D01*
X86799537Y-70389290D01*
X86814000Y-70462000D01*
X86814000Y-70762000D01*
X86799537Y-70834710D01*
X86758350Y-70896350D01*
X86696710Y-70937537D01*
X86624000Y-70952000D01*
X85599000Y-70952000D01*
X85526290Y-70937537D01*
X85464650Y-70896350D01*
X85423463Y-70834710D01*
X85409000Y-70762000D01*
X85409000Y-70462000D01*
X85423463Y-70389290D01*
X85464650Y-70327650D01*
X85526290Y-70286463D01*
X85599000Y-70272000D01*
X86624000Y-70272000D01*
X86696710Y-70286463D01*
G37*
G36*
X88971710Y-70286463D02*
G01*
X89033350Y-70327650D01*
X89074537Y-70389290D01*
X89089000Y-70462000D01*
X89089000Y-70762000D01*
X89074537Y-70834710D01*
X89033350Y-70896350D01*
X88971710Y-70937537D01*
X88899000Y-70952000D01*
X87874000Y-70952000D01*
X87801290Y-70937537D01*
X87739650Y-70896350D01*
X87698463Y-70834710D01*
X87684000Y-70762000D01*
X87684000Y-70462000D01*
X87698463Y-70389290D01*
X87739650Y-70327650D01*
X87801290Y-70286463D01*
X87874000Y-70272000D01*
X88899000Y-70272000D01*
X88971710Y-70286463D01*
G37*
G36*
X75488396Y-69328703D02*
G01*
X75493135Y-69330795D01*
X75495841Y-69331152D01*
X75529695Y-69346938D01*
X75585890Y-69371751D01*
X75661249Y-69447110D01*
X75686070Y-69503325D01*
X75701847Y-69537158D01*
X75702202Y-69539861D01*
X75704297Y-69544604D01*
X75712000Y-69611000D01*
X75712000Y-70136000D01*
X75704297Y-70202396D01*
X75702202Y-70207139D01*
X75701847Y-70209841D01*
X75686079Y-70243655D01*
X75661249Y-70299890D01*
X75585890Y-70375249D01*
X75529655Y-70400079D01*
X75495841Y-70415847D01*
X75493139Y-70416202D01*
X75488396Y-70418297D01*
X75422000Y-70426000D01*
X74522000Y-70426000D01*
X74455604Y-70418297D01*
X74450861Y-70416202D01*
X74448158Y-70415847D01*
X74414325Y-70400070D01*
X74358110Y-70375249D01*
X74282751Y-70299890D01*
X74257938Y-70243695D01*
X74242152Y-70209841D01*
X74241795Y-70207135D01*
X74239703Y-70202396D01*
X74232000Y-70136000D01*
X74232000Y-69611000D01*
X74239703Y-69544604D01*
X74241795Y-69539864D01*
X74242152Y-69537158D01*
X74257947Y-69503285D01*
X74282751Y-69447110D01*
X74358110Y-69371751D01*
X74414285Y-69346947D01*
X74448158Y-69331152D01*
X74450864Y-69330795D01*
X74455604Y-69328703D01*
X74522000Y-69321000D01*
X75422000Y-69321000D01*
X75488396Y-69328703D01*
G37*
G36*
X108571896Y-68409703D02*
G01*
X108576635Y-68411795D01*
X108579341Y-68412152D01*
X108613195Y-68427938D01*
X108669390Y-68452751D01*
X108744749Y-68528110D01*
X108769570Y-68584325D01*
X108785347Y-68618158D01*
X108785702Y-68620861D01*
X108787797Y-68625604D01*
X108795500Y-68692000D01*
X108795500Y-69992000D01*
X108787797Y-70058396D01*
X108785702Y-70063139D01*
X108785347Y-70065841D01*
X108769579Y-70099655D01*
X108744749Y-70155890D01*
X108669390Y-70231249D01*
X108613155Y-70256079D01*
X108579341Y-70271847D01*
X108576639Y-70272202D01*
X108571896Y-70274297D01*
X108505500Y-70282000D01*
X107855500Y-70282000D01*
X107789104Y-70274297D01*
X107784361Y-70272202D01*
X107781658Y-70271847D01*
X107747825Y-70256070D01*
X107691610Y-70231249D01*
X107616251Y-70155890D01*
X107591438Y-70099695D01*
X107575652Y-70065841D01*
X107575295Y-70063135D01*
X107573203Y-70058396D01*
X107565500Y-69992000D01*
X107565500Y-68692000D01*
X107573203Y-68625604D01*
X107575295Y-68620864D01*
X107575652Y-68618158D01*
X107591447Y-68584285D01*
X107616251Y-68528110D01*
X107691610Y-68452751D01*
X107747785Y-68427947D01*
X107781658Y-68412152D01*
X107784364Y-68411795D01*
X107789104Y-68409703D01*
X107855500Y-68402000D01*
X108505500Y-68402000D01*
X108571896Y-68409703D01*
G37*
G36*
X111521896Y-68409703D02*
G01*
X111526635Y-68411795D01*
X111529341Y-68412152D01*
X111563195Y-68427938D01*
X111619390Y-68452751D01*
X111694749Y-68528110D01*
X111719570Y-68584325D01*
X111735347Y-68618158D01*
X111735702Y-68620861D01*
X111737797Y-68625604D01*
X111745500Y-68692000D01*
X111745500Y-69992000D01*
X111737797Y-70058396D01*
X111735702Y-70063139D01*
X111735347Y-70065841D01*
X111719579Y-70099655D01*
X111694749Y-70155890D01*
X111619390Y-70231249D01*
X111563155Y-70256079D01*
X111529341Y-70271847D01*
X111526639Y-70272202D01*
X111521896Y-70274297D01*
X111455500Y-70282000D01*
X110805500Y-70282000D01*
X110739104Y-70274297D01*
X110734361Y-70272202D01*
X110731658Y-70271847D01*
X110697825Y-70256070D01*
X110641610Y-70231249D01*
X110566251Y-70155890D01*
X110541438Y-70099695D01*
X110525652Y-70065841D01*
X110525295Y-70063135D01*
X110523203Y-70058396D01*
X110515500Y-69992000D01*
X110515500Y-68692000D01*
X110523203Y-68625604D01*
X110525295Y-68620864D01*
X110525652Y-68618158D01*
X110541447Y-68584285D01*
X110566251Y-68528110D01*
X110641610Y-68452751D01*
X110697785Y-68427947D01*
X110731658Y-68412152D01*
X110734364Y-68411795D01*
X110739104Y-68409703D01*
X110805500Y-68402000D01*
X111455500Y-68402000D01*
X111521896Y-68409703D01*
G37*
G36*
X115959396Y-69154703D02*
G01*
X115964135Y-69156795D01*
X115966841Y-69157152D01*
X116000695Y-69172938D01*
X116056890Y-69197751D01*
X116132249Y-69273110D01*
X116157070Y-69329325D01*
X116172847Y-69363158D01*
X116173202Y-69365861D01*
X116175297Y-69370604D01*
X116183000Y-69437000D01*
X116183000Y-69962000D01*
X116175297Y-70028396D01*
X116173202Y-70033139D01*
X116172847Y-70035841D01*
X116157079Y-70069655D01*
X116132249Y-70125890D01*
X116056890Y-70201249D01*
X116000655Y-70226079D01*
X115966841Y-70241847D01*
X115964139Y-70242202D01*
X115959396Y-70244297D01*
X115893000Y-70252000D01*
X114993000Y-70252000D01*
X114926604Y-70244297D01*
X114921861Y-70242202D01*
X114919158Y-70241847D01*
X114885325Y-70226070D01*
X114829110Y-70201249D01*
X114753751Y-70125890D01*
X114728938Y-70069695D01*
X114713152Y-70035841D01*
X114712795Y-70033135D01*
X114710703Y-70028396D01*
X114703000Y-69962000D01*
X114703000Y-69437000D01*
X114710703Y-69370604D01*
X114712795Y-69365864D01*
X114713152Y-69363158D01*
X114728947Y-69329285D01*
X114753751Y-69273110D01*
X114829110Y-69197751D01*
X114885285Y-69172947D01*
X114919158Y-69157152D01*
X114921864Y-69156795D01*
X114926604Y-69154703D01*
X114993000Y-69147000D01*
X115893000Y-69147000D01*
X115959396Y-69154703D01*
G37*
G36*
X118372396Y-69154703D02*
G01*
X118377135Y-69156795D01*
X118379841Y-69157152D01*
X118413695Y-69172938D01*
X118469890Y-69197751D01*
X118545249Y-69273110D01*
X118570070Y-69329325D01*
X118585847Y-69363158D01*
X118586202Y-69365861D01*
X118588297Y-69370604D01*
X118596000Y-69437000D01*
X118596000Y-69962000D01*
X118588297Y-70028396D01*
X118586202Y-70033139D01*
X118585847Y-70035841D01*
X118570079Y-70069655D01*
X118545249Y-70125890D01*
X118469890Y-70201249D01*
X118413655Y-70226079D01*
X118379841Y-70241847D01*
X118377139Y-70242202D01*
X118372396Y-70244297D01*
X118306000Y-70252000D01*
X117406000Y-70252000D01*
X117339604Y-70244297D01*
X117334861Y-70242202D01*
X117332158Y-70241847D01*
X117298325Y-70226070D01*
X117242110Y-70201249D01*
X117166751Y-70125890D01*
X117141938Y-70069695D01*
X117126152Y-70035841D01*
X117125795Y-70033135D01*
X117123703Y-70028396D01*
X117116000Y-69962000D01*
X117116000Y-69437000D01*
X117123703Y-69370604D01*
X117125795Y-69365864D01*
X117126152Y-69363158D01*
X117141947Y-69329285D01*
X117166751Y-69273110D01*
X117242110Y-69197751D01*
X117298285Y-69172947D01*
X117332158Y-69157152D01*
X117334864Y-69156795D01*
X117339604Y-69154703D01*
X117406000Y-69147000D01*
X118306000Y-69147000D01*
X118372396Y-69154703D01*
G37*
G36*
X86696710Y-69336463D02*
G01*
X86758350Y-69377650D01*
X86799537Y-69439290D01*
X86814000Y-69512000D01*
X86814000Y-69812000D01*
X86799537Y-69884710D01*
X86758350Y-69946350D01*
X86696710Y-69987537D01*
X86624000Y-70002000D01*
X85599000Y-70002000D01*
X85526290Y-69987537D01*
X85464650Y-69946350D01*
X85423463Y-69884710D01*
X85409000Y-69812000D01*
X85409000Y-69512000D01*
X85423463Y-69439290D01*
X85464650Y-69377650D01*
X85526290Y-69336463D01*
X85599000Y-69322000D01*
X86624000Y-69322000D01*
X86696710Y-69336463D01*
G37*
G36*
X88971710Y-69336463D02*
G01*
X89033350Y-69377650D01*
X89074537Y-69439290D01*
X89089000Y-69512000D01*
X89089000Y-69812000D01*
X89074537Y-69884710D01*
X89033350Y-69946350D01*
X88971710Y-69987537D01*
X88899000Y-70002000D01*
X87874000Y-70002000D01*
X87801290Y-69987537D01*
X87739650Y-69946350D01*
X87698463Y-69884710D01*
X87684000Y-69812000D01*
X87684000Y-69512000D01*
X87698463Y-69439290D01*
X87739650Y-69377650D01*
X87801290Y-69336463D01*
X87874000Y-69322000D01*
X88899000Y-69322000D01*
X88971710Y-69336463D01*
G37*
G36*
X79981396Y-68009703D02*
G01*
X79986135Y-68011795D01*
X79988841Y-68012152D01*
X80022695Y-68027938D01*
X80078890Y-68052751D01*
X80154249Y-68128110D01*
X80179070Y-68184325D01*
X80194847Y-68218158D01*
X80195202Y-68220861D01*
X80197297Y-68225604D01*
X80205000Y-68292000D01*
X80205000Y-68992000D01*
X80197297Y-69058396D01*
X80195202Y-69063139D01*
X80194847Y-69065841D01*
X80179079Y-69099655D01*
X80154249Y-69155890D01*
X80078890Y-69231249D01*
X80022655Y-69256079D01*
X79988841Y-69271847D01*
X79986139Y-69272202D01*
X79981396Y-69274297D01*
X79915000Y-69282000D01*
X78665000Y-69282000D01*
X78598604Y-69274297D01*
X78593861Y-69272202D01*
X78591158Y-69271847D01*
X78557325Y-69256070D01*
X78501110Y-69231249D01*
X78425751Y-69155890D01*
X78400938Y-69099695D01*
X78385152Y-69065841D01*
X78384795Y-69063135D01*
X78382703Y-69058396D01*
X78375000Y-68992000D01*
X78375000Y-68292000D01*
X78382703Y-68225604D01*
X78384795Y-68220864D01*
X78385152Y-68218158D01*
X78400947Y-68184285D01*
X78425751Y-68128110D01*
X78501110Y-68052751D01*
X78557285Y-68027947D01*
X78591158Y-68012152D01*
X78593864Y-68011795D01*
X78598604Y-68009703D01*
X78665000Y-68002000D01*
X79915000Y-68002000D01*
X79981396Y-68009703D01*
G37*
G36*
X75488396Y-67503703D02*
G01*
X75493135Y-67505795D01*
X75495841Y-67506152D01*
X75529695Y-67521938D01*
X75585890Y-67546751D01*
X75661249Y-67622110D01*
X75686070Y-67678325D01*
X75701847Y-67712158D01*
X75702202Y-67714861D01*
X75704297Y-67719604D01*
X75712000Y-67786000D01*
X75712000Y-68311000D01*
X75704297Y-68377396D01*
X75702202Y-68382139D01*
X75701847Y-68384841D01*
X75686079Y-68418655D01*
X75661249Y-68474890D01*
X75585890Y-68550249D01*
X75529655Y-68575079D01*
X75495841Y-68590847D01*
X75493139Y-68591202D01*
X75488396Y-68593297D01*
X75422000Y-68601000D01*
X74522000Y-68601000D01*
X74455604Y-68593297D01*
X74450861Y-68591202D01*
X74448158Y-68590847D01*
X74414325Y-68575070D01*
X74358110Y-68550249D01*
X74282751Y-68474890D01*
X74257938Y-68418695D01*
X74242152Y-68384841D01*
X74241795Y-68382135D01*
X74239703Y-68377396D01*
X74232000Y-68311000D01*
X74232000Y-67786000D01*
X74239703Y-67719604D01*
X74241795Y-67714864D01*
X74242152Y-67712158D01*
X74257947Y-67678285D01*
X74282751Y-67622110D01*
X74358110Y-67546751D01*
X74414285Y-67521947D01*
X74448158Y-67506152D01*
X74450864Y-67505795D01*
X74455604Y-67503703D01*
X74522000Y-67496000D01*
X75422000Y-67496000D01*
X75488396Y-67503703D01*
G37*
G36*
X102954307Y-65298045D02*
G01*
X102967284Y-65306716D01*
X102975955Y-65319693D01*
X102979000Y-65335000D01*
X102979000Y-66835000D01*
X102975955Y-66850307D01*
X102967284Y-66863284D01*
X102954307Y-66871955D01*
X102939000Y-66875000D01*
X102039000Y-66875000D01*
X102023693Y-66871955D01*
X102010716Y-66863284D01*
X102002045Y-66850307D01*
X101999000Y-66835000D01*
X101999000Y-65335000D01*
X102002045Y-65319693D01*
X102010716Y-65306716D01*
X102023693Y-65298045D01*
X102039000Y-65295000D01*
X102939000Y-65295000D01*
X102954307Y-65298045D01*
G37*
G36*
X104224307Y-65298045D02*
G01*
X104237284Y-65306716D01*
X104245955Y-65319693D01*
X104249000Y-65335000D01*
X104249000Y-66835000D01*
X104245955Y-66850307D01*
X104237284Y-66863284D01*
X104224307Y-66871955D01*
X104209000Y-66875000D01*
X103309000Y-66875000D01*
X103293693Y-66871955D01*
X103280716Y-66863284D01*
X103272045Y-66850307D01*
X103269000Y-66835000D01*
X103269000Y-65335000D01*
X103272045Y-65319693D01*
X103280716Y-65306716D01*
X103293693Y-65298045D01*
X103309000Y-65295000D01*
X104209000Y-65295000D01*
X104224307Y-65298045D01*
G37*
G36*
X105494307Y-65298045D02*
G01*
X105507284Y-65306716D01*
X105515955Y-65319693D01*
X105519000Y-65335000D01*
X105519000Y-66835000D01*
X105515955Y-66850307D01*
X105507284Y-66863284D01*
X105494307Y-66871955D01*
X105479000Y-66875000D01*
X104579000Y-66875000D01*
X104563693Y-66871955D01*
X104550716Y-66863284D01*
X104542045Y-66850307D01*
X104539000Y-66835000D01*
X104539000Y-65335000D01*
X104542045Y-65319693D01*
X104550716Y-65306716D01*
X104563693Y-65298045D01*
X104579000Y-65295000D01*
X105479000Y-65295000D01*
X105494307Y-65298045D01*
G37*
G36*
X106764307Y-65298045D02*
G01*
X106777284Y-65306716D01*
X106785955Y-65319693D01*
X106789000Y-65335000D01*
X106789000Y-66835000D01*
X106785955Y-66850307D01*
X106777284Y-66863284D01*
X106764307Y-66871955D01*
X106749000Y-66875000D01*
X105849000Y-66875000D01*
X105833693Y-66871955D01*
X105820716Y-66863284D01*
X105812045Y-66850307D01*
X105809000Y-66835000D01*
X105809000Y-65335000D01*
X105812045Y-65319693D01*
X105820716Y-65306716D01*
X105833693Y-65298045D01*
X105849000Y-65295000D01*
X106749000Y-65295000D01*
X106764307Y-65298045D01*
G37*
G36*
X108034307Y-65298045D02*
G01*
X108047284Y-65306716D01*
X108055955Y-65319693D01*
X108059000Y-65335000D01*
X108059000Y-66835000D01*
X108055955Y-66850307D01*
X108047284Y-66863284D01*
X108034307Y-66871955D01*
X108019000Y-66875000D01*
X107119000Y-66875000D01*
X107103693Y-66871955D01*
X107090716Y-66863284D01*
X107082045Y-66850307D01*
X107079000Y-66835000D01*
X107079000Y-65335000D01*
X107082045Y-65319693D01*
X107090716Y-65306716D01*
X107103693Y-65298045D01*
X107119000Y-65295000D01*
X108019000Y-65295000D01*
X108034307Y-65298045D01*
G37*
G36*
X109304307Y-65298045D02*
G01*
X109317284Y-65306716D01*
X109325955Y-65319693D01*
X109329000Y-65335000D01*
X109329000Y-66835000D01*
X109325955Y-66850307D01*
X109317284Y-66863284D01*
X109304307Y-66871955D01*
X109289000Y-66875000D01*
X108389000Y-66875000D01*
X108373693Y-66871955D01*
X108360716Y-66863284D01*
X108352045Y-66850307D01*
X108349000Y-66835000D01*
X108349000Y-65335000D01*
X108352045Y-65319693D01*
X108360716Y-65306716D01*
X108373693Y-65298045D01*
X108389000Y-65295000D01*
X109289000Y-65295000D01*
X109304307Y-65298045D01*
G37*
G36*
X110574307Y-65298045D02*
G01*
X110587284Y-65306716D01*
X110595955Y-65319693D01*
X110599000Y-65335000D01*
X110599000Y-66835000D01*
X110595955Y-66850307D01*
X110587284Y-66863284D01*
X110574307Y-66871955D01*
X110559000Y-66875000D01*
X109659000Y-66875000D01*
X109643693Y-66871955D01*
X109630716Y-66863284D01*
X109622045Y-66850307D01*
X109619000Y-66835000D01*
X109619000Y-65335000D01*
X109622045Y-65319693D01*
X109630716Y-65306716D01*
X109643693Y-65298045D01*
X109659000Y-65295000D01*
X110559000Y-65295000D01*
X110574307Y-65298045D01*
G37*
G36*
X111844307Y-65298045D02*
G01*
X111857284Y-65306716D01*
X111865955Y-65319693D01*
X111869000Y-65335000D01*
X111869000Y-66835000D01*
X111865955Y-66850307D01*
X111857284Y-66863284D01*
X111844307Y-66871955D01*
X111829000Y-66875000D01*
X110929000Y-66875000D01*
X110913693Y-66871955D01*
X110900716Y-66863284D01*
X110892045Y-66850307D01*
X110889000Y-66835000D01*
X110889000Y-65335000D01*
X110892045Y-65319693D01*
X110900716Y-65306716D01*
X110913693Y-65298045D01*
X110929000Y-65295000D01*
X111829000Y-65295000D01*
X111844307Y-65298045D01*
G37*
G36*
X113114307Y-65298045D02*
G01*
X113127284Y-65306716D01*
X113135955Y-65319693D01*
X113139000Y-65335000D01*
X113139000Y-66835000D01*
X113135955Y-66850307D01*
X113127284Y-66863284D01*
X113114307Y-66871955D01*
X113099000Y-66875000D01*
X112199000Y-66875000D01*
X112183693Y-66871955D01*
X112170716Y-66863284D01*
X112162045Y-66850307D01*
X112159000Y-66835000D01*
X112159000Y-65335000D01*
X112162045Y-65319693D01*
X112170716Y-65306716D01*
X112183693Y-65298045D01*
X112199000Y-65295000D01*
X113099000Y-65295000D01*
X113114307Y-65298045D01*
G37*
G36*
X114384307Y-65298045D02*
G01*
X114397284Y-65306716D01*
X114405955Y-65319693D01*
X114409000Y-65335000D01*
X114409000Y-66835000D01*
X114405955Y-66850307D01*
X114397284Y-66863284D01*
X114384307Y-66871955D01*
X114369000Y-66875000D01*
X113469000Y-66875000D01*
X113453693Y-66871955D01*
X113440716Y-66863284D01*
X113432045Y-66850307D01*
X113429000Y-66835000D01*
X113429000Y-65335000D01*
X113432045Y-65319693D01*
X113440716Y-65306716D01*
X113453693Y-65298045D01*
X113469000Y-65295000D01*
X114369000Y-65295000D01*
X114384307Y-65298045D01*
G37*
G36*
X100219307Y-64348045D02*
G01*
X100232284Y-64356716D01*
X100240955Y-64369693D01*
X100244000Y-64385000D01*
X100244000Y-65285000D01*
X100240955Y-65300307D01*
X100232284Y-65313284D01*
X100219307Y-65321955D01*
X100204000Y-65325000D01*
X98704000Y-65325000D01*
X98688693Y-65321955D01*
X98675716Y-65313284D01*
X98667045Y-65300307D01*
X98664000Y-65285000D01*
X98664000Y-64385000D01*
X98667045Y-64369693D01*
X98675716Y-64356716D01*
X98688693Y-64348045D01*
X98704000Y-64345000D01*
X100204000Y-64345000D01*
X100219307Y-64348045D01*
G37*
G36*
X117719307Y-64348045D02*
G01*
X117732284Y-64356716D01*
X117740955Y-64369693D01*
X117744000Y-64385000D01*
X117744000Y-65285000D01*
X117740955Y-65300307D01*
X117732284Y-65313284D01*
X117719307Y-65321955D01*
X117704000Y-65325000D01*
X116204000Y-65325000D01*
X116188693Y-65321955D01*
X116175716Y-65313284D01*
X116167045Y-65300307D01*
X116164000Y-65285000D01*
X116164000Y-64385000D01*
X116167045Y-64369693D01*
X116175716Y-64356716D01*
X116188693Y-64348045D01*
X116204000Y-64345000D01*
X117704000Y-64345000D01*
X117719307Y-64348045D01*
G37*
G36*
X97544396Y-63613703D02*
G01*
X97549135Y-63615795D01*
X97551841Y-63616152D01*
X97585695Y-63631938D01*
X97641890Y-63656751D01*
X97717249Y-63732110D01*
X97742070Y-63788325D01*
X97757847Y-63822158D01*
X97758202Y-63824861D01*
X97760297Y-63829604D01*
X97768000Y-63896000D01*
X97768000Y-64421000D01*
X97760297Y-64487396D01*
X97758202Y-64492139D01*
X97757847Y-64494841D01*
X97742079Y-64528655D01*
X97717249Y-64584890D01*
X97641890Y-64660249D01*
X97585655Y-64685079D01*
X97551841Y-64700847D01*
X97549139Y-64701202D01*
X97544396Y-64703297D01*
X97478000Y-64711000D01*
X96578000Y-64711000D01*
X96511604Y-64703297D01*
X96506861Y-64701202D01*
X96504158Y-64700847D01*
X96470325Y-64685070D01*
X96414110Y-64660249D01*
X96338751Y-64584890D01*
X96313938Y-64528695D01*
X96298152Y-64494841D01*
X96297795Y-64492135D01*
X96295703Y-64487396D01*
X96288000Y-64421000D01*
X96288000Y-63896000D01*
X96295703Y-63829604D01*
X96297795Y-63824864D01*
X96298152Y-63822158D01*
X96313947Y-63788285D01*
X96338751Y-63732110D01*
X96414110Y-63656751D01*
X96470285Y-63631947D01*
X96504158Y-63616152D01*
X96506864Y-63615795D01*
X96511604Y-63613703D01*
X96578000Y-63606000D01*
X97478000Y-63606000D01*
X97544396Y-63613703D01*
G37*
G36*
X75911896Y-63511703D02*
G01*
X75916635Y-63513795D01*
X75919341Y-63514152D01*
X75953195Y-63529938D01*
X76009390Y-63554751D01*
X76084749Y-63630110D01*
X76109570Y-63686325D01*
X76125347Y-63720158D01*
X76125702Y-63722861D01*
X76127797Y-63727604D01*
X76135500Y-63794000D01*
X76135500Y-64319000D01*
X76127797Y-64385396D01*
X76125702Y-64390139D01*
X76125347Y-64392841D01*
X76109579Y-64426655D01*
X76084749Y-64482890D01*
X76009390Y-64558249D01*
X75953155Y-64583079D01*
X75919341Y-64598847D01*
X75916639Y-64599202D01*
X75911896Y-64601297D01*
X75845500Y-64609000D01*
X74945500Y-64609000D01*
X74879104Y-64601297D01*
X74874361Y-64599202D01*
X74871658Y-64598847D01*
X74837825Y-64583070D01*
X74781610Y-64558249D01*
X74706251Y-64482890D01*
X74681438Y-64426695D01*
X74665652Y-64392841D01*
X74665295Y-64390135D01*
X74663203Y-64385396D01*
X74655500Y-64319000D01*
X74655500Y-63794000D01*
X74663203Y-63727604D01*
X74665295Y-63722864D01*
X74665652Y-63720158D01*
X74681447Y-63686285D01*
X74706251Y-63630110D01*
X74781610Y-63554751D01*
X74837785Y-63529947D01*
X74871658Y-63514152D01*
X74874364Y-63513795D01*
X74879104Y-63511703D01*
X74945500Y-63504000D01*
X75845500Y-63504000D01*
X75911896Y-63511703D01*
G37*
G36*
X79260710Y-63707463D02*
G01*
X79322350Y-63748650D01*
X79363537Y-63810290D01*
X79378000Y-63883000D01*
X79378000Y-64183000D01*
X79363537Y-64255710D01*
X79322350Y-64317350D01*
X79260710Y-64358537D01*
X79188000Y-64373000D01*
X78013000Y-64373000D01*
X77940290Y-64358537D01*
X77878650Y-64317350D01*
X77837463Y-64255710D01*
X77823000Y-64183000D01*
X77823000Y-63883000D01*
X77837463Y-63810290D01*
X77878650Y-63748650D01*
X77940290Y-63707463D01*
X78013000Y-63693000D01*
X79188000Y-63693000D01*
X79260710Y-63707463D01*
G37*
G36*
X100219307Y-63078045D02*
G01*
X100232284Y-63086716D01*
X100240955Y-63099693D01*
X100244000Y-63115000D01*
X100244000Y-64015000D01*
X100240955Y-64030307D01*
X100232284Y-64043284D01*
X100219307Y-64051955D01*
X100204000Y-64055000D01*
X98704000Y-64055000D01*
X98688693Y-64051955D01*
X98675716Y-64043284D01*
X98667045Y-64030307D01*
X98664000Y-64015000D01*
X98664000Y-63115000D01*
X98667045Y-63099693D01*
X98675716Y-63086716D01*
X98688693Y-63078045D01*
X98704000Y-63075000D01*
X100204000Y-63075000D01*
X100219307Y-63078045D01*
G37*
G36*
X117719307Y-63078045D02*
G01*
X117732284Y-63086716D01*
X117740955Y-63099693D01*
X117744000Y-63115000D01*
X117744000Y-64015000D01*
X117740955Y-64030307D01*
X117732284Y-64043284D01*
X117719307Y-64051955D01*
X117704000Y-64055000D01*
X116204000Y-64055000D01*
X116188693Y-64051955D01*
X116175716Y-64043284D01*
X116167045Y-64030307D01*
X116164000Y-64015000D01*
X116164000Y-63115000D01*
X116167045Y-63099693D01*
X116175716Y-63086716D01*
X116188693Y-63078045D01*
X116204000Y-63075000D01*
X117704000Y-63075000D01*
X117719307Y-63078045D01*
G37*
G36*
X81135710Y-62757463D02*
G01*
X81197350Y-62798650D01*
X81238537Y-62860290D01*
X81253000Y-62933000D01*
X81253000Y-63233000D01*
X81238537Y-63305710D01*
X81197350Y-63367350D01*
X81135710Y-63408537D01*
X81063000Y-63423000D01*
X79888000Y-63423000D01*
X79815290Y-63408537D01*
X79753650Y-63367350D01*
X79712463Y-63305710D01*
X79698000Y-63233000D01*
X79698000Y-62933000D01*
X79712463Y-62860290D01*
X79753650Y-62798650D01*
X79815290Y-62757463D01*
X79888000Y-62743000D01*
X81063000Y-62743000D01*
X81135710Y-62757463D01*
G37*
G36*
X97544396Y-61788703D02*
G01*
X97549135Y-61790795D01*
X97551841Y-61791152D01*
X97585695Y-61806938D01*
X97641890Y-61831751D01*
X97717249Y-61907110D01*
X97742070Y-61963325D01*
X97757847Y-61997158D01*
X97758202Y-61999861D01*
X97760297Y-62004604D01*
X97768000Y-62071000D01*
X97768000Y-62596000D01*
X97760297Y-62662396D01*
X97758202Y-62667139D01*
X97757847Y-62669841D01*
X97742079Y-62703655D01*
X97717249Y-62759890D01*
X97641890Y-62835249D01*
X97585655Y-62860079D01*
X97551841Y-62875847D01*
X97549139Y-62876202D01*
X97544396Y-62878297D01*
X97478000Y-62886000D01*
X96578000Y-62886000D01*
X96511604Y-62878297D01*
X96506861Y-62876202D01*
X96504158Y-62875847D01*
X96470325Y-62860070D01*
X96414110Y-62835249D01*
X96338751Y-62759890D01*
X96313938Y-62703695D01*
X96298152Y-62669841D01*
X96297795Y-62667135D01*
X96295703Y-62662396D01*
X96288000Y-62596000D01*
X96288000Y-62071000D01*
X96295703Y-62004604D01*
X96297795Y-61999864D01*
X96298152Y-61997158D01*
X96313947Y-61963285D01*
X96338751Y-61907110D01*
X96414110Y-61831751D01*
X96470285Y-61806947D01*
X96504158Y-61791152D01*
X96506864Y-61790795D01*
X96511604Y-61788703D01*
X96578000Y-61781000D01*
X97478000Y-61781000D01*
X97544396Y-61788703D01*
G37*
G36*
X100219307Y-61808045D02*
G01*
X100232284Y-61816716D01*
X100240955Y-61829693D01*
X100244000Y-61845000D01*
X100244000Y-62745000D01*
X100240955Y-62760307D01*
X100232284Y-62773284D01*
X100219307Y-62781955D01*
X100204000Y-62785000D01*
X98704000Y-62785000D01*
X98688693Y-62781955D01*
X98675716Y-62773284D01*
X98667045Y-62760307D01*
X98664000Y-62745000D01*
X98664000Y-61845000D01*
X98667045Y-61829693D01*
X98675716Y-61816716D01*
X98688693Y-61808045D01*
X98704000Y-61805000D01*
X100204000Y-61805000D01*
X100219307Y-61808045D01*
G37*
G36*
X117719307Y-61808045D02*
G01*
X117732284Y-61816716D01*
X117740955Y-61829693D01*
X117744000Y-61845000D01*
X117744000Y-62745000D01*
X117740955Y-62760307D01*
X117732284Y-62773284D01*
X117719307Y-62781955D01*
X117704000Y-62785000D01*
X116204000Y-62785000D01*
X116188693Y-62781955D01*
X116175716Y-62773284D01*
X116167045Y-62760307D01*
X116164000Y-62745000D01*
X116164000Y-61845000D01*
X116167045Y-61829693D01*
X116175716Y-61816716D01*
X116188693Y-61808045D01*
X116204000Y-61805000D01*
X117704000Y-61805000D01*
X117719307Y-61808045D01*
G37*
G36*
X75911896Y-61686703D02*
G01*
X75916635Y-61688795D01*
X75919341Y-61689152D01*
X75953195Y-61704938D01*
X76009390Y-61729751D01*
X76084749Y-61805110D01*
X76109570Y-61861325D01*
X76125347Y-61895158D01*
X76125702Y-61897861D01*
X76127797Y-61902604D01*
X76135500Y-61969000D01*
X76135500Y-62494000D01*
X76127797Y-62560396D01*
X76125702Y-62565139D01*
X76125347Y-62567841D01*
X76109579Y-62601655D01*
X76084749Y-62657890D01*
X76009390Y-62733249D01*
X75953155Y-62758079D01*
X75919341Y-62773847D01*
X75916639Y-62774202D01*
X75911896Y-62776297D01*
X75845500Y-62784000D01*
X74945500Y-62784000D01*
X74879104Y-62776297D01*
X74874361Y-62774202D01*
X74871658Y-62773847D01*
X74837825Y-62758070D01*
X74781610Y-62733249D01*
X74706251Y-62657890D01*
X74681438Y-62601695D01*
X74665652Y-62567841D01*
X74665295Y-62565135D01*
X74663203Y-62560396D01*
X74655500Y-62494000D01*
X74655500Y-61969000D01*
X74663203Y-61902604D01*
X74665295Y-61897864D01*
X74665652Y-61895158D01*
X74681447Y-61861285D01*
X74706251Y-61805110D01*
X74781610Y-61729751D01*
X74837785Y-61704947D01*
X74871658Y-61689152D01*
X74874364Y-61688795D01*
X74879104Y-61686703D01*
X74945500Y-61679000D01*
X75845500Y-61679000D01*
X75911896Y-61686703D01*
G37*
G36*
X79260710Y-61807463D02*
G01*
X79322350Y-61848650D01*
X79363537Y-61910290D01*
X79378000Y-61983000D01*
X79378000Y-62283000D01*
X79363537Y-62355710D01*
X79322350Y-62417350D01*
X79260710Y-62458537D01*
X79188000Y-62473000D01*
X78013000Y-62473000D01*
X77940290Y-62458537D01*
X77878650Y-62417350D01*
X77837463Y-62355710D01*
X77823000Y-62283000D01*
X77823000Y-61983000D01*
X77837463Y-61910290D01*
X77878650Y-61848650D01*
X77940290Y-61807463D01*
X78013000Y-61793000D01*
X79188000Y-61793000D01*
X79260710Y-61807463D01*
G37*
G36*
X100219307Y-60538045D02*
G01*
X100232284Y-60546716D01*
X100240955Y-60559693D01*
X100244000Y-60575000D01*
X100244000Y-61475000D01*
X100240955Y-61490307D01*
X100232284Y-61503284D01*
X100219307Y-61511955D01*
X100204000Y-61515000D01*
X98704000Y-61515000D01*
X98688693Y-61511955D01*
X98675716Y-61503284D01*
X98667045Y-61490307D01*
X98664000Y-61475000D01*
X98664000Y-60575000D01*
X98667045Y-60559693D01*
X98675716Y-60546716D01*
X98688693Y-60538045D01*
X98704000Y-60535000D01*
X100204000Y-60535000D01*
X100219307Y-60538045D01*
G37*
G36*
X117719307Y-60538045D02*
G01*
X117732284Y-60546716D01*
X117740955Y-60559693D01*
X117744000Y-60575000D01*
X117744000Y-61475000D01*
X117740955Y-61490307D01*
X117732284Y-61503284D01*
X117719307Y-61511955D01*
X117704000Y-61515000D01*
X116204000Y-61515000D01*
X116188693Y-61511955D01*
X116175716Y-61503284D01*
X116167045Y-61490307D01*
X116164000Y-61475000D01*
X116164000Y-60575000D01*
X116167045Y-60559693D01*
X116175716Y-60546716D01*
X116188693Y-60538045D01*
X116204000Y-60535000D01*
X117704000Y-60535000D01*
X117719307Y-60538045D01*
G37*
G36*
X100219307Y-59268045D02*
G01*
X100232284Y-59276716D01*
X100240955Y-59289693D01*
X100244000Y-59305000D01*
X100244000Y-60205000D01*
X100240955Y-60220307D01*
X100232284Y-60233284D01*
X100219307Y-60241955D01*
X100204000Y-60245000D01*
X98704000Y-60245000D01*
X98688693Y-60241955D01*
X98675716Y-60233284D01*
X98667045Y-60220307D01*
X98664000Y-60205000D01*
X98664000Y-59305000D01*
X98667045Y-59289693D01*
X98675716Y-59276716D01*
X98688693Y-59268045D01*
X98704000Y-59265000D01*
X100204000Y-59265000D01*
X100219307Y-59268045D01*
G37*
G36*
X117719307Y-59268045D02*
G01*
X117732284Y-59276716D01*
X117740955Y-59289693D01*
X117744000Y-59305000D01*
X117744000Y-60205000D01*
X117740955Y-60220307D01*
X117732284Y-60233284D01*
X117719307Y-60241955D01*
X117704000Y-60245000D01*
X116204000Y-60245000D01*
X116188693Y-60241955D01*
X116175716Y-60233284D01*
X116167045Y-60220307D01*
X116164000Y-60205000D01*
X116164000Y-59305000D01*
X116167045Y-59289693D01*
X116175716Y-59276716D01*
X116188693Y-59268045D01*
X116204000Y-59265000D01*
X117704000Y-59265000D01*
X117719307Y-59268045D01*
G37*
G36*
X76908710Y-59340963D02*
G01*
X76970350Y-59382150D01*
X77011537Y-59443790D01*
X77026000Y-59516500D01*
X77026000Y-59816500D01*
X77011537Y-59889210D01*
X76970350Y-59950850D01*
X76908710Y-59992037D01*
X76836000Y-60006500D01*
X75661000Y-60006500D01*
X75588290Y-59992037D01*
X75526650Y-59950850D01*
X75485463Y-59889210D01*
X75471000Y-59816500D01*
X75471000Y-59516500D01*
X75485463Y-59443790D01*
X75526650Y-59382150D01*
X75588290Y-59340963D01*
X75661000Y-59326500D01*
X76836000Y-59326500D01*
X76908710Y-59340963D01*
G37*
G36*
X79637396Y-58891203D02*
G01*
X79642135Y-58893295D01*
X79644841Y-58893652D01*
X79678695Y-58909438D01*
X79734890Y-58934251D01*
X79810249Y-59009610D01*
X79835070Y-59065825D01*
X79850847Y-59099658D01*
X79851202Y-59102361D01*
X79853297Y-59107104D01*
X79861000Y-59173500D01*
X79861000Y-59698500D01*
X79853297Y-59764896D01*
X79851202Y-59769639D01*
X79850847Y-59772341D01*
X79835079Y-59806155D01*
X79810249Y-59862390D01*
X79734890Y-59937749D01*
X79678655Y-59962579D01*
X79644841Y-59978347D01*
X79642139Y-59978702D01*
X79637396Y-59980797D01*
X79571000Y-59988500D01*
X78671000Y-59988500D01*
X78604604Y-59980797D01*
X78599861Y-59978702D01*
X78597158Y-59978347D01*
X78563325Y-59962570D01*
X78507110Y-59937749D01*
X78431751Y-59862390D01*
X78406938Y-59806195D01*
X78391152Y-59772341D01*
X78390795Y-59769635D01*
X78388703Y-59764896D01*
X78381000Y-59698500D01*
X78381000Y-59173500D01*
X78388703Y-59107104D01*
X78390795Y-59102364D01*
X78391152Y-59099658D01*
X78406947Y-59065785D01*
X78431751Y-59009610D01*
X78507110Y-58934251D01*
X78563285Y-58909447D01*
X78597158Y-58893652D01*
X78599864Y-58893295D01*
X78604604Y-58891203D01*
X78671000Y-58883500D01*
X79571000Y-58883500D01*
X79637396Y-58891203D01*
G37*
G36*
X75033710Y-58390963D02*
G01*
X75095350Y-58432150D01*
X75136537Y-58493790D01*
X75151000Y-58566500D01*
X75151000Y-58866500D01*
X75136537Y-58939210D01*
X75095350Y-59000850D01*
X75033710Y-59042037D01*
X74961000Y-59056500D01*
X73786000Y-59056500D01*
X73713290Y-59042037D01*
X73651650Y-59000850D01*
X73610463Y-58939210D01*
X73596000Y-58866500D01*
X73596000Y-58566500D01*
X73610463Y-58493790D01*
X73651650Y-58432150D01*
X73713290Y-58390963D01*
X73786000Y-58376500D01*
X74961000Y-58376500D01*
X75033710Y-58390963D01*
G37*
G36*
X100219307Y-57998045D02*
G01*
X100232284Y-58006716D01*
X100240955Y-58019693D01*
X100244000Y-58035000D01*
X100244000Y-58935000D01*
X100240955Y-58950307D01*
X100232284Y-58963284D01*
X100219307Y-58971955D01*
X100204000Y-58975000D01*
X98704000Y-58975000D01*
X98688693Y-58971955D01*
X98675716Y-58963284D01*
X98667045Y-58950307D01*
X98664000Y-58935000D01*
X98664000Y-58035000D01*
X98667045Y-58019693D01*
X98675716Y-58006716D01*
X98688693Y-57998045D01*
X98704000Y-57995000D01*
X100204000Y-57995000D01*
X100219307Y-57998045D01*
G37*
G36*
X117719307Y-57998045D02*
G01*
X117732284Y-58006716D01*
X117740955Y-58019693D01*
X117744000Y-58035000D01*
X117744000Y-58935000D01*
X117740955Y-58950307D01*
X117732284Y-58963284D01*
X117719307Y-58971955D01*
X117704000Y-58975000D01*
X116204000Y-58975000D01*
X116188693Y-58971955D01*
X116175716Y-58963284D01*
X116167045Y-58950307D01*
X116164000Y-58935000D01*
X116164000Y-58035000D01*
X116167045Y-58019693D01*
X116175716Y-58006716D01*
X116188693Y-57998045D01*
X116204000Y-57995000D01*
X117704000Y-57995000D01*
X117719307Y-57998045D01*
G37*
G36*
X79637396Y-57066203D02*
G01*
X79642135Y-57068295D01*
X79644841Y-57068652D01*
X79678695Y-57084438D01*
X79734890Y-57109251D01*
X79810249Y-57184610D01*
X79835070Y-57240825D01*
X79850847Y-57274658D01*
X79851202Y-57277361D01*
X79853297Y-57282104D01*
X79861000Y-57348500D01*
X79861000Y-57873500D01*
X79853297Y-57939896D01*
X79851202Y-57944639D01*
X79850847Y-57947341D01*
X79835079Y-57981155D01*
X79810249Y-58037390D01*
X79734890Y-58112749D01*
X79678655Y-58137579D01*
X79644841Y-58153347D01*
X79642139Y-58153702D01*
X79637396Y-58155797D01*
X79571000Y-58163500D01*
X78671000Y-58163500D01*
X78604604Y-58155797D01*
X78599861Y-58153702D01*
X78597158Y-58153347D01*
X78563325Y-58137570D01*
X78507110Y-58112749D01*
X78431751Y-58037390D01*
X78406938Y-57981195D01*
X78391152Y-57947341D01*
X78390795Y-57944635D01*
X78388703Y-57939896D01*
X78381000Y-57873500D01*
X78381000Y-57348500D01*
X78388703Y-57282104D01*
X78390795Y-57277364D01*
X78391152Y-57274658D01*
X78406947Y-57240785D01*
X78431751Y-57184610D01*
X78507110Y-57109251D01*
X78563285Y-57084447D01*
X78597158Y-57068652D01*
X78599864Y-57068295D01*
X78604604Y-57066203D01*
X78671000Y-57058500D01*
X79571000Y-57058500D01*
X79637396Y-57066203D01*
G37*
G36*
X76908710Y-57440963D02*
G01*
X76970350Y-57482150D01*
X77011537Y-57543790D01*
X77026000Y-57616500D01*
X77026000Y-57916500D01*
X77011537Y-57989210D01*
X76970350Y-58050850D01*
X76908710Y-58092037D01*
X76836000Y-58106500D01*
X75661000Y-58106500D01*
X75588290Y-58092037D01*
X75526650Y-58050850D01*
X75485463Y-57989210D01*
X75471000Y-57916500D01*
X75471000Y-57616500D01*
X75485463Y-57543790D01*
X75526650Y-57482150D01*
X75588290Y-57440963D01*
X75661000Y-57426500D01*
X76836000Y-57426500D01*
X76908710Y-57440963D01*
G37*
G36*
X105769307Y-54158045D02*
G01*
X105782284Y-54166716D01*
X105790955Y-54179693D01*
X105794000Y-54195000D01*
X105794000Y-54319763D01*
X105843570Y-54348384D01*
X105873888Y-54330881D01*
X105959621Y-54307909D01*
X106048379Y-54307909D01*
X106134112Y-54330881D01*
X106164429Y-54348384D01*
X106214000Y-54319763D01*
X106214000Y-54199923D01*
X106214000Y-54195000D01*
X106217045Y-54179693D01*
X106225716Y-54166716D01*
X106238693Y-54158045D01*
X106254000Y-54155000D01*
X107154000Y-54155000D01*
X107169307Y-54158045D01*
X107182284Y-54166716D01*
X107190955Y-54179693D01*
X107194000Y-54195000D01*
X107194000Y-54319763D01*
X107243570Y-54348384D01*
X107273888Y-54330881D01*
X107359621Y-54307909D01*
X107448379Y-54307909D01*
X107534112Y-54330881D01*
X107564429Y-54348384D01*
X107614000Y-54319763D01*
X107614000Y-54199923D01*
X107614000Y-54195000D01*
X107617045Y-54179693D01*
X107625716Y-54166716D01*
X107638693Y-54158045D01*
X107654000Y-54155000D01*
X108554000Y-54155000D01*
X108569307Y-54158045D01*
X108582284Y-54166716D01*
X108590955Y-54179693D01*
X108594000Y-54195000D01*
X108594000Y-55095000D01*
X108590955Y-55110307D01*
X108582284Y-55123284D01*
X108569307Y-55131955D01*
X108554000Y-55135000D01*
X108429234Y-55135000D01*
X108400615Y-55184570D01*
X108418119Y-55214888D01*
X108441091Y-55300621D01*
X108441091Y-55389379D01*
X108418119Y-55475112D01*
X108400615Y-55505428D01*
X108429234Y-55555000D01*
X108554000Y-55555000D01*
X108569307Y-55558045D01*
X108582284Y-55566716D01*
X108590955Y-55579693D01*
X108594000Y-55595000D01*
X108594000Y-56495000D01*
X108590955Y-56510307D01*
X108582284Y-56523284D01*
X108569307Y-56531955D01*
X108554000Y-56535000D01*
X108429234Y-56535000D01*
X108400615Y-56584570D01*
X108418119Y-56614888D01*
X108441091Y-56700621D01*
X108441091Y-56789379D01*
X108418119Y-56875112D01*
X108400615Y-56905428D01*
X108429234Y-56955000D01*
X108554000Y-56955000D01*
X108569307Y-56958045D01*
X108582284Y-56966716D01*
X108590955Y-56979693D01*
X108594000Y-56995000D01*
X108594000Y-57895000D01*
X108590955Y-57910307D01*
X108582284Y-57923284D01*
X108569307Y-57931955D01*
X108554000Y-57935000D01*
X107654000Y-57935000D01*
X107638693Y-57931955D01*
X107625716Y-57923284D01*
X107617045Y-57910307D01*
X107614000Y-57895000D01*
X107614000Y-57770234D01*
X107564428Y-57741615D01*
X107534112Y-57759119D01*
X107448379Y-57782091D01*
X107359621Y-57782091D01*
X107273888Y-57759119D01*
X107243570Y-57741615D01*
X107194000Y-57770234D01*
X107194000Y-57895000D01*
X107190955Y-57910307D01*
X107182284Y-57923284D01*
X107169307Y-57931955D01*
X107154000Y-57935000D01*
X106254000Y-57935000D01*
X106238693Y-57931955D01*
X106225716Y-57923284D01*
X106217045Y-57910307D01*
X106214000Y-57895000D01*
X106214000Y-57770234D01*
X106164428Y-57741615D01*
X106134112Y-57759119D01*
X106048379Y-57782091D01*
X105959621Y-57782091D01*
X105873888Y-57759119D01*
X105843570Y-57741615D01*
X105794000Y-57770234D01*
X105794000Y-57895000D01*
X105790955Y-57910307D01*
X105782284Y-57923284D01*
X105769307Y-57931955D01*
X105754000Y-57935000D01*
X104854000Y-57935000D01*
X104838693Y-57931955D01*
X104825716Y-57923284D01*
X104817045Y-57910307D01*
X104814000Y-57895000D01*
X104814000Y-56995000D01*
X104817045Y-56979693D01*
X104825716Y-56966716D01*
X104838693Y-56958045D01*
X104854000Y-56955000D01*
X104978764Y-56955000D01*
X105007384Y-56905429D01*
X104989881Y-56875112D01*
X104966909Y-56789379D01*
X104966909Y-56700621D01*
X104989881Y-56614888D01*
X105007384Y-56584570D01*
X105600615Y-56584570D01*
X105618119Y-56614888D01*
X105641091Y-56700621D01*
X105641091Y-56789379D01*
X105618119Y-56875112D01*
X105600615Y-56905428D01*
X105629234Y-56955000D01*
X105754000Y-56955000D01*
X105769307Y-56958045D01*
X105782284Y-56966716D01*
X105790955Y-56979693D01*
X105794000Y-56995000D01*
X105794000Y-57119763D01*
X105843570Y-57148384D01*
X105873888Y-57130881D01*
X105959621Y-57107909D01*
X106048379Y-57107909D01*
X106134112Y-57130881D01*
X106164429Y-57148384D01*
X106214000Y-57119763D01*
X106214000Y-56999923D01*
X106214000Y-56995000D01*
X106217045Y-56979693D01*
X106225716Y-56966716D01*
X106238693Y-56958045D01*
X106254000Y-56955000D01*
X106378764Y-56955000D01*
X106407384Y-56905429D01*
X106389881Y-56875112D01*
X106366909Y-56789379D01*
X106366909Y-56700621D01*
X106389881Y-56614888D01*
X106407384Y-56584570D01*
X107000615Y-56584570D01*
X107018119Y-56614888D01*
X107041091Y-56700621D01*
X107041091Y-56789379D01*
X107018119Y-56875112D01*
X107000615Y-56905428D01*
X107029234Y-56955000D01*
X107154000Y-56955000D01*
X107169307Y-56958045D01*
X107182284Y-56966716D01*
X107190955Y-56979693D01*
X107194000Y-56995000D01*
X107194000Y-57119763D01*
X107243570Y-57148384D01*
X107273888Y-57130881D01*
X107359621Y-57107909D01*
X107448379Y-57107909D01*
X107534112Y-57130881D01*
X107564429Y-57148384D01*
X107614000Y-57119763D01*
X107614000Y-56999923D01*
X107614000Y-56995000D01*
X107617045Y-56979693D01*
X107625716Y-56966716D01*
X107638693Y-56958045D01*
X107654000Y-56955000D01*
X107778764Y-56955000D01*
X107807384Y-56905429D01*
X107789881Y-56875112D01*
X107766909Y-56789379D01*
X107766909Y-56700621D01*
X107789881Y-56614888D01*
X107807384Y-56584570D01*
X107778763Y-56535000D01*
X107654000Y-56535000D01*
X107638693Y-56531955D01*
X107625716Y-56523284D01*
X107617045Y-56510307D01*
X107614000Y-56495000D01*
X107614000Y-56370234D01*
X107564428Y-56341615D01*
X107534112Y-56359119D01*
X107448379Y-56382091D01*
X107359621Y-56382091D01*
X107273888Y-56359119D01*
X107243570Y-56341615D01*
X107194000Y-56370234D01*
X107194000Y-56495000D01*
X107190955Y-56510307D01*
X107182284Y-56523284D01*
X107169307Y-56531955D01*
X107154000Y-56535000D01*
X107029234Y-56535000D01*
X107000615Y-56584570D01*
X106407384Y-56584570D01*
X106378763Y-56535000D01*
X106254000Y-56535000D01*
X106238693Y-56531955D01*
X106225716Y-56523284D01*
X106217045Y-56510307D01*
X106214000Y-56495000D01*
X106214000Y-56370234D01*
X106164428Y-56341615D01*
X106134112Y-56359119D01*
X106048379Y-56382091D01*
X105959621Y-56382091D01*
X105873888Y-56359119D01*
X105843570Y-56341615D01*
X105794000Y-56370234D01*
X105794000Y-56495000D01*
X105790955Y-56510307D01*
X105782284Y-56523284D01*
X105769307Y-56531955D01*
X105754000Y-56535000D01*
X105629234Y-56535000D01*
X105600615Y-56584570D01*
X105007384Y-56584570D01*
X104978763Y-56535000D01*
X104854000Y-56535000D01*
X104838693Y-56531955D01*
X104825716Y-56523284D01*
X104817045Y-56510307D01*
X104814000Y-56495000D01*
X104814000Y-55595000D01*
X104817045Y-55579693D01*
X104825716Y-55566716D01*
X104838693Y-55558045D01*
X104854000Y-55555000D01*
X104978764Y-55555000D01*
X105007384Y-55505429D01*
X104989881Y-55475112D01*
X104966909Y-55389379D01*
X104966909Y-55300621D01*
X104989881Y-55214888D01*
X105007384Y-55184570D01*
X105600615Y-55184570D01*
X105618119Y-55214888D01*
X105641091Y-55300621D01*
X105641091Y-55389379D01*
X105618119Y-55475112D01*
X105600615Y-55505428D01*
X105629234Y-55555000D01*
X105754000Y-55555000D01*
X105769307Y-55558045D01*
X105782284Y-55566716D01*
X105790955Y-55579693D01*
X105794000Y-55595000D01*
X105794000Y-55719763D01*
X105843570Y-55748384D01*
X105873888Y-55730881D01*
X105959621Y-55707909D01*
X106048379Y-55707909D01*
X106134112Y-55730881D01*
X106164429Y-55748384D01*
X106214000Y-55719763D01*
X106214000Y-55599923D01*
X106214000Y-55595000D01*
X106217045Y-55579693D01*
X106225716Y-55566716D01*
X106238693Y-55558045D01*
X106254000Y-55555000D01*
X106378764Y-55555000D01*
X106407384Y-55505429D01*
X106389881Y-55475112D01*
X106366909Y-55389379D01*
X106366909Y-55300621D01*
X106389881Y-55214888D01*
X106407384Y-55184570D01*
X107000615Y-55184570D01*
X107018119Y-55214888D01*
X107041091Y-55300621D01*
X107041091Y-55389379D01*
X107018119Y-55475112D01*
X107000615Y-55505428D01*
X107029234Y-55555000D01*
X107154000Y-55555000D01*
X107169307Y-55558045D01*
X107182284Y-55566716D01*
X107190955Y-55579693D01*
X107194000Y-55595000D01*
X107194000Y-55719763D01*
X107243570Y-55748384D01*
X107273888Y-55730881D01*
X107359621Y-55707909D01*
X107448379Y-55707909D01*
X107534112Y-55730881D01*
X107564429Y-55748384D01*
X107614000Y-55719763D01*
X107614000Y-55599923D01*
X107614000Y-55595000D01*
X107617045Y-55579693D01*
X107625716Y-55566716D01*
X107638693Y-55558045D01*
X107654000Y-55555000D01*
X107778764Y-55555000D01*
X107807384Y-55505429D01*
X107789881Y-55475112D01*
X107766909Y-55389379D01*
X107766909Y-55300621D01*
X107789881Y-55214888D01*
X107807384Y-55184570D01*
X107778763Y-55135000D01*
X107654000Y-55135000D01*
X107638693Y-55131955D01*
X107625716Y-55123284D01*
X107617045Y-55110307D01*
X107614000Y-55095000D01*
X107614000Y-54970234D01*
X107564428Y-54941615D01*
X107534112Y-54959119D01*
X107448379Y-54982091D01*
X107359621Y-54982091D01*
X107273888Y-54959119D01*
X107243570Y-54941615D01*
X107194000Y-54970234D01*
X107194000Y-55095000D01*
X107190955Y-55110307D01*
X107182284Y-55123284D01*
X107169307Y-55131955D01*
X107154000Y-55135000D01*
X107029234Y-55135000D01*
X107000615Y-55184570D01*
X106407384Y-55184570D01*
X106378763Y-55135000D01*
X106254000Y-55135000D01*
X106238693Y-55131955D01*
X106225716Y-55123284D01*
X106217045Y-55110307D01*
X106214000Y-55095000D01*
X106214000Y-54970234D01*
X106164428Y-54941615D01*
X106134112Y-54959119D01*
X106048379Y-54982091D01*
X105959621Y-54982091D01*
X105873888Y-54959119D01*
X105843570Y-54941615D01*
X105794000Y-54970234D01*
X105794000Y-55095000D01*
X105790955Y-55110307D01*
X105782284Y-55123284D01*
X105769307Y-55131955D01*
X105754000Y-55135000D01*
X105629234Y-55135000D01*
X105600615Y-55184570D01*
X105007384Y-55184570D01*
X104978763Y-55135000D01*
X104854000Y-55135000D01*
X104838693Y-55131955D01*
X104825716Y-55123284D01*
X104817045Y-55110307D01*
X104814000Y-55095000D01*
X104814000Y-54195000D01*
X104817045Y-54179693D01*
X104825716Y-54166716D01*
X104838693Y-54158045D01*
X104854000Y-54155000D01*
X105754000Y-54155000D01*
X105769307Y-54158045D01*
G37*
G36*
X100219307Y-56728045D02*
G01*
X100232284Y-56736716D01*
X100240955Y-56749693D01*
X100244000Y-56765000D01*
X100244000Y-57665000D01*
X100240955Y-57680307D01*
X100232284Y-57693284D01*
X100219307Y-57701955D01*
X100204000Y-57705000D01*
X98704000Y-57705000D01*
X98688693Y-57701955D01*
X98675716Y-57693284D01*
X98667045Y-57680307D01*
X98664000Y-57665000D01*
X98664000Y-56765000D01*
X98667045Y-56749693D01*
X98675716Y-56736716D01*
X98688693Y-56728045D01*
X98704000Y-56725000D01*
X100204000Y-56725000D01*
X100219307Y-56728045D01*
G37*
G36*
X117719307Y-56728045D02*
G01*
X117732284Y-56736716D01*
X117740955Y-56749693D01*
X117744000Y-56765000D01*
X117744000Y-57665000D01*
X117740955Y-57680307D01*
X117732284Y-57693284D01*
X117719307Y-57701955D01*
X117704000Y-57705000D01*
X116204000Y-57705000D01*
X116188693Y-57701955D01*
X116175716Y-57693284D01*
X116167045Y-57680307D01*
X116164000Y-57665000D01*
X116164000Y-56765000D01*
X116167045Y-56749693D01*
X116175716Y-56736716D01*
X116188693Y-56728045D01*
X116204000Y-56725000D01*
X117704000Y-56725000D01*
X117719307Y-56728045D01*
G37*
G36*
X100219307Y-55458045D02*
G01*
X100232284Y-55466716D01*
X100240955Y-55479693D01*
X100244000Y-55495000D01*
X100244000Y-56395000D01*
X100240955Y-56410307D01*
X100232284Y-56423284D01*
X100219307Y-56431955D01*
X100204000Y-56435000D01*
X98704000Y-56435000D01*
X98688693Y-56431955D01*
X98675716Y-56423284D01*
X98667045Y-56410307D01*
X98664000Y-56395000D01*
X98664000Y-55495000D01*
X98667045Y-55479693D01*
X98675716Y-55466716D01*
X98688693Y-55458045D01*
X98704000Y-55455000D01*
X100204000Y-55455000D01*
X100219307Y-55458045D01*
G37*
G36*
X117719307Y-55458045D02*
G01*
X117732284Y-55466716D01*
X117740955Y-55479693D01*
X117744000Y-55495000D01*
X117744000Y-56395000D01*
X117740955Y-56410307D01*
X117732284Y-56423284D01*
X117719307Y-56431955D01*
X117704000Y-56435000D01*
X116204000Y-56435000D01*
X116188693Y-56431955D01*
X116175716Y-56423284D01*
X116167045Y-56410307D01*
X116164000Y-56395000D01*
X116164000Y-55495000D01*
X116167045Y-55479693D01*
X116175716Y-55466716D01*
X116188693Y-55458045D01*
X116204000Y-55455000D01*
X117704000Y-55455000D01*
X117719307Y-55458045D01*
G37*
G36*
X100219307Y-54188045D02*
G01*
X100232284Y-54196716D01*
X100240955Y-54209693D01*
X100244000Y-54225000D01*
X100244000Y-55125000D01*
X100240955Y-55140307D01*
X100232284Y-55153284D01*
X100219307Y-55161955D01*
X100204000Y-55165000D01*
X98704000Y-55165000D01*
X98688693Y-55161955D01*
X98675716Y-55153284D01*
X98667045Y-55140307D01*
X98664000Y-55125000D01*
X98664000Y-54225000D01*
X98667045Y-54209693D01*
X98675716Y-54196716D01*
X98688693Y-54188045D01*
X98704000Y-54185000D01*
X100204000Y-54185000D01*
X100219307Y-54188045D01*
G37*
G36*
X117719307Y-54188045D02*
G01*
X117732284Y-54196716D01*
X117740955Y-54209693D01*
X117744000Y-54225000D01*
X117744000Y-55125000D01*
X117740955Y-55140307D01*
X117732284Y-55153284D01*
X117719307Y-55161955D01*
X117704000Y-55165000D01*
X116204000Y-55165000D01*
X116188693Y-55161955D01*
X116175716Y-55153284D01*
X116167045Y-55140307D01*
X116164000Y-55125000D01*
X116164000Y-54225000D01*
X116167045Y-54209693D01*
X116175716Y-54196716D01*
X116188693Y-54188045D01*
X116204000Y-54185000D01*
X117704000Y-54185000D01*
X117719307Y-54188045D01*
G37*
G36*
X84156396Y-53109703D02*
G01*
X84161135Y-53111795D01*
X84163841Y-53112152D01*
X84197695Y-53127938D01*
X84253890Y-53152751D01*
X84329249Y-53228110D01*
X84354070Y-53284325D01*
X84369847Y-53318158D01*
X84370202Y-53320861D01*
X84372297Y-53325604D01*
X84380000Y-53392000D01*
X84380000Y-54642000D01*
X84372297Y-54708396D01*
X84370202Y-54713139D01*
X84369847Y-54715841D01*
X84354079Y-54749655D01*
X84329249Y-54805890D01*
X84253890Y-54881249D01*
X84197655Y-54906079D01*
X84163841Y-54921847D01*
X84161139Y-54922202D01*
X84156396Y-54924297D01*
X84090000Y-54932000D01*
X83390000Y-54932000D01*
X83323604Y-54924297D01*
X83318861Y-54922202D01*
X83316158Y-54921847D01*
X83282325Y-54906070D01*
X83226110Y-54881249D01*
X83150751Y-54805890D01*
X83125938Y-54749695D01*
X83110152Y-54715841D01*
X83109795Y-54713135D01*
X83107703Y-54708396D01*
X83100000Y-54642000D01*
X83100000Y-53392000D01*
X83107703Y-53325604D01*
X83109795Y-53320864D01*
X83110152Y-53318158D01*
X83125947Y-53284285D01*
X83150751Y-53228110D01*
X83226110Y-53152751D01*
X83282285Y-53127947D01*
X83316158Y-53112152D01*
X83318864Y-53111795D01*
X83323604Y-53109703D01*
X83390000Y-53102000D01*
X84090000Y-53102000D01*
X84156396Y-53109703D01*
G37*
G36*
X73925782Y-53129558D02*
G01*
X74041694Y-53177570D01*
X74146012Y-53247273D01*
X74234727Y-53335988D01*
X74304430Y-53440306D01*
X74352442Y-53556218D01*
X74376918Y-53679269D01*
X74380000Y-53742000D01*
X74380000Y-54292000D01*
X74376918Y-54354731D01*
X74352442Y-54477782D01*
X74304430Y-54593694D01*
X74234727Y-54698012D01*
X74146012Y-54786727D01*
X74041694Y-54856430D01*
X73925782Y-54904442D01*
X73802731Y-54928918D01*
X73677269Y-54928918D01*
X73554218Y-54904442D01*
X73438306Y-54856430D01*
X73333988Y-54786727D01*
X73245273Y-54698012D01*
X73175570Y-54593694D01*
X73127558Y-54477782D01*
X73103082Y-54354731D01*
X73100000Y-54292000D01*
X73100000Y-53742000D01*
X73103082Y-53679269D01*
X73127558Y-53556218D01*
X73175570Y-53440306D01*
X73245273Y-53335988D01*
X73333988Y-53247273D01*
X73438306Y-53177570D01*
X73554218Y-53129558D01*
X73677269Y-53105082D01*
X73802731Y-53105082D01*
X73925782Y-53129558D01*
G37*
G36*
X75925782Y-53129558D02*
G01*
X76041694Y-53177570D01*
X76146012Y-53247273D01*
X76234727Y-53335988D01*
X76304430Y-53440306D01*
X76352442Y-53556218D01*
X76376918Y-53679269D01*
X76380000Y-53742000D01*
X76380000Y-54292000D01*
X76376918Y-54354731D01*
X76352442Y-54477782D01*
X76304430Y-54593694D01*
X76234727Y-54698012D01*
X76146012Y-54786727D01*
X76041694Y-54856430D01*
X75925782Y-54904442D01*
X75802731Y-54928918D01*
X75677269Y-54928918D01*
X75554218Y-54904442D01*
X75438306Y-54856430D01*
X75333988Y-54786727D01*
X75245273Y-54698012D01*
X75175570Y-54593694D01*
X75127558Y-54477782D01*
X75103082Y-54354731D01*
X75100000Y-54292000D01*
X75100000Y-53742000D01*
X75103082Y-53679269D01*
X75127558Y-53556218D01*
X75175570Y-53440306D01*
X75245273Y-53335988D01*
X75333988Y-53247273D01*
X75438306Y-53177570D01*
X75554218Y-53129558D01*
X75677269Y-53105082D01*
X75802731Y-53105082D01*
X75925782Y-53129558D01*
G37*
G36*
X77925782Y-53129558D02*
G01*
X78041694Y-53177570D01*
X78146012Y-53247273D01*
X78234727Y-53335988D01*
X78304430Y-53440306D01*
X78352442Y-53556218D01*
X78376918Y-53679269D01*
X78380000Y-53742000D01*
X78380000Y-54292000D01*
X78376918Y-54354731D01*
X78352442Y-54477782D01*
X78304430Y-54593694D01*
X78234727Y-54698012D01*
X78146012Y-54786727D01*
X78041694Y-54856430D01*
X77925782Y-54904442D01*
X77802731Y-54928918D01*
X77677269Y-54928918D01*
X77554218Y-54904442D01*
X77438306Y-54856430D01*
X77333988Y-54786727D01*
X77245273Y-54698012D01*
X77175570Y-54593694D01*
X77127558Y-54477782D01*
X77103082Y-54354731D01*
X77100000Y-54292000D01*
X77100000Y-53742000D01*
X77103082Y-53679269D01*
X77127558Y-53556218D01*
X77175570Y-53440306D01*
X77245273Y-53335988D01*
X77333988Y-53247273D01*
X77438306Y-53177570D01*
X77554218Y-53129558D01*
X77677269Y-53105082D01*
X77802731Y-53105082D01*
X77925782Y-53129558D01*
G37*
G36*
X79925782Y-53129558D02*
G01*
X80041694Y-53177570D01*
X80146012Y-53247273D01*
X80234727Y-53335988D01*
X80304430Y-53440306D01*
X80352442Y-53556218D01*
X80376918Y-53679269D01*
X80380000Y-53742000D01*
X80380000Y-54292000D01*
X80376918Y-54354731D01*
X80352442Y-54477782D01*
X80304430Y-54593694D01*
X80234727Y-54698012D01*
X80146012Y-54786727D01*
X80041694Y-54856430D01*
X79925782Y-54904442D01*
X79802731Y-54928918D01*
X79677269Y-54928918D01*
X79554218Y-54904442D01*
X79438306Y-54856430D01*
X79333988Y-54786727D01*
X79245273Y-54698012D01*
X79175570Y-54593694D01*
X79127558Y-54477782D01*
X79103082Y-54354731D01*
X79100000Y-54292000D01*
X79100000Y-53742000D01*
X79103082Y-53679269D01*
X79127558Y-53556218D01*
X79175570Y-53440306D01*
X79245273Y-53335988D01*
X79333988Y-53247273D01*
X79438306Y-53177570D01*
X79554218Y-53129558D01*
X79677269Y-53105082D01*
X79802731Y-53105082D01*
X79925782Y-53129558D01*
G37*
G36*
X81925782Y-53129558D02*
G01*
X82041694Y-53177570D01*
X82146012Y-53247273D01*
X82234727Y-53335988D01*
X82304430Y-53440306D01*
X82352442Y-53556218D01*
X82376918Y-53679269D01*
X82380000Y-53742000D01*
X82380000Y-54292000D01*
X82376918Y-54354731D01*
X82352442Y-54477782D01*
X82304430Y-54593694D01*
X82234727Y-54698012D01*
X82146012Y-54786727D01*
X82041694Y-54856430D01*
X81925782Y-54904442D01*
X81802731Y-54928918D01*
X81677269Y-54928918D01*
X81554218Y-54904442D01*
X81438306Y-54856430D01*
X81333988Y-54786727D01*
X81245273Y-54698012D01*
X81175570Y-54593694D01*
X81127558Y-54477782D01*
X81103082Y-54354731D01*
X81100000Y-54292000D01*
X81100000Y-53742000D01*
X81103082Y-53679269D01*
X81127558Y-53556218D01*
X81175570Y-53440306D01*
X81245273Y-53335988D01*
X81333988Y-53247273D01*
X81438306Y-53177570D01*
X81554218Y-53129558D01*
X81677269Y-53105082D01*
X81802731Y-53105082D01*
X81925782Y-53129558D01*
G37*
G36*
X100219307Y-52918045D02*
G01*
X100232284Y-52926716D01*
X100240955Y-52939693D01*
X100244000Y-52955000D01*
X100244000Y-53855000D01*
X100240955Y-53870307D01*
X100232284Y-53883284D01*
X100219307Y-53891955D01*
X100204000Y-53895000D01*
X98704000Y-53895000D01*
X98688693Y-53891955D01*
X98675716Y-53883284D01*
X98667045Y-53870307D01*
X98664000Y-53855000D01*
X98664000Y-52955000D01*
X98667045Y-52939693D01*
X98675716Y-52926716D01*
X98688693Y-52918045D01*
X98704000Y-52915000D01*
X100204000Y-52915000D01*
X100219307Y-52918045D01*
G37*
G36*
X117719307Y-52918045D02*
G01*
X117732284Y-52926716D01*
X117740955Y-52939693D01*
X117744000Y-52955000D01*
X117744000Y-53855000D01*
X117740955Y-53870307D01*
X117732284Y-53883284D01*
X117719307Y-53891955D01*
X117704000Y-53895000D01*
X116204000Y-53895000D01*
X116188693Y-53891955D01*
X116175716Y-53883284D01*
X116167045Y-53870307D01*
X116164000Y-53855000D01*
X116164000Y-52955000D01*
X116167045Y-52939693D01*
X116175716Y-52926716D01*
X116188693Y-52918045D01*
X116204000Y-52915000D01*
X117704000Y-52915000D01*
X117719307Y-52918045D01*
G37*
G36*
X89870396Y-51794703D02*
G01*
X89875135Y-51796795D01*
X89877841Y-51797152D01*
X89911695Y-51812938D01*
X89967890Y-51837751D01*
X90043249Y-51913110D01*
X90068070Y-51969325D01*
X90083847Y-52003158D01*
X90084202Y-52005861D01*
X90086297Y-52010604D01*
X90094000Y-52077000D01*
X90094000Y-52727000D01*
X90086297Y-52793396D01*
X90084202Y-52798139D01*
X90083847Y-52800841D01*
X90068079Y-52834655D01*
X90043249Y-52890890D01*
X89967890Y-52966249D01*
X89911655Y-52991079D01*
X89877841Y-53006847D01*
X89875139Y-53007202D01*
X89870396Y-53009297D01*
X89804000Y-53017000D01*
X88504000Y-53017000D01*
X88437604Y-53009297D01*
X88432861Y-53007202D01*
X88430158Y-53006847D01*
X88396325Y-52991070D01*
X88340110Y-52966249D01*
X88264751Y-52890890D01*
X88239938Y-52834695D01*
X88224152Y-52800841D01*
X88223795Y-52798135D01*
X88221703Y-52793396D01*
X88214000Y-52727000D01*
X88214000Y-52077000D01*
X88221703Y-52010604D01*
X88223795Y-52005864D01*
X88224152Y-52003158D01*
X88239947Y-51969285D01*
X88264751Y-51913110D01*
X88340110Y-51837751D01*
X88396285Y-51812947D01*
X88430158Y-51797152D01*
X88432864Y-51796795D01*
X88437604Y-51794703D01*
X88504000Y-51787000D01*
X89804000Y-51787000D01*
X89870396Y-51794703D01*
G37*
G36*
X100219307Y-51648045D02*
G01*
X100232284Y-51656716D01*
X100240955Y-51669693D01*
X100244000Y-51685000D01*
X100244000Y-52585000D01*
X100240955Y-52600307D01*
X100232284Y-52613284D01*
X100219307Y-52621955D01*
X100204000Y-52625000D01*
X98704000Y-52625000D01*
X98688693Y-52621955D01*
X98675716Y-52613284D01*
X98667045Y-52600307D01*
X98664000Y-52585000D01*
X98664000Y-51685000D01*
X98667045Y-51669693D01*
X98675716Y-51656716D01*
X98688693Y-51648045D01*
X98704000Y-51645000D01*
X100204000Y-51645000D01*
X100219307Y-51648045D01*
G37*
G36*
X117719307Y-51648045D02*
G01*
X117732284Y-51656716D01*
X117740955Y-51669693D01*
X117744000Y-51685000D01*
X117744000Y-52585000D01*
X117740955Y-52600307D01*
X117732284Y-52613284D01*
X117719307Y-52621955D01*
X117704000Y-52625000D01*
X116204000Y-52625000D01*
X116188693Y-52621955D01*
X116175716Y-52613284D01*
X116167045Y-52600307D01*
X116164000Y-52585000D01*
X116164000Y-51685000D01*
X116167045Y-51669693D01*
X116175716Y-51656716D01*
X116188693Y-51648045D01*
X116204000Y-51645000D01*
X117704000Y-51645000D01*
X117719307Y-51648045D01*
G37*
G36*
X92591396Y-51294703D02*
G01*
X92596135Y-51296795D01*
X92598841Y-51297152D01*
X92632695Y-51312938D01*
X92688890Y-51337751D01*
X92764249Y-51413110D01*
X92789070Y-51469325D01*
X92804847Y-51503158D01*
X92805202Y-51505861D01*
X92807297Y-51510604D01*
X92815000Y-51577000D01*
X92815000Y-52102000D01*
X92807297Y-52168396D01*
X92805202Y-52173139D01*
X92804847Y-52175841D01*
X92789079Y-52209655D01*
X92764249Y-52265890D01*
X92688890Y-52341249D01*
X92632655Y-52366079D01*
X92598841Y-52381847D01*
X92596139Y-52382202D01*
X92591396Y-52384297D01*
X92525000Y-52392000D01*
X91625000Y-52392000D01*
X91558604Y-52384297D01*
X91553861Y-52382202D01*
X91551158Y-52381847D01*
X91517325Y-52366070D01*
X91461110Y-52341249D01*
X91385751Y-52265890D01*
X91360938Y-52209695D01*
X91345152Y-52175841D01*
X91344795Y-52173135D01*
X91342703Y-52168396D01*
X91335000Y-52102000D01*
X91335000Y-51577000D01*
X91342703Y-51510604D01*
X91344795Y-51505864D01*
X91345152Y-51503158D01*
X91360947Y-51469285D01*
X91385751Y-51413110D01*
X91461110Y-51337751D01*
X91517285Y-51312947D01*
X91551158Y-51297152D01*
X91553864Y-51296795D01*
X91558604Y-51294703D01*
X91625000Y-51287000D01*
X92525000Y-51287000D01*
X92591396Y-51294703D01*
G37*
G36*
X96379396Y-50612703D02*
G01*
X96384135Y-50614795D01*
X96386841Y-50615152D01*
X96420695Y-50630938D01*
X96476890Y-50655751D01*
X96552249Y-50731110D01*
X96577070Y-50787325D01*
X96592847Y-50821158D01*
X96593202Y-50823861D01*
X96595297Y-50828604D01*
X96603000Y-50895000D01*
X96603000Y-51545000D01*
X96595297Y-51611396D01*
X96593202Y-51616139D01*
X96592847Y-51618841D01*
X96577079Y-51652655D01*
X96552249Y-51708890D01*
X96476890Y-51784249D01*
X96420655Y-51809079D01*
X96386841Y-51824847D01*
X96384139Y-51825202D01*
X96379396Y-51827297D01*
X96313000Y-51835000D01*
X95013000Y-51835000D01*
X94946604Y-51827297D01*
X94941861Y-51825202D01*
X94939158Y-51824847D01*
X94905325Y-51809070D01*
X94849110Y-51784249D01*
X94773751Y-51708890D01*
X94748938Y-51652695D01*
X94733152Y-51618841D01*
X94732795Y-51616135D01*
X94730703Y-51611396D01*
X94723000Y-51545000D01*
X94723000Y-50895000D01*
X94730703Y-50828604D01*
X94732795Y-50823864D01*
X94733152Y-50821158D01*
X94748947Y-50787285D01*
X94773751Y-50731110D01*
X94849110Y-50655751D01*
X94905285Y-50630947D01*
X94939158Y-50615152D01*
X94941864Y-50614795D01*
X94946604Y-50612703D01*
X95013000Y-50605000D01*
X96313000Y-50605000D01*
X96379396Y-50612703D01*
G37*
G36*
X100219307Y-50378045D02*
G01*
X100232284Y-50386716D01*
X100240955Y-50399693D01*
X100244000Y-50415000D01*
X100244000Y-51315000D01*
X100240955Y-51330307D01*
X100232284Y-51343284D01*
X100219307Y-51351955D01*
X100204000Y-51355000D01*
X98704000Y-51355000D01*
X98688693Y-51351955D01*
X98675716Y-51343284D01*
X98667045Y-51330307D01*
X98664000Y-51315000D01*
X98664000Y-50415000D01*
X98667045Y-50399693D01*
X98675716Y-50386716D01*
X98688693Y-50378045D01*
X98704000Y-50375000D01*
X100204000Y-50375000D01*
X100219307Y-50378045D01*
G37*
G36*
X117719307Y-50378045D02*
G01*
X117732284Y-50386716D01*
X117740955Y-50399693D01*
X117744000Y-50415000D01*
X117744000Y-51315000D01*
X117740955Y-51330307D01*
X117732284Y-51343284D01*
X117719307Y-51351955D01*
X117704000Y-51355000D01*
X116204000Y-51355000D01*
X116188693Y-51351955D01*
X116175716Y-51343284D01*
X116167045Y-51330307D01*
X116164000Y-51315000D01*
X116164000Y-50415000D01*
X116167045Y-50399693D01*
X116175716Y-50386716D01*
X116188693Y-50378045D01*
X116204000Y-50375000D01*
X117704000Y-50375000D01*
X117719307Y-50378045D01*
G37*
G36*
X92591396Y-49469703D02*
G01*
X92596135Y-49471795D01*
X92598841Y-49472152D01*
X92632695Y-49487938D01*
X92688890Y-49512751D01*
X92764249Y-49588110D01*
X92789070Y-49644325D01*
X92804847Y-49678158D01*
X92805202Y-49680861D01*
X92807297Y-49685604D01*
X92815000Y-49752000D01*
X92815000Y-50277000D01*
X92807297Y-50343396D01*
X92805202Y-50348139D01*
X92804847Y-50350841D01*
X92789079Y-50384655D01*
X92764249Y-50440890D01*
X92688890Y-50516249D01*
X92632655Y-50541079D01*
X92598841Y-50556847D01*
X92596139Y-50557202D01*
X92591396Y-50559297D01*
X92525000Y-50567000D01*
X91625000Y-50567000D01*
X91558604Y-50559297D01*
X91553861Y-50557202D01*
X91551158Y-50556847D01*
X91517325Y-50541070D01*
X91461110Y-50516249D01*
X91385751Y-50440890D01*
X91360938Y-50384695D01*
X91345152Y-50350841D01*
X91344795Y-50348135D01*
X91342703Y-50343396D01*
X91335000Y-50277000D01*
X91335000Y-49752000D01*
X91342703Y-49685604D01*
X91344795Y-49680864D01*
X91345152Y-49678158D01*
X91360947Y-49644285D01*
X91385751Y-49588110D01*
X91461110Y-49512751D01*
X91517285Y-49487947D01*
X91551158Y-49472152D01*
X91553864Y-49471795D01*
X91558604Y-49469703D01*
X91625000Y-49462000D01*
X92525000Y-49462000D01*
X92591396Y-49469703D01*
G37*
G36*
X100219307Y-49108045D02*
G01*
X100232284Y-49116716D01*
X100240955Y-49129693D01*
X100244000Y-49145000D01*
X100244000Y-50045000D01*
X100240955Y-50060307D01*
X100232284Y-50073284D01*
X100219307Y-50081955D01*
X100204000Y-50085000D01*
X98704000Y-50085000D01*
X98688693Y-50081955D01*
X98675716Y-50073284D01*
X98667045Y-50060307D01*
X98664000Y-50045000D01*
X98664000Y-49145000D01*
X98667045Y-49129693D01*
X98675716Y-49116716D01*
X98688693Y-49108045D01*
X98704000Y-49105000D01*
X100204000Y-49105000D01*
X100219307Y-49108045D01*
G37*
G36*
X117719307Y-49108045D02*
G01*
X117732284Y-49116716D01*
X117740955Y-49129693D01*
X117744000Y-49145000D01*
X117744000Y-50045000D01*
X117740955Y-50060307D01*
X117732284Y-50073284D01*
X117719307Y-50081955D01*
X117704000Y-50085000D01*
X116204000Y-50085000D01*
X116188693Y-50081955D01*
X116175716Y-50073284D01*
X116167045Y-50060307D01*
X116164000Y-50045000D01*
X116164000Y-49145000D01*
X116167045Y-49129693D01*
X116175716Y-49116716D01*
X116188693Y-49108045D01*
X116204000Y-49105000D01*
X117704000Y-49105000D01*
X117719307Y-49108045D01*
G37*
G36*
X89870396Y-48844703D02*
G01*
X89875135Y-48846795D01*
X89877841Y-48847152D01*
X89911695Y-48862938D01*
X89967890Y-48887751D01*
X90043249Y-48963110D01*
X90068070Y-49019325D01*
X90083847Y-49053158D01*
X90084202Y-49055861D01*
X90086297Y-49060604D01*
X90094000Y-49127000D01*
X90094000Y-49777000D01*
X90086297Y-49843396D01*
X90084202Y-49848139D01*
X90083847Y-49850841D01*
X90068079Y-49884655D01*
X90043249Y-49940890D01*
X89967890Y-50016249D01*
X89911655Y-50041079D01*
X89877841Y-50056847D01*
X89875139Y-50057202D01*
X89870396Y-50059297D01*
X89804000Y-50067000D01*
X88504000Y-50067000D01*
X88437604Y-50059297D01*
X88432861Y-50057202D01*
X88430158Y-50056847D01*
X88396325Y-50041070D01*
X88340110Y-50016249D01*
X88264751Y-49940890D01*
X88239938Y-49884695D01*
X88224152Y-49850841D01*
X88223795Y-49848135D01*
X88221703Y-49843396D01*
X88214000Y-49777000D01*
X88214000Y-49127000D01*
X88221703Y-49060604D01*
X88223795Y-49055864D01*
X88224152Y-49053158D01*
X88239947Y-49019285D01*
X88264751Y-48963110D01*
X88340110Y-48887751D01*
X88396285Y-48862947D01*
X88430158Y-48847152D01*
X88432864Y-48846795D01*
X88437604Y-48844703D01*
X88504000Y-48837000D01*
X89804000Y-48837000D01*
X89870396Y-48844703D01*
G37*
G36*
X96379396Y-47662703D02*
G01*
X96384135Y-47664795D01*
X96386841Y-47665152D01*
X96420695Y-47680938D01*
X96476890Y-47705751D01*
X96552249Y-47781110D01*
X96577070Y-47837325D01*
X96592847Y-47871158D01*
X96593202Y-47873861D01*
X96595297Y-47878604D01*
X96603000Y-47945000D01*
X96603000Y-48595000D01*
X96595297Y-48661396D01*
X96593202Y-48666139D01*
X96592847Y-48668841D01*
X96577079Y-48702655D01*
X96552249Y-48758890D01*
X96476890Y-48834249D01*
X96420655Y-48859079D01*
X96386841Y-48874847D01*
X96384139Y-48875202D01*
X96379396Y-48877297D01*
X96313000Y-48885000D01*
X95013000Y-48885000D01*
X94946604Y-48877297D01*
X94941861Y-48875202D01*
X94939158Y-48874847D01*
X94905325Y-48859070D01*
X94849110Y-48834249D01*
X94773751Y-48758890D01*
X94748938Y-48702695D01*
X94733152Y-48668841D01*
X94732795Y-48666135D01*
X94730703Y-48661396D01*
X94723000Y-48595000D01*
X94723000Y-47945000D01*
X94730703Y-47878604D01*
X94732795Y-47873864D01*
X94733152Y-47871158D01*
X94748947Y-47837285D01*
X94773751Y-47781110D01*
X94849110Y-47705751D01*
X94905285Y-47680947D01*
X94939158Y-47665152D01*
X94941864Y-47664795D01*
X94946604Y-47662703D01*
X95013000Y-47655000D01*
X96313000Y-47655000D01*
X96379396Y-47662703D01*
G37*
G36*
X100219307Y-47838045D02*
G01*
X100232284Y-47846716D01*
X100240955Y-47859693D01*
X100244000Y-47875000D01*
X100244000Y-48775000D01*
X100240955Y-48790307D01*
X100232284Y-48803284D01*
X100219307Y-48811955D01*
X100204000Y-48815000D01*
X98704000Y-48815000D01*
X98688693Y-48811955D01*
X98675716Y-48803284D01*
X98667045Y-48790307D01*
X98664000Y-48775000D01*
X98664000Y-47875000D01*
X98667045Y-47859693D01*
X98675716Y-47846716D01*
X98688693Y-47838045D01*
X98704000Y-47835000D01*
X100204000Y-47835000D01*
X100219307Y-47838045D01*
G37*
G36*
X117719307Y-47838045D02*
G01*
X117732284Y-47846716D01*
X117740955Y-47859693D01*
X117744000Y-47875000D01*
X117744000Y-48775000D01*
X117740955Y-48790307D01*
X117732284Y-48803284D01*
X117719307Y-48811955D01*
X117704000Y-48815000D01*
X116204000Y-48815000D01*
X116188693Y-48811955D01*
X116175716Y-48803284D01*
X116167045Y-48790307D01*
X116164000Y-48775000D01*
X116164000Y-47875000D01*
X116167045Y-47859693D01*
X116175716Y-47846716D01*
X116188693Y-47838045D01*
X116204000Y-47835000D01*
X117704000Y-47835000D01*
X117719307Y-47838045D01*
G37*
M02*
