%TF.GenerationSoftware,KiCad,Pcbnew,10.0.4*%
%TF.CreationDate,2026-07-06T13:46:38+02:00*%
%TF.ProjectId,snimac,736e696d-6163-42e6-9b69-6361645f7063,rev?*%
%TF.SameCoordinates,Original*%
%TF.FileFunction,Copper,L1,Top*%
%TF.FilePolarity,Positive*%
%FSLAX46Y46*%
G04 Gerber Fmt 4.6, Leading zero omitted, Abs format (unit mm)*
G04 Created by KiCad (PCBNEW 10.0.4) date 2026-07-06 13:46:38*
%MOMM*%
%LPD*%
G01*
G04 APERTURE LIST*
G04 Aperture macros list*
%AMRoundRect*
0 Rectangle with rounded corners*
0 $1 Rounding radius*
0 $2 $3 $4 $5 $6 $7 $8 $9 X,Y pos of 4 corners*
0 Add a 4 corners polygon primitive as box body*
4,1,4,$2,$3,$4,$5,$6,$7,$8,$9,$2,$3,0*
0 Add four circle primitives for the rounded corners*
1,1,$1+$1,$2,$3*
1,1,$1+$1,$4,$5*
1,1,$1+$1,$6,$7*
1,1,$1+$1,$8,$9*
0 Add four rect primitives between the rounded corners*
20,1,$1+$1,$2,$3,$4,$5,0*
20,1,$1+$1,$4,$5,$6,$7,0*
20,1,$1+$1,$6,$7,$8,$9,0*
20,1,$1+$1,$8,$9,$2,$3,0*%
G04 Aperture macros list end*
%TA.AperFunction,SMDPad,CuDef*%
%ADD10RoundRect,0.250000X0.350000X0.450000X-0.350000X0.450000X-0.350000X-0.450000X0.350000X-0.450000X0*%
%TD*%
%TA.AperFunction,ComponentPad*%
%ADD11R,1.269000X1.269000*%
%TD*%
%TA.AperFunction,ComponentPad*%
%ADD12C,1.269000*%
%TD*%
%TA.AperFunction,ComponentPad*%
%ADD13RoundRect,0.250000X-0.625000X0.350000X-0.625000X-0.350000X0.625000X-0.350000X0.625000X0.350000X0*%
%TD*%
%TA.AperFunction,ComponentPad*%
%ADD14O,1.750000X1.200000*%
%TD*%
%TA.AperFunction,SMDPad,CuDef*%
%ADD15RoundRect,0.250000X-0.350000X-0.450000X0.350000X-0.450000X0.350000X0.450000X-0.350000X0.450000X0*%
%TD*%
%TA.AperFunction,Conductor*%
%ADD16C,0.500000*%
%TD*%
G04 APERTURE END LIST*
D10*
%TO.P,R4,1*%
%TO.N,+3.3V*%
X105000000Y-60000000D03*
%TO.P,R4,2*%
%TO.N,/LSW_2*%
X103000000Y-60000000D03*
%TD*%
D11*
%TO.P,Q2,1,C_1*%
%TO.N,/LSW_1*%
X159000000Y-56000000D03*
D12*
%TO.P,Q2,2,E_2*%
%TO.N,GND*%
X156500000Y-56000000D03*
%TO.P,Q2,3,K_3*%
X156500000Y-61000000D03*
%TO.P,Q2,4,A_4*%
%TO.N,Net-(Q2-A)*%
X159000000Y-61000000D03*
%TD*%
D13*
%TO.P,J1,1,Pin_1_1*%
%TO.N,+3.3V*%
X164950000Y-55500000D03*
D14*
%TO.P,J1,2,Pin_2_2*%
%TO.N,GND*%
X164950000Y-57500000D03*
%TO.P,J1,3,Pin_3_3*%
%TO.N,/LSW_1*%
X164950000Y-59500000D03*
%TO.P,J1,4,Pin_4_4*%
%TO.N,/LSW_2*%
X164950000Y-61500000D03*
%TD*%
D15*
%TO.P,R3,1*%
%TO.N,+3.3V*%
X150500000Y-57000000D03*
%TO.P,R3,2*%
%TO.N,/LSW_1*%
X152500000Y-57000000D03*
%TD*%
D11*
%TO.P,Q1,1,C_1*%
%TO.N,/LSW_2*%
X96500000Y-61000000D03*
D12*
%TO.P,Q1,2,E_2*%
%TO.N,GND*%
X99000000Y-61000000D03*
%TO.P,Q1,3,K_3*%
X99000000Y-56000000D03*
%TO.P,Q1,4,A_4*%
%TO.N,Net-(Q1-A)*%
X96500000Y-56000000D03*
%TD*%
D10*
%TO.P,R1,1*%
%TO.N,+3.3V*%
X105000000Y-57000000D03*
%TO.P,R1,2*%
%TO.N,Net-(Q1-A)*%
X103000000Y-57000000D03*
%TD*%
D15*
%TO.P,R2,1*%
%TO.N,+3.3V*%
X150500000Y-60000000D03*
%TO.P,R2,2*%
%TO.N,Net-(Q2-A)*%
X152500000Y-60000000D03*
%TD*%
%TO.N,+3.3V*%
D16*
X150500000Y-57000000D02*
X105000000Y-57000000D01*
X161500000Y-55500000D02*
X159750000Y-53750000D01*
X105000000Y-57000000D02*
X105000000Y-60000000D01*
X159750000Y-53750000D02*
X153750000Y-53750000D01*
X164950000Y-55500000D02*
X161500000Y-55500000D01*
X150500000Y-57000000D02*
X150500000Y-60000000D01*
X153750000Y-53750000D02*
X150500000Y-57000000D01*
%TO.N,/LSW_2*%
X154250000Y-63250000D02*
X152500000Y-61500000D01*
X103000000Y-60750000D02*
X103000000Y-60000000D01*
X161250000Y-61500000D02*
X159500000Y-63250000D01*
X97500000Y-63000000D02*
X100750000Y-63000000D01*
X96500000Y-61000000D02*
X96500000Y-62000000D01*
X159500000Y-63250000D02*
X154250000Y-63250000D01*
X96500000Y-62000000D02*
X97500000Y-63000000D01*
X164950000Y-61500000D02*
X161250000Y-61500000D01*
X100750000Y-63000000D02*
X103000000Y-60750000D01*
X152500000Y-61500000D02*
X102250000Y-61500000D01*
%TO.N,/LSW_1*%
X159000000Y-56000000D02*
X159500000Y-56000000D01*
X154750000Y-54750000D02*
X157750000Y-54750000D01*
X157750000Y-54750000D02*
X159000000Y-56000000D01*
X163000000Y-59500000D02*
X164950000Y-59500000D01*
X159500000Y-56000000D02*
X163000000Y-59500000D01*
X152500000Y-57000000D02*
X154750000Y-54750000D01*
%TO.N,Net-(Q2-A)*%
X159000000Y-61375000D02*
X159000000Y-61000000D01*
X152500000Y-60000000D02*
X154750000Y-62250000D01*
X158125000Y-62250000D02*
X159000000Y-61375000D01*
X154750000Y-62250000D02*
X158125000Y-62250000D01*
%TO.N,Net-(Q1-A)*%
X103000000Y-57000000D02*
X100500000Y-54500000D01*
X98000000Y-54500000D02*
X96500000Y-56000000D01*
X100500000Y-54500000D02*
X98000000Y-54500000D01*
%TD*%
M02*
