%TF.GenerationSoftware,KiCad,Pcbnew,10.0.4*%
%TF.CreationDate,2026-07-06T13:46:38+02:00*%
%TF.ProjectId,snimac,736e696d-6163-42e6-9b69-6361645f7063,rev?*%
%TF.SameCoordinates,Original*%
%TF.FileFunction,Copper,L2,Bot*%
%TF.FilePolarity,Positive*%
%FSLAX46Y46*%
G04 Gerber Fmt 4.6, Leading zero omitted, Abs format (unit mm)*
G04 Created by KiCad (PCBNEW 10.0.4) date 2026-07-06 13:46:38*
%MOMM*%
%LPD*%
G01*
G04 APERTURE LIST*
G04 Aperture macros list*
%AMRoundRect*
0 Rectangle with rounded corners*
0 $1 Rounding radius*
0 $2 $3 $4 $5 $6 $7 $8 $9 X,Y pos of 4 corners*
0 Add a 4 corners polygon primitive as box body*
4,1,4,$2,$3,$4,$5,$6,$7,$8,$9,$2,$3,0*
0 Add four circle primitives for the rounded corners*
1,1,$1+$1,$2,$3*
1,1,$1+$1,$4,$5*
1,1,$1+$1,$6,$7*
1,1,$1+$1,$8,$9*
0 Add four rect primitives between the rounded corners*
20,1,$1+$1,$2,$3,$4,$5,0*
20,1,$1+$1,$4,$5,$6,$7,0*
20,1,$1+$1,$6,$7,$8,$9,0*
20,1,$1+$1,$8,$9,$2,$3,0*%
G04 Aperture macros list end*
%TA.AperFunction,ComponentPad*%
%ADD10R,1.269000X1.269000*%
%TD*%
%TA.AperFunction,ComponentPad*%
%ADD11C,1.269000*%
%TD*%
%TA.AperFunction,ComponentPad*%
%ADD12RoundRect,0.250000X-0.625000X0.350000X-0.625000X-0.350000X0.625000X-0.350000X0.625000X0.350000X0*%
%TD*%
%TA.AperFunction,ComponentPad*%
%ADD13O,1.750000X1.200000*%
%TD*%
G04 APERTURE END LIST*
D10*
%TO.P,Q2,1,C_1*%
%TO.N,/LSW_1*%
X159000000Y-56000000D03*
D11*
%TO.P,Q2,2,E_2*%
%TO.N,GND*%
X156500000Y-56000000D03*
%TO.P,Q2,3,K_3*%
X156500000Y-61000000D03*
%TO.P,Q2,4,A_4*%
%TO.N,Net-(Q2-A)*%
X159000000Y-61000000D03*
%TD*%
D12*
%TO.P,J1,1,Pin_1_1*%
%TO.N,+3.3V*%
X164950000Y-55500000D03*
D13*
%TO.P,J1,2,Pin_2_2*%
%TO.N,GND*%
X164950000Y-57500000D03*
%TO.P,J1,3,Pin_3_3*%
%TO.N,/LSW_1*%
X164950000Y-59500000D03*
%TO.P,J1,4,Pin_4_4*%
%TO.N,/LSW_2*%
X164950000Y-61500000D03*
%TD*%
D10*
%TO.P,Q1,1,C_1*%
%TO.N,/LSW_2*%
X96500000Y-61000000D03*
D11*
%TO.P,Q1,2,E_2*%
%TO.N,GND*%
X99000000Y-61000000D03*
%TO.P,Q1,3,K_3*%
X99000000Y-56000000D03*
%TO.P,Q1,4,A_4*%
%TO.N,Net-(Q1-A)*%
X96500000Y-56000000D03*
%TD*%
%TA.AperFunction,Conductor*%
%TO.N,GND*%
G36*
X170692539Y-48520185D02*
G01*
X170738294Y-48572989D01*
X170749500Y-48624500D01*
X170749500Y-68375500D01*
X170729815Y-68442539D01*
X170677011Y-68488294D01*
X170625500Y-68499500D01*
X92874500Y-68499500D01*
X92807461Y-68479815D01*
X92761706Y-68427011D01*
X92750500Y-68375500D01*
X92750500Y-65401577D01*
X106499500Y-65401577D01*
X106499500Y-65598422D01*
X106530290Y-65792826D01*
X106591117Y-65980029D01*
X106680476Y-66155405D01*
X106796172Y-66314646D01*
X106935354Y-66453828D01*
X107094595Y-66569524D01*
X107177455Y-66611743D01*
X107269970Y-66658882D01*
X107269972Y-66658882D01*
X107269975Y-66658884D01*
X107370317Y-66691487D01*
X107457173Y-66719709D01*
X107651578Y-66750500D01*
X107651583Y-66750500D01*
X107848422Y-66750500D01*
X108042826Y-66719709D01*
X108230025Y-66658884D01*
X108405405Y-66569524D01*
X108564646Y-66453828D01*
X108703828Y-66314646D01*
X108819524Y-66155405D01*
X108908884Y-65980025D01*
X108969709Y-65792826D01*
X109000500Y-65598422D01*
X109000500Y-65401577D01*
X146499500Y-65401577D01*
X146499500Y-65598422D01*
X146530290Y-65792826D01*
X146591117Y-65980029D01*
X146680476Y-66155405D01*
X146796172Y-66314646D01*
X146935354Y-66453828D01*
X147094595Y-66569524D01*
X147177455Y-66611743D01*
X147269970Y-66658882D01*
X147269972Y-66658882D01*
X147269975Y-66658884D01*
X147370317Y-66691487D01*
X147457173Y-66719709D01*
X147651578Y-66750500D01*
X147651583Y-66750500D01*
X147848422Y-66750500D01*
X148042826Y-66719709D01*
X148230025Y-66658884D01*
X148405405Y-66569524D01*
X148564646Y-66453828D01*
X148703828Y-66314646D01*
X148819524Y-66155405D01*
X148908884Y-65980025D01*
X148969709Y-65792826D01*
X149000500Y-65598422D01*
X149000500Y-65401577D01*
X148969709Y-65207173D01*
X148908882Y-65019970D01*
X148819523Y-64844594D01*
X148703828Y-64685354D01*
X148564646Y-64546172D01*
X148405405Y-64430476D01*
X148230029Y-64341117D01*
X148042826Y-64280290D01*
X147848422Y-64249500D01*
X147848417Y-64249500D01*
X147651583Y-64249500D01*
X147651578Y-64249500D01*
X147457173Y-64280290D01*
X147269970Y-64341117D01*
X147094594Y-64430476D01*
X147003741Y-64496485D01*
X146935354Y-64546172D01*
X146935352Y-64546174D01*
X146935351Y-64546174D01*
X146796174Y-64685351D01*
X146796174Y-64685352D01*
X146796172Y-64685354D01*
X146746485Y-64753741D01*
X146680476Y-64844594D01*
X146591117Y-65019970D01*
X146530290Y-65207173D01*
X146499500Y-65401577D01*
X109000500Y-65401577D01*
X108969709Y-65207173D01*
X108908882Y-65019970D01*
X108819523Y-64844594D01*
X108703828Y-64685354D01*
X108564646Y-64546172D01*
X108405405Y-64430476D01*
X108230029Y-64341117D01*
X108042826Y-64280290D01*
X107848422Y-64249500D01*
X107848417Y-64249500D01*
X107651583Y-64249500D01*
X107651578Y-64249500D01*
X107457173Y-64280290D01*
X107269970Y-64341117D01*
X107094594Y-64430476D01*
X107003741Y-64496485D01*
X106935354Y-64546172D01*
X106935352Y-64546174D01*
X106935351Y-64546174D01*
X106796174Y-64685351D01*
X106796174Y-64685352D01*
X106796172Y-64685354D01*
X106746485Y-64753741D01*
X106680476Y-64844594D01*
X106591117Y-65019970D01*
X106530290Y-65207173D01*
X106499500Y-65401577D01*
X92750500Y-65401577D01*
X92750500Y-60317635D01*
X95365000Y-60317635D01*
X95365000Y-61682370D01*
X95365001Y-61682376D01*
X95371408Y-61741983D01*
X95421702Y-61876828D01*
X95421706Y-61876835D01*
X95507952Y-61992044D01*
X95507955Y-61992047D01*
X95623164Y-62078293D01*
X95623171Y-62078297D01*
X95758017Y-62128591D01*
X95758016Y-62128591D01*
X95764944Y-62129335D01*
X95817627Y-62135000D01*
X97182372Y-62134999D01*
X97241983Y-62128591D01*
X97376831Y-62078296D01*
X97492046Y-61992046D01*
X97578296Y-61876831D01*
X97578298Y-61876826D01*
X97580697Y-61870396D01*
X97614587Y-61779527D01*
X97628591Y-61741983D01*
X97635000Y-61682373D01*
X97634999Y-61209532D01*
X97654683Y-61142496D01*
X97707487Y-61096741D01*
X97776646Y-61086797D01*
X97840202Y-61115822D01*
X97877976Y-61174600D01*
X97881472Y-61190136D01*
X97893434Y-61265660D01*
X97948619Y-61435499D01*
X98029687Y-61594606D01*
X98029691Y-61594612D01*
X98039007Y-61607436D01*
X98039010Y-61607436D01*
X98630000Y-61016446D01*
X98630000Y-61048711D01*
X98655215Y-61142815D01*
X98703926Y-61227186D01*
X98772814Y-61296074D01*
X98857185Y-61344785D01*
X98951289Y-61370000D01*
X98983553Y-61370000D01*
X98392561Y-61960989D01*
X98405389Y-61970309D01*
X98564500Y-62051380D01*
X98734340Y-62106565D01*
X98910708Y-62134500D01*
X99089292Y-62134500D01*
X99265659Y-62106565D01*
X99435499Y-62051380D01*
X99594607Y-61970311D01*
X99607437Y-61960989D01*
X99016448Y-61370000D01*
X99048711Y-61370000D01*
X99142815Y-61344785D01*
X99227186Y-61296074D01*
X99296074Y-61227186D01*
X99344785Y-61142815D01*
X99370000Y-61048711D01*
X99370000Y-61016448D01*
X99960989Y-61607437D01*
X99960989Y-61607436D01*
X99970311Y-61594607D01*
X100051380Y-61435499D01*
X100106565Y-61265659D01*
X100134500Y-61089292D01*
X100134500Y-60910707D01*
X155365500Y-60910707D01*
X155365500Y-61089292D01*
X155393434Y-61265659D01*
X155448619Y-61435499D01*
X155529687Y-61594606D01*
X155529691Y-61594612D01*
X155539007Y-61607436D01*
X155539010Y-61607436D01*
X156130000Y-61016446D01*
X156130000Y-61048711D01*
X156155215Y-61142815D01*
X156203926Y-61227186D01*
X156272814Y-61296074D01*
X156357185Y-61344785D01*
X156451289Y-61370000D01*
X156483553Y-61370000D01*
X155892561Y-61960989D01*
X155905389Y-61970309D01*
X156064500Y-62051380D01*
X156234340Y-62106565D01*
X156410708Y-62134500D01*
X156589292Y-62134500D01*
X156765659Y-62106565D01*
X156935499Y-62051380D01*
X157094607Y-61970311D01*
X157107436Y-61960989D01*
X157107437Y-61960989D01*
X156516448Y-61370000D01*
X156548711Y-61370000D01*
X156642815Y-61344785D01*
X156727186Y-61296074D01*
X156796074Y-61227186D01*
X156844785Y-61142815D01*
X156870000Y-61048711D01*
X156870000Y-61016447D01*
X157460989Y-61607437D01*
X157460989Y-61607436D01*
X157470311Y-61594607D01*
X157551380Y-61435499D01*
X157606565Y-61265659D01*
X157606566Y-61265658D01*
X157627273Y-61134916D01*
X157657202Y-61071781D01*
X157716513Y-61034849D01*
X157786376Y-61035847D01*
X157844609Y-61074456D01*
X157872219Y-61134914D01*
X157892947Y-61265781D01*
X157948155Y-61435693D01*
X157995180Y-61527982D01*
X158029126Y-61594606D01*
X158029263Y-61594873D01*
X158134264Y-61739396D01*
X158134268Y-61739401D01*
X158260598Y-61865731D01*
X158260603Y-61865735D01*
X158386664Y-61957322D01*
X158405130Y-61970739D01*
X158506557Y-62022419D01*
X158564306Y-62051844D01*
X158564308Y-62051844D01*
X158564311Y-62051846D01*
X158655385Y-62081438D01*
X158734219Y-62107053D01*
X158910669Y-62135000D01*
X158910674Y-62135000D01*
X159089331Y-62135000D01*
X159265780Y-62107053D01*
X159267282Y-62106565D01*
X159435689Y-62051846D01*
X159594870Y-61970739D01*
X159739403Y-61865730D01*
X159865730Y-61739403D01*
X159970739Y-61594870D01*
X160051846Y-61435689D01*
X160107053Y-61265780D01*
X160107072Y-61265658D01*
X160135000Y-61089331D01*
X160135000Y-60910668D01*
X160107053Y-60734219D01*
X160051844Y-60564306D01*
X160006530Y-60475374D01*
X159970739Y-60405130D01*
X159922992Y-60339411D01*
X159865735Y-60260603D01*
X159865731Y-60260598D01*
X159739401Y-60134268D01*
X159739396Y-60134264D01*
X159594873Y-60029263D01*
X159594872Y-60029262D01*
X159594870Y-60029261D01*
X159545161Y-60003933D01*
X159435693Y-59948155D01*
X159265780Y-59892946D01*
X159089331Y-59865000D01*
X159089326Y-59865000D01*
X158910674Y-59865000D01*
X158910669Y-59865000D01*
X158734219Y-59892946D01*
X158564306Y-59948155D01*
X158405126Y-60029263D01*
X158260603Y-60134264D01*
X158260598Y-60134268D01*
X158134268Y-60260598D01*
X158134264Y-60260603D01*
X158029263Y-60405126D01*
X157948155Y-60564306D01*
X157892947Y-60734218D01*
X157872219Y-60865085D01*
X157842289Y-60928219D01*
X157782977Y-60965150D01*
X157713115Y-60964152D01*
X157654882Y-60925542D01*
X157627273Y-60865083D01*
X157606566Y-60734341D01*
X157606565Y-60734340D01*
X157551380Y-60564500D01*
X157470309Y-60405389D01*
X157460989Y-60392562D01*
X157460989Y-60392561D01*
X156870000Y-60983551D01*
X156870000Y-60951289D01*
X156844785Y-60857185D01*
X156796074Y-60772814D01*
X156727186Y-60703926D01*
X156642815Y-60655215D01*
X156548711Y-60630000D01*
X156516447Y-60630000D01*
X157107436Y-60039010D01*
X157107436Y-60039007D01*
X157094612Y-60029691D01*
X157094606Y-60029687D01*
X156935499Y-59948619D01*
X156765659Y-59893434D01*
X156589292Y-59865500D01*
X156410708Y-59865500D01*
X156234340Y-59893434D01*
X156064500Y-59948619D01*
X155905391Y-60029689D01*
X155892561Y-60039009D01*
X156483554Y-60630000D01*
X156451289Y-60630000D01*
X156357185Y-60655215D01*
X156272814Y-60703926D01*
X156203926Y-60772814D01*
X156155215Y-60857185D01*
X156130000Y-60951289D01*
X156130000Y-60983552D01*
X155539009Y-60392561D01*
X155529689Y-60405391D01*
X155448619Y-60564500D01*
X155393434Y-60734340D01*
X155365500Y-60910707D01*
X100134500Y-60910707D01*
X100106565Y-60734340D01*
X100051380Y-60564500D01*
X99970309Y-60405389D01*
X99960989Y-60392562D01*
X99960989Y-60392561D01*
X99370000Y-60983551D01*
X99370000Y-60951289D01*
X99344785Y-60857185D01*
X99296074Y-60772814D01*
X99227186Y-60703926D01*
X99142815Y-60655215D01*
X99048711Y-60630000D01*
X99016447Y-60630000D01*
X99607436Y-60039010D01*
X99607436Y-60039007D01*
X99594612Y-60029691D01*
X99594606Y-60029687D01*
X99435499Y-59948619D01*
X99265659Y-59893434D01*
X99089292Y-59865500D01*
X98910708Y-59865500D01*
X98734340Y-59893434D01*
X98564500Y-59948619D01*
X98405391Y-60029689D01*
X98392561Y-60039009D01*
X98983554Y-60630000D01*
X98951289Y-60630000D01*
X98857185Y-60655215D01*
X98772814Y-60703926D01*
X98703926Y-60772814D01*
X98655215Y-60857185D01*
X98630000Y-60951289D01*
X98630000Y-60983552D01*
X98039009Y-60392561D01*
X98029689Y-60405391D01*
X97948619Y-60564500D01*
X97893434Y-60734339D01*
X97881472Y-60809864D01*
X97851542Y-60872998D01*
X97792230Y-60909929D01*
X97722368Y-60908931D01*
X97664135Y-60870320D01*
X97636022Y-60806357D01*
X97634999Y-60790465D01*
X97634999Y-60317629D01*
X97634998Y-60317623D01*
X97634997Y-60317616D01*
X97628869Y-60260603D01*
X97628591Y-60258016D01*
X97580695Y-60129600D01*
X97578297Y-60123171D01*
X97578293Y-60123164D01*
X97492047Y-60007955D01*
X97492044Y-60007952D01*
X97376835Y-59921706D01*
X97376828Y-59921702D01*
X97241982Y-59871408D01*
X97241983Y-59871408D01*
X97182383Y-59865001D01*
X97182381Y-59865000D01*
X97182373Y-59865000D01*
X97182364Y-59865000D01*
X95817629Y-59865000D01*
X95817623Y-59865001D01*
X95758016Y-59871408D01*
X95623171Y-59921702D01*
X95623164Y-59921706D01*
X95507955Y-60007952D01*
X95507952Y-60007955D01*
X95421706Y-60123164D01*
X95421702Y-60123171D01*
X95371408Y-60258017D01*
X95365001Y-60317616D01*
X95365001Y-60317623D01*
X95365000Y-60317635D01*
X92750500Y-60317635D01*
X92750500Y-58421153D01*
X95699500Y-58421153D01*
X95699500Y-58578846D01*
X95730261Y-58733489D01*
X95730264Y-58733501D01*
X95790602Y-58879172D01*
X95790609Y-58879185D01*
X95878210Y-59010288D01*
X95878213Y-59010292D01*
X95989707Y-59121786D01*
X95989711Y-59121789D01*
X96120814Y-59209390D01*
X96120827Y-59209397D01*
X96266498Y-59269735D01*
X96266503Y-59269737D01*
X96421153Y-59300499D01*
X96421156Y-59300500D01*
X96421158Y-59300500D01*
X96578844Y-59300500D01*
X96578845Y-59300499D01*
X96733497Y-59269737D01*
X96879179Y-59209394D01*
X97010289Y-59121789D01*
X97121789Y-59010289D01*
X97209394Y-58879179D01*
X97213728Y-58868717D01*
X97223067Y-58846166D01*
X97269737Y-58733497D01*
X97300500Y-58578842D01*
X97300500Y-58421158D01*
X97300498Y-58421151D01*
X97300498Y-58421145D01*
X97300458Y-58420943D01*
X98399500Y-58420943D01*
X98399500Y-58579057D01*
X98421346Y-58660585D01*
X98440423Y-58731783D01*
X98440426Y-58731790D01*
X98519475Y-58868709D01*
X98519479Y-58868714D01*
X98519480Y-58868716D01*
X98631284Y-58980520D01*
X98631286Y-58980521D01*
X98631290Y-58980524D01*
X98768209Y-59059573D01*
X98768216Y-59059577D01*
X98920943Y-59100500D01*
X98920945Y-59100500D01*
X99079055Y-59100500D01*
X99079057Y-59100500D01*
X99231784Y-59059577D01*
X99368716Y-58980520D01*
X99480520Y-58868716D01*
X99559577Y-58731784D01*
X99600500Y-58579057D01*
X99600500Y-58420943D01*
X155899500Y-58420943D01*
X155899500Y-58579057D01*
X155921346Y-58660585D01*
X155940423Y-58731783D01*
X155940426Y-58731790D01*
X156019475Y-58868709D01*
X156019479Y-58868714D01*
X156019480Y-58868716D01*
X156131284Y-58980520D01*
X156131286Y-58980521D01*
X156131290Y-58980524D01*
X156268209Y-59059573D01*
X156268216Y-59059577D01*
X156420943Y-59100500D01*
X156420945Y-59100500D01*
X156579055Y-59100500D01*
X156579057Y-59100500D01*
X156731784Y-59059577D01*
X156868716Y-58980520D01*
X156980520Y-58868716D01*
X157059577Y-58731784D01*
X157100500Y-58579057D01*
X157100500Y-58421153D01*
X158199500Y-58421153D01*
X158199500Y-58578846D01*
X158230261Y-58733489D01*
X158230264Y-58733501D01*
X158290602Y-58879172D01*
X158290609Y-58879185D01*
X158378210Y-59010288D01*
X158378213Y-59010292D01*
X158489707Y-59121786D01*
X158489711Y-59121789D01*
X158620814Y-59209390D01*
X158620827Y-59209397D01*
X158766498Y-59269735D01*
X158766503Y-59269737D01*
X158921153Y-59300499D01*
X158921156Y-59300500D01*
X158921158Y-59300500D01*
X159078844Y-59300500D01*
X159147215Y-59286900D01*
X159147215Y-59286899D01*
X159233497Y-59269737D01*
X159379179Y-59209394D01*
X159510289Y-59121789D01*
X159621789Y-59010289D01*
X159709394Y-58879179D01*
X159713728Y-58868717D01*
X159723067Y-58846166D01*
X159769737Y-58733497D01*
X159800500Y-58578842D01*
X159800500Y-58421158D01*
X159800500Y-58421155D01*
X159800499Y-58421153D01*
X159784165Y-58339036D01*
X159769737Y-58266503D01*
X159769735Y-58266498D01*
X159709397Y-58120827D01*
X159709390Y-58120814D01*
X159621789Y-57989711D01*
X159621786Y-57989707D01*
X159510292Y-57878213D01*
X159510288Y-57878210D01*
X159379185Y-57790609D01*
X159379172Y-57790602D01*
X159233501Y-57730264D01*
X159233489Y-57730261D01*
X159078845Y-57699500D01*
X159078842Y-57699500D01*
X158921158Y-57699500D01*
X158921155Y-57699500D01*
X158766510Y-57730261D01*
X158766498Y-57730264D01*
X158620827Y-57790602D01*
X158620814Y-57790609D01*
X158489711Y-57878210D01*
X158489707Y-57878213D01*
X158378213Y-57989707D01*
X158378210Y-57989711D01*
X158290609Y-58120814D01*
X158290602Y-58120827D01*
X158230264Y-58266498D01*
X158230261Y-58266510D01*
X158199500Y-58421153D01*
X157100500Y-58421153D01*
X157100500Y-58420943D01*
X157059577Y-58268216D01*
X157029778Y-58216602D01*
X156980524Y-58131290D01*
X156980518Y-58131282D01*
X156868717Y-58019481D01*
X156868709Y-58019475D01*
X156731790Y-57940426D01*
X156731786Y-57940424D01*
X156731784Y-57940423D01*
X156579057Y-57899500D01*
X156420943Y-57899500D01*
X156268216Y-57940423D01*
X156268209Y-57940426D01*
X156131290Y-58019475D01*
X156131282Y-58019481D01*
X156019481Y-58131282D01*
X156019475Y-58131290D01*
X155940426Y-58268209D01*
X155940423Y-58268216D01*
X155899500Y-58420943D01*
X99600500Y-58420943D01*
X99559577Y-58268216D01*
X99529778Y-58216602D01*
X99480524Y-58131290D01*
X99480518Y-58131282D01*
X99368717Y-58019481D01*
X99368709Y-58019475D01*
X99231790Y-57940426D01*
X99231786Y-57940424D01*
X99231784Y-57940423D01*
X99079057Y-57899500D01*
X98920943Y-57899500D01*
X98768216Y-57940423D01*
X98768209Y-57940426D01*
X98631290Y-58019475D01*
X98631282Y-58019481D01*
X98519481Y-58131282D01*
X98519475Y-58131290D01*
X98440426Y-58268209D01*
X98440423Y-58268216D01*
X98399500Y-58420943D01*
X97300458Y-58420943D01*
X97282076Y-58328535D01*
X97269737Y-58266503D01*
X97269735Y-58266498D01*
X97209397Y-58120827D01*
X97209390Y-58120814D01*
X97121789Y-57989711D01*
X97121786Y-57989707D01*
X97010292Y-57878213D01*
X97010288Y-57878210D01*
X96879185Y-57790609D01*
X96879172Y-57790602D01*
X96733501Y-57730264D01*
X96733489Y-57730261D01*
X96578845Y-57699500D01*
X96578842Y-57699500D01*
X96421158Y-57699500D01*
X96421155Y-57699500D01*
X96266510Y-57730261D01*
X96266498Y-57730264D01*
X96120827Y-57790602D01*
X96120814Y-57790609D01*
X95989711Y-57878210D01*
X95989707Y-57878213D01*
X95878213Y-57989707D01*
X95878210Y-57989711D01*
X95790609Y-58120814D01*
X95790602Y-58120827D01*
X95730264Y-58266498D01*
X95730261Y-58266510D01*
X95699500Y-58421153D01*
X92750500Y-58421153D01*
X92750500Y-55910668D01*
X95365000Y-55910668D01*
X95365000Y-56089331D01*
X95392946Y-56265780D01*
X95448155Y-56435693D01*
X95475241Y-56488851D01*
X95529126Y-56594606D01*
X95529263Y-56594873D01*
X95634264Y-56739396D01*
X95634268Y-56739401D01*
X95760598Y-56865731D01*
X95760603Y-56865735D01*
X95840076Y-56923475D01*
X95905130Y-56970739D01*
X96006557Y-57022419D01*
X96064306Y-57051844D01*
X96064308Y-57051844D01*
X96064311Y-57051846D01*
X96155385Y-57081438D01*
X96234219Y-57107053D01*
X96410669Y-57135000D01*
X96410674Y-57135000D01*
X96589331Y-57135000D01*
X96765780Y-57107053D01*
X96767282Y-57106565D01*
X96935689Y-57051846D01*
X97094870Y-56970739D01*
X97239403Y-56865730D01*
X97365730Y-56739403D01*
X97470739Y-56594870D01*
X97551846Y-56435689D01*
X97607053Y-56265780D01*
X97622329Y-56169331D01*
X97627780Y-56134915D01*
X97657709Y-56071780D01*
X97717021Y-56034849D01*
X97786883Y-56035847D01*
X97845116Y-56074457D01*
X97872726Y-56134915D01*
X97893434Y-56265659D01*
X97948619Y-56435499D01*
X98029687Y-56594606D01*
X98029691Y-56594612D01*
X98039007Y-56607436D01*
X98039010Y-56607436D01*
X98630000Y-56016446D01*
X98630000Y-56048711D01*
X98655215Y-56142815D01*
X98703926Y-56227186D01*
X98772814Y-56296074D01*
X98857185Y-56344785D01*
X98951289Y-56370000D01*
X98983553Y-56370000D01*
X98392561Y-56960989D01*
X98405389Y-56970309D01*
X98564500Y-57051380D01*
X98734340Y-57106565D01*
X98910708Y-57134500D01*
X99089292Y-57134500D01*
X99265659Y-57106565D01*
X99435499Y-57051380D01*
X99594607Y-56970311D01*
X99607437Y-56960989D01*
X99016448Y-56370000D01*
X99048711Y-56370000D01*
X99142815Y-56344785D01*
X99227186Y-56296074D01*
X99296074Y-56227186D01*
X99344785Y-56142815D01*
X99370000Y-56048711D01*
X99370000Y-56016448D01*
X99960989Y-56607437D01*
X99960989Y-56607436D01*
X99970311Y-56594607D01*
X100051380Y-56435499D01*
X100106565Y-56265659D01*
X100134500Y-56089292D01*
X100134500Y-55910707D01*
X155365500Y-55910707D01*
X155365500Y-56089292D01*
X155393434Y-56265659D01*
X155448619Y-56435499D01*
X155529687Y-56594606D01*
X155529691Y-56594612D01*
X155539007Y-56607436D01*
X155539010Y-56607436D01*
X156130000Y-56016446D01*
X156130000Y-56048711D01*
X156155215Y-56142815D01*
X156203926Y-56227186D01*
X156272814Y-56296074D01*
X156357185Y-56344785D01*
X156451289Y-56370000D01*
X156483553Y-56370000D01*
X155892561Y-56960989D01*
X155905389Y-56970309D01*
X156064500Y-57051380D01*
X156234340Y-57106565D01*
X156410708Y-57134500D01*
X156589292Y-57134500D01*
X156765659Y-57106565D01*
X156935499Y-57051380D01*
X157094607Y-56970311D01*
X157107436Y-56960989D01*
X157107437Y-56960989D01*
X156516448Y-56370000D01*
X156548711Y-56370000D01*
X156642815Y-56344785D01*
X156727186Y-56296074D01*
X156796074Y-56227186D01*
X156844785Y-56142815D01*
X156870000Y-56048711D01*
X156870000Y-56016447D01*
X157460989Y-56607437D01*
X157460989Y-56607436D01*
X157470311Y-56594607D01*
X157551380Y-56435499D01*
X157606565Y-56265659D01*
X157606566Y-56265658D01*
X157618527Y-56190137D01*
X157648456Y-56127002D01*
X157707767Y-56090070D01*
X157777630Y-56091068D01*
X157835862Y-56129677D01*
X157863977Y-56193641D01*
X157865000Y-56209534D01*
X157865000Y-56682370D01*
X157865001Y-56682376D01*
X157871408Y-56741983D01*
X157921702Y-56876828D01*
X157921706Y-56876835D01*
X158007952Y-56992044D01*
X158007955Y-56992047D01*
X158123164Y-57078293D01*
X158123171Y-57078297D01*
X158258017Y-57128591D01*
X158258016Y-57128591D01*
X158264944Y-57129335D01*
X158317627Y-57135000D01*
X159682372Y-57134999D01*
X159741983Y-57128591D01*
X159876831Y-57078296D01*
X159992046Y-56992046D01*
X160078296Y-56876831D01*
X160128591Y-56741983D01*
X160135000Y-56682373D01*
X160134999Y-55317628D01*
X160128869Y-55260603D01*
X160128591Y-55258016D01*
X160084636Y-55140167D01*
X160084635Y-55140165D01*
X160078298Y-55123173D01*
X160078293Y-55123164D01*
X160060940Y-55099983D01*
X163574500Y-55099983D01*
X163574500Y-55900001D01*
X163574501Y-55900019D01*
X163585000Y-56002796D01*
X163585001Y-56002799D01*
X163640185Y-56169331D01*
X163640187Y-56169336D01*
X163664981Y-56209534D01*
X163732288Y-56318656D01*
X163856344Y-56442712D01*
X163920981Y-56482580D01*
X163967705Y-56534526D01*
X163978928Y-56603489D01*
X163951085Y-56667571D01*
X163943566Y-56675799D01*
X163835964Y-56783401D01*
X163734195Y-56923475D01*
X163655591Y-57077744D01*
X163602085Y-57242415D01*
X163600884Y-57249999D01*
X163600885Y-57250000D01*
X164669670Y-57250000D01*
X164649925Y-57269745D01*
X164600556Y-57355255D01*
X164575000Y-57450630D01*
X164575000Y-57549370D01*
X164600556Y-57644745D01*
X164649925Y-57730255D01*
X164669670Y-57750000D01*
X163600885Y-57750000D01*
X163602085Y-57757584D01*
X163655591Y-57922255D01*
X163734195Y-58076524D01*
X163835967Y-58216602D01*
X163958401Y-58339036D01*
X164041447Y-58399371D01*
X164084114Y-58454701D01*
X164090093Y-58524314D01*
X164057488Y-58586109D01*
X164041450Y-58600007D01*
X163958072Y-58660585D01*
X163835588Y-58783069D01*
X163835588Y-58783070D01*
X163835586Y-58783072D01*
X163791859Y-58843256D01*
X163733768Y-58923211D01*
X163655128Y-59077552D01*
X163601597Y-59242302D01*
X163597252Y-59269737D01*
X163574500Y-59413389D01*
X163574500Y-59586611D01*
X163601598Y-59757701D01*
X163655127Y-59922445D01*
X163733768Y-60076788D01*
X163835586Y-60216928D01*
X163958072Y-60339414D01*
X163958078Y-60339418D01*
X164041023Y-60399683D01*
X164083689Y-60455013D01*
X164089667Y-60524626D01*
X164057061Y-60586421D01*
X164041023Y-60600317D01*
X163958078Y-60660581D01*
X163958069Y-60660588D01*
X163835588Y-60783069D01*
X163835588Y-60783070D01*
X163835586Y-60783072D01*
X163791859Y-60843256D01*
X163733768Y-60923211D01*
X163655128Y-61077552D01*
X163655127Y-61077554D01*
X163655127Y-61077555D01*
X163654696Y-61078881D01*
X163601597Y-61242302D01*
X163593081Y-61296074D01*
X163574500Y-61413389D01*
X163574500Y-61586611D01*
X163575767Y-61594612D01*
X163600004Y-61747642D01*
X163601598Y-61757701D01*
X163655127Y-61922445D01*
X163733768Y-62076788D01*
X163835586Y-62216928D01*
X163958072Y-62339414D01*
X164098212Y-62441232D01*
X164252555Y-62519873D01*
X164417299Y-62573402D01*
X164588389Y-62600500D01*
X164588390Y-62600500D01*
X165311610Y-62600500D01*
X165311611Y-62600500D01*
X165482701Y-62573402D01*
X165647445Y-62519873D01*
X165801788Y-62441232D01*
X165941928Y-62339414D01*
X166064414Y-62216928D01*
X166166232Y-62076788D01*
X166244873Y-61922445D01*
X166298402Y-61757701D01*
X166325500Y-61586611D01*
X166325500Y-61413389D01*
X166298402Y-61242299D01*
X166244873Y-61077555D01*
X166166232Y-60923212D01*
X166064414Y-60783072D01*
X165941928Y-60660586D01*
X165858975Y-60600317D01*
X165816311Y-60544988D01*
X165810332Y-60475374D01*
X165842938Y-60413579D01*
X165858976Y-60399682D01*
X165941928Y-60339414D01*
X166064414Y-60216928D01*
X166166232Y-60076788D01*
X166244873Y-59922445D01*
X166298402Y-59757701D01*
X166325500Y-59586611D01*
X166325500Y-59413389D01*
X166298402Y-59242299D01*
X166244873Y-59077555D01*
X166166232Y-58923212D01*
X166064414Y-58783072D01*
X165941928Y-58660586D01*
X165858550Y-58600008D01*
X165815885Y-58544677D01*
X165809906Y-58475064D01*
X165842512Y-58413269D01*
X165858552Y-58399371D01*
X165941598Y-58339036D01*
X166064032Y-58216602D01*
X166165804Y-58076524D01*
X166244408Y-57922255D01*
X166297914Y-57757584D01*
X166299115Y-57750000D01*
X165230330Y-57750000D01*
X165250075Y-57730255D01*
X165299444Y-57644745D01*
X165325000Y-57549370D01*
X165325000Y-57450630D01*
X165299444Y-57355255D01*
X165250075Y-57269745D01*
X165230330Y-57250000D01*
X166299115Y-57250000D01*
X166299115Y-57249999D01*
X166297914Y-57242415D01*
X166244408Y-57077744D01*
X166165804Y-56923475D01*
X166064032Y-56783397D01*
X165956434Y-56675799D01*
X165922949Y-56614476D01*
X165927933Y-56544784D01*
X165969805Y-56488851D01*
X165978995Y-56482594D01*
X166043656Y-56442712D01*
X166167712Y-56318656D01*
X166259814Y-56169334D01*
X166314999Y-56002797D01*
X166322892Y-55925542D01*
X166323344Y-55921119D01*
X167749500Y-55921119D01*
X167749500Y-61078880D01*
X167782299Y-61233194D01*
X167782301Y-61233200D01*
X167846467Y-61377316D01*
X167859164Y-61394792D01*
X167862537Y-61399435D01*
X167862948Y-61400287D01*
X167865297Y-61403233D01*
X167866933Y-61405484D01*
X167866933Y-61405485D01*
X167866936Y-61405489D01*
X167939196Y-61504947D01*
X167939198Y-61504949D01*
X167964789Y-61527991D01*
X167967992Y-61532008D01*
X167978994Y-61540782D01*
X167981753Y-61543266D01*
X168056437Y-61610512D01*
X168092649Y-61631419D01*
X168099713Y-61637052D01*
X168115944Y-61644868D01*
X168193063Y-61689392D01*
X168240208Y-61704710D01*
X168251507Y-61710152D01*
X168269819Y-61714331D01*
X168343103Y-61738143D01*
X168393249Y-61743413D01*
X168393250Y-61743414D01*
X168395148Y-61743613D01*
X168400644Y-61744191D01*
X168415761Y-61747642D01*
X168433473Y-61747642D01*
X168439923Y-61748320D01*
X168439936Y-61748321D01*
X168448095Y-61749178D01*
X168500000Y-61754634D01*
X168551904Y-61749178D01*
X168560064Y-61748321D01*
X168564723Y-61747831D01*
X168566523Y-61747642D01*
X168584239Y-61747642D01*
X168599354Y-61744191D01*
X168656897Y-61738143D01*
X168730187Y-61714329D01*
X168748493Y-61710152D01*
X168759788Y-61704711D01*
X168806937Y-61689392D01*
X168884059Y-61644865D01*
X168900287Y-61637052D01*
X168907347Y-61631420D01*
X168943563Y-61610512D01*
X169021009Y-61540778D01*
X169032008Y-61532008D01*
X169035205Y-61527996D01*
X169060802Y-61504949D01*
X169134719Y-61403210D01*
X169137052Y-61400287D01*
X169137462Y-61399435D01*
X169153532Y-61377317D01*
X169217700Y-61233195D01*
X169250500Y-61078881D01*
X169250500Y-61000000D01*
X169250500Y-60999500D01*
X169250500Y-55999793D01*
X169250500Y-55921119D01*
X169217700Y-55766805D01*
X169217698Y-55766799D01*
X169153533Y-55622685D01*
X169153532Y-55622683D01*
X169137461Y-55600563D01*
X169137052Y-55599713D01*
X169134707Y-55596772D01*
X169133062Y-55594508D01*
X169133061Y-55594507D01*
X169060805Y-55495054D01*
X169060802Y-55495051D01*
X169040417Y-55476696D01*
X169035212Y-55472009D01*
X169032008Y-55467992D01*
X169021003Y-55459216D01*
X169018239Y-55456727D01*
X168960935Y-55405130D01*
X168943563Y-55389488D01*
X168943560Y-55389486D01*
X168943557Y-55389484D01*
X168915400Y-55373227D01*
X168915400Y-55373228D01*
X168907350Y-55368580D01*
X168900287Y-55362948D01*
X168884044Y-55355125D01*
X168883355Y-55354727D01*
X168806937Y-55310608D01*
X168806927Y-55310604D01*
X168767741Y-55297871D01*
X168759785Y-55295286D01*
X168748493Y-55289848D01*
X168730191Y-55285670D01*
X168724883Y-55283946D01*
X168656898Y-55261857D01*
X168656896Y-55261856D01*
X168606747Y-55256584D01*
X168606747Y-55256585D01*
X168599355Y-55255808D01*
X168584239Y-55252358D01*
X168566526Y-55252358D01*
X168560065Y-55251679D01*
X168560064Y-55251679D01*
X168500000Y-55245366D01*
X168439936Y-55251679D01*
X168439933Y-55251679D01*
X168433471Y-55252358D01*
X168415761Y-55252358D01*
X168400652Y-55255806D01*
X168393253Y-55256584D01*
X168393252Y-55256583D01*
X168343105Y-55261856D01*
X168275107Y-55283949D01*
X168269806Y-55285671D01*
X168251507Y-55289848D01*
X168240213Y-55295286D01*
X168232260Y-55297871D01*
X168232257Y-55297871D01*
X168193065Y-55310607D01*
X168193058Y-55310610D01*
X168119963Y-55352811D01*
X168119962Y-55352810D01*
X168115925Y-55355140D01*
X168099713Y-55362948D01*
X168092657Y-55368574D01*
X168084610Y-55373221D01*
X168084605Y-55373225D01*
X168056436Y-55389488D01*
X167981752Y-55456732D01*
X167981753Y-55456733D01*
X167978985Y-55459225D01*
X167967992Y-55467992D01*
X167964790Y-55472006D01*
X167957197Y-55478844D01*
X167957194Y-55478845D01*
X167939200Y-55495048D01*
X167939192Y-55495057D01*
X167866932Y-55594516D01*
X167866925Y-55594526D01*
X167865286Y-55596780D01*
X167862948Y-55599713D01*
X167862540Y-55600559D01*
X167859186Y-55605175D01*
X167859175Y-55605192D01*
X167846466Y-55622685D01*
X167782301Y-55766799D01*
X167782299Y-55766805D01*
X167749500Y-55921119D01*
X166323344Y-55921119D01*
X166325295Y-55902018D01*
X166325295Y-55902016D01*
X166325498Y-55900025D01*
X166325500Y-55900009D01*
X166325499Y-55099992D01*
X166318317Y-55029689D01*
X166314999Y-54997203D01*
X166314998Y-54997200D01*
X166298746Y-54948154D01*
X166259814Y-54830666D01*
X166167712Y-54681344D01*
X166043656Y-54557288D01*
X165894334Y-54465186D01*
X165727797Y-54410001D01*
X165727795Y-54410000D01*
X165625010Y-54399500D01*
X164274998Y-54399500D01*
X164274981Y-54399501D01*
X164172203Y-54410000D01*
X164172200Y-54410001D01*
X164005668Y-54465185D01*
X164005663Y-54465187D01*
X163856342Y-54557289D01*
X163732289Y-54681342D01*
X163640187Y-54830663D01*
X163640186Y-54830666D01*
X163585001Y-54997203D01*
X163585001Y-54997204D01*
X163585000Y-54997204D01*
X163574500Y-55099983D01*
X160060940Y-55099983D01*
X159992047Y-55007955D01*
X159992044Y-55007952D01*
X159876835Y-54921706D01*
X159876828Y-54921702D01*
X159741982Y-54871408D01*
X159741983Y-54871408D01*
X159682383Y-54865001D01*
X159682381Y-54865000D01*
X159682373Y-54865000D01*
X159682364Y-54865000D01*
X158317629Y-54865000D01*
X158317623Y-54865001D01*
X158258016Y-54871408D01*
X158123171Y-54921702D01*
X158123164Y-54921706D01*
X158007955Y-55007952D01*
X158007952Y-55007955D01*
X157921706Y-55123164D01*
X157921702Y-55123171D01*
X157871408Y-55258017D01*
X157865754Y-55310610D01*
X157865001Y-55317623D01*
X157865000Y-55317635D01*
X157865000Y-55790464D01*
X157845315Y-55857503D01*
X157792511Y-55903258D01*
X157723353Y-55913202D01*
X157659797Y-55884177D01*
X157622023Y-55825399D01*
X157618527Y-55809862D01*
X157606565Y-55734340D01*
X157551380Y-55564500D01*
X157470309Y-55405389D01*
X157460989Y-55392562D01*
X157460989Y-55392561D01*
X156870000Y-55983551D01*
X156870000Y-55951289D01*
X156844785Y-55857185D01*
X156796074Y-55772814D01*
X156727186Y-55703926D01*
X156642815Y-55655215D01*
X156548711Y-55630000D01*
X156516447Y-55630000D01*
X157107436Y-55039010D01*
X157107436Y-55039007D01*
X157094612Y-55029691D01*
X157094606Y-55029687D01*
X156935499Y-54948619D01*
X156765659Y-54893434D01*
X156589292Y-54865500D01*
X156410708Y-54865500D01*
X156234340Y-54893434D01*
X156064500Y-54948619D01*
X155905391Y-55029689D01*
X155892561Y-55039009D01*
X156483554Y-55630000D01*
X156451289Y-55630000D01*
X156357185Y-55655215D01*
X156272814Y-55703926D01*
X156203926Y-55772814D01*
X156155215Y-55857185D01*
X156130000Y-55951289D01*
X156130000Y-55983552D01*
X155539009Y-55392561D01*
X155529689Y-55405391D01*
X155448619Y-55564500D01*
X155393434Y-55734340D01*
X155365500Y-55910707D01*
X100134500Y-55910707D01*
X100106565Y-55734340D01*
X100051380Y-55564500D01*
X99970309Y-55405389D01*
X99960989Y-55392562D01*
X99960989Y-55392561D01*
X99370000Y-55983551D01*
X99370000Y-55951289D01*
X99344785Y-55857185D01*
X99296074Y-55772814D01*
X99227186Y-55703926D01*
X99142815Y-55655215D01*
X99048711Y-55630000D01*
X99016447Y-55630000D01*
X99607436Y-55039010D01*
X99607436Y-55039007D01*
X99594612Y-55029691D01*
X99594606Y-55029687D01*
X99435499Y-54948619D01*
X99265659Y-54893434D01*
X99089292Y-54865500D01*
X98910708Y-54865500D01*
X98734340Y-54893434D01*
X98564500Y-54948619D01*
X98405391Y-55029689D01*
X98392561Y-55039009D01*
X98983554Y-55630000D01*
X98951289Y-55630000D01*
X98857185Y-55655215D01*
X98772814Y-55703926D01*
X98703926Y-55772814D01*
X98655215Y-55857185D01*
X98630000Y-55951289D01*
X98630000Y-55983552D01*
X98039009Y-55392561D01*
X98029689Y-55405391D01*
X97948619Y-55564500D01*
X97893434Y-55734340D01*
X97872726Y-55865084D01*
X97842797Y-55928219D01*
X97783485Y-55965150D01*
X97713622Y-55964152D01*
X97655390Y-55925542D01*
X97627780Y-55865084D01*
X97607053Y-55734219D01*
X97565129Y-55605192D01*
X97551846Y-55564311D01*
X97551844Y-55564308D01*
X97551844Y-55564306D01*
X97508298Y-55478844D01*
X97470739Y-55405130D01*
X97434419Y-55355140D01*
X97365735Y-55260603D01*
X97365731Y-55260598D01*
X97239401Y-55134268D01*
X97239396Y-55134264D01*
X97094873Y-55029263D01*
X97094872Y-55029262D01*
X97094870Y-55029261D01*
X97031947Y-54997200D01*
X96935693Y-54948155D01*
X96765780Y-54892946D01*
X96589331Y-54865000D01*
X96589326Y-54865000D01*
X96410674Y-54865000D01*
X96410669Y-54865000D01*
X96234219Y-54892946D01*
X96064306Y-54948155D01*
X95905126Y-55029263D01*
X95760603Y-55134264D01*
X95760598Y-55134268D01*
X95634268Y-55260598D01*
X95634264Y-55260603D01*
X95529263Y-55405126D01*
X95448155Y-55564306D01*
X95392946Y-55734219D01*
X95365000Y-55910668D01*
X92750500Y-55910668D01*
X92750500Y-51401577D01*
X106499500Y-51401577D01*
X106499500Y-51598422D01*
X106530290Y-51792826D01*
X106591117Y-51980029D01*
X106680476Y-52155405D01*
X106796172Y-52314646D01*
X106935354Y-52453828D01*
X107094595Y-52569524D01*
X107177455Y-52611743D01*
X107269970Y-52658882D01*
X107269972Y-52658882D01*
X107269975Y-52658884D01*
X107370317Y-52691487D01*
X107457173Y-52719709D01*
X107651578Y-52750500D01*
X107651583Y-52750500D01*
X107848422Y-52750500D01*
X108042826Y-52719709D01*
X108230025Y-52658884D01*
X108405405Y-52569524D01*
X108564646Y-52453828D01*
X108703828Y-52314646D01*
X108819524Y-52155405D01*
X108908884Y-51980025D01*
X108969709Y-51792826D01*
X109000500Y-51598422D01*
X109000500Y-51401577D01*
X146499500Y-51401577D01*
X146499500Y-51598422D01*
X146530290Y-51792826D01*
X146591117Y-51980029D01*
X146680476Y-52155405D01*
X146796172Y-52314646D01*
X146935354Y-52453828D01*
X147094595Y-52569524D01*
X147177455Y-52611743D01*
X147269970Y-52658882D01*
X147269972Y-52658882D01*
X147269975Y-52658884D01*
X147370317Y-52691487D01*
X147457173Y-52719709D01*
X147651578Y-52750500D01*
X147651583Y-52750500D01*
X147848422Y-52750500D01*
X148042826Y-52719709D01*
X148230025Y-52658884D01*
X148405405Y-52569524D01*
X148564646Y-52453828D01*
X148703828Y-52314646D01*
X148819524Y-52155405D01*
X148908884Y-51980025D01*
X148969709Y-51792826D01*
X149000500Y-51598422D01*
X149000500Y-51401577D01*
X148969709Y-51207173D01*
X148908882Y-51019970D01*
X148819523Y-50844594D01*
X148703828Y-50685354D01*
X148564646Y-50546172D01*
X148405405Y-50430476D01*
X148230029Y-50341117D01*
X148042826Y-50280290D01*
X147848422Y-50249500D01*
X147848417Y-50249500D01*
X147651583Y-50249500D01*
X147651578Y-50249500D01*
X147457173Y-50280290D01*
X147269970Y-50341117D01*
X147094594Y-50430476D01*
X147003741Y-50496485D01*
X146935354Y-50546172D01*
X146935352Y-50546174D01*
X146935351Y-50546174D01*
X146796174Y-50685351D01*
X146796174Y-50685352D01*
X146796172Y-50685354D01*
X146746485Y-50753741D01*
X146680476Y-50844594D01*
X146591117Y-51019970D01*
X146530290Y-51207173D01*
X146499500Y-51401577D01*
X109000500Y-51401577D01*
X108969709Y-51207173D01*
X108908882Y-51019970D01*
X108819523Y-50844594D01*
X108703828Y-50685354D01*
X108564646Y-50546172D01*
X108405405Y-50430476D01*
X108230029Y-50341117D01*
X108042826Y-50280290D01*
X107848422Y-50249500D01*
X107848417Y-50249500D01*
X107651583Y-50249500D01*
X107651578Y-50249500D01*
X107457173Y-50280290D01*
X107269970Y-50341117D01*
X107094594Y-50430476D01*
X107003741Y-50496485D01*
X106935354Y-50546172D01*
X106935352Y-50546174D01*
X106935351Y-50546174D01*
X106796174Y-50685351D01*
X106796174Y-50685352D01*
X106796172Y-50685354D01*
X106746485Y-50753741D01*
X106680476Y-50844594D01*
X106591117Y-51019970D01*
X106530290Y-51207173D01*
X106499500Y-51401577D01*
X92750500Y-51401577D01*
X92750500Y-48624500D01*
X92770185Y-48557461D01*
X92822989Y-48511706D01*
X92874500Y-48500500D01*
X170625500Y-48500500D01*
X170692539Y-48520185D01*
G37*
%TD.AperFunction*%
%TD*%
M02*
