%TF.GenerationSoftware,KiCad,Pcbnew,10.0.4*%
%TF.CreationDate,2026-07-06T13:46:38+02:00*%
%TF.ProjectId,snimac,736e696d-6163-42e6-9b69-6361645f7063,rev?*%
%TF.SameCoordinates,Original*%
%TF.FileFunction,Legend,Top*%
%TF.FilePolarity,Positive*%
%FSLAX46Y46*%
G04 Gerber Fmt 4.6, Leading zero omitted, Abs format (unit mm)*
G04 Created by KiCad (PCBNEW 10.0.4) date 2026-07-06 13:46:38*
%MOMM*%
%LPD*%
G01*
G04 APERTURE LIST*
%ADD10C,0.150000*%
%ADD11C,0.254000*%
%ADD12C,0.120000*%
%ADD13C,0.100000*%
G04 APERTURE END LIST*
D10*
X112562969Y-67869819D02*
X112086779Y-67869819D01*
X112086779Y-67869819D02*
X112086779Y-66869819D01*
X112896303Y-67869819D02*
X112896303Y-66869819D01*
X113372493Y-67869819D02*
X113372493Y-66869819D01*
X113372493Y-66869819D02*
X113705826Y-67584104D01*
X113705826Y-67584104D02*
X114039159Y-66869819D01*
X114039159Y-66869819D02*
X114039159Y-67869819D01*
X114515350Y-67869819D02*
X114515350Y-66869819D01*
X114848683Y-66869819D02*
X115420111Y-66869819D01*
X115134397Y-67869819D02*
X115134397Y-66869819D01*
X116467731Y-67822200D02*
X116610588Y-67869819D01*
X116610588Y-67869819D02*
X116848683Y-67869819D01*
X116848683Y-67869819D02*
X116943921Y-67822200D01*
X116943921Y-67822200D02*
X116991540Y-67774580D01*
X116991540Y-67774580D02*
X117039159Y-67679342D01*
X117039159Y-67679342D02*
X117039159Y-67584104D01*
X117039159Y-67584104D02*
X116991540Y-67488866D01*
X116991540Y-67488866D02*
X116943921Y-67441247D01*
X116943921Y-67441247D02*
X116848683Y-67393628D01*
X116848683Y-67393628D02*
X116658207Y-67346009D01*
X116658207Y-67346009D02*
X116562969Y-67298390D01*
X116562969Y-67298390D02*
X116515350Y-67250771D01*
X116515350Y-67250771D02*
X116467731Y-67155533D01*
X116467731Y-67155533D02*
X116467731Y-67060295D01*
X116467731Y-67060295D02*
X116515350Y-66965057D01*
X116515350Y-66965057D02*
X116562969Y-66917438D01*
X116562969Y-66917438D02*
X116658207Y-66869819D01*
X116658207Y-66869819D02*
X116896302Y-66869819D01*
X116896302Y-66869819D02*
X117039159Y-66917438D01*
X117372493Y-66869819D02*
X117610588Y-67869819D01*
X117610588Y-67869819D02*
X117801064Y-67155533D01*
X117801064Y-67155533D02*
X117991540Y-67869819D01*
X117991540Y-67869819D02*
X118229636Y-66869819D01*
X118610588Y-67869819D02*
X118610588Y-66869819D01*
X118943921Y-66869819D02*
X119515349Y-66869819D01*
X119229635Y-67869819D02*
X119229635Y-66869819D01*
X120420111Y-67774580D02*
X120372492Y-67822200D01*
X120372492Y-67822200D02*
X120229635Y-67869819D01*
X120229635Y-67869819D02*
X120134397Y-67869819D01*
X120134397Y-67869819D02*
X119991540Y-67822200D01*
X119991540Y-67822200D02*
X119896302Y-67726961D01*
X119896302Y-67726961D02*
X119848683Y-67631723D01*
X119848683Y-67631723D02*
X119801064Y-67441247D01*
X119801064Y-67441247D02*
X119801064Y-67298390D01*
X119801064Y-67298390D02*
X119848683Y-67107914D01*
X119848683Y-67107914D02*
X119896302Y-67012676D01*
X119896302Y-67012676D02*
X119991540Y-66917438D01*
X119991540Y-66917438D02*
X120134397Y-66869819D01*
X120134397Y-66869819D02*
X120229635Y-66869819D01*
X120229635Y-66869819D02*
X120372492Y-66917438D01*
X120372492Y-66917438D02*
X120420111Y-66965057D01*
X120848683Y-67869819D02*
X120848683Y-66869819D01*
X120848683Y-67346009D02*
X121420111Y-67346009D01*
X121420111Y-67869819D02*
X121420111Y-66869819D01*
X122658207Y-67869819D02*
X122658207Y-66869819D01*
X122658207Y-66869819D02*
X123039159Y-66869819D01*
X123039159Y-66869819D02*
X123134397Y-66917438D01*
X123134397Y-66917438D02*
X123182016Y-66965057D01*
X123182016Y-66965057D02*
X123229635Y-67060295D01*
X123229635Y-67060295D02*
X123229635Y-67203152D01*
X123229635Y-67203152D02*
X123182016Y-67298390D01*
X123182016Y-67298390D02*
X123134397Y-67346009D01*
X123134397Y-67346009D02*
X123039159Y-67393628D01*
X123039159Y-67393628D02*
X122658207Y-67393628D01*
X124229635Y-67774580D02*
X124182016Y-67822200D01*
X124182016Y-67822200D02*
X124039159Y-67869819D01*
X124039159Y-67869819D02*
X123943921Y-67869819D01*
X123943921Y-67869819D02*
X123801064Y-67822200D01*
X123801064Y-67822200D02*
X123705826Y-67726961D01*
X123705826Y-67726961D02*
X123658207Y-67631723D01*
X123658207Y-67631723D02*
X123610588Y-67441247D01*
X123610588Y-67441247D02*
X123610588Y-67298390D01*
X123610588Y-67298390D02*
X123658207Y-67107914D01*
X123658207Y-67107914D02*
X123705826Y-67012676D01*
X123705826Y-67012676D02*
X123801064Y-66917438D01*
X123801064Y-66917438D02*
X123943921Y-66869819D01*
X123943921Y-66869819D02*
X124039159Y-66869819D01*
X124039159Y-66869819D02*
X124182016Y-66917438D01*
X124182016Y-66917438D02*
X124229635Y-66965057D01*
X124991540Y-67346009D02*
X125134397Y-67393628D01*
X125134397Y-67393628D02*
X125182016Y-67441247D01*
X125182016Y-67441247D02*
X125229635Y-67536485D01*
X125229635Y-67536485D02*
X125229635Y-67679342D01*
X125229635Y-67679342D02*
X125182016Y-67774580D01*
X125182016Y-67774580D02*
X125134397Y-67822200D01*
X125134397Y-67822200D02*
X125039159Y-67869819D01*
X125039159Y-67869819D02*
X124658207Y-67869819D01*
X124658207Y-67869819D02*
X124658207Y-66869819D01*
X124658207Y-66869819D02*
X124991540Y-66869819D01*
X124991540Y-66869819D02*
X125086778Y-66917438D01*
X125086778Y-66917438D02*
X125134397Y-66965057D01*
X125134397Y-66965057D02*
X125182016Y-67060295D01*
X125182016Y-67060295D02*
X125182016Y-67155533D01*
X125182016Y-67155533D02*
X125134397Y-67250771D01*
X125134397Y-67250771D02*
X125086778Y-67298390D01*
X125086778Y-67298390D02*
X124991540Y-67346009D01*
X124991540Y-67346009D02*
X124658207Y-67346009D01*
X126277255Y-66869819D02*
X126610588Y-67869819D01*
X126610588Y-67869819D02*
X126943921Y-66869819D01*
X127277255Y-67346009D02*
X127610588Y-67346009D01*
X127753445Y-67869819D02*
X127277255Y-67869819D01*
X127277255Y-67869819D02*
X127277255Y-66869819D01*
X127277255Y-66869819D02*
X127753445Y-66869819D01*
X128753445Y-67869819D02*
X128420112Y-67393628D01*
X128182017Y-67869819D02*
X128182017Y-66869819D01*
X128182017Y-66869819D02*
X128562969Y-66869819D01*
X128562969Y-66869819D02*
X128658207Y-66917438D01*
X128658207Y-66917438D02*
X128705826Y-66965057D01*
X128705826Y-66965057D02*
X128753445Y-67060295D01*
X128753445Y-67060295D02*
X128753445Y-67203152D01*
X128753445Y-67203152D02*
X128705826Y-67298390D01*
X128705826Y-67298390D02*
X128658207Y-67346009D01*
X128658207Y-67346009D02*
X128562969Y-67393628D01*
X128562969Y-67393628D02*
X128182017Y-67393628D01*
X130467731Y-67869819D02*
X129896303Y-67869819D01*
X130182017Y-67869819D02*
X130182017Y-66869819D01*
X130182017Y-66869819D02*
X130086779Y-67012676D01*
X130086779Y-67012676D02*
X129991541Y-67107914D01*
X129991541Y-67107914D02*
X129896303Y-67155533D01*
X130896303Y-67774580D02*
X130943922Y-67822200D01*
X130943922Y-67822200D02*
X130896303Y-67869819D01*
X130896303Y-67869819D02*
X130848684Y-67822200D01*
X130848684Y-67822200D02*
X130896303Y-67774580D01*
X130896303Y-67774580D02*
X130896303Y-67869819D01*
X131562969Y-66869819D02*
X131658207Y-66869819D01*
X131658207Y-66869819D02*
X131753445Y-66917438D01*
X131753445Y-66917438D02*
X131801064Y-66965057D01*
X131801064Y-66965057D02*
X131848683Y-67060295D01*
X131848683Y-67060295D02*
X131896302Y-67250771D01*
X131896302Y-67250771D02*
X131896302Y-67488866D01*
X131896302Y-67488866D02*
X131848683Y-67679342D01*
X131848683Y-67679342D02*
X131801064Y-67774580D01*
X131801064Y-67774580D02*
X131753445Y-67822200D01*
X131753445Y-67822200D02*
X131658207Y-67869819D01*
X131658207Y-67869819D02*
X131562969Y-67869819D01*
X131562969Y-67869819D02*
X131467731Y-67822200D01*
X131467731Y-67822200D02*
X131420112Y-67774580D01*
X131420112Y-67774580D02*
X131372493Y-67679342D01*
X131372493Y-67679342D02*
X131324874Y-67488866D01*
X131324874Y-67488866D02*
X131324874Y-67250771D01*
X131324874Y-67250771D02*
X131372493Y-67060295D01*
X131372493Y-67060295D02*
X131420112Y-66965057D01*
X131420112Y-66965057D02*
X131467731Y-66917438D01*
X131467731Y-66917438D02*
X131562969Y-66869819D01*
X103833333Y-62204819D02*
X103500000Y-61728628D01*
X103261905Y-62204819D02*
X103261905Y-61204819D01*
X103261905Y-61204819D02*
X103642857Y-61204819D01*
X103642857Y-61204819D02*
X103738095Y-61252438D01*
X103738095Y-61252438D02*
X103785714Y-61300057D01*
X103785714Y-61300057D02*
X103833333Y-61395295D01*
X103833333Y-61395295D02*
X103833333Y-61538152D01*
X103833333Y-61538152D02*
X103785714Y-61633390D01*
X103785714Y-61633390D02*
X103738095Y-61681009D01*
X103738095Y-61681009D02*
X103642857Y-61728628D01*
X103642857Y-61728628D02*
X103261905Y-61728628D01*
X104690476Y-61538152D02*
X104690476Y-62204819D01*
X104452381Y-61157200D02*
X104214286Y-61871485D01*
X104214286Y-61871485D02*
X104833333Y-61871485D01*
D11*
X157629047Y-53695270D02*
X157508095Y-53634794D01*
X157508095Y-53634794D02*
X157387142Y-53513842D01*
X157387142Y-53513842D02*
X157205714Y-53332413D01*
X157205714Y-53332413D02*
X157084761Y-53271937D01*
X157084761Y-53271937D02*
X156963809Y-53271937D01*
X157024285Y-53574318D02*
X156903333Y-53513842D01*
X156903333Y-53513842D02*
X156782380Y-53392889D01*
X156782380Y-53392889D02*
X156721904Y-53150984D01*
X156721904Y-53150984D02*
X156721904Y-52727651D01*
X156721904Y-52727651D02*
X156782380Y-52485746D01*
X156782380Y-52485746D02*
X156903333Y-52364794D01*
X156903333Y-52364794D02*
X157024285Y-52304318D01*
X157024285Y-52304318D02*
X157266190Y-52304318D01*
X157266190Y-52304318D02*
X157387142Y-52364794D01*
X157387142Y-52364794D02*
X157508095Y-52485746D01*
X157508095Y-52485746D02*
X157568571Y-52727651D01*
X157568571Y-52727651D02*
X157568571Y-53150984D01*
X157568571Y-53150984D02*
X157508095Y-53392889D01*
X157508095Y-53392889D02*
X157387142Y-53513842D01*
X157387142Y-53513842D02*
X157266190Y-53574318D01*
X157266190Y-53574318D02*
X157024285Y-53574318D01*
X158052380Y-52425270D02*
X158112856Y-52364794D01*
X158112856Y-52364794D02*
X158233809Y-52304318D01*
X158233809Y-52304318D02*
X158536190Y-52304318D01*
X158536190Y-52304318D02*
X158657142Y-52364794D01*
X158657142Y-52364794D02*
X158717618Y-52425270D01*
X158717618Y-52425270D02*
X158778095Y-52546222D01*
X158778095Y-52546222D02*
X158778095Y-52667175D01*
X158778095Y-52667175D02*
X158717618Y-52848603D01*
X158717618Y-52848603D02*
X157991904Y-53574318D01*
X157991904Y-53574318D02*
X158778095Y-53574318D01*
D10*
X166316666Y-64204819D02*
X166316666Y-64919104D01*
X166316666Y-64919104D02*
X166269047Y-65061961D01*
X166269047Y-65061961D02*
X166173809Y-65157200D01*
X166173809Y-65157200D02*
X166030952Y-65204819D01*
X166030952Y-65204819D02*
X165935714Y-65204819D01*
X167316666Y-65204819D02*
X166745238Y-65204819D01*
X167030952Y-65204819D02*
X167030952Y-64204819D01*
X167030952Y-64204819D02*
X166935714Y-64347676D01*
X166935714Y-64347676D02*
X166840476Y-64442914D01*
X166840476Y-64442914D02*
X166745238Y-64490533D01*
X151333333Y-55704819D02*
X151000000Y-55228628D01*
X150761905Y-55704819D02*
X150761905Y-54704819D01*
X150761905Y-54704819D02*
X151142857Y-54704819D01*
X151142857Y-54704819D02*
X151238095Y-54752438D01*
X151238095Y-54752438D02*
X151285714Y-54800057D01*
X151285714Y-54800057D02*
X151333333Y-54895295D01*
X151333333Y-54895295D02*
X151333333Y-55038152D01*
X151333333Y-55038152D02*
X151285714Y-55133390D01*
X151285714Y-55133390D02*
X151238095Y-55181009D01*
X151238095Y-55181009D02*
X151142857Y-55228628D01*
X151142857Y-55228628D02*
X150761905Y-55228628D01*
X151666667Y-54704819D02*
X152285714Y-54704819D01*
X152285714Y-54704819D02*
X151952381Y-55085771D01*
X151952381Y-55085771D02*
X152095238Y-55085771D01*
X152095238Y-55085771D02*
X152190476Y-55133390D01*
X152190476Y-55133390D02*
X152238095Y-55181009D01*
X152238095Y-55181009D02*
X152285714Y-55276247D01*
X152285714Y-55276247D02*
X152285714Y-55514342D01*
X152285714Y-55514342D02*
X152238095Y-55609580D01*
X152238095Y-55609580D02*
X152190476Y-55657200D01*
X152190476Y-55657200D02*
X152095238Y-55704819D01*
X152095238Y-55704819D02*
X151809524Y-55704819D01*
X151809524Y-55704819D02*
X151714286Y-55657200D01*
X151714286Y-55657200D02*
X151666667Y-55609580D01*
D11*
X97629047Y-53695270D02*
X97508095Y-53634794D01*
X97508095Y-53634794D02*
X97387142Y-53513842D01*
X97387142Y-53513842D02*
X97205714Y-53332413D01*
X97205714Y-53332413D02*
X97084761Y-53271937D01*
X97084761Y-53271937D02*
X96963809Y-53271937D01*
X97024285Y-53574318D02*
X96903333Y-53513842D01*
X96903333Y-53513842D02*
X96782380Y-53392889D01*
X96782380Y-53392889D02*
X96721904Y-53150984D01*
X96721904Y-53150984D02*
X96721904Y-52727651D01*
X96721904Y-52727651D02*
X96782380Y-52485746D01*
X96782380Y-52485746D02*
X96903333Y-52364794D01*
X96903333Y-52364794D02*
X97024285Y-52304318D01*
X97024285Y-52304318D02*
X97266190Y-52304318D01*
X97266190Y-52304318D02*
X97387142Y-52364794D01*
X97387142Y-52364794D02*
X97508095Y-52485746D01*
X97508095Y-52485746D02*
X97568571Y-52727651D01*
X97568571Y-52727651D02*
X97568571Y-53150984D01*
X97568571Y-53150984D02*
X97508095Y-53392889D01*
X97508095Y-53392889D02*
X97387142Y-53513842D01*
X97387142Y-53513842D02*
X97266190Y-53574318D01*
X97266190Y-53574318D02*
X97024285Y-53574318D01*
X98778095Y-53574318D02*
X98052380Y-53574318D01*
X98415237Y-53574318D02*
X98415237Y-52304318D01*
X98415237Y-52304318D02*
X98294285Y-52485746D01*
X98294285Y-52485746D02*
X98173333Y-52606699D01*
X98173333Y-52606699D02*
X98052380Y-52667175D01*
D10*
X103833333Y-55704819D02*
X103500000Y-55228628D01*
X103261905Y-55704819D02*
X103261905Y-54704819D01*
X103261905Y-54704819D02*
X103642857Y-54704819D01*
X103642857Y-54704819D02*
X103738095Y-54752438D01*
X103738095Y-54752438D02*
X103785714Y-54800057D01*
X103785714Y-54800057D02*
X103833333Y-54895295D01*
X103833333Y-54895295D02*
X103833333Y-55038152D01*
X103833333Y-55038152D02*
X103785714Y-55133390D01*
X103785714Y-55133390D02*
X103738095Y-55181009D01*
X103738095Y-55181009D02*
X103642857Y-55228628D01*
X103642857Y-55228628D02*
X103261905Y-55228628D01*
X104785714Y-55704819D02*
X104214286Y-55704819D01*
X104500000Y-55704819D02*
X104500000Y-54704819D01*
X104500000Y-54704819D02*
X104404762Y-54847676D01*
X104404762Y-54847676D02*
X104309524Y-54942914D01*
X104309524Y-54942914D02*
X104214286Y-54990533D01*
X151333333Y-62204819D02*
X151000000Y-61728628D01*
X150761905Y-62204819D02*
X150761905Y-61204819D01*
X150761905Y-61204819D02*
X151142857Y-61204819D01*
X151142857Y-61204819D02*
X151238095Y-61252438D01*
X151238095Y-61252438D02*
X151285714Y-61300057D01*
X151285714Y-61300057D02*
X151333333Y-61395295D01*
X151333333Y-61395295D02*
X151333333Y-61538152D01*
X151333333Y-61538152D02*
X151285714Y-61633390D01*
X151285714Y-61633390D02*
X151238095Y-61681009D01*
X151238095Y-61681009D02*
X151142857Y-61728628D01*
X151142857Y-61728628D02*
X150761905Y-61728628D01*
X151714286Y-61300057D02*
X151761905Y-61252438D01*
X151761905Y-61252438D02*
X151857143Y-61204819D01*
X151857143Y-61204819D02*
X152095238Y-61204819D01*
X152095238Y-61204819D02*
X152190476Y-61252438D01*
X152190476Y-61252438D02*
X152238095Y-61300057D01*
X152238095Y-61300057D02*
X152285714Y-61395295D01*
X152285714Y-61395295D02*
X152285714Y-61490533D01*
X152285714Y-61490533D02*
X152238095Y-61633390D01*
X152238095Y-61633390D02*
X151666667Y-62204819D01*
X151666667Y-62204819D02*
X152285714Y-62204819D01*
%TO.C,R4*%
D12*
X104227064Y-59265000D02*
X103772936Y-59265000D01*
X104227064Y-60735000D02*
X103772936Y-60735000D01*
%TO.C,Q2*%
D13*
X159000000Y-54750000D02*
X159000000Y-54750000D01*
X159000000Y-54850000D02*
X159000000Y-54850000D01*
X159000000Y-54750000D02*
G75*
G02*
X159000000Y-54850000I0J-50000D01*
G01*
X159000000Y-54850000D02*
G75*
G02*
X159000000Y-54750000I0J50000D01*
G01*
%TO.C,J1*%
D12*
X162650000Y-54050000D02*
X162650000Y-62950000D01*
X162650000Y-56400000D02*
X163150000Y-56400000D01*
X162650000Y-56500000D02*
X163150000Y-56500000D01*
X162650000Y-58400000D02*
X163150000Y-58400000D01*
X162650000Y-58500000D02*
X163150000Y-58500000D01*
X162650000Y-60400000D02*
X163150000Y-60400000D01*
X162650000Y-60500000D02*
X163150000Y-60500000D01*
X162650000Y-62950000D02*
X166150000Y-62950000D01*
X163150000Y-56400000D02*
X163150000Y-56600000D01*
X163150000Y-56600000D02*
X162650000Y-56600000D01*
X163150000Y-58400000D02*
X163150000Y-58600000D01*
X163150000Y-58600000D02*
X162650000Y-58600000D01*
X163150000Y-60400000D02*
X163150000Y-60600000D01*
X163150000Y-60600000D02*
X162650000Y-60600000D01*
X164150000Y-53440000D02*
X164150000Y-54050000D01*
X164150000Y-63560000D02*
X164150000Y-62950000D01*
X165450000Y-53440000D02*
X165450000Y-54050000D01*
X165450000Y-63560000D02*
X165450000Y-62950000D01*
X166150000Y-54050000D02*
X162650000Y-54050000D01*
X166150000Y-56000000D02*
X166150000Y-54050000D01*
X166150000Y-61000000D02*
X166760000Y-61000000D01*
X166150000Y-62950000D02*
X166150000Y-61000000D01*
X166760000Y-55200000D02*
X166960000Y-55200000D01*
X166760000Y-56000000D02*
X166150000Y-56000000D01*
X166860000Y-55200000D02*
X166860000Y-54900000D01*
X166960000Y-54900000D02*
X166760000Y-54900000D01*
X166960000Y-55200000D02*
X166960000Y-54900000D01*
X167060000Y-53140000D02*
X165810000Y-53140000D01*
X167060000Y-54390000D02*
X167060000Y-53140000D01*
X162040000Y-53440000D02*
X166760000Y-53440000D01*
X166760000Y-63560000D01*
X162040000Y-63560000D01*
X162040000Y-53440000D01*
%TO.C,R3*%
X151272936Y-56265000D02*
X151727064Y-56265000D01*
X151272936Y-57735000D02*
X151727064Y-57735000D01*
%TO.C,Q1*%
D13*
X96500000Y-62150000D02*
X96500000Y-62150000D01*
X96500000Y-62250000D02*
X96500000Y-62250000D01*
X96500000Y-62150000D02*
G75*
G02*
X96500000Y-62250000I0J-50000D01*
G01*
X96500000Y-62250000D02*
G75*
G02*
X96500000Y-62150000I0J50000D01*
G01*
%TO.C,R1*%
D12*
X104227064Y-56265000D02*
X103772936Y-56265000D01*
X104227064Y-57735000D02*
X103772936Y-57735000D01*
%TO.C,R2*%
X151272936Y-59265000D02*
X151727064Y-59265000D01*
X151272936Y-60735000D02*
X151727064Y-60735000D01*
%TD*%
M02*
